<?xml version="1.0" encoding="utf-8" standalone="no"?>
<!DOCTYPE svg PUBLIC "-//W3C//DTD SVG 1.1//EN"
  "http://www.w3.org/Graphics/SVG/1.1/DTD/svg11.dtd">
<svg xmlns:xlink="http://www.w3.org/1999/xlink" width="576pt" height="864pt" viewBox="0 0 576 864" xmlns="http://www.w3.org/2000/svg" version="1.1">
 <metadata>
  <rdf:RDF xmlns:dc="http://purl.org/dc/elements/1.1/" xmlns:cc="http://creativecommons.org/ns#" xmlns:rdf="http://www.w3.org/1999/02/22-rdf-syntax-ns#">
   <cc:Work>
    <dc:type rdf:resource="http://purl.org/dc/dcmitype/StillImage"/>
    <dc:date>2024-02-04T00:43:38.205323</dc:date>
    <dc:format>image/svg+xml</dc:format>
    <dc:creator>
     <cc:Agent>
      <dc:title>Matplotlib v3.8.2, https://matplotlib.org/</dc:title>
     </cc:Agent>
    </dc:creator>
   </cc:Work>
  </rdf:RDF>
 </metadata>
 <defs>
  <style type="text/css">*{stroke-linejoin: round; stroke-linecap: butt}</style>
 </defs>
 <g id="figure_1">
  <g id="patch_1">
   <path d="M 0 864 
L 576 864 
L 576 0 
L 0 0 
z
" style="fill: #ffffff"/>
  </g>
  <g id="axes_1">
   <g id="patch_2">
    <path d="M 43.18 225.745464 
L 565.2 225.745464 
L 565.2 26.88 
L 43.18 26.88 
z
" style="fill: #ffffff"/>
   </g>
   <g id="matplotlib.axis_1">
    <g id="xtick_1">
     <g id="line2d_1">
      <defs>
       <path id="mfcef369f2c" d="M 0 0 
L 0 3.5 
" style="stroke: #000000; stroke-width: 0.8"/>
      </defs>
      <g>
       <use xlink:href="#mfcef369f2c" x="81.43564" y="225.745464" style="stroke: #000000; stroke-width: 0.8"/>
      </g>
     </g>
     <g id="text_1">
      <!-- 2023-11-01 -->
      <g transform="translate(57.650524 268.383716) rotate(-30) scale(0.1 -0.1)">
       <defs>
        <path id="DejaVuSans-32" d="M 1228 531 
L 3431 531 
L 3431 0 
L 469 0 
L 469 531 
Q 828 903 1448 1529 
Q 2069 2156 2228 2338 
Q 2531 2678 2651 2914 
Q 2772 3150 2772 3378 
Q 2772 3750 2511 3984 
Q 2250 4219 1831 4219 
Q 1534 4219 1204 4116 
Q 875 4013 500 3803 
L 500 4441 
Q 881 4594 1212 4672 
Q 1544 4750 1819 4750 
Q 2544 4750 2975 4387 
Q 3406 4025 3406 3419 
Q 3406 3131 3298 2873 
Q 3191 2616 2906 2266 
Q 2828 2175 2409 1742 
Q 1991 1309 1228 531 
z
" transform="scale(0.015625)"/>
        <path id="DejaVuSans-30" d="M 2034 4250 
Q 1547 4250 1301 3770 
Q 1056 3291 1056 2328 
Q 1056 1369 1301 889 
Q 1547 409 2034 409 
Q 2525 409 2770 889 
Q 3016 1369 3016 2328 
Q 3016 3291 2770 3770 
Q 2525 4250 2034 4250 
z
M 2034 4750 
Q 2819 4750 3233 4129 
Q 3647 3509 3647 2328 
Q 3647 1150 3233 529 
Q 2819 -91 2034 -91 
Q 1250 -91 836 529 
Q 422 1150 422 2328 
Q 422 3509 836 4129 
Q 1250 4750 2034 4750 
z
" transform="scale(0.015625)"/>
        <path id="DejaVuSans-33" d="M 2597 2516 
Q 3050 2419 3304 2112 
Q 3559 1806 3559 1356 
Q 3559 666 3084 287 
Q 2609 -91 1734 -91 
Q 1441 -91 1130 -33 
Q 819 25 488 141 
L 488 750 
Q 750 597 1062 519 
Q 1375 441 1716 441 
Q 2309 441 2620 675 
Q 2931 909 2931 1356 
Q 2931 1769 2642 2001 
Q 2353 2234 1838 2234 
L 1294 2234 
L 1294 2753 
L 1863 2753 
Q 2328 2753 2575 2939 
Q 2822 3125 2822 3475 
Q 2822 3834 2567 4026 
Q 2313 4219 1838 4219 
Q 1578 4219 1281 4162 
Q 984 4106 628 3988 
L 628 4550 
Q 988 4650 1302 4700 
Q 1616 4750 1894 4750 
Q 2613 4750 3031 4423 
Q 3450 4097 3450 3541 
Q 3450 3153 3228 2886 
Q 3006 2619 2597 2516 
z
" transform="scale(0.015625)"/>
        <path id="DejaVuSans-2d" d="M 313 2009 
L 1997 2009 
L 1997 1497 
L 313 1497 
L 313 2009 
z
" transform="scale(0.015625)"/>
        <path id="DejaVuSans-31" d="M 794 531 
L 1825 531 
L 1825 4091 
L 703 3866 
L 703 4441 
L 1819 4666 
L 2450 4666 
L 2450 531 
L 3481 531 
L 3481 0 
L 794 0 
L 794 531 
z
" transform="scale(0.015625)"/>
       </defs>
       <use xlink:href="#DejaVuSans-32"/>
       <use xlink:href="#DejaVuSans-30" x="63.623047"/>
       <use xlink:href="#DejaVuSans-32" x="127.246094"/>
       <use xlink:href="#DejaVuSans-33" x="190.869141"/>
       <use xlink:href="#DejaVuSans-2d" x="254.492188"/>
       <use xlink:href="#DejaVuSans-31" x="290.576172"/>
       <use xlink:href="#DejaVuSans-31" x="354.199219"/>
       <use xlink:href="#DejaVuSans-2d" x="417.822266"/>
       <use xlink:href="#DejaVuSans-30" x="453.90625"/>
       <use xlink:href="#DejaVuSans-31" x="517.529297"/>
      </g>
     </g>
    </g>
    <g id="xtick_2">
     <g id="line2d_2">
      <g>
       <use xlink:href="#mfcef369f2c" x="149.230445" y="225.745464" style="stroke: #000000; stroke-width: 0.8"/>
      </g>
     </g>
     <g id="text_2">
      <!-- 2023-11-15 -->
      <g transform="translate(125.445329 268.383716) rotate(-30) scale(0.1 -0.1)">
       <defs>
        <path id="DejaVuSans-35" d="M 691 4666 
L 3169 4666 
L 3169 4134 
L 1269 4134 
L 1269 2991 
Q 1406 3038 1543 3061 
Q 1681 3084 1819 3084 
Q 2600 3084 3056 2656 
Q 3513 2228 3513 1497 
Q 3513 744 3044 326 
Q 2575 -91 1722 -91 
Q 1428 -91 1123 -41 
Q 819 9 494 109 
L 494 744 
Q 775 591 1075 516 
Q 1375 441 1709 441 
Q 2250 441 2565 725 
Q 2881 1009 2881 1497 
Q 2881 1984 2565 2268 
Q 2250 2553 1709 2553 
Q 1456 2553 1204 2497 
Q 953 2441 691 2322 
L 691 4666 
z
" transform="scale(0.015625)"/>
       </defs>
       <use xlink:href="#DejaVuSans-32"/>
       <use xlink:href="#DejaVuSans-30" x="63.623047"/>
       <use xlink:href="#DejaVuSans-32" x="127.246094"/>
       <use xlink:href="#DejaVuSans-33" x="190.869141"/>
       <use xlink:href="#DejaVuSans-2d" x="254.492188"/>
       <use xlink:href="#DejaVuSans-31" x="290.576172"/>
       <use xlink:href="#DejaVuSans-31" x="354.199219"/>
       <use xlink:href="#DejaVuSans-2d" x="417.822266"/>
       <use xlink:href="#DejaVuSans-31" x="453.90625"/>
       <use xlink:href="#DejaVuSans-35" x="517.529297"/>
      </g>
     </g>
    </g>
    <g id="xtick_3">
     <g id="line2d_3">
      <g>
       <use xlink:href="#mfcef369f2c" x="226.710223" y="225.745464" style="stroke: #000000; stroke-width: 0.8"/>
      </g>
     </g>
     <g id="text_3">
      <!-- 2023-12-01 -->
      <g transform="translate(202.925106 268.383716) rotate(-30) scale(0.1 -0.1)">
       <use xlink:href="#DejaVuSans-32"/>
       <use xlink:href="#DejaVuSans-30" x="63.623047"/>
       <use xlink:href="#DejaVuSans-32" x="127.246094"/>
       <use xlink:href="#DejaVuSans-33" x="190.869141"/>
       <use xlink:href="#DejaVuSans-2d" x="254.492188"/>
       <use xlink:href="#DejaVuSans-31" x="290.576172"/>
       <use xlink:href="#DejaVuSans-32" x="354.199219"/>
       <use xlink:href="#DejaVuSans-2d" x="417.822266"/>
       <use xlink:href="#DejaVuSans-30" x="453.90625"/>
       <use xlink:href="#DejaVuSans-31" x="517.529297"/>
      </g>
     </g>
    </g>
    <g id="xtick_4">
     <g id="line2d_4">
      <g>
       <use xlink:href="#mfcef369f2c" x="294.505028" y="225.745464" style="stroke: #000000; stroke-width: 0.8"/>
      </g>
     </g>
     <g id="text_4">
      <!-- 2023-12-15 -->
      <g transform="translate(270.719912 268.383716) rotate(-30) scale(0.1 -0.1)">
       <use xlink:href="#DejaVuSans-32"/>
       <use xlink:href="#DejaVuSans-30" x="63.623047"/>
       <use xlink:href="#DejaVuSans-32" x="127.246094"/>
       <use xlink:href="#DejaVuSans-33" x="190.869141"/>
       <use xlink:href="#DejaVuSans-2d" x="254.492188"/>
       <use xlink:href="#DejaVuSans-31" x="290.576172"/>
       <use xlink:href="#DejaVuSans-32" x="354.199219"/>
       <use xlink:href="#DejaVuSans-2d" x="417.822266"/>
       <use xlink:href="#DejaVuSans-31" x="453.90625"/>
       <use xlink:href="#DejaVuSans-35" x="517.529297"/>
      </g>
     </g>
    </g>
    <g id="xtick_5">
     <g id="line2d_5">
      <g>
       <use xlink:href="#mfcef369f2c" x="376.827291" y="225.745464" style="stroke: #000000; stroke-width: 0.8"/>
      </g>
     </g>
     <g id="text_5">
      <!-- 2024-01-01 -->
      <g transform="translate(353.042175 268.383716) rotate(-30) scale(0.1 -0.1)">
       <defs>
        <path id="DejaVuSans-34" d="M 2419 4116 
L 825 1625 
L 2419 1625 
L 2419 4116 
z
M 2253 4666 
L 3047 4666 
L 3047 1625 
L 3713 1625 
L 3713 1100 
L 3047 1100 
L 3047 0 
L 2419 0 
L 2419 1100 
L 313 1100 
L 313 1709 
L 2253 4666 
z
" transform="scale(0.015625)"/>
       </defs>
       <use xlink:href="#DejaVuSans-32"/>
       <use xlink:href="#DejaVuSans-30" x="63.623047"/>
       <use xlink:href="#DejaVuSans-32" x="127.246094"/>
       <use xlink:href="#DejaVuSans-34" x="190.869141"/>
       <use xlink:href="#DejaVuSans-2d" x="254.492188"/>
       <use xlink:href="#DejaVuSans-30" x="290.576172"/>
       <use xlink:href="#DejaVuSans-31" x="354.199219"/>
       <use xlink:href="#DejaVuSans-2d" x="417.822266"/>
       <use xlink:href="#DejaVuSans-30" x="453.90625"/>
       <use xlink:href="#DejaVuSans-31" x="517.529297"/>
      </g>
     </g>
    </g>
    <g id="xtick_6">
     <g id="line2d_6">
      <g>
       <use xlink:href="#mfcef369f2c" x="444.622096" y="225.745464" style="stroke: #000000; stroke-width: 0.8"/>
      </g>
     </g>
     <g id="text_6">
      <!-- 2024-01-15 -->
      <g transform="translate(420.83698 268.383716) rotate(-30) scale(0.1 -0.1)">
       <use xlink:href="#DejaVuSans-32"/>
       <use xlink:href="#DejaVuSans-30" x="63.623047"/>
       <use xlink:href="#DejaVuSans-32" x="127.246094"/>
       <use xlink:href="#DejaVuSans-34" x="190.869141"/>
       <use xlink:href="#DejaVuSans-2d" x="254.492188"/>
       <use xlink:href="#DejaVuSans-30" x="290.576172"/>
       <use xlink:href="#DejaVuSans-31" x="354.199219"/>
       <use xlink:href="#DejaVuSans-2d" x="417.822266"/>
       <use xlink:href="#DejaVuSans-31" x="453.90625"/>
       <use xlink:href="#DejaVuSans-35" x="517.529297"/>
      </g>
     </g>
    </g>
    <g id="xtick_7">
     <g id="line2d_7">
      <g>
       <use xlink:href="#mfcef369f2c" x="526.94436" y="225.745464" style="stroke: #000000; stroke-width: 0.8"/>
      </g>
     </g>
     <g id="text_7">
      <!-- 2024-02-01 -->
      <g transform="translate(503.159244 268.383716) rotate(-30) scale(0.1 -0.1)">
       <use xlink:href="#DejaVuSans-32"/>
       <use xlink:href="#DejaVuSans-30" x="63.623047"/>
       <use xlink:href="#DejaVuSans-32" x="127.246094"/>
       <use xlink:href="#DejaVuSans-34" x="190.869141"/>
       <use xlink:href="#DejaVuSans-2d" x="254.492188"/>
       <use xlink:href="#DejaVuSans-30" x="290.576172"/>
       <use xlink:href="#DejaVuSans-32" x="354.199219"/>
       <use xlink:href="#DejaVuSans-2d" x="417.822266"/>
       <use xlink:href="#DejaVuSans-30" x="453.90625"/>
       <use xlink:href="#DejaVuSans-31" x="517.529297"/>
      </g>
     </g>
    </g>
    <g id="text_8">
     <!-- Price date -->
     <g transform="translate(279.128281 281.783216) scale(0.1 -0.1)">
      <defs>
       <path id="DejaVuSans-50" d="M 1259 4147 
L 1259 2394 
L 2053 2394 
Q 2494 2394 2734 2622 
Q 2975 2850 2975 3272 
Q 2975 3691 2734 3919 
Q 2494 4147 2053 4147 
L 1259 4147 
z
M 628 4666 
L 2053 4666 
Q 2838 4666 3239 4311 
Q 3641 3956 3641 3272 
Q 3641 2581 3239 2228 
Q 2838 1875 2053 1875 
L 1259 1875 
L 1259 0 
L 628 0 
L 628 4666 
z
" transform="scale(0.015625)"/>
       <path id="DejaVuSans-72" d="M 2631 2963 
Q 2534 3019 2420 3045 
Q 2306 3072 2169 3072 
Q 1681 3072 1420 2755 
Q 1159 2438 1159 1844 
L 1159 0 
L 581 0 
L 581 3500 
L 1159 3500 
L 1159 2956 
Q 1341 3275 1631 3429 
Q 1922 3584 2338 3584 
Q 2397 3584 2469 3576 
Q 2541 3569 2628 3553 
L 2631 2963 
z
" transform="scale(0.015625)"/>
       <path id="DejaVuSans-69" d="M 603 3500 
L 1178 3500 
L 1178 0 
L 603 0 
L 603 3500 
z
M 603 4863 
L 1178 4863 
L 1178 4134 
L 603 4134 
L 603 4863 
z
" transform="scale(0.015625)"/>
       <path id="DejaVuSans-63" d="M 3122 3366 
L 3122 2828 
Q 2878 2963 2633 3030 
Q 2388 3097 2138 3097 
Q 1578 3097 1268 2742 
Q 959 2388 959 1747 
Q 959 1106 1268 751 
Q 1578 397 2138 397 
Q 2388 397 2633 464 
Q 2878 531 3122 666 
L 3122 134 
Q 2881 22 2623 -34 
Q 2366 -91 2075 -91 
Q 1284 -91 818 406 
Q 353 903 353 1747 
Q 353 2603 823 3093 
Q 1294 3584 2113 3584 
Q 2378 3584 2631 3529 
Q 2884 3475 3122 3366 
z
" transform="scale(0.015625)"/>
       <path id="DejaVuSans-65" d="M 3597 1894 
L 3597 1613 
L 953 1613 
Q 991 1019 1311 708 
Q 1631 397 2203 397 
Q 2534 397 2845 478 
Q 3156 559 3463 722 
L 3463 178 
Q 3153 47 2828 -22 
Q 2503 -91 2169 -91 
Q 1331 -91 842 396 
Q 353 884 353 1716 
Q 353 2575 817 3079 
Q 1281 3584 2069 3584 
Q 2775 3584 3186 3129 
Q 3597 2675 3597 1894 
z
M 3022 2063 
Q 3016 2534 2758 2815 
Q 2500 3097 2075 3097 
Q 1594 3097 1305 2825 
Q 1016 2553 972 2059 
L 3022 2063 
z
" transform="scale(0.015625)"/>
       <path id="DejaVuSans-20" transform="scale(0.015625)"/>
       <path id="DejaVuSans-64" d="M 2906 2969 
L 2906 4863 
L 3481 4863 
L 3481 0 
L 2906 0 
L 2906 525 
Q 2725 213 2448 61 
Q 2172 -91 1784 -91 
Q 1150 -91 751 415 
Q 353 922 353 1747 
Q 353 2572 751 3078 
Q 1150 3584 1784 3584 
Q 2172 3584 2448 3432 
Q 2725 3281 2906 2969 
z
M 947 1747 
Q 947 1113 1208 752 
Q 1469 391 1925 391 
Q 2381 391 2643 752 
Q 2906 1113 2906 1747 
Q 2906 2381 2643 2742 
Q 2381 3103 1925 3103 
Q 1469 3103 1208 2742 
Q 947 2381 947 1747 
z
" transform="scale(0.015625)"/>
       <path id="DejaVuSans-61" d="M 2194 1759 
Q 1497 1759 1228 1600 
Q 959 1441 959 1056 
Q 959 750 1161 570 
Q 1363 391 1709 391 
Q 2188 391 2477 730 
Q 2766 1069 2766 1631 
L 2766 1759 
L 2194 1759 
z
M 3341 1997 
L 3341 0 
L 2766 0 
L 2766 531 
Q 2569 213 2275 61 
Q 1981 -91 1556 -91 
Q 1019 -91 701 211 
Q 384 513 384 1019 
Q 384 1609 779 1909 
Q 1175 2209 1959 2209 
L 2766 2209 
L 2766 2266 
Q 2766 2663 2505 2880 
Q 2244 3097 1772 3097 
Q 1472 3097 1187 3025 
Q 903 2953 641 2809 
L 641 3341 
Q 956 3463 1253 3523 
Q 1550 3584 1831 3584 
Q 2591 3584 2966 3190 
Q 3341 2797 3341 1997 
z
" transform="scale(0.015625)"/>
       <path id="DejaVuSans-74" d="M 1172 4494 
L 1172 3500 
L 2356 3500 
L 2356 3053 
L 1172 3053 
L 1172 1153 
Q 1172 725 1289 603 
Q 1406 481 1766 481 
L 2356 481 
L 2356 0 
L 1766 0 
Q 1100 0 847 248 
Q 594 497 594 1153 
L 594 3053 
L 172 3053 
L 172 3500 
L 594 3500 
L 594 4494 
L 1172 4494 
z
" transform="scale(0.015625)"/>
      </defs>
      <use xlink:href="#DejaVuSans-50"/>
      <use xlink:href="#DejaVuSans-72" x="58.552734"/>
      <use xlink:href="#DejaVuSans-69" x="99.666016"/>
      <use xlink:href="#DejaVuSans-63" x="127.449219"/>
      <use xlink:href="#DejaVuSans-65" x="182.429688"/>
      <use xlink:href="#DejaVuSans-20" x="243.953125"/>
      <use xlink:href="#DejaVuSans-64" x="275.740234"/>
      <use xlink:href="#DejaVuSans-61" x="339.216797"/>
      <use xlink:href="#DejaVuSans-74" x="400.496094"/>
      <use xlink:href="#DejaVuSans-65" x="439.705078"/>
     </g>
    </g>
   </g>
   <g id="matplotlib.axis_2">
    <g id="ytick_1">
     <g id="line2d_8">
      <defs>
       <path id="meb47808ef8" d="M 0 0 
L -3.5 0 
" style="stroke: #000000; stroke-width: 0.8"/>
      </defs>
      <g>
       <use xlink:href="#meb47808ef8" x="43.18" y="220.480553" style="stroke: #000000; stroke-width: 0.8"/>
      </g>
     </g>
     <g id="text_9">
      <!-- 1150 -->
      <g transform="translate(10.73 224.279772) scale(0.1 -0.1)">
       <use xlink:href="#DejaVuSans-31"/>
       <use xlink:href="#DejaVuSans-31" x="63.623047"/>
       <use xlink:href="#DejaVuSans-35" x="127.246094"/>
       <use xlink:href="#DejaVuSans-30" x="190.869141"/>
      </g>
     </g>
    </g>
    <g id="ytick_2">
     <g id="line2d_9">
      <g>
       <use xlink:href="#meb47808ef8" x="43.18" y="182.660632" style="stroke: #000000; stroke-width: 0.8"/>
      </g>
     </g>
     <g id="text_10">
      <!-- 1200 -->
      <g transform="translate(10.73 186.459851) scale(0.1 -0.1)">
       <use xlink:href="#DejaVuSans-31"/>
       <use xlink:href="#DejaVuSans-32" x="63.623047"/>
       <use xlink:href="#DejaVuSans-30" x="127.246094"/>
       <use xlink:href="#DejaVuSans-30" x="190.869141"/>
      </g>
     </g>
    </g>
    <g id="ytick_3">
     <g id="line2d_10">
      <g>
       <use xlink:href="#meb47808ef8" x="43.18" y="144.840711" style="stroke: #000000; stroke-width: 0.8"/>
      </g>
     </g>
     <g id="text_11">
      <!-- 1250 -->
      <g transform="translate(10.73 148.63993) scale(0.1 -0.1)">
       <use xlink:href="#DejaVuSans-31"/>
       <use xlink:href="#DejaVuSans-32" x="63.623047"/>
       <use xlink:href="#DejaVuSans-35" x="127.246094"/>
       <use xlink:href="#DejaVuSans-30" x="190.869141"/>
      </g>
     </g>
    </g>
    <g id="ytick_4">
     <g id="line2d_11">
      <g>
       <use xlink:href="#meb47808ef8" x="43.18" y="107.02079" style="stroke: #000000; stroke-width: 0.8"/>
      </g>
     </g>
     <g id="text_12">
      <!-- 1300 -->
      <g transform="translate(10.73 110.820009) scale(0.1 -0.1)">
       <use xlink:href="#DejaVuSans-31"/>
       <use xlink:href="#DejaVuSans-33" x="63.623047"/>
       <use xlink:href="#DejaVuSans-30" x="127.246094"/>
       <use xlink:href="#DejaVuSans-30" x="190.869141"/>
      </g>
     </g>
    </g>
    <g id="ytick_5">
     <g id="line2d_12">
      <g>
       <use xlink:href="#meb47808ef8" x="43.18" y="69.20087" style="stroke: #000000; stroke-width: 0.8"/>
      </g>
     </g>
     <g id="text_13">
      <!-- 1350 -->
      <g transform="translate(10.73 73.000088) scale(0.1 -0.1)">
       <use xlink:href="#DejaVuSans-31"/>
       <use xlink:href="#DejaVuSans-33" x="63.623047"/>
       <use xlink:href="#DejaVuSans-35" x="127.246094"/>
       <use xlink:href="#DejaVuSans-30" x="190.869141"/>
      </g>
     </g>
    </g>
    <g id="ytick_6">
     <g id="line2d_13">
      <g>
       <use xlink:href="#meb47808ef8" x="43.18" y="31.380949" style="stroke: #000000; stroke-width: 0.8"/>
      </g>
     </g>
     <g id="text_14">
      <!-- 1400 -->
      <g transform="translate(10.73 35.180168) scale(0.1 -0.1)">
       <use xlink:href="#DejaVuSans-31"/>
       <use xlink:href="#DejaVuSans-34" x="63.623047"/>
       <use xlink:href="#DejaVuSans-30" x="127.246094"/>
       <use xlink:href="#DejaVuSans-30" x="190.869141"/>
      </g>
     </g>
    </g>
   </g>
   <g id="line2d_14">
    <path d="M 100.805584 152.412259 
L 105.648071 152.412259 
L 110.490557 152.412259 
L 115.333043 152.412259 
L 120.175529 152.412259 
L 125.018015 152.412259 
L 129.860501 152.412259 
L 134.702987 152.412259 
L 139.545473 152.412259 
L 144.387959 152.412259 
L 149.230445 152.412259 
L 154.072931 152.412259 
L 158.915417 152.412259 
L 163.757904 152.412259 
L 168.60039 152.412259 
L 173.442876 152.412259 
L 178.285362 152.412259 
L 183.127848 152.412259 
L 187.970334 152.412259 
L 192.81282 152.412259 
L 197.655306 152.412259 
L 202.497792 152.412259 
L 207.340278 152.412259 
L 212.182764 152.412259 
L 217.02525 152.412259 
L 221.867737 152.412259 
L 226.710223 152.412259 
L 231.552709 152.412259 
L 236.395195 152.412259 
L 241.237681 152.412259 
L 246.080167 152.412259 
L 250.922653 152.412259 
L 255.765139 152.412259 
L 260.607625 152.412259 
L 265.450111 152.412259 
L 270.292597 152.412259 
L 275.135083 152.412259 
L 279.97757 152.412259 
L 284.820056 152.412259 
L 289.662542 152.412259 
L 294.505028 152.412259 
L 299.347514 152.412259 
L 304.19 152.412259 
L 309.032486 152.412259 
L 313.874972 152.412259 
L 318.717458 152.412259 
L 323.559944 152.412259 
L 328.40243 152.412259 
L 333.244917 152.412259 
L 338.087403 152.412259 
L 342.929889 152.412259 
L 347.772375 152.412259 
L 352.614861 152.412259 
L 357.457347 152.412259 
L 362.299833 152.412259 
L 367.142319 152.412259 
L 371.984805 152.412259 
L 376.827291 152.412259 
M 386.512263 152.412259 
L 391.35475 152.412259 
L 396.197236 152.412259 
L 401.039722 152.412259 
L 405.882208 152.412259 
L 410.724694 152.412259 
L 415.56718 152.412259 
L 420.409666 216.706125 
L 425.252152 216.706125 
L 430.094638 216.706125 
L 434.937124 216.706125 
L 439.77961 216.706125 
L 444.622096 216.706125 
L 449.464583 216.706125 
L 454.307069 216.706125 
L 459.149555 216.706125 
L 463.992041 216.706125 
L 468.834527 216.706125 
L 473.677013 216.706125 
L 478.519499 216.706125 
L 483.361985 216.706125 
L 488.204471 216.706125 
L 497.889443 216.706125 
L 502.731929 216.706125 
L 507.574416 216.706125 
L 512.416902 216.706125 
L 517.259388 216.706125 
L 522.101874 216.706125 
L 526.94436 216.706125 
L 531.786846 216.706125 
L 536.629332 216.706125 
L 541.471818 216.706125 
" clip-path="url(#p1782889a34)" style="fill: none; stroke: #1f77b4; stroke-width: 1.5; stroke-linecap: square"/>
   </g>
   <g id="line2d_15">
    <path d="M 66.908182 35.919339 
L 100.805584 45.752519 
L 105.648071 45.752519 
L 110.490557 45.752519 
L 115.333043 45.752519 
L 120.175529 44.99612 
L 125.018015 45.752519 
L 129.860501 45.752519 
L 134.702987 45.752519 
L 139.545473 45.752519 
L 144.387959 45.752519 
L 149.230445 44.99612 
L 154.072931 45.752519 
L 158.915417 63.149682 
L 163.757904 63.149682 
L 168.60039 63.149682 
L 173.442876 63.149682 
L 178.285362 63.149682 
L 183.127848 63.149682 
L 187.970334 63.149682 
L 192.81282 63.149682 
L 197.655306 63.149682 
L 202.497792 63.149682 
L 207.340278 63.149682 
L 212.182764 59.36769 
L 217.02525 59.36769 
L 221.867737 36.675738 
L 226.710223 58.611292 
L 231.552709 58.611292 
L 236.395195 67.688073 
L 241.237681 67.688073 
L 246.080167 76.764854 
L 250.922653 76.764854 
L 255.765139 108.533587 
L 260.607625 108.533587 
L 265.450111 108.533587 
L 270.292597 108.533587 
L 275.135083 108.533587 
L 279.97757 93.405619 
L 284.820056 93.405619 
L 289.662542 93.405619 
L 294.505028 92.64922 
L 299.347514 92.64922 
L 304.19 85.085236 
L 309.032486 85.085236 
L 313.874972 95.674814 
L 318.717458 93.405619 
L 323.559944 92.64922 
L 328.40243 92.64922 
L 333.244917 92.64922 
L 338.087403 92.64922 
L 342.929889 92.64922 
L 347.772375 92.64922 
L 352.614861 92.64922 
L 357.457347 93.405619 
L 362.299833 101.726001 
L 367.142319 101.726001 
L 371.984805 101.726001 
L 376.827291 101.726001 
L 381.669777 101.726001 
L 386.512263 101.726001 
L 391.35475 101.726001 
L 396.197236 93.405619 
L 401.039722 101.726001 
L 405.882208 101.726001 
L 410.724694 101.726001 
L 415.56718 93.405619 
L 420.409666 97.187611 
L 425.252152 101.726001 
L 430.094638 111.559181 
L 434.937124 111.559181 
L 439.77961 111.559181 
L 444.622096 111.559181 
L 449.464583 111.559181 
L 454.307069 111.559181 
L 459.149555 120.635962 
L 463.992041 129.712743 
L 468.834527 129.712743 
L 473.677013 129.712743 
L 478.519499 129.712743 
L 483.361985 129.712743 
L 488.204471 131.22554 
L 497.889443 138.789524 
" clip-path="url(#p1782889a34)" style="fill: none; stroke: #ff7f0e; stroke-width: 1.5; stroke-linecap: square"/>
   </g>
   <g id="line2d_16">
    <path d="M 100.805584 54.072901 
L 105.648071 54.072901 
L 110.490557 54.072901 
L 115.333043 54.072901 
L 120.175529 54.072901 
L 125.018015 54.072901 
L 129.860501 54.072901 
L 134.702987 54.072901 
L 139.545473 54.072901 
L 144.387959 54.072901 
L 149.230445 54.072901 
L 154.072931 54.072901 
L 158.915417 54.072901 
L 163.757904 54.072901 
L 168.60039 54.072901 
L 173.442876 54.072901 
L 178.285362 87.92173 
L 183.127848 87.92173 
L 187.970334 99.456806 
L 192.81282 99.456806 
L 197.655306 152.404695 
L 202.497792 152.404695 
L 207.340278 152.404695 
L 212.182764 99.456806 
L 217.02525 102.4824 
L 221.867737 91.136424 
L 226.710223 96.431213 
L 231.552709 96.431213 
L 236.395195 96.431213 
L 241.237681 96.431213 
L 246.080167 96.431213 
L 250.922653 96.431213 
L 255.765139 96.431213 
L 260.607625 131.22554 
L 265.450111 131.22554 
L 270.292597 131.22554 
L 275.135083 127.443548 
L 279.97757 113.071978 
L 284.820056 113.071978 
L 289.662542 113.071978 
L 294.505028 183.41703 
L 299.347514 122.148759 
L 304.19 113.828376 
L 309.032486 113.828376 
L 313.874972 115.341173 
L 318.717458 115.341173 
L 323.559944 116.85397 
L 328.40243 116.85397 
L 333.244917 183.41703 
L 338.087403 122.148759 
L 342.929889 122.148759 
L 347.772375 122.148759 
L 352.614861 122.148759 
L 357.457347 122.148759 
L 362.299833 130.469141 
L 367.142319 125.930751 
L 371.984805 125.930751 
L 376.827291 125.930751 
L 381.669777 125.930751 
L 386.512263 125.930751 
L 391.35475 125.930751 
L 396.197236 122.148759 
L 401.039722 122.905157 
L 405.882208 122.905157 
L 410.724694 125.930751 
L 415.56718 130.469141 
L 420.409666 130.469141 
L 425.252152 107.777189 
L 430.094638 111.559181 
L 434.937124 115.341173 
L 439.77961 115.341173 
L 444.622096 115.341173 
L 449.464583 120.635962 
L 454.307069 120.635962 
L 459.149555 120.635962 
L 463.992041 129.712743 
L 468.834527 203.083389 
L 473.677013 206.108983 
L 478.519499 206.108983 
L 483.361985 133.494735 
L 488.204471 183.41703 
L 497.889443 181.336935 
L 502.731929 181.336935 
L 507.574416 181.336935 
L 512.416902 181.336935 
L 517.259388 115.341173 
L 522.101874 107.777189 
L 526.94436 159.77958 
L 531.786846 159.77958 
L 536.629332 159.77958 
L 541.471818 159.77958 
" clip-path="url(#p1782889a34)" style="fill: none; stroke: #2ca02c; stroke-width: 1.5; stroke-linecap: square"/>
   </g>
   <g id="line2d_17">
    <path d="M 100.805584 54.8293 
L 105.648071 54.8293 
L 110.490557 54.8293 
L 115.333043 54.8293 
L 120.175529 54.8293 
L 125.018015 54.8293 
L 129.860501 54.8293 
L 134.702987 54.8293 
L 139.545473 54.8293 
L 144.387959 54.8293 
L 149.230445 54.8293 
L 154.072931 54.8293 
L 158.915417 85.085236 
L 163.757904 85.085236 
L 168.60039 85.085236 
L 173.442876 85.085236 
L 178.285362 85.085236 
L 183.127848 85.085236 
L 187.970334 54.8293 
L 192.81282 54.8293 
L 197.655306 122.905157 
L 202.497792 54.8293 
L 207.340278 54.8293 
L 212.182764 54.8293 
L 217.02525 54.8293 
L 221.867737 54.8293 
L 226.710223 54.8293 
L 231.552709 107.777189 
L 236.395195 107.777189 
L 241.237681 107.777189 
L 246.080167 107.777189 
L 250.922653 107.777189 
L 255.765139 48.460425 
L 260.607625 69.957268 
L 265.450111 69.957268 
L 270.292597 69.957268 
L 275.135083 69.957268 
L 279.97757 69.957268 
L 284.820056 69.957268 
L 289.662542 69.957268 
L 294.505028 69.957268 
L 299.347514 69.957268 
L 304.19 69.957268 
L 309.032486 69.957268 
L 313.874972 69.957268 
L 318.717458 69.957268 
L 323.559944 69.957268 
L 328.40243 69.957268 
L 333.244917 69.957268 
L 338.087403 69.957268 
L 342.929889 69.957268 
L 347.772375 69.957268 
L 352.614861 69.957268 
L 357.457347 69.957268 
L 362.299833 69.957268 
L 367.142319 69.957268 
L 371.984805 69.957268 
L 376.827291 69.957268 
L 381.669777 69.957268 
L 386.512263 69.957268 
L 391.35475 69.957268 
L 396.197236 54.8293 
L 401.039722 85.085236 
L 405.882208 85.085236 
L 410.724694 85.085236 
L 415.56718 85.085236 
L 420.409666 85.085236 
L 425.252152 85.085236 
L 430.094638 54.8293 
L 434.937124 122.905157 
L 439.77961 122.905157 
L 444.622096 122.905157 
L 449.464583 122.905157 
L 454.307069 130.469141 
L 459.149555 54.8293 
L 463.992041 122.905157 
L 468.834527 122.905157 
L 473.677013 122.905157 
L 478.519499 122.905157 
L 483.361985 122.905157 
L 488.204471 122.905157 
L 497.889443 122.905157 
L 502.731929 122.905157 
L 507.574416 122.905157 
L 512.416902 122.905157 
L 517.259388 122.905157 
L 522.101874 122.905157 
L 526.94436 54.8293 
L 531.786846 122.905157 
L 536.629332 122.905157 
L 541.471818 122.905157 
" clip-path="url(#p1782889a34)" style="fill: none; stroke: #d62728; stroke-width: 1.5; stroke-linecap: square"/>
   </g>
   <g id="patch_3">
    <path d="M 43.18 225.745464 
L 43.18 26.88 
" style="fill: none; stroke: #000000; stroke-width: 0.8; stroke-linejoin: miter; stroke-linecap: square"/>
   </g>
   <g id="patch_4">
    <path d="M 565.2 225.745464 
L 565.2 26.88 
" style="fill: none; stroke: #000000; stroke-width: 0.8; stroke-linejoin: miter; stroke-linecap: square"/>
   </g>
   <g id="patch_5">
    <path d="M 43.18 225.745464 
L 565.2 225.745464 
" style="fill: none; stroke: #000000; stroke-width: 0.8; stroke-linejoin: miter; stroke-linecap: square"/>
   </g>
   <g id="patch_6">
    <path d="M 43.18 26.88 
L 565.2 26.88 
" style="fill: none; stroke: #000000; stroke-width: 0.8; stroke-linejoin: miter; stroke-linecap: square"/>
   </g>
   <g id="text_15">
    <!-- Apple iPhone 15 Pro, 256GB -->
    <g transform="translate(219.952812 20.88) scale(0.12 -0.12)">
     <defs>
      <path id="DejaVuSans-41" d="M 2188 4044 
L 1331 1722 
L 3047 1722 
L 2188 4044 
z
M 1831 4666 
L 2547 4666 
L 4325 0 
L 3669 0 
L 3244 1197 
L 1141 1197 
L 716 0 
L 50 0 
L 1831 4666 
z
" transform="scale(0.015625)"/>
      <path id="DejaVuSans-70" d="M 1159 525 
L 1159 -1331 
L 581 -1331 
L 581 3500 
L 1159 3500 
L 1159 2969 
Q 1341 3281 1617 3432 
Q 1894 3584 2278 3584 
Q 2916 3584 3314 3078 
Q 3713 2572 3713 1747 
Q 3713 922 3314 415 
Q 2916 -91 2278 -91 
Q 1894 -91 1617 61 
Q 1341 213 1159 525 
z
M 3116 1747 
Q 3116 2381 2855 2742 
Q 2594 3103 2138 3103 
Q 1681 3103 1420 2742 
Q 1159 2381 1159 1747 
Q 1159 1113 1420 752 
Q 1681 391 2138 391 
Q 2594 391 2855 752 
Q 3116 1113 3116 1747 
z
" transform="scale(0.015625)"/>
      <path id="DejaVuSans-6c" d="M 603 4863 
L 1178 4863 
L 1178 0 
L 603 0 
L 603 4863 
z
" transform="scale(0.015625)"/>
      <path id="DejaVuSans-68" d="M 3513 2113 
L 3513 0 
L 2938 0 
L 2938 2094 
Q 2938 2591 2744 2837 
Q 2550 3084 2163 3084 
Q 1697 3084 1428 2787 
Q 1159 2491 1159 1978 
L 1159 0 
L 581 0 
L 581 4863 
L 1159 4863 
L 1159 2956 
Q 1366 3272 1645 3428 
Q 1925 3584 2291 3584 
Q 2894 3584 3203 3211 
Q 3513 2838 3513 2113 
z
" transform="scale(0.015625)"/>
      <path id="DejaVuSans-6f" d="M 1959 3097 
Q 1497 3097 1228 2736 
Q 959 2375 959 1747 
Q 959 1119 1226 758 
Q 1494 397 1959 397 
Q 2419 397 2687 759 
Q 2956 1122 2956 1747 
Q 2956 2369 2687 2733 
Q 2419 3097 1959 3097 
z
M 1959 3584 
Q 2709 3584 3137 3096 
Q 3566 2609 3566 1747 
Q 3566 888 3137 398 
Q 2709 -91 1959 -91 
Q 1206 -91 779 398 
Q 353 888 353 1747 
Q 353 2609 779 3096 
Q 1206 3584 1959 3584 
z
" transform="scale(0.015625)"/>
      <path id="DejaVuSans-6e" d="M 3513 2113 
L 3513 0 
L 2938 0 
L 2938 2094 
Q 2938 2591 2744 2837 
Q 2550 3084 2163 3084 
Q 1697 3084 1428 2787 
Q 1159 2491 1159 1978 
L 1159 0 
L 581 0 
L 581 3500 
L 1159 3500 
L 1159 2956 
Q 1366 3272 1645 3428 
Q 1925 3584 2291 3584 
Q 2894 3584 3203 3211 
Q 3513 2838 3513 2113 
z
" transform="scale(0.015625)"/>
      <path id="DejaVuSans-2c" d="M 750 794 
L 1409 794 
L 1409 256 
L 897 -744 
L 494 -744 
L 750 256 
L 750 794 
z
" transform="scale(0.015625)"/>
      <path id="DejaVuSans-36" d="M 2113 2584 
Q 1688 2584 1439 2293 
Q 1191 2003 1191 1497 
Q 1191 994 1439 701 
Q 1688 409 2113 409 
Q 2538 409 2786 701 
Q 3034 994 3034 1497 
Q 3034 2003 2786 2293 
Q 2538 2584 2113 2584 
z
M 3366 4563 
L 3366 3988 
Q 3128 4100 2886 4159 
Q 2644 4219 2406 4219 
Q 1781 4219 1451 3797 
Q 1122 3375 1075 2522 
Q 1259 2794 1537 2939 
Q 1816 3084 2150 3084 
Q 2853 3084 3261 2657 
Q 3669 2231 3669 1497 
Q 3669 778 3244 343 
Q 2819 -91 2113 -91 
Q 1303 -91 875 529 
Q 447 1150 447 2328 
Q 447 3434 972 4092 
Q 1497 4750 2381 4750 
Q 2619 4750 2861 4703 
Q 3103 4656 3366 4563 
z
" transform="scale(0.015625)"/>
      <path id="DejaVuSans-47" d="M 3809 666 
L 3809 1919 
L 2778 1919 
L 2778 2438 
L 4434 2438 
L 4434 434 
Q 4069 175 3628 42 
Q 3188 -91 2688 -91 
Q 1594 -91 976 548 
Q 359 1188 359 2328 
Q 359 3472 976 4111 
Q 1594 4750 2688 4750 
Q 3144 4750 3555 4637 
Q 3966 4525 4313 4306 
L 4313 3634 
Q 3963 3931 3569 4081 
Q 3175 4231 2741 4231 
Q 1884 4231 1454 3753 
Q 1025 3275 1025 2328 
Q 1025 1384 1454 906 
Q 1884 428 2741 428 
Q 3075 428 3337 486 
Q 3600 544 3809 666 
z
" transform="scale(0.015625)"/>
      <path id="DejaVuSans-42" d="M 1259 2228 
L 1259 519 
L 2272 519 
Q 2781 519 3026 730 
Q 3272 941 3272 1375 
Q 3272 1813 3026 2020 
Q 2781 2228 2272 2228 
L 1259 2228 
z
M 1259 4147 
L 1259 2741 
L 2194 2741 
Q 2656 2741 2882 2914 
Q 3109 3088 3109 3444 
Q 3109 3797 2882 3972 
Q 2656 4147 2194 4147 
L 1259 4147 
z
M 628 4666 
L 2241 4666 
Q 2963 4666 3353 4366 
Q 3744 4066 3744 3513 
Q 3744 3084 3544 2831 
Q 3344 2578 2956 2516 
Q 3422 2416 3680 2098 
Q 3938 1781 3938 1306 
Q 3938 681 3513 340 
Q 3088 0 2303 0 
L 628 0 
L 628 4666 
z
" transform="scale(0.015625)"/>
     </defs>
     <use xlink:href="#DejaVuSans-41"/>
     <use xlink:href="#DejaVuSans-70" x="68.408203"/>
     <use xlink:href="#DejaVuSans-70" x="131.884766"/>
     <use xlink:href="#DejaVuSans-6c" x="195.361328"/>
     <use xlink:href="#DejaVuSans-65" x="223.144531"/>
     <use xlink:href="#DejaVuSans-20" x="284.667969"/>
     <use xlink:href="#DejaVuSans-69" x="316.455078"/>
     <use xlink:href="#DejaVuSans-50" x="344.238281"/>
     <use xlink:href="#DejaVuSans-68" x="404.541016"/>
     <use xlink:href="#DejaVuSans-6f" x="467.919922"/>
     <use xlink:href="#DejaVuSans-6e" x="529.101562"/>
     <use xlink:href="#DejaVuSans-65" x="592.480469"/>
     <use xlink:href="#DejaVuSans-20" x="654.003906"/>
     <use xlink:href="#DejaVuSans-31" x="685.791016"/>
     <use xlink:href="#DejaVuSans-35" x="749.414062"/>
     <use xlink:href="#DejaVuSans-20" x="813.037109"/>
     <use xlink:href="#DejaVuSans-50" x="844.824219"/>
     <use xlink:href="#DejaVuSans-72" x="903.376953"/>
     <use xlink:href="#DejaVuSans-6f" x="942.240234"/>
     <use xlink:href="#DejaVuSans-2c" x="1003.421875"/>
     <use xlink:href="#DejaVuSans-20" x="1035.208984"/>
     <use xlink:href="#DejaVuSans-32" x="1066.996094"/>
     <use xlink:href="#DejaVuSans-35" x="1130.619141"/>
     <use xlink:href="#DejaVuSans-36" x="1194.242188"/>
     <use xlink:href="#DejaVuSans-47" x="1257.865234"/>
     <use xlink:href="#DejaVuSans-42" x="1335.355469"/>
    </g>
   </g>
   <g id="legend_1">
    <g id="patch_7">
     <path d="M 452.6 108.270625 
L 558.2 108.270625 
Q 560.2 108.270625 560.2 106.270625 
L 560.2 33.88 
Q 560.2 31.88 558.2 31.88 
L 452.6 31.88 
Q 450.6 31.88 450.6 33.88 
L 450.6 106.270625 
Q 450.6 108.270625 452.6 108.270625 
z
" style="fill: #ffffff; opacity: 0.8; stroke: #cccccc; stroke-linejoin: miter"/>
    </g>
    <g id="text_16">
     <!-- source -->
     <g transform="translate(488.798437 43.478438) scale(0.1 -0.1)">
      <defs>
       <path id="DejaVuSans-73" d="M 2834 3397 
L 2834 2853 
Q 2591 2978 2328 3040 
Q 2066 3103 1784 3103 
Q 1356 3103 1142 2972 
Q 928 2841 928 2578 
Q 928 2378 1081 2264 
Q 1234 2150 1697 2047 
L 1894 2003 
Q 2506 1872 2764 1633 
Q 3022 1394 3022 966 
Q 3022 478 2636 193 
Q 2250 -91 1575 -91 
Q 1294 -91 989 -36 
Q 684 19 347 128 
L 347 722 
Q 666 556 975 473 
Q 1284 391 1588 391 
Q 1994 391 2212 530 
Q 2431 669 2431 922 
Q 2431 1156 2273 1281 
Q 2116 1406 1581 1522 
L 1381 1569 
Q 847 1681 609 1914 
Q 372 2147 372 2553 
Q 372 3047 722 3315 
Q 1072 3584 1716 3584 
Q 2034 3584 2315 3537 
Q 2597 3491 2834 3397 
z
" transform="scale(0.015625)"/>
       <path id="DejaVuSans-75" d="M 544 1381 
L 544 3500 
L 1119 3500 
L 1119 1403 
Q 1119 906 1312 657 
Q 1506 409 1894 409 
Q 2359 409 2629 706 
Q 2900 1003 2900 1516 
L 2900 3500 
L 3475 3500 
L 3475 0 
L 2900 0 
L 2900 538 
Q 2691 219 2414 64 
Q 2138 -91 1772 -91 
Q 1169 -91 856 284 
Q 544 659 544 1381 
z
M 1991 3584 
L 1991 3584 
z
" transform="scale(0.015625)"/>
      </defs>
      <use xlink:href="#DejaVuSans-73"/>
      <use xlink:href="#DejaVuSans-6f" x="52.099609"/>
      <use xlink:href="#DejaVuSans-75" x="113.28125"/>
      <use xlink:href="#DejaVuSans-72" x="176.660156"/>
      <use xlink:href="#DejaVuSans-63" x="215.523438"/>
      <use xlink:href="#DejaVuSans-65" x="270.503906"/>
     </g>
    </g>
    <g id="line2d_18">
     <path d="M 454.6 54.656563 
L 464.6 54.656563 
L 474.6 54.656563 
" style="fill: none; stroke: #1f77b4; stroke-width: 1.5; stroke-linecap: square"/>
    </g>
    <g id="text_17">
     <!-- links.hr -->
     <g transform="translate(482.6 58.156563) scale(0.1 -0.1)">
      <defs>
       <path id="DejaVuSans-6b" d="M 581 4863 
L 1159 4863 
L 1159 1991 
L 2875 3500 
L 3609 3500 
L 1753 1863 
L 3688 0 
L 2938 0 
L 1159 1709 
L 1159 0 
L 581 0 
L 581 4863 
z
" transform="scale(0.015625)"/>
       <path id="DejaVuSans-2e" d="M 684 794 
L 1344 794 
L 1344 0 
L 684 0 
L 684 794 
z
" transform="scale(0.015625)"/>
      </defs>
      <use xlink:href="#DejaVuSans-6c"/>
      <use xlink:href="#DejaVuSans-69" x="27.783203"/>
      <use xlink:href="#DejaVuSans-6e" x="55.566406"/>
      <use xlink:href="#DejaVuSans-6b" x="118.945312"/>
      <use xlink:href="#DejaVuSans-73" x="176.855469"/>
      <use xlink:href="#DejaVuSans-2e" x="228.955078"/>
      <use xlink:href="#DejaVuSans-68" x="260.742188"/>
      <use xlink:href="#DejaVuSans-72" x="324.121094"/>
     </g>
    </g>
    <g id="line2d_19">
     <path d="M 454.6 69.334688 
L 464.6 69.334688 
L 474.6 69.334688 
" style="fill: none; stroke: #ff7f0e; stroke-width: 1.5; stroke-linecap: square"/>
    </g>
    <g id="text_18">
     <!-- mobileshop.eu -->
     <g transform="translate(482.6 72.834688) scale(0.1 -0.1)">
      <defs>
       <path id="DejaVuSans-6d" d="M 3328 2828 
Q 3544 3216 3844 3400 
Q 4144 3584 4550 3584 
Q 5097 3584 5394 3201 
Q 5691 2819 5691 2113 
L 5691 0 
L 5113 0 
L 5113 2094 
Q 5113 2597 4934 2840 
Q 4756 3084 4391 3084 
Q 3944 3084 3684 2787 
Q 3425 2491 3425 1978 
L 3425 0 
L 2847 0 
L 2847 2094 
Q 2847 2600 2669 2842 
Q 2491 3084 2119 3084 
Q 1678 3084 1418 2786 
Q 1159 2488 1159 1978 
L 1159 0 
L 581 0 
L 581 3500 
L 1159 3500 
L 1159 2956 
Q 1356 3278 1631 3431 
Q 1906 3584 2284 3584 
Q 2666 3584 2933 3390 
Q 3200 3197 3328 2828 
z
" transform="scale(0.015625)"/>
       <path id="DejaVuSans-62" d="M 3116 1747 
Q 3116 2381 2855 2742 
Q 2594 3103 2138 3103 
Q 1681 3103 1420 2742 
Q 1159 2381 1159 1747 
Q 1159 1113 1420 752 
Q 1681 391 2138 391 
Q 2594 391 2855 752 
Q 3116 1113 3116 1747 
z
M 1159 2969 
Q 1341 3281 1617 3432 
Q 1894 3584 2278 3584 
Q 2916 3584 3314 3078 
Q 3713 2572 3713 1747 
Q 3713 922 3314 415 
Q 2916 -91 2278 -91 
Q 1894 -91 1617 61 
Q 1341 213 1159 525 
L 1159 0 
L 581 0 
L 581 4863 
L 1159 4863 
L 1159 2969 
z
" transform="scale(0.015625)"/>
      </defs>
      <use xlink:href="#DejaVuSans-6d"/>
      <use xlink:href="#DejaVuSans-6f" x="97.412109"/>
      <use xlink:href="#DejaVuSans-62" x="158.59375"/>
      <use xlink:href="#DejaVuSans-69" x="222.070312"/>
      <use xlink:href="#DejaVuSans-6c" x="249.853516"/>
      <use xlink:href="#DejaVuSans-65" x="277.636719"/>
      <use xlink:href="#DejaVuSans-73" x="339.160156"/>
      <use xlink:href="#DejaVuSans-68" x="391.259766"/>
      <use xlink:href="#DejaVuSans-6f" x="454.638672"/>
      <use xlink:href="#DejaVuSans-70" x="515.820312"/>
      <use xlink:href="#DejaVuSans-2e" x="579.296875"/>
      <use xlink:href="#DejaVuSans-65" x="611.083984"/>
      <use xlink:href="#DejaVuSans-75" x="672.607422"/>
     </g>
    </g>
    <g id="line2d_20">
     <path d="M 454.6 84.012813 
L 464.6 84.012813 
L 474.6 84.012813 
" style="fill: none; stroke: #2ca02c; stroke-width: 1.5; stroke-linecap: square"/>
    </g>
    <g id="text_19">
     <!-- nabava.net -->
     <g transform="translate(482.6 87.512813) scale(0.1 -0.1)">
      <defs>
       <path id="DejaVuSans-76" d="M 191 3500 
L 800 3500 
L 1894 563 
L 2988 3500 
L 3597 3500 
L 2284 0 
L 1503 0 
L 191 3500 
z
" transform="scale(0.015625)"/>
      </defs>
      <use xlink:href="#DejaVuSans-6e"/>
      <use xlink:href="#DejaVuSans-61" x="63.378906"/>
      <use xlink:href="#DejaVuSans-62" x="124.658203"/>
      <use xlink:href="#DejaVuSans-61" x="188.134766"/>
      <use xlink:href="#DejaVuSans-76" x="249.414062"/>
      <use xlink:href="#DejaVuSans-61" x="308.59375"/>
      <use xlink:href="#DejaVuSans-2e" x="369.873047"/>
      <use xlink:href="#DejaVuSans-6e" x="401.660156"/>
      <use xlink:href="#DejaVuSans-65" x="465.039062"/>
      <use xlink:href="#DejaVuSans-74" x="526.5625"/>
     </g>
    </g>
    <g id="line2d_21">
     <path d="M 454.6 98.690938 
L 464.6 98.690938 
L 474.6 98.690938 
" style="fill: none; stroke: #d62728; stroke-width: 1.5; stroke-linecap: square"/>
    </g>
    <g id="text_20">
     <!-- unieuro.it -->
     <g transform="translate(482.6 102.190938) scale(0.1 -0.1)">
      <use xlink:href="#DejaVuSans-75"/>
      <use xlink:href="#DejaVuSans-6e" x="63.378906"/>
      <use xlink:href="#DejaVuSans-69" x="126.757812"/>
      <use xlink:href="#DejaVuSans-65" x="154.541016"/>
      <use xlink:href="#DejaVuSans-75" x="216.064453"/>
      <use xlink:href="#DejaVuSans-72" x="279.443359"/>
      <use xlink:href="#DejaVuSans-6f" x="318.306641"/>
      <use xlink:href="#DejaVuSans-2e" x="377.738281"/>
      <use xlink:href="#DejaVuSans-69" x="409.525391"/>
      <use xlink:href="#DejaVuSans-74" x="437.308594"/>
     </g>
    </g>
   </g>
  </g>
  <g id="axes_2">
   <g id="patch_8">
    <path d="M 43.18 510.145464 
L 565.2 510.145464 
L 565.2 311.28 
L 43.18 311.28 
z
" style="fill: #ffffff"/>
   </g>
   <g id="matplotlib.axis_3">
    <g id="xtick_8">
     <g id="line2d_22">
      <g>
       <use xlink:href="#mfcef369f2c" x="81.43564" y="510.145464" style="stroke: #000000; stroke-width: 0.8"/>
      </g>
     </g>
     <g id="text_21">
      <!-- 2023-11-01 -->
      <g transform="translate(57.650524 552.783716) rotate(-30) scale(0.1 -0.1)">
       <use xlink:href="#DejaVuSans-32"/>
       <use xlink:href="#DejaVuSans-30" x="63.623047"/>
       <use xlink:href="#DejaVuSans-32" x="127.246094"/>
       <use xlink:href="#DejaVuSans-33" x="190.869141"/>
       <use xlink:href="#DejaVuSans-2d" x="254.492188"/>
       <use xlink:href="#DejaVuSans-31" x="290.576172"/>
       <use xlink:href="#DejaVuSans-31" x="354.199219"/>
       <use xlink:href="#DejaVuSans-2d" x="417.822266"/>
       <use xlink:href="#DejaVuSans-30" x="453.90625"/>
       <use xlink:href="#DejaVuSans-31" x="517.529297"/>
      </g>
     </g>
    </g>
    <g id="xtick_9">
     <g id="line2d_23">
      <g>
       <use xlink:href="#mfcef369f2c" x="149.230445" y="510.145464" style="stroke: #000000; stroke-width: 0.8"/>
      </g>
     </g>
     <g id="text_22">
      <!-- 2023-11-15 -->
      <g transform="translate(125.445329 552.783716) rotate(-30) scale(0.1 -0.1)">
       <use xlink:href="#DejaVuSans-32"/>
       <use xlink:href="#DejaVuSans-30" x="63.623047"/>
       <use xlink:href="#DejaVuSans-32" x="127.246094"/>
       <use xlink:href="#DejaVuSans-33" x="190.869141"/>
       <use xlink:href="#DejaVuSans-2d" x="254.492188"/>
       <use xlink:href="#DejaVuSans-31" x="290.576172"/>
       <use xlink:href="#DejaVuSans-31" x="354.199219"/>
       <use xlink:href="#DejaVuSans-2d" x="417.822266"/>
       <use xlink:href="#DejaVuSans-31" x="453.90625"/>
       <use xlink:href="#DejaVuSans-35" x="517.529297"/>
      </g>
     </g>
    </g>
    <g id="xtick_10">
     <g id="line2d_24">
      <g>
       <use xlink:href="#mfcef369f2c" x="226.710223" y="510.145464" style="stroke: #000000; stroke-width: 0.8"/>
      </g>
     </g>
     <g id="text_23">
      <!-- 2023-12-01 -->
      <g transform="translate(202.925106 552.783716) rotate(-30) scale(0.1 -0.1)">
       <use xlink:href="#DejaVuSans-32"/>
       <use xlink:href="#DejaVuSans-30" x="63.623047"/>
       <use xlink:href="#DejaVuSans-32" x="127.246094"/>
       <use xlink:href="#DejaVuSans-33" x="190.869141"/>
       <use xlink:href="#DejaVuSans-2d" x="254.492188"/>
       <use xlink:href="#DejaVuSans-31" x="290.576172"/>
       <use xlink:href="#DejaVuSans-32" x="354.199219"/>
       <use xlink:href="#DejaVuSans-2d" x="417.822266"/>
       <use xlink:href="#DejaVuSans-30" x="453.90625"/>
       <use xlink:href="#DejaVuSans-31" x="517.529297"/>
      </g>
     </g>
    </g>
    <g id="xtick_11">
     <g id="line2d_25">
      <g>
       <use xlink:href="#mfcef369f2c" x="294.505028" y="510.145464" style="stroke: #000000; stroke-width: 0.8"/>
      </g>
     </g>
     <g id="text_24">
      <!-- 2023-12-15 -->
      <g transform="translate(270.719912 552.783716) rotate(-30) scale(0.1 -0.1)">
       <use xlink:href="#DejaVuSans-32"/>
       <use xlink:href="#DejaVuSans-30" x="63.623047"/>
       <use xlink:href="#DejaVuSans-32" x="127.246094"/>
       <use xlink:href="#DejaVuSans-33" x="190.869141"/>
       <use xlink:href="#DejaVuSans-2d" x="254.492188"/>
       <use xlink:href="#DejaVuSans-31" x="290.576172"/>
       <use xlink:href="#DejaVuSans-32" x="354.199219"/>
       <use xlink:href="#DejaVuSans-2d" x="417.822266"/>
       <use xlink:href="#DejaVuSans-31" x="453.90625"/>
       <use xlink:href="#DejaVuSans-35" x="517.529297"/>
      </g>
     </g>
    </g>
    <g id="xtick_12">
     <g id="line2d_26">
      <g>
       <use xlink:href="#mfcef369f2c" x="376.827291" y="510.145464" style="stroke: #000000; stroke-width: 0.8"/>
      </g>
     </g>
     <g id="text_25">
      <!-- 2024-01-01 -->
      <g transform="translate(353.042175 552.783716) rotate(-30) scale(0.1 -0.1)">
       <use xlink:href="#DejaVuSans-32"/>
       <use xlink:href="#DejaVuSans-30" x="63.623047"/>
       <use xlink:href="#DejaVuSans-32" x="127.246094"/>
       <use xlink:href="#DejaVuSans-34" x="190.869141"/>
       <use xlink:href="#DejaVuSans-2d" x="254.492188"/>
       <use xlink:href="#DejaVuSans-30" x="290.576172"/>
       <use xlink:href="#DejaVuSans-31" x="354.199219"/>
       <use xlink:href="#DejaVuSans-2d" x="417.822266"/>
       <use xlink:href="#DejaVuSans-30" x="453.90625"/>
       <use xlink:href="#DejaVuSans-31" x="517.529297"/>
      </g>
     </g>
    </g>
    <g id="xtick_13">
     <g id="line2d_27">
      <g>
       <use xlink:href="#mfcef369f2c" x="444.622096" y="510.145464" style="stroke: #000000; stroke-width: 0.8"/>
      </g>
     </g>
     <g id="text_26">
      <!-- 2024-01-15 -->
      <g transform="translate(420.83698 552.783716) rotate(-30) scale(0.1 -0.1)">
       <use xlink:href="#DejaVuSans-32"/>
       <use xlink:href="#DejaVuSans-30" x="63.623047"/>
       <use xlink:href="#DejaVuSans-32" x="127.246094"/>
       <use xlink:href="#DejaVuSans-34" x="190.869141"/>
       <use xlink:href="#DejaVuSans-2d" x="254.492188"/>
       <use xlink:href="#DejaVuSans-30" x="290.576172"/>
       <use xlink:href="#DejaVuSans-31" x="354.199219"/>
       <use xlink:href="#DejaVuSans-2d" x="417.822266"/>
       <use xlink:href="#DejaVuSans-31" x="453.90625"/>
       <use xlink:href="#DejaVuSans-35" x="517.529297"/>
      </g>
     </g>
    </g>
    <g id="xtick_14">
     <g id="line2d_28">
      <g>
       <use xlink:href="#mfcef369f2c" x="526.94436" y="510.145464" style="stroke: #000000; stroke-width: 0.8"/>
      </g>
     </g>
     <g id="text_27">
      <!-- 2024-02-01 -->
      <g transform="translate(503.159244 552.783716) rotate(-30) scale(0.1 -0.1)">
       <use xlink:href="#DejaVuSans-32"/>
       <use xlink:href="#DejaVuSans-30" x="63.623047"/>
       <use xlink:href="#DejaVuSans-32" x="127.246094"/>
       <use xlink:href="#DejaVuSans-34" x="190.869141"/>
       <use xlink:href="#DejaVuSans-2d" x="254.492188"/>
       <use xlink:href="#DejaVuSans-30" x="290.576172"/>
       <use xlink:href="#DejaVuSans-32" x="354.199219"/>
       <use xlink:href="#DejaVuSans-2d" x="417.822266"/>
       <use xlink:href="#DejaVuSans-30" x="453.90625"/>
       <use xlink:href="#DejaVuSans-31" x="517.529297"/>
      </g>
     </g>
    </g>
    <g id="text_28">
     <!-- Price date -->
     <g transform="translate(279.128281 566.183216) scale(0.1 -0.1)">
      <use xlink:href="#DejaVuSans-50"/>
      <use xlink:href="#DejaVuSans-72" x="58.552734"/>
      <use xlink:href="#DejaVuSans-69" x="99.666016"/>
      <use xlink:href="#DejaVuSans-63" x="127.449219"/>
      <use xlink:href="#DejaVuSans-65" x="182.429688"/>
      <use xlink:href="#DejaVuSans-20" x="243.953125"/>
      <use xlink:href="#DejaVuSans-64" x="275.740234"/>
      <use xlink:href="#DejaVuSans-61" x="339.216797"/>
      <use xlink:href="#DejaVuSans-74" x="400.496094"/>
      <use xlink:href="#DejaVuSans-65" x="439.705078"/>
     </g>
    </g>
   </g>
   <g id="matplotlib.axis_4">
    <g id="ytick_7">
     <g id="line2d_29">
      <g>
       <use xlink:href="#meb47808ef8" x="43.18" y="493.56901" style="stroke: #000000; stroke-width: 0.8"/>
      </g>
     </g>
     <g id="text_29">
      <!-- 420 -->
      <g transform="translate(17.0925 497.368229) scale(0.1 -0.1)">
       <use xlink:href="#DejaVuSans-34"/>
       <use xlink:href="#DejaVuSans-32" x="63.623047"/>
       <use xlink:href="#DejaVuSans-30" x="127.246094"/>
      </g>
     </g>
    </g>
    <g id="ytick_8">
     <g id="line2d_30">
      <g>
       <use xlink:href="#meb47808ef8" x="43.18" y="458.915611" style="stroke: #000000; stroke-width: 0.8"/>
      </g>
     </g>
     <g id="text_30">
      <!-- 440 -->
      <g transform="translate(17.0925 462.714829) scale(0.1 -0.1)">
       <use xlink:href="#DejaVuSans-34"/>
       <use xlink:href="#DejaVuSans-34" x="63.623047"/>
       <use xlink:href="#DejaVuSans-30" x="127.246094"/>
      </g>
     </g>
    </g>
    <g id="ytick_9">
     <g id="line2d_31">
      <g>
       <use xlink:href="#meb47808ef8" x="43.18" y="424.262211" style="stroke: #000000; stroke-width: 0.8"/>
      </g>
     </g>
     <g id="text_31">
      <!-- 460 -->
      <g transform="translate(17.0925 428.06143) scale(0.1 -0.1)">
       <use xlink:href="#DejaVuSans-34"/>
       <use xlink:href="#DejaVuSans-36" x="63.623047"/>
       <use xlink:href="#DejaVuSans-30" x="127.246094"/>
      </g>
     </g>
    </g>
    <g id="ytick_10">
     <g id="line2d_32">
      <g>
       <use xlink:href="#meb47808ef8" x="43.18" y="389.608812" style="stroke: #000000; stroke-width: 0.8"/>
      </g>
     </g>
     <g id="text_32">
      <!-- 480 -->
      <g transform="translate(17.0925 393.40803) scale(0.1 -0.1)">
       <defs>
        <path id="DejaVuSans-38" d="M 2034 2216 
Q 1584 2216 1326 1975 
Q 1069 1734 1069 1313 
Q 1069 891 1326 650 
Q 1584 409 2034 409 
Q 2484 409 2743 651 
Q 3003 894 3003 1313 
Q 3003 1734 2745 1975 
Q 2488 2216 2034 2216 
z
M 1403 2484 
Q 997 2584 770 2862 
Q 544 3141 544 3541 
Q 544 4100 942 4425 
Q 1341 4750 2034 4750 
Q 2731 4750 3128 4425 
Q 3525 4100 3525 3541 
Q 3525 3141 3298 2862 
Q 3072 2584 2669 2484 
Q 3125 2378 3379 2068 
Q 3634 1759 3634 1313 
Q 3634 634 3220 271 
Q 2806 -91 2034 -91 
Q 1263 -91 848 271 
Q 434 634 434 1313 
Q 434 1759 690 2068 
Q 947 2378 1403 2484 
z
M 1172 3481 
Q 1172 3119 1398 2916 
Q 1625 2713 2034 2713 
Q 2441 2713 2670 2916 
Q 2900 3119 2900 3481 
Q 2900 3844 2670 4047 
Q 2441 4250 2034 4250 
Q 1625 4250 1398 4047 
Q 1172 3844 1172 3481 
z
" transform="scale(0.015625)"/>
       </defs>
       <use xlink:href="#DejaVuSans-34"/>
       <use xlink:href="#DejaVuSans-38" x="63.623047"/>
       <use xlink:href="#DejaVuSans-30" x="127.246094"/>
      </g>
     </g>
    </g>
    <g id="ytick_11">
     <g id="line2d_33">
      <g>
       <use xlink:href="#meb47808ef8" x="43.18" y="354.955412" style="stroke: #000000; stroke-width: 0.8"/>
      </g>
     </g>
     <g id="text_33">
      <!-- 500 -->
      <g transform="translate(17.0925 358.754631) scale(0.1 -0.1)">
       <use xlink:href="#DejaVuSans-35"/>
       <use xlink:href="#DejaVuSans-30" x="63.623047"/>
       <use xlink:href="#DejaVuSans-30" x="127.246094"/>
      </g>
     </g>
    </g>
    <g id="ytick_12">
     <g id="line2d_34">
      <g>
       <use xlink:href="#meb47808ef8" x="43.18" y="320.302013" style="stroke: #000000; stroke-width: 0.8"/>
      </g>
     </g>
     <g id="text_34">
      <!-- 520 -->
      <g transform="translate(17.0925 324.101231) scale(0.1 -0.1)">
       <use xlink:href="#DejaVuSans-35"/>
       <use xlink:href="#DejaVuSans-32" x="63.623047"/>
       <use xlink:href="#DejaVuSans-30" x="127.246094"/>
      </g>
     </g>
    </g>
   </g>
   <g id="line2d_35">
    <path d="M 66.908182 356.688082 
L 100.805584 356.688082 
L 105.648071 356.688082 
L 110.490557 356.688082 
L 115.333043 356.688082 
L 120.175529 356.688082 
L 125.018015 356.688082 
L 129.860501 356.688082 
L 134.702987 356.688082 
L 139.545473 356.688082 
L 144.387959 356.688082 
L 149.230445 356.688082 
L 154.072931 356.688082 
L 158.915417 356.688082 
L 163.757904 356.688082 
L 168.60039 356.688082 
L 173.442876 356.688082 
L 178.285362 356.688082 
L 183.127848 356.688082 
L 187.970334 356.688082 
L 192.81282 356.688082 
L 197.655306 356.688082 
L 202.497792 356.688082 
L 207.340278 356.688082 
L 212.182764 356.688082 
L 217.02525 356.688082 
L 221.867737 356.688082 
L 226.710223 356.688082 
L 231.552709 356.688082 
L 236.395195 356.688082 
L 241.237681 356.688082 
L 246.080167 356.688082 
L 250.922653 356.688082 
L 255.765139 356.688082 
L 260.607625 356.688082 
L 265.450111 391.341482 
L 270.292597 391.341482 
L 275.135083 391.341482 
L 279.97757 391.341482 
L 284.820056 391.341482 
L 289.662542 391.341482 
L 294.505028 391.341482 
L 299.347514 391.341482 
L 304.19 391.341482 
L 309.032486 391.341482 
L 313.874972 391.341482 
L 318.717458 391.341482 
L 323.559944 391.341482 
L 328.40243 391.341482 
L 333.244917 391.341482 
L 338.087403 391.341482 
L 342.929889 391.341482 
L 347.772375 391.341482 
L 352.614861 391.341482 
L 357.457347 391.341482 
L 362.299833 391.341482 
L 367.142319 391.341482 
L 371.984805 391.341482 
L 376.827291 391.341482 
L 381.669777 391.341482 
L 386.512263 391.341482 
L 391.35475 391.341482 
L 396.197236 391.341482 
L 401.039722 391.341482 
L 405.882208 391.341482 
L 410.724694 391.341482 
L 415.56718 391.341482 
L 420.409666 391.341482 
L 425.252152 391.341482 
L 430.094638 391.341482 
L 434.937124 391.341482 
L 439.77961 391.341482 
L 444.622096 391.341482 
L 449.464583 391.341482 
L 454.307069 391.341482 
L 459.149555 391.341482 
L 463.992041 391.341482 
" clip-path="url(#p54346b4d5d)" style="fill: none; stroke: #1f77b4; stroke-width: 1.5; stroke-linecap: square"/>
   </g>
   <g id="line2d_36">
    <path d="M 100.805584 328.982689 
L 105.648071 328.982689 
L 110.490557 328.982689 
L 115.333043 328.982689 
L 120.175529 328.982689 
L 125.018015 328.982689 
L 129.860501 328.982689 
L 134.702987 328.982689 
L 139.545473 328.982689 
L 144.387959 328.982689 
L 149.230445 328.982689 
L 154.072931 328.982689 
L 158.915417 328.982689 
L 163.757904 328.982689 
L 168.60039 328.982689 
L 173.442876 328.982689 
L 178.285362 328.982689 
L 183.127848 328.982689 
L 187.970334 328.982689 
L 192.81282 328.982689 
L 197.655306 328.982689 
L 202.497792 328.982689 
L 207.340278 328.982689 
L 212.182764 328.982689 
L 217.02525 328.982689 
L 221.867737 328.982689 
L 226.710223 328.982689 
L 231.552709 328.982689 
L 236.395195 328.982689 
L 241.237681 328.982689 
L 246.080167 328.982689 
L 250.922653 328.982689 
L 255.765139 328.982689 
L 260.607625 328.982689 
L 265.450111 328.982689 
L 270.292597 328.982689 
L 275.135083 328.982689 
L 279.97757 328.982689 
L 284.820056 328.982689 
L 289.662542 328.982689 
L 294.505028 328.982689 
L 299.347514 328.982689 
L 304.19 328.982689 
L 309.032486 328.982689 
L 313.874972 328.982689 
L 318.717458 328.982689 
L 323.559944 328.982689 
L 328.40243 328.982689 
L 333.244917 328.982689 
L 338.087403 328.982689 
L 342.929889 328.982689 
L 347.772375 328.982689 
L 352.614861 328.982689 
L 357.457347 328.982689 
L 362.299833 328.982689 
L 367.142319 328.982689 
L 371.984805 328.982689 
L 376.827291 328.982689 
M 386.512263 328.982689 
L 391.35475 328.982689 
L 396.197236 328.982689 
L 401.039722 328.982689 
L 405.882208 328.982689 
L 410.724694 320.319339 
L 415.56718 320.319339 
L 420.409666 320.319339 
L 425.252152 320.319339 
L 430.094638 320.319339 
L 434.937124 320.319339 
L 439.77961 320.319339 
L 444.622096 320.319339 
L 449.464583 320.319339 
L 454.307069 320.319339 
L 459.149555 320.319339 
L 463.992041 320.319339 
L 468.834527 320.319339 
L 473.677013 320.319339 
L 478.519499 320.319339 
L 483.361985 320.319339 
L 488.204471 320.319339 
L 497.889443 320.319339 
L 502.731929 320.319339 
L 507.574416 320.319339 
L 512.416902 320.319339 
L 517.259388 320.319339 
L 522.101874 320.319339 
L 526.94436 320.319339 
L 531.786846 320.319339 
L 536.629332 320.319339 
L 541.471818 320.319339 
" clip-path="url(#p54346b4d5d)" style="fill: none; stroke: #ff7f0e; stroke-width: 1.5; stroke-linecap: square"/>
   </g>
   <g id="line2d_37">
    <path d="M 100.805584 356.688082 
L 105.648071 356.688082 
L 110.490557 356.688082 
L 115.333043 356.688082 
L 120.175529 356.688082 
L 125.018015 356.688082 
L 129.860501 356.688082 
L 134.702987 356.688082 
L 139.545473 356.688082 
L 144.387959 356.688082 
L 149.230445 356.688082 
L 154.072931 356.688082 
L 158.915417 356.688082 
L 163.757904 356.688082 
L 168.60039 356.688082 
L 173.442876 356.688082 
L 178.285362 356.688082 
L 183.127848 356.688082 
L 187.970334 356.688082 
L 192.81282 356.688082 
L 197.655306 356.688082 
L 202.497792 356.688082 
L 207.340278 356.688082 
L 212.182764 356.688082 
L 217.02525 356.688082 
L 221.867737 356.688082 
L 226.710223 356.688082 
L 231.552709 356.688082 
L 236.395195 356.688082 
L 241.237681 356.688082 
L 246.080167 356.688082 
L 250.922653 356.688082 
L 255.765139 356.688082 
L 260.607625 356.688082 
L 265.450111 356.688082 
L 270.292597 356.688082 
L 275.135083 356.688082 
L 279.97757 356.688082 
L 284.820056 356.688082 
L 289.662542 356.688082 
L 294.505028 356.688082 
L 299.347514 356.688082 
L 304.19 356.688082 
L 309.032486 356.688082 
L 313.874972 356.688082 
L 318.717458 356.688082 
L 323.559944 356.688082 
L 328.40243 356.688082 
L 333.244917 356.688082 
L 338.087403 356.688082 
L 342.929889 356.688082 
L 347.772375 356.688082 
L 352.614861 356.688082 
L 357.457347 356.688082 
L 362.299833 356.688082 
L 367.142319 356.688082 
L 371.984805 356.688082 
L 376.827291 356.688082 
L 381.669777 356.688082 
L 386.512263 356.688082 
L 391.35475 356.688082 
L 396.197236 356.688082 
L 401.039722 356.688082 
L 405.882208 356.688082 
L 410.724694 356.688082 
L 415.56718 356.688082 
L 420.409666 356.688082 
L 425.252152 356.688082 
L 430.094638 356.688082 
L 434.937124 356.688082 
L 439.77961 356.688082 
L 444.622096 356.688082 
L 449.464583 356.688082 
L 454.307069 356.688082 
L 459.149555 356.688082 
L 463.992041 356.688082 
L 468.834527 356.688082 
L 473.677013 356.688082 
L 478.519499 356.688082 
L 483.361985 356.688082 
L 488.204471 356.688082 
L 497.889443 356.688082 
L 502.731929 356.688082 
L 507.574416 356.688082 
L 512.416902 356.688082 
L 517.259388 356.688082 
L 522.101874 356.688082 
L 526.94436 356.688082 
L 531.786846 356.688082 
L 536.629332 356.688082 
L 541.471818 356.688082 
" clip-path="url(#p54346b4d5d)" style="fill: none; stroke: #2ca02c; stroke-width: 1.5; stroke-linecap: square"/>
   </g>
   <g id="line2d_38">
    <path d="M 66.908182 501.106125 
L 100.805584 408.668181 
L 105.648071 408.668181 
L 110.490557 408.668181 
L 115.333043 408.668181 
L 120.175529 408.668181 
L 125.018015 408.668181 
L 129.860501 415.598861 
L 134.702987 415.598861 
L 139.545473 415.598861 
L 144.387959 415.598861 
L 149.230445 415.598861 
L 154.072931 415.598861 
L 158.915417 415.598861 
L 163.757904 415.598861 
L 168.60039 415.598861 
L 173.442876 415.598861 
L 178.285362 415.598861 
L 183.127848 415.598861 
L 187.970334 415.598861 
L 192.81282 415.598861 
L 197.655306 415.598861 
L 202.497792 399.918198 
L 207.340278 399.918198 
L 212.182764 399.918198 
L 217.02525 356.688082 
L 221.867737 356.861349 
L 226.710223 356.861349 
L 231.552709 356.861349 
L 236.395195 356.861349 
L 241.237681 356.861349 
L 246.080167 363.618762 
L 250.922653 363.792029 
L 255.765139 391.341482 
L 260.607625 393.074152 
L 265.450111 408.668181 
L 270.292597 408.668181 
L 275.135083 408.668181 
L 279.97757 408.841448 
L 284.820056 408.668181 
L 289.662542 408.841448 
L 294.505028 416.239949 
L 299.347514 416.239949 
L 304.19 416.239949 
L 309.032486 416.239949 
L 313.874972 416.239949 
L 318.717458 416.239949 
L 323.559944 425.994881 
L 328.40243 425.994881 
L 333.244917 425.994881 
L 338.087403 425.994881 
L 342.929889 425.994881 
L 347.772375 425.994881 
L 352.614861 425.994881 
L 357.457347 425.994881 
L 362.299833 425.994881 
L 367.142319 425.994881 
L 371.984805 425.994881 
L 376.827291 425.994881 
L 381.669777 425.994881 
L 386.512263 425.994881 
L 391.35475 425.994881 
L 396.197236 425.994881 
L 401.039722 425.994881 
L 405.882208 425.994881 
L 410.724694 425.994881 
L 415.56718 425.994881 
L 420.409666 425.994881 
L 425.252152 425.994881 
L 430.094638 425.994881 
L 434.937124 425.994881 
L 439.77961 425.994881 
L 444.622096 425.994881 
L 449.464583 425.994881 
L 454.307069 425.994881 
L 459.149555 425.994881 
L 463.992041 425.994881 
L 468.834527 425.994881 
L 473.677013 425.994881 
L 478.519499 425.994881 
L 483.361985 425.994881 
L 488.204471 425.994881 
L 497.889443 425.994881 
L 502.731929 425.994881 
L 507.574416 425.994881 
L 512.416902 425.994881 
L 517.259388 425.994881 
L 522.101874 425.994881 
L 526.94436 425.994881 
L 531.786846 356.688082 
L 536.629332 356.688082 
L 541.471818 356.688082 
" clip-path="url(#p54346b4d5d)" style="fill: none; stroke: #d62728; stroke-width: 1.5; stroke-linecap: square"/>
   </g>
   <g id="patch_9">
    <path d="M 43.18 510.145464 
L 43.18 311.28 
" style="fill: none; stroke: #000000; stroke-width: 0.8; stroke-linejoin: miter; stroke-linecap: square"/>
   </g>
   <g id="patch_10">
    <path d="M 565.2 510.145464 
L 565.2 311.28 
" style="fill: none; stroke: #000000; stroke-width: 0.8; stroke-linejoin: miter; stroke-linecap: square"/>
   </g>
   <g id="patch_11">
    <path d="M 43.18 510.145464 
L 565.2 510.145464 
" style="fill: none; stroke: #000000; stroke-width: 0.8; stroke-linejoin: miter; stroke-linecap: square"/>
   </g>
   <g id="patch_12">
    <path d="M 43.18 311.28 
L 565.2 311.28 
" style="fill: none; stroke: #000000; stroke-width: 0.8; stroke-linejoin: miter; stroke-linecap: square"/>
   </g>
   <g id="text_35">
    <!-- Lenovo IdeaPad 3 -->
    <g transform="translate(251.150937 305.28) scale(0.12 -0.12)">
     <defs>
      <path id="DejaVuSans-4c" d="M 628 4666 
L 1259 4666 
L 1259 531 
L 3531 531 
L 3531 0 
L 628 0 
L 628 4666 
z
" transform="scale(0.015625)"/>
      <path id="DejaVuSans-49" d="M 628 4666 
L 1259 4666 
L 1259 0 
L 628 0 
L 628 4666 
z
" transform="scale(0.015625)"/>
     </defs>
     <use xlink:href="#DejaVuSans-4c"/>
     <use xlink:href="#DejaVuSans-65" x="53.962891"/>
     <use xlink:href="#DejaVuSans-6e" x="115.486328"/>
     <use xlink:href="#DejaVuSans-6f" x="178.865234"/>
     <use xlink:href="#DejaVuSans-76" x="240.046875"/>
     <use xlink:href="#DejaVuSans-6f" x="299.226562"/>
     <use xlink:href="#DejaVuSans-20" x="360.408203"/>
     <use xlink:href="#DejaVuSans-49" x="392.195312"/>
     <use xlink:href="#DejaVuSans-64" x="421.6875"/>
     <use xlink:href="#DejaVuSans-65" x="485.164062"/>
     <use xlink:href="#DejaVuSans-61" x="546.6875"/>
     <use xlink:href="#DejaVuSans-50" x="607.966797"/>
     <use xlink:href="#DejaVuSans-61" x="663.769531"/>
     <use xlink:href="#DejaVuSans-64" x="725.048828"/>
     <use xlink:href="#DejaVuSans-20" x="788.525391"/>
     <use xlink:href="#DejaVuSans-33" x="820.3125"/>
    </g>
   </g>
   <g id="legend_2">
    <g id="patch_13">
     <path d="M 424.117188 505.145464 
L 558.2 505.145464 
Q 560.2 505.145464 560.2 503.145464 
L 560.2 430.754839 
Q 560.2 428.754839 558.2 428.754839 
L 424.117188 428.754839 
Q 422.117188 428.754839 422.117188 430.754839 
L 422.117188 503.145464 
Q 422.117188 505.145464 424.117188 505.145464 
z
" style="fill: #ffffff; opacity: 0.8; stroke: #cccccc; stroke-linejoin: miter"/>
    </g>
    <g id="text_36">
     <!-- source -->
     <g transform="translate(474.557031 440.353276) scale(0.1 -0.1)">
      <use xlink:href="#DejaVuSans-73"/>
      <use xlink:href="#DejaVuSans-6f" x="52.099609"/>
      <use xlink:href="#DejaVuSans-75" x="113.28125"/>
      <use xlink:href="#DejaVuSans-72" x="176.660156"/>
      <use xlink:href="#DejaVuSans-63" x="215.523438"/>
      <use xlink:href="#DejaVuSans-65" x="270.503906"/>
     </g>
    </g>
    <g id="line2d_39">
     <path d="M 426.117188 451.531401 
L 436.117188 451.531401 
L 446.117188 451.531401 
" style="fill: none; stroke: #1f77b4; stroke-width: 1.5; stroke-linecap: square"/>
    </g>
    <g id="text_37">
     <!-- instar-informatika.hr -->
     <g transform="translate(454.117188 455.031401) scale(0.1 -0.1)">
      <defs>
       <path id="DejaVuSans-66" d="M 2375 4863 
L 2375 4384 
L 1825 4384 
Q 1516 4384 1395 4259 
Q 1275 4134 1275 3809 
L 1275 3500 
L 2222 3500 
L 2222 3053 
L 1275 3053 
L 1275 0 
L 697 0 
L 697 3053 
L 147 3053 
L 147 3500 
L 697 3500 
L 697 3744 
Q 697 4328 969 4595 
Q 1241 4863 1831 4863 
L 2375 4863 
z
" transform="scale(0.015625)"/>
      </defs>
      <use xlink:href="#DejaVuSans-69"/>
      <use xlink:href="#DejaVuSans-6e" x="27.783203"/>
      <use xlink:href="#DejaVuSans-73" x="91.162109"/>
      <use xlink:href="#DejaVuSans-74" x="143.261719"/>
      <use xlink:href="#DejaVuSans-61" x="182.470703"/>
      <use xlink:href="#DejaVuSans-72" x="243.75"/>
      <use xlink:href="#DejaVuSans-2d" x="278.488281"/>
      <use xlink:href="#DejaVuSans-69" x="314.572266"/>
      <use xlink:href="#DejaVuSans-6e" x="342.355469"/>
      <use xlink:href="#DejaVuSans-66" x="405.734375"/>
      <use xlink:href="#DejaVuSans-6f" x="440.939453"/>
      <use xlink:href="#DejaVuSans-72" x="502.121094"/>
      <use xlink:href="#DejaVuSans-6d" x="541.484375"/>
      <use xlink:href="#DejaVuSans-61" x="638.896484"/>
      <use xlink:href="#DejaVuSans-74" x="700.175781"/>
      <use xlink:href="#DejaVuSans-69" x="739.384766"/>
      <use xlink:href="#DejaVuSans-6b" x="767.167969"/>
      <use xlink:href="#DejaVuSans-61" x="823.328125"/>
      <use xlink:href="#DejaVuSans-2e" x="884.607422"/>
      <use xlink:href="#DejaVuSans-68" x="916.394531"/>
      <use xlink:href="#DejaVuSans-72" x="979.773438"/>
     </g>
    </g>
    <g id="line2d_40">
     <path d="M 426.117188 466.209526 
L 436.117188 466.209526 
L 446.117188 466.209526 
" style="fill: none; stroke: #ff7f0e; stroke-width: 1.5; stroke-linecap: square"/>
    </g>
    <g id="text_38">
     <!-- links.hr -->
     <g transform="translate(454.117188 469.709526) scale(0.1 -0.1)">
      <use xlink:href="#DejaVuSans-6c"/>
      <use xlink:href="#DejaVuSans-69" x="27.783203"/>
      <use xlink:href="#DejaVuSans-6e" x="55.566406"/>
      <use xlink:href="#DejaVuSans-6b" x="118.945312"/>
      <use xlink:href="#DejaVuSans-73" x="176.855469"/>
      <use xlink:href="#DejaVuSans-2e" x="228.955078"/>
      <use xlink:href="#DejaVuSans-68" x="260.742188"/>
      <use xlink:href="#DejaVuSans-72" x="324.121094"/>
     </g>
    </g>
    <g id="line2d_41">
     <path d="M 426.117188 480.887651 
L 436.117188 480.887651 
L 446.117188 480.887651 
" style="fill: none; stroke: #2ca02c; stroke-width: 1.5; stroke-linecap: square"/>
    </g>
    <g id="text_39">
     <!-- mikronis.hr -->
     <g transform="translate(454.117188 484.387651) scale(0.1 -0.1)">
      <use xlink:href="#DejaVuSans-6d"/>
      <use xlink:href="#DejaVuSans-69" x="97.412109"/>
      <use xlink:href="#DejaVuSans-6b" x="125.195312"/>
      <use xlink:href="#DejaVuSans-72" x="183.105469"/>
      <use xlink:href="#DejaVuSans-6f" x="221.96875"/>
      <use xlink:href="#DejaVuSans-6e" x="283.150391"/>
      <use xlink:href="#DejaVuSans-69" x="346.529297"/>
      <use xlink:href="#DejaVuSans-73" x="374.3125"/>
      <use xlink:href="#DejaVuSans-2e" x="426.412109"/>
      <use xlink:href="#DejaVuSans-68" x="458.199219"/>
      <use xlink:href="#DejaVuSans-72" x="521.578125"/>
     </g>
    </g>
    <g id="line2d_42">
     <path d="M 426.117188 495.565776 
L 436.117188 495.565776 
L 446.117188 495.565776 
" style="fill: none; stroke: #d62728; stroke-width: 1.5; stroke-linecap: square"/>
    </g>
    <g id="text_40">
     <!-- nabava.net -->
     <g transform="translate(454.117188 499.065776) scale(0.1 -0.1)">
      <use xlink:href="#DejaVuSans-6e"/>
      <use xlink:href="#DejaVuSans-61" x="63.378906"/>
      <use xlink:href="#DejaVuSans-62" x="124.658203"/>
      <use xlink:href="#DejaVuSans-61" x="188.134766"/>
      <use xlink:href="#DejaVuSans-76" x="249.414062"/>
      <use xlink:href="#DejaVuSans-61" x="308.59375"/>
      <use xlink:href="#DejaVuSans-2e" x="369.873047"/>
      <use xlink:href="#DejaVuSans-6e" x="401.660156"/>
      <use xlink:href="#DejaVuSans-65" x="465.039062"/>
      <use xlink:href="#DejaVuSans-74" x="526.5625"/>
     </g>
    </g>
   </g>
  </g>
  <g id="axes_3">
   <g id="patch_14">
    <path d="M 43.18 794.545464 
L 565.2 794.545464 
L 565.2 595.68 
L 43.18 595.68 
z
" style="fill: #ffffff"/>
   </g>
   <g id="matplotlib.axis_5">
    <g id="xtick_15">
     <g id="line2d_43">
      <g>
       <use xlink:href="#mfcef369f2c" x="46.048242" y="794.545464" style="stroke: #000000; stroke-width: 0.8"/>
      </g>
     </g>
     <g id="text_41">
      <!-- 2023-11-01 -->
      <g transform="translate(22.263125 837.183716) rotate(-30) scale(0.1 -0.1)">
       <use xlink:href="#DejaVuSans-32"/>
       <use xlink:href="#DejaVuSans-30" x="63.623047"/>
       <use xlink:href="#DejaVuSans-32" x="127.246094"/>
       <use xlink:href="#DejaVuSans-33" x="190.869141"/>
       <use xlink:href="#DejaVuSans-2d" x="254.492188"/>
       <use xlink:href="#DejaVuSans-31" x="290.576172"/>
       <use xlink:href="#DejaVuSans-31" x="354.199219"/>
       <use xlink:href="#DejaVuSans-2d" x="417.822266"/>
       <use xlink:href="#DejaVuSans-30" x="453.90625"/>
       <use xlink:href="#DejaVuSans-31" x="517.529297"/>
      </g>
     </g>
    </g>
    <g id="xtick_16">
     <g id="line2d_44">
      <g>
       <use xlink:href="#mfcef369f2c" x="119.058032" y="794.545464" style="stroke: #000000; stroke-width: 0.8"/>
      </g>
     </g>
     <g id="text_42">
      <!-- 2023-11-15 -->
      <g transform="translate(95.272916 837.183716) rotate(-30) scale(0.1 -0.1)">
       <use xlink:href="#DejaVuSans-32"/>
       <use xlink:href="#DejaVuSans-30" x="63.623047"/>
       <use xlink:href="#DejaVuSans-32" x="127.246094"/>
       <use xlink:href="#DejaVuSans-33" x="190.869141"/>
       <use xlink:href="#DejaVuSans-2d" x="254.492188"/>
       <use xlink:href="#DejaVuSans-31" x="290.576172"/>
       <use xlink:href="#DejaVuSans-31" x="354.199219"/>
       <use xlink:href="#DejaVuSans-2d" x="417.822266"/>
       <use xlink:href="#DejaVuSans-31" x="453.90625"/>
       <use xlink:href="#DejaVuSans-35" x="517.529297"/>
      </g>
     </g>
    </g>
    <g id="xtick_17">
     <g id="line2d_45">
      <g>
       <use xlink:href="#mfcef369f2c" x="202.497792" y="794.545464" style="stroke: #000000; stroke-width: 0.8"/>
      </g>
     </g>
     <g id="text_43">
      <!-- 2023-12-01 -->
      <g transform="translate(178.712676 837.183716) rotate(-30) scale(0.1 -0.1)">
       <use xlink:href="#DejaVuSans-32"/>
       <use xlink:href="#DejaVuSans-30" x="63.623047"/>
       <use xlink:href="#DejaVuSans-32" x="127.246094"/>
       <use xlink:href="#DejaVuSans-33" x="190.869141"/>
       <use xlink:href="#DejaVuSans-2d" x="254.492188"/>
       <use xlink:href="#DejaVuSans-31" x="290.576172"/>
       <use xlink:href="#DejaVuSans-32" x="354.199219"/>
       <use xlink:href="#DejaVuSans-2d" x="417.822266"/>
       <use xlink:href="#DejaVuSans-30" x="453.90625"/>
       <use xlink:href="#DejaVuSans-31" x="517.529297"/>
      </g>
     </g>
    </g>
    <g id="xtick_18">
     <g id="line2d_46">
      <g>
       <use xlink:href="#mfcef369f2c" x="275.507582" y="794.545464" style="stroke: #000000; stroke-width: 0.8"/>
      </g>
     </g>
     <g id="text_44">
      <!-- 2023-12-15 -->
      <g transform="translate(251.722466 837.183716) rotate(-30) scale(0.1 -0.1)">
       <use xlink:href="#DejaVuSans-32"/>
       <use xlink:href="#DejaVuSans-30" x="63.623047"/>
       <use xlink:href="#DejaVuSans-32" x="127.246094"/>
       <use xlink:href="#DejaVuSans-33" x="190.869141"/>
       <use xlink:href="#DejaVuSans-2d" x="254.492188"/>
       <use xlink:href="#DejaVuSans-31" x="290.576172"/>
       <use xlink:href="#DejaVuSans-32" x="354.199219"/>
       <use xlink:href="#DejaVuSans-2d" x="417.822266"/>
       <use xlink:href="#DejaVuSans-31" x="453.90625"/>
       <use xlink:href="#DejaVuSans-35" x="517.529297"/>
      </g>
     </g>
    </g>
    <g id="xtick_19">
     <g id="line2d_47">
      <g>
       <use xlink:href="#mfcef369f2c" x="364.162328" y="794.545464" style="stroke: #000000; stroke-width: 0.8"/>
      </g>
     </g>
     <g id="text_45">
      <!-- 2024-01-01 -->
      <g transform="translate(340.377211 837.183716) rotate(-30) scale(0.1 -0.1)">
       <use xlink:href="#DejaVuSans-32"/>
       <use xlink:href="#DejaVuSans-30" x="63.623047"/>
       <use xlink:href="#DejaVuSans-32" x="127.246094"/>
       <use xlink:href="#DejaVuSans-34" x="190.869141"/>
       <use xlink:href="#DejaVuSans-2d" x="254.492188"/>
       <use xlink:href="#DejaVuSans-30" x="290.576172"/>
       <use xlink:href="#DejaVuSans-31" x="354.199219"/>
       <use xlink:href="#DejaVuSans-2d" x="417.822266"/>
       <use xlink:href="#DejaVuSans-30" x="453.90625"/>
       <use xlink:href="#DejaVuSans-31" x="517.529297"/>
      </g>
     </g>
    </g>
    <g id="xtick_20">
     <g id="line2d_48">
      <g>
       <use xlink:href="#mfcef369f2c" x="437.172118" y="794.545464" style="stroke: #000000; stroke-width: 0.8"/>
      </g>
     </g>
     <g id="text_46">
      <!-- 2024-01-15 -->
      <g transform="translate(413.387002 837.183716) rotate(-30) scale(0.1 -0.1)">
       <use xlink:href="#DejaVuSans-32"/>
       <use xlink:href="#DejaVuSans-30" x="63.623047"/>
       <use xlink:href="#DejaVuSans-32" x="127.246094"/>
       <use xlink:href="#DejaVuSans-34" x="190.869141"/>
       <use xlink:href="#DejaVuSans-2d" x="254.492188"/>
       <use xlink:href="#DejaVuSans-30" x="290.576172"/>
       <use xlink:href="#DejaVuSans-31" x="354.199219"/>
       <use xlink:href="#DejaVuSans-2d" x="417.822266"/>
       <use xlink:href="#DejaVuSans-31" x="453.90625"/>
       <use xlink:href="#DejaVuSans-35" x="517.529297"/>
      </g>
     </g>
    </g>
    <g id="xtick_21">
     <g id="line2d_49">
      <g>
       <use xlink:href="#mfcef369f2c" x="525.826863" y="794.545464" style="stroke: #000000; stroke-width: 0.8"/>
      </g>
     </g>
     <g id="text_47">
      <!-- 2024-02-01 -->
      <g transform="translate(502.041747 837.183716) rotate(-30) scale(0.1 -0.1)">
       <use xlink:href="#DejaVuSans-32"/>
       <use xlink:href="#DejaVuSans-30" x="63.623047"/>
       <use xlink:href="#DejaVuSans-32" x="127.246094"/>
       <use xlink:href="#DejaVuSans-34" x="190.869141"/>
       <use xlink:href="#DejaVuSans-2d" x="254.492188"/>
       <use xlink:href="#DejaVuSans-30" x="290.576172"/>
       <use xlink:href="#DejaVuSans-32" x="354.199219"/>
       <use xlink:href="#DejaVuSans-2d" x="417.822266"/>
       <use xlink:href="#DejaVuSans-30" x="453.90625"/>
       <use xlink:href="#DejaVuSans-31" x="517.529297"/>
      </g>
     </g>
    </g>
    <g id="text_48">
     <!-- Price date -->
     <g transform="translate(279.128281 850.583216) scale(0.1 -0.1)">
      <use xlink:href="#DejaVuSans-50"/>
      <use xlink:href="#DejaVuSans-72" x="58.552734"/>
      <use xlink:href="#DejaVuSans-69" x="99.666016"/>
      <use xlink:href="#DejaVuSans-63" x="127.449219"/>
      <use xlink:href="#DejaVuSans-65" x="182.429688"/>
      <use xlink:href="#DejaVuSans-20" x="243.953125"/>
      <use xlink:href="#DejaVuSans-64" x="275.740234"/>
      <use xlink:href="#DejaVuSans-61" x="339.216797"/>
      <use xlink:href="#DejaVuSans-74" x="400.496094"/>
      <use xlink:href="#DejaVuSans-65" x="439.705078"/>
     </g>
    </g>
   </g>
   <g id="matplotlib.axis_6">
    <g id="ytick_13">
     <g id="line2d_50">
      <g>
       <use xlink:href="#meb47808ef8" x="43.18" y="785.496777" style="stroke: #000000; stroke-width: 0.8"/>
      </g>
     </g>
     <g id="text_49">
      <!-- 550 -->
      <g transform="translate(17.0925 789.295996) scale(0.1 -0.1)">
       <use xlink:href="#DejaVuSans-35"/>
       <use xlink:href="#DejaVuSans-35" x="63.623047"/>
       <use xlink:href="#DejaVuSans-30" x="127.246094"/>
      </g>
     </g>
    </g>
    <g id="ytick_14">
     <g id="line2d_51">
      <g>
       <use xlink:href="#meb47808ef8" x="43.18" y="762.127234" style="stroke: #000000; stroke-width: 0.8"/>
      </g>
     </g>
     <g id="text_50">
      <!-- 575 -->
      <g transform="translate(17.0925 765.926452) scale(0.1 -0.1)">
       <defs>
        <path id="DejaVuSans-37" d="M 525 4666 
L 3525 4666 
L 3525 4397 
L 1831 0 
L 1172 0 
L 2766 4134 
L 525 4134 
L 525 4666 
z
" transform="scale(0.015625)"/>
       </defs>
       <use xlink:href="#DejaVuSans-35"/>
       <use xlink:href="#DejaVuSans-37" x="63.623047"/>
       <use xlink:href="#DejaVuSans-35" x="127.246094"/>
      </g>
     </g>
    </g>
    <g id="ytick_15">
     <g id="line2d_52">
      <g>
       <use xlink:href="#meb47808ef8" x="43.18" y="738.757691" style="stroke: #000000; stroke-width: 0.8"/>
      </g>
     </g>
     <g id="text_51">
      <!-- 600 -->
      <g transform="translate(17.0925 742.556909) scale(0.1 -0.1)">
       <use xlink:href="#DejaVuSans-36"/>
       <use xlink:href="#DejaVuSans-30" x="63.623047"/>
       <use xlink:href="#DejaVuSans-30" x="127.246094"/>
      </g>
     </g>
    </g>
    <g id="ytick_16">
     <g id="line2d_53">
      <g>
       <use xlink:href="#meb47808ef8" x="43.18" y="715.388148" style="stroke: #000000; stroke-width: 0.8"/>
      </g>
     </g>
     <g id="text_52">
      <!-- 625 -->
      <g transform="translate(17.0925 719.187366) scale(0.1 -0.1)">
       <use xlink:href="#DejaVuSans-36"/>
       <use xlink:href="#DejaVuSans-32" x="63.623047"/>
       <use xlink:href="#DejaVuSans-35" x="127.246094"/>
      </g>
     </g>
    </g>
    <g id="ytick_17">
     <g id="line2d_54">
      <g>
       <use xlink:href="#meb47808ef8" x="43.18" y="692.018604" style="stroke: #000000; stroke-width: 0.8"/>
      </g>
     </g>
     <g id="text_53">
      <!-- 650 -->
      <g transform="translate(17.0925 695.817823) scale(0.1 -0.1)">
       <use xlink:href="#DejaVuSans-36"/>
       <use xlink:href="#DejaVuSans-35" x="63.623047"/>
       <use xlink:href="#DejaVuSans-30" x="127.246094"/>
      </g>
     </g>
    </g>
    <g id="ytick_18">
     <g id="line2d_55">
      <g>
       <use xlink:href="#meb47808ef8" x="43.18" y="668.649061" style="stroke: #000000; stroke-width: 0.8"/>
      </g>
     </g>
     <g id="text_54">
      <!-- 675 -->
      <g transform="translate(17.0925 672.44828) scale(0.1 -0.1)">
       <use xlink:href="#DejaVuSans-36"/>
       <use xlink:href="#DejaVuSans-37" x="63.623047"/>
       <use xlink:href="#DejaVuSans-35" x="127.246094"/>
      </g>
     </g>
    </g>
    <g id="ytick_19">
     <g id="line2d_56">
      <g>
       <use xlink:href="#meb47808ef8" x="43.18" y="645.279518" style="stroke: #000000; stroke-width: 0.8"/>
      </g>
     </g>
     <g id="text_55">
      <!-- 700 -->
      <g transform="translate(17.0925 649.078737) scale(0.1 -0.1)">
       <use xlink:href="#DejaVuSans-37"/>
       <use xlink:href="#DejaVuSans-30" x="63.623047"/>
       <use xlink:href="#DejaVuSans-30" x="127.246094"/>
      </g>
     </g>
    </g>
    <g id="ytick_20">
     <g id="line2d_57">
      <g>
       <use xlink:href="#meb47808ef8" x="43.18" y="621.909975" style="stroke: #000000; stroke-width: 0.8"/>
      </g>
     </g>
     <g id="text_56">
      <!-- 725 -->
      <g transform="translate(17.0925 625.709194) scale(0.1 -0.1)">
       <use xlink:href="#DejaVuSans-37"/>
       <use xlink:href="#DejaVuSans-32" x="63.623047"/>
       <use xlink:href="#DejaVuSans-35" x="127.246094"/>
      </g>
     </g>
    </g>
    <g id="ytick_21">
     <g id="line2d_58">
      <g>
       <use xlink:href="#meb47808ef8" x="43.18" y="598.540432" style="stroke: #000000; stroke-width: 0.8"/>
      </g>
     </g>
     <g id="text_57">
      <!-- 750 -->
      <g transform="translate(17.0925 602.339651) scale(0.1 -0.1)">
       <use xlink:href="#DejaVuSans-37"/>
       <use xlink:href="#DejaVuSans-35" x="63.623047"/>
       <use xlink:href="#DejaVuSans-30" x="127.246094"/>
      </g>
     </g>
    </g>
   </g>
   <g id="line2d_59">
    <path d="M 66.908182 604.719339 
L 72.123167 604.719339 
L 77.338152 604.719339 
L 82.553137 604.719339 
L 87.768122 604.719339 
L 92.983107 604.719339 
L 98.198092 604.719339 
L 103.413077 604.719339 
L 108.628062 604.719339 
L 113.843047 604.719339 
L 119.058032 604.719339 
L 124.273017 604.719339 
L 129.488002 604.719339 
L 134.702987 604.719339 
L 139.917972 604.719339 
L 145.132957 604.719339 
L 150.347942 604.719339 
L 155.562927 604.719339 
L 160.777912 604.719339 
L 165.992897 604.719339 
L 171.207882 604.719339 
L 176.422867 604.719339 
L 181.637852 604.719339 
L 186.852837 604.719339 
L 192.067822 604.719339 
L 197.282807 604.719339 
L 202.497792 604.719339 
L 207.712777 604.719339 
L 212.927762 604.719339 
L 218.142747 604.719339 
L 223.357732 604.719339 
L 228.572717 604.719339 
L 233.787702 604.719339 
L 239.002687 604.719339 
L 244.217672 604.719339 
L 249.432657 604.719339 
L 254.647642 604.719339 
L 259.862627 604.719339 
L 265.077612 604.719339 
L 270.292597 604.719339 
L 275.507582 604.719339 
L 280.722567 604.719339 
L 285.937552 604.719339 
L 291.152537 604.719339 
L 296.367522 604.719339 
L 301.582507 604.719339 
L 306.797493 604.719339 
L 312.012478 604.719339 
L 317.227463 604.719339 
L 322.442448 604.719339 
L 327.657433 604.719339 
L 332.872418 604.719339 
L 338.087403 604.719339 
L 343.302388 604.719339 
L 348.517373 604.719339 
L 353.732358 604.719339 
L 358.947343 604.719339 
L 364.162328 604.719339 
L 369.377313 604.719339 
L 374.592298 604.719339 
L 379.807283 604.719339 
L 385.022268 604.719339 
L 390.237253 604.719339 
L 395.452238 604.719339 
L 400.667223 604.719339 
L 405.882208 604.719339 
L 411.097193 604.719339 
L 416.312178 604.719339 
L 421.527163 604.719339 
L 426.742148 604.719339 
L 431.957133 604.719339 
L 437.172118 604.719339 
L 442.387103 604.719339 
L 447.602088 604.719339 
L 452.817073 604.719339 
L 458.032058 604.719339 
L 463.247043 604.719339 
L 468.462028 604.719339 
L 473.677013 604.719339 
L 478.891998 604.719339 
L 484.106983 604.719339 
L 494.536953 604.719339 
L 499.751938 604.719339 
L 504.966923 604.719339 
L 510.181908 604.719339 
L 515.396893 604.719339 
L 520.611878 604.719339 
L 525.826863 604.719339 
L 531.041848 604.719339 
L 536.256833 604.719339 
L 541.471818 604.719339 
" clip-path="url(#pebab507154)" style="fill: none; stroke: #1f77b4; stroke-width: 1.5; stroke-linecap: square"/>
   </g>
   <g id="line2d_60">
    <path d="M 66.908182 738.767038 
L 72.123167 738.767038 
L 77.338152 738.767038 
L 82.553137 738.767038 
L 87.768122 738.767038 
L 92.983107 738.767038 
L 98.198092 738.767038 
L 103.413077 738.767038 
L 108.628062 738.767038 
L 113.843047 738.767038 
L 119.058032 738.767038 
L 124.273017 738.767038 
L 129.488002 738.767038 
L 134.702987 738.767038 
L 139.917972 738.767038 
L 145.132957 738.767038 
L 150.347942 738.767038 
L 155.562927 785.506125 
L 160.777912 785.506125 
L 165.992897 785.506125 
M 186.852837 785.506125 
" clip-path="url(#pebab507154)" style="fill: none; stroke: #ff7f0e; stroke-width: 1.5; stroke-linecap: square"/>
   </g>
   <g id="line2d_61">
    <path d="M 66.908182 739.692472 
L 72.123167 739.692472 
L 77.338152 739.692472 
L 82.553137 739.692472 
L 87.768122 739.692472 
L 92.983107 739.692472 
L 98.198092 739.692472 
L 103.413077 739.692472 
L 108.628062 739.692472 
L 113.843047 739.692472 
L 119.058032 739.692472 
L 124.273017 739.692472 
L 129.488002 739.692472 
L 134.702987 739.692472 
L 139.917972 739.692472 
L 145.132957 739.692472 
L 150.347942 739.692472 
L 155.562927 739.692472 
L 160.777912 739.692472 
L 165.992897 739.692472 
L 171.207882 739.692472 
L 176.422867 739.692472 
L 181.637852 739.692472 
L 186.852837 739.692472 
L 192.067822 739.692472 
L 197.282807 739.692472 
L 202.497792 739.692472 
L 207.712777 739.692472 
L 212.927762 739.692472 
L 218.142747 739.692472 
L 223.357732 739.692472 
L 228.572717 739.692472 
L 233.787702 739.692472 
L 239.002687 739.692472 
L 244.217672 739.692472 
L 249.432657 739.692472 
L 254.647642 739.692472 
L 259.862627 739.692472 
L 265.077612 739.692472 
L 270.292597 739.692472 
L 275.507582 739.692472 
L 280.722567 739.692472 
L 285.937552 739.692472 
L 291.152537 739.692472 
L 296.367522 739.692472 
L 301.582507 739.692472 
L 306.797493 739.692472 
L 312.012478 739.692472 
L 317.227463 739.692472 
L 322.442448 739.692472 
L 327.657433 739.692472 
L 332.872418 739.692472 
L 338.087403 739.692472 
L 343.302388 739.692472 
L 348.517373 739.692472 
L 353.732358 739.692472 
L 358.947343 739.692472 
L 364.162328 739.692472 
L 369.377313 739.692472 
L 374.592298 739.692472 
L 379.807283 739.692472 
L 385.022268 739.692472 
L 390.237253 739.692472 
L 395.452238 739.692472 
L 400.667223 739.692472 
L 405.882208 739.692472 
L 411.097193 739.692472 
L 416.312178 739.692472 
L 421.527163 739.692472 
L 426.742148 739.692472 
L 431.957133 739.692472 
L 437.172118 739.692472 
L 442.387103 739.692472 
L 447.602088 739.692472 
L 452.817073 739.692472 
L 458.032058 739.692472 
L 463.247043 739.692472 
L 468.462028 739.692472 
L 473.677013 739.692472 
L 478.891998 739.692472 
L 484.106983 739.692472 
L 494.536953 739.692472 
L 499.751938 739.692472 
L 504.966923 739.692472 
L 510.181908 739.692472 
L 515.396893 739.692472 
L 520.611878 739.692472 
L 525.826863 739.692472 
L 531.041848 739.692472 
L 536.256833 739.692472 
L 541.471818 739.692472 
" clip-path="url(#pebab507154)" style="fill: none; stroke: #2ca02c; stroke-width: 1.5; stroke-linecap: square"/>
   </g>
   <g id="line2d_62">
    <path d="M 66.908182 670.518625 
L 72.123167 670.518625 
L 77.338152 670.518625 
L 82.553137 670.518625 
L 87.768122 670.518625 
L 92.983107 670.518625 
L 98.198092 670.518625 
L 103.413077 670.518625 
L 108.628062 670.518625 
L 113.843047 670.518625 
L 119.058032 670.518625 
L 124.273017 670.518625 
L 129.488002 670.518625 
L 134.702987 670.518625 
L 139.917972 670.518625 
L 145.132957 670.518625 
L 150.347942 670.518625 
L 155.562927 670.518625 
L 160.777912 670.518625 
L 165.992897 670.518625 
L 171.207882 670.518625 
L 176.422867 670.518625 
L 181.637852 670.518625 
L 186.852837 670.518625 
L 192.067822 670.518625 
L 197.282807 670.518625 
L 202.497792 670.518625 
L 207.712777 670.518625 
L 212.927762 670.518625 
L 218.142747 670.518625 
L 223.357732 670.518625 
L 228.572717 670.518625 
L 233.787702 670.518625 
L 239.002687 670.518625 
L 244.217672 670.518625 
L 249.432657 670.518625 
L 254.647642 670.518625 
L 259.862627 670.518625 
L 265.077612 670.518625 
L 270.292597 670.518625 
L 275.507582 670.518625 
L 280.722567 670.518625 
L 285.937552 670.518625 
L 291.152537 670.518625 
L 296.367522 670.518625 
L 301.582507 670.518625 
L 306.797493 670.518625 
L 312.012478 670.518625 
L 317.227463 670.518625 
L 322.442448 670.518625 
L 327.657433 670.518625 
L 332.872418 670.518625 
L 338.087403 670.518625 
L 343.302388 670.518625 
L 348.517373 670.518625 
L 353.732358 670.518625 
L 358.947343 670.518625 
L 364.162328 670.518625 
L 369.377313 670.518625 
L 374.592298 670.518625 
L 379.807283 670.518625 
L 385.022268 670.518625 
L 390.237253 670.518625 
L 395.452238 670.518625 
L 400.667223 670.518625 
L 405.882208 670.518625 
L 411.097193 670.518625 
L 416.312178 670.518625 
L 421.527163 670.518625 
L 426.742148 670.518625 
L 431.957133 670.518625 
L 437.172118 670.518625 
L 442.387103 670.518625 
L 447.602088 670.518625 
L 452.817073 670.518625 
L 458.032058 670.518625 
L 463.247043 670.518625 
L 468.462028 670.518625 
L 473.677013 670.518625 
L 478.891998 670.518625 
L 484.106983 670.518625 
L 494.536953 670.518625 
L 499.751938 670.518625 
L 504.966923 670.518625 
L 510.181908 670.518625 
L 515.396893 670.518625 
L 520.611878 670.518625 
L 525.826863 670.518625 
L 531.041848 670.518625 
L 536.256833 670.518625 
L 541.471818 670.518625 
" clip-path="url(#pebab507154)" style="fill: none; stroke: #d62728; stroke-width: 1.5; stroke-linecap: square"/>
   </g>
   <g id="patch_15">
    <path d="M 43.18 794.545464 
L 43.18 595.68 
" style="fill: none; stroke: #000000; stroke-width: 0.8; stroke-linejoin: miter; stroke-linecap: square"/>
   </g>
   <g id="patch_16">
    <path d="M 565.2 794.545464 
L 565.2 595.68 
" style="fill: none; stroke: #000000; stroke-width: 0.8; stroke-linejoin: miter; stroke-linecap: square"/>
   </g>
   <g id="patch_17">
    <path d="M 43.18 794.545464 
L 565.2 794.545464 
" style="fill: none; stroke: #000000; stroke-width: 0.8; stroke-linejoin: miter; stroke-linecap: square"/>
   </g>
   <g id="patch_18">
    <path d="M 43.18 595.68 
L 565.2 595.68 
" style="fill: none; stroke: #000000; stroke-width: 0.8; stroke-linejoin: miter; stroke-linecap: square"/>
   </g>
   <g id="text_58">
    <!-- HP 15-fd0007nm -->
    <g transform="translate(253.515312 589.68) scale(0.12 -0.12)">
     <defs>
      <path id="DejaVuSans-48" d="M 628 4666 
L 1259 4666 
L 1259 2753 
L 3553 2753 
L 3553 4666 
L 4184 4666 
L 4184 0 
L 3553 0 
L 3553 2222 
L 1259 2222 
L 1259 0 
L 628 0 
L 628 4666 
z
" transform="scale(0.015625)"/>
     </defs>
     <use xlink:href="#DejaVuSans-48"/>
     <use xlink:href="#DejaVuSans-50" x="75.195312"/>
     <use xlink:href="#DejaVuSans-20" x="135.498047"/>
     <use xlink:href="#DejaVuSans-31" x="167.285156"/>
     <use xlink:href="#DejaVuSans-35" x="230.908203"/>
     <use xlink:href="#DejaVuSans-2d" x="294.53125"/>
     <use xlink:href="#DejaVuSans-66" x="330.615234"/>
     <use xlink:href="#DejaVuSans-64" x="365.820312"/>
     <use xlink:href="#DejaVuSans-30" x="429.296875"/>
     <use xlink:href="#DejaVuSans-30" x="492.919922"/>
     <use xlink:href="#DejaVuSans-30" x="556.542969"/>
     <use xlink:href="#DejaVuSans-37" x="620.166016"/>
     <use xlink:href="#DejaVuSans-6e" x="683.789062"/>
     <use xlink:href="#DejaVuSans-6d" x="747.167969"/>
    </g>
   </g>
   <g id="legend_3">
    <g id="patch_19">
     <path d="M 424.117188 789.545464 
L 558.2 789.545464 
Q 560.2 789.545464 560.2 787.545464 
L 560.2 715.154839 
Q 560.2 713.154839 558.2 713.154839 
L 424.117188 713.154839 
Q 422.117188 713.154839 422.117188 715.154839 
L 422.117188 787.545464 
Q 422.117188 789.545464 424.117188 789.545464 
z
" style="fill: #ffffff; opacity: 0.8; stroke: #cccccc; stroke-linejoin: miter"/>
    </g>
    <g id="text_59">
     <!-- source -->
     <g transform="translate(474.557031 724.753276) scale(0.1 -0.1)">
      <use xlink:href="#DejaVuSans-73"/>
      <use xlink:href="#DejaVuSans-6f" x="52.099609"/>
      <use xlink:href="#DejaVuSans-75" x="113.28125"/>
      <use xlink:href="#DejaVuSans-72" x="176.660156"/>
      <use xlink:href="#DejaVuSans-63" x="215.523438"/>
      <use xlink:href="#DejaVuSans-65" x="270.503906"/>
     </g>
    </g>
    <g id="line2d_63">
     <path d="M 426.117188 735.931401 
L 436.117188 735.931401 
L 446.117188 735.931401 
" style="fill: none; stroke: #1f77b4; stroke-width: 1.5; stroke-linecap: square"/>
    </g>
    <g id="text_60">
     <!-- instar-informatika.hr -->
     <g transform="translate(454.117188 739.431401) scale(0.1 -0.1)">
      <use xlink:href="#DejaVuSans-69"/>
      <use xlink:href="#DejaVuSans-6e" x="27.783203"/>
      <use xlink:href="#DejaVuSans-73" x="91.162109"/>
      <use xlink:href="#DejaVuSans-74" x="143.261719"/>
      <use xlink:href="#DejaVuSans-61" x="182.470703"/>
      <use xlink:href="#DejaVuSans-72" x="243.75"/>
      <use xlink:href="#DejaVuSans-2d" x="278.488281"/>
      <use xlink:href="#DejaVuSans-69" x="314.572266"/>
      <use xlink:href="#DejaVuSans-6e" x="342.355469"/>
      <use xlink:href="#DejaVuSans-66" x="405.734375"/>
      <use xlink:href="#DejaVuSans-6f" x="440.939453"/>
      <use xlink:href="#DejaVuSans-72" x="502.121094"/>
      <use xlink:href="#DejaVuSans-6d" x="541.484375"/>
      <use xlink:href="#DejaVuSans-61" x="638.896484"/>
      <use xlink:href="#DejaVuSans-74" x="700.175781"/>
      <use xlink:href="#DejaVuSans-69" x="739.384766"/>
      <use xlink:href="#DejaVuSans-6b" x="767.167969"/>
      <use xlink:href="#DejaVuSans-61" x="823.328125"/>
      <use xlink:href="#DejaVuSans-2e" x="884.607422"/>
      <use xlink:href="#DejaVuSans-68" x="916.394531"/>
      <use xlink:href="#DejaVuSans-72" x="979.773438"/>
     </g>
    </g>
    <g id="line2d_64">
     <path d="M 426.117188 750.609526 
L 436.117188 750.609526 
L 446.117188 750.609526 
" style="fill: none; stroke: #ff7f0e; stroke-width: 1.5; stroke-linecap: square"/>
    </g>
    <g id="text_61">
     <!-- links.hr -->
     <g transform="translate(454.117188 754.109526) scale(0.1 -0.1)">
      <use xlink:href="#DejaVuSans-6c"/>
      <use xlink:href="#DejaVuSans-69" x="27.783203"/>
      <use xlink:href="#DejaVuSans-6e" x="55.566406"/>
      <use xlink:href="#DejaVuSans-6b" x="118.945312"/>
      <use xlink:href="#DejaVuSans-73" x="176.855469"/>
      <use xlink:href="#DejaVuSans-2e" x="228.955078"/>
      <use xlink:href="#DejaVuSans-68" x="260.742188"/>
      <use xlink:href="#DejaVuSans-72" x="324.121094"/>
     </g>
    </g>
    <g id="line2d_65">
     <path d="M 426.117188 765.287651 
L 436.117188 765.287651 
L 446.117188 765.287651 
" style="fill: none; stroke: #2ca02c; stroke-width: 1.5; stroke-linecap: square"/>
    </g>
    <g id="text_62">
     <!-- mikronis.hr -->
     <g transform="translate(454.117188 768.787651) scale(0.1 -0.1)">
      <use xlink:href="#DejaVuSans-6d"/>
      <use xlink:href="#DejaVuSans-69" x="97.412109"/>
      <use xlink:href="#DejaVuSans-6b" x="125.195312"/>
      <use xlink:href="#DejaVuSans-72" x="183.105469"/>
      <use xlink:href="#DejaVuSans-6f" x="221.96875"/>
      <use xlink:href="#DejaVuSans-6e" x="283.150391"/>
      <use xlink:href="#DejaVuSans-69" x="346.529297"/>
      <use xlink:href="#DejaVuSans-73" x="374.3125"/>
      <use xlink:href="#DejaVuSans-2e" x="426.412109"/>
      <use xlink:href="#DejaVuSans-68" x="458.199219"/>
      <use xlink:href="#DejaVuSans-72" x="521.578125"/>
     </g>
    </g>
    <g id="line2d_66">
     <path d="M 426.117188 779.965776 
L 436.117188 779.965776 
L 446.117188 779.965776 
" style="fill: none; stroke: #d62728; stroke-width: 1.5; stroke-linecap: square"/>
    </g>
    <g id="text_63">
     <!-- nabava.net -->
     <g transform="translate(454.117188 783.465776) scale(0.1 -0.1)">
      <use xlink:href="#DejaVuSans-6e"/>
      <use xlink:href="#DejaVuSans-61" x="63.378906"/>
      <use xlink:href="#DejaVuSans-62" x="124.658203"/>
      <use xlink:href="#DejaVuSans-61" x="188.134766"/>
      <use xlink:href="#DejaVuSans-76" x="249.414062"/>
      <use xlink:href="#DejaVuSans-61" x="308.59375"/>
      <use xlink:href="#DejaVuSans-2e" x="369.873047"/>
      <use xlink:href="#DejaVuSans-6e" x="401.660156"/>
      <use xlink:href="#DejaVuSans-65" x="465.039062"/>
      <use xlink:href="#DejaVuSans-74" x="526.5625"/>
     </g>
    </g>
   </g>
  </g>
 </g>
 <defs>
  <clipPath id="p1782889a34">
   <rect x="43.18" y="26.88" width="522.02" height="198.865464"/>
  </clipPath>
  <clipPath id="p54346b4d5d">
   <rect x="43.18" y="311.28" width="522.02" height="198.865464"/>
  </clipPath>
  <clipPath id="pebab507154">
   <rect x="43.18" y="595.68" width="522.02" height="198.865464"/>
  </clipPath>
 </defs>
</svg>
