<?xml version="1.0" encoding="utf-8" standalone="no"?>
<!DOCTYPE svg PUBLIC "-//W3C//DTD SVG 1.1//EN"
  "http://www.w3.org/Graphics/SVG/1.1/DTD/svg11.dtd">
<svg xmlns:xlink="http://www.w3.org/1999/xlink" width="576pt" height="864pt" viewBox="0 0 576 864" xmlns="http://www.w3.org/2000/svg" version="1.1">
 <metadata>
  <rdf:RDF xmlns:dc="http://purl.org/dc/elements/1.1/" xmlns:cc="http://creativecommons.org/ns#" xmlns:rdf="http://www.w3.org/1999/02/22-rdf-syntax-ns#">
   <cc:Work>
    <dc:type rdf:resource="http://purl.org/dc/dcmitype/StillImage"/>
    <dc:date>2024-01-27T00:38:09.311453</dc:date>
    <dc:format>image/svg+xml</dc:format>
    <dc:creator>
     <cc:Agent>
      <dc:title>Matplotlib v3.8.2, https://matplotlib.org/</dc:title>
     </cc:Agent>
    </dc:creator>
   </cc:Work>
  </rdf:RDF>
 </metadata>
 <defs>
  <style type="text/css">*{stroke-linejoin: round; stroke-linecap: butt}</style>
 </defs>
 <g id="figure_1">
  <g id="patch_1">
   <path d="M 0 864 
L 576 864 
L 576 0 
L 0 0 
z
" style="fill: #ffffff"/>
  </g>
  <g id="axes_1">
   <g id="patch_2">
    <path d="M 43.18 225.745464 
L 565.2 225.745464 
L 565.2 26.88 
L 43.18 26.88 
z
" style="fill: #ffffff"/>
   </g>
   <g id="matplotlib.axis_1">
    <g id="xtick_1">
     <g id="line2d_1">
      <defs>
       <path id="me8929e1fe6" d="M 0 0 
L 0 3.5 
" style="stroke: #000000; stroke-width: 0.8"/>
      </defs>
      <g>
       <use xlink:href="#me8929e1fe6" x="82.72697" y="225.745464" style="stroke: #000000; stroke-width: 0.8"/>
      </g>
     </g>
     <g id="text_1">
      <!-- 2023-11-01 -->
      <g transform="translate(58.941853 268.383716) rotate(-30) scale(0.1 -0.1)">
       <defs>
        <path id="DejaVuSans-32" d="M 1228 531 
L 3431 531 
L 3431 0 
L 469 0 
L 469 531 
Q 828 903 1448 1529 
Q 2069 2156 2228 2338 
Q 2531 2678 2651 2914 
Q 2772 3150 2772 3378 
Q 2772 3750 2511 3984 
Q 2250 4219 1831 4219 
Q 1534 4219 1204 4116 
Q 875 4013 500 3803 
L 500 4441 
Q 881 4594 1212 4672 
Q 1544 4750 1819 4750 
Q 2544 4750 2975 4387 
Q 3406 4025 3406 3419 
Q 3406 3131 3298 2873 
Q 3191 2616 2906 2266 
Q 2828 2175 2409 1742 
Q 1991 1309 1228 531 
z
" transform="scale(0.015625)"/>
        <path id="DejaVuSans-30" d="M 2034 4250 
Q 1547 4250 1301 3770 
Q 1056 3291 1056 2328 
Q 1056 1369 1301 889 
Q 1547 409 2034 409 
Q 2525 409 2770 889 
Q 3016 1369 3016 2328 
Q 3016 3291 2770 3770 
Q 2525 4250 2034 4250 
z
M 2034 4750 
Q 2819 4750 3233 4129 
Q 3647 3509 3647 2328 
Q 3647 1150 3233 529 
Q 2819 -91 2034 -91 
Q 1250 -91 836 529 
Q 422 1150 422 2328 
Q 422 3509 836 4129 
Q 1250 4750 2034 4750 
z
" transform="scale(0.015625)"/>
        <path id="DejaVuSans-33" d="M 2597 2516 
Q 3050 2419 3304 2112 
Q 3559 1806 3559 1356 
Q 3559 666 3084 287 
Q 2609 -91 1734 -91 
Q 1441 -91 1130 -33 
Q 819 25 488 141 
L 488 750 
Q 750 597 1062 519 
Q 1375 441 1716 441 
Q 2309 441 2620 675 
Q 2931 909 2931 1356 
Q 2931 1769 2642 2001 
Q 2353 2234 1838 2234 
L 1294 2234 
L 1294 2753 
L 1863 2753 
Q 2328 2753 2575 2939 
Q 2822 3125 2822 3475 
Q 2822 3834 2567 4026 
Q 2313 4219 1838 4219 
Q 1578 4219 1281 4162 
Q 984 4106 628 3988 
L 628 4550 
Q 988 4650 1302 4700 
Q 1616 4750 1894 4750 
Q 2613 4750 3031 4423 
Q 3450 4097 3450 3541 
Q 3450 3153 3228 2886 
Q 3006 2619 2597 2516 
z
" transform="scale(0.015625)"/>
        <path id="DejaVuSans-2d" d="M 313 2009 
L 1997 2009 
L 1997 1497 
L 313 1497 
L 313 2009 
z
" transform="scale(0.015625)"/>
        <path id="DejaVuSans-31" d="M 794 531 
L 1825 531 
L 1825 4091 
L 703 3866 
L 703 4441 
L 1819 4666 
L 2450 4666 
L 2450 531 
L 3481 531 
L 3481 0 
L 794 0 
L 794 531 
z
" transform="scale(0.015625)"/>
       </defs>
       <use xlink:href="#DejaVuSans-32"/>
       <use xlink:href="#DejaVuSans-30" x="63.623047"/>
       <use xlink:href="#DejaVuSans-32" x="127.246094"/>
       <use xlink:href="#DejaVuSans-33" x="190.869141"/>
       <use xlink:href="#DejaVuSans-2d" x="254.492188"/>
       <use xlink:href="#DejaVuSans-31" x="290.576172"/>
       <use xlink:href="#DejaVuSans-31" x="354.199219"/>
       <use xlink:href="#DejaVuSans-2d" x="417.822266"/>
       <use xlink:href="#DejaVuSans-30" x="453.90625"/>
       <use xlink:href="#DejaVuSans-31" x="517.529297"/>
      </g>
     </g>
    </g>
    <g id="xtick_2">
     <g id="line2d_2">
      <g>
       <use xlink:href="#me8929e1fe6" x="156.54798" y="225.745464" style="stroke: #000000; stroke-width: 0.8"/>
      </g>
     </g>
     <g id="text_2">
      <!-- 2023-11-15 -->
      <g transform="translate(132.762863 268.383716) rotate(-30) scale(0.1 -0.1)">
       <defs>
        <path id="DejaVuSans-35" d="M 691 4666 
L 3169 4666 
L 3169 4134 
L 1269 4134 
L 1269 2991 
Q 1406 3038 1543 3061 
Q 1681 3084 1819 3084 
Q 2600 3084 3056 2656 
Q 3513 2228 3513 1497 
Q 3513 744 3044 326 
Q 2575 -91 1722 -91 
Q 1428 -91 1123 -41 
Q 819 9 494 109 
L 494 744 
Q 775 591 1075 516 
Q 1375 441 1709 441 
Q 2250 441 2565 725 
Q 2881 1009 2881 1497 
Q 2881 1984 2565 2268 
Q 2250 2553 1709 2553 
Q 1456 2553 1204 2497 
Q 953 2441 691 2322 
L 691 4666 
z
" transform="scale(0.015625)"/>
       </defs>
       <use xlink:href="#DejaVuSans-32"/>
       <use xlink:href="#DejaVuSans-30" x="63.623047"/>
       <use xlink:href="#DejaVuSans-32" x="127.246094"/>
       <use xlink:href="#DejaVuSans-33" x="190.869141"/>
       <use xlink:href="#DejaVuSans-2d" x="254.492188"/>
       <use xlink:href="#DejaVuSans-31" x="290.576172"/>
       <use xlink:href="#DejaVuSans-31" x="354.199219"/>
       <use xlink:href="#DejaVuSans-2d" x="417.822266"/>
       <use xlink:href="#DejaVuSans-31" x="453.90625"/>
       <use xlink:href="#DejaVuSans-35" x="517.529297"/>
      </g>
     </g>
    </g>
    <g id="xtick_3">
     <g id="line2d_3">
      <g>
       <use xlink:href="#me8929e1fe6" x="240.914848" y="225.745464" style="stroke: #000000; stroke-width: 0.8"/>
      </g>
     </g>
     <g id="text_3">
      <!-- 2023-12-01 -->
      <g transform="translate(217.129732 268.383716) rotate(-30) scale(0.1 -0.1)">
       <use xlink:href="#DejaVuSans-32"/>
       <use xlink:href="#DejaVuSans-30" x="63.623047"/>
       <use xlink:href="#DejaVuSans-32" x="127.246094"/>
       <use xlink:href="#DejaVuSans-33" x="190.869141"/>
       <use xlink:href="#DejaVuSans-2d" x="254.492188"/>
       <use xlink:href="#DejaVuSans-31" x="290.576172"/>
       <use xlink:href="#DejaVuSans-32" x="354.199219"/>
       <use xlink:href="#DejaVuSans-2d" x="417.822266"/>
       <use xlink:href="#DejaVuSans-30" x="453.90625"/>
       <use xlink:href="#DejaVuSans-31" x="517.529297"/>
      </g>
     </g>
    </g>
    <g id="xtick_4">
     <g id="line2d_4">
      <g>
       <use xlink:href="#me8929e1fe6" x="314.735859" y="225.745464" style="stroke: #000000; stroke-width: 0.8"/>
      </g>
     </g>
     <g id="text_4">
      <!-- 2023-12-15 -->
      <g transform="translate(290.950742 268.383716) rotate(-30) scale(0.1 -0.1)">
       <use xlink:href="#DejaVuSans-32"/>
       <use xlink:href="#DejaVuSans-30" x="63.623047"/>
       <use xlink:href="#DejaVuSans-32" x="127.246094"/>
       <use xlink:href="#DejaVuSans-33" x="190.869141"/>
       <use xlink:href="#DejaVuSans-2d" x="254.492188"/>
       <use xlink:href="#DejaVuSans-31" x="290.576172"/>
       <use xlink:href="#DejaVuSans-32" x="354.199219"/>
       <use xlink:href="#DejaVuSans-2d" x="417.822266"/>
       <use xlink:href="#DejaVuSans-31" x="453.90625"/>
       <use xlink:href="#DejaVuSans-35" x="517.529297"/>
      </g>
     </g>
    </g>
    <g id="xtick_5">
     <g id="line2d_5">
      <g>
       <use xlink:href="#me8929e1fe6" x="404.375657" y="225.745464" style="stroke: #000000; stroke-width: 0.8"/>
      </g>
     </g>
     <g id="text_5">
      <!-- 2024-01-01 -->
      <g transform="translate(380.59054 268.383716) rotate(-30) scale(0.1 -0.1)">
       <defs>
        <path id="DejaVuSans-34" d="M 2419 4116 
L 825 1625 
L 2419 1625 
L 2419 4116 
z
M 2253 4666 
L 3047 4666 
L 3047 1625 
L 3713 1625 
L 3713 1100 
L 3047 1100 
L 3047 0 
L 2419 0 
L 2419 1100 
L 313 1100 
L 313 1709 
L 2253 4666 
z
" transform="scale(0.015625)"/>
       </defs>
       <use xlink:href="#DejaVuSans-32"/>
       <use xlink:href="#DejaVuSans-30" x="63.623047"/>
       <use xlink:href="#DejaVuSans-32" x="127.246094"/>
       <use xlink:href="#DejaVuSans-34" x="190.869141"/>
       <use xlink:href="#DejaVuSans-2d" x="254.492188"/>
       <use xlink:href="#DejaVuSans-30" x="290.576172"/>
       <use xlink:href="#DejaVuSans-31" x="354.199219"/>
       <use xlink:href="#DejaVuSans-2d" x="417.822266"/>
       <use xlink:href="#DejaVuSans-30" x="453.90625"/>
       <use xlink:href="#DejaVuSans-31" x="517.529297"/>
      </g>
     </g>
    </g>
    <g id="xtick_6">
     <g id="line2d_6">
      <g>
       <use xlink:href="#me8929e1fe6" x="478.196667" y="225.745464" style="stroke: #000000; stroke-width: 0.8"/>
      </g>
     </g>
     <g id="text_6">
      <!-- 2024-01-15 -->
      <g transform="translate(454.41155 268.383716) rotate(-30) scale(0.1 -0.1)">
       <use xlink:href="#DejaVuSans-32"/>
       <use xlink:href="#DejaVuSans-30" x="63.623047"/>
       <use xlink:href="#DejaVuSans-32" x="127.246094"/>
       <use xlink:href="#DejaVuSans-34" x="190.869141"/>
       <use xlink:href="#DejaVuSans-2d" x="254.492188"/>
       <use xlink:href="#DejaVuSans-30" x="290.576172"/>
       <use xlink:href="#DejaVuSans-31" x="354.199219"/>
       <use xlink:href="#DejaVuSans-2d" x="417.822266"/>
       <use xlink:href="#DejaVuSans-31" x="453.90625"/>
       <use xlink:href="#DejaVuSans-35" x="517.529297"/>
      </g>
     </g>
    </g>
    <g id="text_7">
     <!-- Price date -->
     <g transform="translate(279.128281 281.783216) scale(0.1 -0.1)">
      <defs>
       <path id="DejaVuSans-50" d="M 1259 4147 
L 1259 2394 
L 2053 2394 
Q 2494 2394 2734 2622 
Q 2975 2850 2975 3272 
Q 2975 3691 2734 3919 
Q 2494 4147 2053 4147 
L 1259 4147 
z
M 628 4666 
L 2053 4666 
Q 2838 4666 3239 4311 
Q 3641 3956 3641 3272 
Q 3641 2581 3239 2228 
Q 2838 1875 2053 1875 
L 1259 1875 
L 1259 0 
L 628 0 
L 628 4666 
z
" transform="scale(0.015625)"/>
       <path id="DejaVuSans-72" d="M 2631 2963 
Q 2534 3019 2420 3045 
Q 2306 3072 2169 3072 
Q 1681 3072 1420 2755 
Q 1159 2438 1159 1844 
L 1159 0 
L 581 0 
L 581 3500 
L 1159 3500 
L 1159 2956 
Q 1341 3275 1631 3429 
Q 1922 3584 2338 3584 
Q 2397 3584 2469 3576 
Q 2541 3569 2628 3553 
L 2631 2963 
z
" transform="scale(0.015625)"/>
       <path id="DejaVuSans-69" d="M 603 3500 
L 1178 3500 
L 1178 0 
L 603 0 
L 603 3500 
z
M 603 4863 
L 1178 4863 
L 1178 4134 
L 603 4134 
L 603 4863 
z
" transform="scale(0.015625)"/>
       <path id="DejaVuSans-63" d="M 3122 3366 
L 3122 2828 
Q 2878 2963 2633 3030 
Q 2388 3097 2138 3097 
Q 1578 3097 1268 2742 
Q 959 2388 959 1747 
Q 959 1106 1268 751 
Q 1578 397 2138 397 
Q 2388 397 2633 464 
Q 2878 531 3122 666 
L 3122 134 
Q 2881 22 2623 -34 
Q 2366 -91 2075 -91 
Q 1284 -91 818 406 
Q 353 903 353 1747 
Q 353 2603 823 3093 
Q 1294 3584 2113 3584 
Q 2378 3584 2631 3529 
Q 2884 3475 3122 3366 
z
" transform="scale(0.015625)"/>
       <path id="DejaVuSans-65" d="M 3597 1894 
L 3597 1613 
L 953 1613 
Q 991 1019 1311 708 
Q 1631 397 2203 397 
Q 2534 397 2845 478 
Q 3156 559 3463 722 
L 3463 178 
Q 3153 47 2828 -22 
Q 2503 -91 2169 -91 
Q 1331 -91 842 396 
Q 353 884 353 1716 
Q 353 2575 817 3079 
Q 1281 3584 2069 3584 
Q 2775 3584 3186 3129 
Q 3597 2675 3597 1894 
z
M 3022 2063 
Q 3016 2534 2758 2815 
Q 2500 3097 2075 3097 
Q 1594 3097 1305 2825 
Q 1016 2553 972 2059 
L 3022 2063 
z
" transform="scale(0.015625)"/>
       <path id="DejaVuSans-20" transform="scale(0.015625)"/>
       <path id="DejaVuSans-64" d="M 2906 2969 
L 2906 4863 
L 3481 4863 
L 3481 0 
L 2906 0 
L 2906 525 
Q 2725 213 2448 61 
Q 2172 -91 1784 -91 
Q 1150 -91 751 415 
Q 353 922 353 1747 
Q 353 2572 751 3078 
Q 1150 3584 1784 3584 
Q 2172 3584 2448 3432 
Q 2725 3281 2906 2969 
z
M 947 1747 
Q 947 1113 1208 752 
Q 1469 391 1925 391 
Q 2381 391 2643 752 
Q 2906 1113 2906 1747 
Q 2906 2381 2643 2742 
Q 2381 3103 1925 3103 
Q 1469 3103 1208 2742 
Q 947 2381 947 1747 
z
" transform="scale(0.015625)"/>
       <path id="DejaVuSans-61" d="M 2194 1759 
Q 1497 1759 1228 1600 
Q 959 1441 959 1056 
Q 959 750 1161 570 
Q 1363 391 1709 391 
Q 2188 391 2477 730 
Q 2766 1069 2766 1631 
L 2766 1759 
L 2194 1759 
z
M 3341 1997 
L 3341 0 
L 2766 0 
L 2766 531 
Q 2569 213 2275 61 
Q 1981 -91 1556 -91 
Q 1019 -91 701 211 
Q 384 513 384 1019 
Q 384 1609 779 1909 
Q 1175 2209 1959 2209 
L 2766 2209 
L 2766 2266 
Q 2766 2663 2505 2880 
Q 2244 3097 1772 3097 
Q 1472 3097 1187 3025 
Q 903 2953 641 2809 
L 641 3341 
Q 956 3463 1253 3523 
Q 1550 3584 1831 3584 
Q 2591 3584 2966 3190 
Q 3341 2797 3341 1997 
z
" transform="scale(0.015625)"/>
       <path id="DejaVuSans-74" d="M 1172 4494 
L 1172 3500 
L 2356 3500 
L 2356 3053 
L 1172 3053 
L 1172 1153 
Q 1172 725 1289 603 
Q 1406 481 1766 481 
L 2356 481 
L 2356 0 
L 1766 0 
Q 1100 0 847 248 
Q 594 497 594 1153 
L 594 3053 
L 172 3053 
L 172 3500 
L 594 3500 
L 594 4494 
L 1172 4494 
z
" transform="scale(0.015625)"/>
      </defs>
      <use xlink:href="#DejaVuSans-50"/>
      <use xlink:href="#DejaVuSans-72" x="58.552734"/>
      <use xlink:href="#DejaVuSans-69" x="99.666016"/>
      <use xlink:href="#DejaVuSans-63" x="127.449219"/>
      <use xlink:href="#DejaVuSans-65" x="182.429688"/>
      <use xlink:href="#DejaVuSans-20" x="243.953125"/>
      <use xlink:href="#DejaVuSans-64" x="275.740234"/>
      <use xlink:href="#DejaVuSans-61" x="339.216797"/>
      <use xlink:href="#DejaVuSans-74" x="400.496094"/>
      <use xlink:href="#DejaVuSans-65" x="439.705078"/>
     </g>
    </g>
   </g>
   <g id="matplotlib.axis_2">
    <g id="ytick_1">
     <g id="line2d_7">
      <defs>
       <path id="m2004dc1aa9" d="M 0 0 
L -3.5 0 
" style="stroke: #000000; stroke-width: 0.8"/>
      </defs>
      <g>
       <use xlink:href="#m2004dc1aa9" x="43.18" y="220.480553" style="stroke: #000000; stroke-width: 0.8"/>
      </g>
     </g>
     <g id="text_8">
      <!-- 1150 -->
      <g transform="translate(10.73 224.279772) scale(0.1 -0.1)">
       <use xlink:href="#DejaVuSans-31"/>
       <use xlink:href="#DejaVuSans-31" x="63.623047"/>
       <use xlink:href="#DejaVuSans-35" x="127.246094"/>
       <use xlink:href="#DejaVuSans-30" x="190.869141"/>
      </g>
     </g>
    </g>
    <g id="ytick_2">
     <g id="line2d_8">
      <g>
       <use xlink:href="#m2004dc1aa9" x="43.18" y="182.660632" style="stroke: #000000; stroke-width: 0.8"/>
      </g>
     </g>
     <g id="text_9">
      <!-- 1200 -->
      <g transform="translate(10.73 186.459851) scale(0.1 -0.1)">
       <use xlink:href="#DejaVuSans-31"/>
       <use xlink:href="#DejaVuSans-32" x="63.623047"/>
       <use xlink:href="#DejaVuSans-30" x="127.246094"/>
       <use xlink:href="#DejaVuSans-30" x="190.869141"/>
      </g>
     </g>
    </g>
    <g id="ytick_3">
     <g id="line2d_9">
      <g>
       <use xlink:href="#m2004dc1aa9" x="43.18" y="144.840711" style="stroke: #000000; stroke-width: 0.8"/>
      </g>
     </g>
     <g id="text_10">
      <!-- 1250 -->
      <g transform="translate(10.73 148.63993) scale(0.1 -0.1)">
       <use xlink:href="#DejaVuSans-31"/>
       <use xlink:href="#DejaVuSans-32" x="63.623047"/>
       <use xlink:href="#DejaVuSans-35" x="127.246094"/>
       <use xlink:href="#DejaVuSans-30" x="190.869141"/>
      </g>
     </g>
    </g>
    <g id="ytick_4">
     <g id="line2d_10">
      <g>
       <use xlink:href="#m2004dc1aa9" x="43.18" y="107.02079" style="stroke: #000000; stroke-width: 0.8"/>
      </g>
     </g>
     <g id="text_11">
      <!-- 1300 -->
      <g transform="translate(10.73 110.820009) scale(0.1 -0.1)">
       <use xlink:href="#DejaVuSans-31"/>
       <use xlink:href="#DejaVuSans-33" x="63.623047"/>
       <use xlink:href="#DejaVuSans-30" x="127.246094"/>
       <use xlink:href="#DejaVuSans-30" x="190.869141"/>
      </g>
     </g>
    </g>
    <g id="ytick_5">
     <g id="line2d_11">
      <g>
       <use xlink:href="#m2004dc1aa9" x="43.18" y="69.20087" style="stroke: #000000; stroke-width: 0.8"/>
      </g>
     </g>
     <g id="text_12">
      <!-- 1350 -->
      <g transform="translate(10.73 73.000088) scale(0.1 -0.1)">
       <use xlink:href="#DejaVuSans-31"/>
       <use xlink:href="#DejaVuSans-33" x="63.623047"/>
       <use xlink:href="#DejaVuSans-35" x="127.246094"/>
       <use xlink:href="#DejaVuSans-30" x="190.869141"/>
      </g>
     </g>
    </g>
    <g id="ytick_6">
     <g id="line2d_12">
      <g>
       <use xlink:href="#m2004dc1aa9" x="43.18" y="31.380949" style="stroke: #000000; stroke-width: 0.8"/>
      </g>
     </g>
     <g id="text_13">
      <!-- 1400 -->
      <g transform="translate(10.73 35.180168) scale(0.1 -0.1)">
       <use xlink:href="#DejaVuSans-31"/>
       <use xlink:href="#DejaVuSans-34" x="63.623047"/>
       <use xlink:href="#DejaVuSans-30" x="127.246094"/>
       <use xlink:href="#DejaVuSans-30" x="190.869141"/>
      </g>
     </g>
    </g>
   </g>
   <g id="line2d_13">
    <path d="M 103.818687 152.412259 
L 109.091616 152.412259 
L 114.364545 152.412259 
L 119.637475 152.412259 
L 124.910404 152.412259 
L 130.183333 152.412259 
L 135.456263 152.412259 
L 140.729192 152.412259 
L 146.002121 152.412259 
L 151.275051 152.412259 
L 156.54798 152.412259 
L 161.820909 152.412259 
L 167.093838 152.412259 
L 172.366768 152.412259 
L 177.639697 152.412259 
L 182.912626 152.412259 
L 188.185556 152.412259 
L 193.458485 152.412259 
L 198.731414 152.412259 
L 204.004343 152.412259 
L 209.277273 152.412259 
L 214.550202 152.412259 
L 219.823131 152.412259 
L 225.096061 152.412259 
L 230.36899 152.412259 
L 235.641919 152.412259 
L 240.914848 152.412259 
L 246.187778 152.412259 
L 251.460707 152.412259 
L 256.733636 152.412259 
L 262.006566 152.412259 
L 267.279495 152.412259 
L 272.552424 152.412259 
L 277.825354 152.412259 
L 283.098283 152.412259 
L 288.371212 152.412259 
L 293.644141 152.412259 
L 298.917071 152.412259 
L 304.19 152.412259 
L 309.462929 152.412259 
L 314.735859 152.412259 
L 320.008788 152.412259 
L 325.281717 152.412259 
L 330.554646 152.412259 
L 335.827576 152.412259 
L 341.100505 152.412259 
L 346.373434 152.412259 
L 351.646364 152.412259 
L 356.919293 152.412259 
L 362.192222 152.412259 
L 367.465152 152.412259 
L 372.738081 152.412259 
L 378.01101 152.412259 
L 383.283939 152.412259 
L 388.556869 152.412259 
L 393.829798 152.412259 
L 399.102727 152.412259 
L 404.375657 152.412259 
M 414.921515 152.412259 
L 420.194444 152.412259 
L 425.467374 152.412259 
L 430.740303 152.412259 
L 436.013232 152.412259 
L 441.286162 152.412259 
L 446.559091 152.412259 
L 451.83202 216.706125 
L 457.104949 216.706125 
L 462.377879 216.706125 
L 467.650808 216.706125 
L 472.923737 216.706125 
L 478.196667 216.706125 
L 483.469596 216.706125 
L 488.742525 216.706125 
L 494.015455 216.706125 
L 499.288384 216.706125 
L 504.561313 216.706125 
L 509.834242 216.706125 
L 515.107172 216.706125 
L 520.380101 216.706125 
L 525.65303 216.706125 
L 536.198889 216.706125 
L 541.471818 216.706125 
" clip-path="url(#pb2ca62d911)" style="fill: none; stroke: #1f77b4; stroke-width: 1.5; stroke-linecap: square"/>
   </g>
   <g id="line2d_14">
    <path d="M 66.908182 35.919339 
L 103.818687 45.752519 
L 109.091616 45.752519 
L 114.364545 45.752519 
L 119.637475 45.752519 
L 124.910404 44.99612 
L 130.183333 45.752519 
L 135.456263 45.752519 
L 140.729192 45.752519 
L 146.002121 45.752519 
L 151.275051 45.752519 
L 156.54798 44.99612 
L 161.820909 45.752519 
L 167.093838 63.149682 
L 172.366768 63.149682 
L 177.639697 63.149682 
L 182.912626 63.149682 
L 188.185556 63.149682 
L 193.458485 63.149682 
L 198.731414 63.149682 
L 204.004343 63.149682 
L 209.277273 63.149682 
L 214.550202 63.149682 
L 219.823131 63.149682 
L 225.096061 59.36769 
L 230.36899 59.36769 
L 235.641919 36.675738 
L 240.914848 58.611292 
L 246.187778 58.611292 
L 251.460707 67.688073 
L 256.733636 67.688073 
L 262.006566 76.764854 
L 267.279495 76.764854 
L 272.552424 108.533587 
L 277.825354 108.533587 
L 283.098283 108.533587 
L 288.371212 108.533587 
L 293.644141 108.533587 
L 298.917071 93.405619 
L 304.19 93.405619 
L 309.462929 93.405619 
L 314.735859 92.64922 
L 320.008788 92.64922 
L 325.281717 85.085236 
L 330.554646 85.085236 
L 335.827576 95.674814 
L 341.100505 93.405619 
L 346.373434 92.64922 
L 351.646364 92.64922 
L 356.919293 92.64922 
L 362.192222 92.64922 
L 367.465152 92.64922 
L 372.738081 92.64922 
L 378.01101 92.64922 
L 383.283939 93.405619 
L 388.556869 101.726001 
L 393.829798 101.726001 
L 399.102727 101.726001 
L 404.375657 101.726001 
L 409.648586 101.726001 
L 414.921515 101.726001 
L 420.194444 101.726001 
L 425.467374 93.405619 
L 430.740303 101.726001 
L 436.013232 101.726001 
L 441.286162 101.726001 
L 446.559091 93.405619 
L 451.83202 97.187611 
L 457.104949 101.726001 
L 462.377879 111.559181 
L 467.650808 111.559181 
L 472.923737 111.559181 
L 478.196667 111.559181 
L 483.469596 111.559181 
L 488.742525 111.559181 
L 494.015455 120.635962 
L 499.288384 129.712743 
L 504.561313 129.712743 
L 509.834242 129.712743 
L 515.107172 129.712743 
L 520.380101 129.712743 
L 525.65303 131.22554 
L 536.198889 138.789524 
" clip-path="url(#pb2ca62d911)" style="fill: none; stroke: #ff7f0e; stroke-width: 1.5; stroke-linecap: square"/>
   </g>
   <g id="line2d_15">
    <path d="M 103.818687 54.072901 
L 109.091616 54.072901 
L 114.364545 54.072901 
L 119.637475 54.072901 
L 124.910404 54.072901 
L 130.183333 54.072901 
L 135.456263 54.072901 
L 140.729192 54.072901 
L 146.002121 54.072901 
L 151.275051 54.072901 
L 156.54798 54.072901 
L 161.820909 54.072901 
L 167.093838 54.072901 
L 172.366768 54.072901 
L 177.639697 54.072901 
L 182.912626 54.072901 
L 188.185556 87.92173 
L 193.458485 87.92173 
L 198.731414 99.456806 
L 204.004343 99.456806 
L 209.277273 152.404695 
L 214.550202 152.404695 
L 219.823131 152.404695 
L 225.096061 99.456806 
L 230.36899 102.4824 
L 235.641919 91.136424 
L 240.914848 96.431213 
L 246.187778 96.431213 
L 251.460707 96.431213 
L 256.733636 96.431213 
L 262.006566 96.431213 
L 267.279495 96.431213 
L 272.552424 96.431213 
L 277.825354 131.22554 
L 283.098283 131.22554 
L 288.371212 131.22554 
L 293.644141 127.443548 
L 298.917071 113.071978 
L 304.19 113.071978 
L 309.462929 113.071978 
L 314.735859 183.41703 
L 320.008788 122.148759 
L 325.281717 113.828376 
L 330.554646 113.828376 
L 335.827576 115.341173 
L 341.100505 115.341173 
L 346.373434 116.85397 
L 351.646364 116.85397 
L 356.919293 183.41703 
L 362.192222 122.148759 
L 367.465152 122.148759 
L 372.738081 122.148759 
L 378.01101 122.148759 
L 383.283939 122.148759 
L 388.556869 130.469141 
L 393.829798 125.930751 
L 399.102727 125.930751 
L 404.375657 125.930751 
L 409.648586 125.930751 
L 414.921515 125.930751 
L 420.194444 125.930751 
L 425.467374 122.148759 
L 430.740303 122.905157 
L 436.013232 122.905157 
L 441.286162 125.930751 
L 446.559091 130.469141 
L 451.83202 130.469141 
L 457.104949 107.777189 
L 462.377879 111.559181 
L 467.650808 115.341173 
L 472.923737 115.341173 
L 478.196667 115.341173 
L 483.469596 120.635962 
L 488.742525 120.635962 
L 494.015455 120.635962 
L 499.288384 129.712743 
L 504.561313 203.083389 
L 509.834242 206.108983 
L 515.107172 206.108983 
L 520.380101 133.494735 
L 525.65303 183.41703 
L 536.198889 181.336935 
L 541.471818 181.336935 
" clip-path="url(#pb2ca62d911)" style="fill: none; stroke: #2ca02c; stroke-width: 1.5; stroke-linecap: square"/>
   </g>
   <g id="line2d_16">
    <path d="M 103.818687 54.8293 
L 109.091616 54.8293 
L 114.364545 54.8293 
L 119.637475 54.8293 
L 124.910404 54.8293 
L 130.183333 54.8293 
L 135.456263 54.8293 
L 140.729192 54.8293 
L 146.002121 54.8293 
L 151.275051 54.8293 
L 156.54798 54.8293 
L 161.820909 54.8293 
L 167.093838 85.085236 
L 172.366768 85.085236 
L 177.639697 85.085236 
L 182.912626 85.085236 
L 188.185556 85.085236 
L 193.458485 85.085236 
L 198.731414 54.8293 
L 204.004343 54.8293 
L 209.277273 122.905157 
L 214.550202 54.8293 
L 219.823131 54.8293 
L 225.096061 54.8293 
L 230.36899 54.8293 
L 235.641919 54.8293 
L 240.914848 54.8293 
L 246.187778 107.777189 
L 251.460707 107.777189 
L 256.733636 107.777189 
L 262.006566 107.777189 
L 267.279495 107.777189 
L 272.552424 48.460425 
L 277.825354 69.957268 
L 283.098283 69.957268 
L 288.371212 69.957268 
L 293.644141 69.957268 
L 298.917071 69.957268 
L 304.19 69.957268 
L 309.462929 69.957268 
L 314.735859 69.957268 
L 320.008788 69.957268 
L 325.281717 69.957268 
L 330.554646 69.957268 
L 335.827576 69.957268 
L 341.100505 69.957268 
L 346.373434 69.957268 
L 351.646364 69.957268 
L 356.919293 69.957268 
L 362.192222 69.957268 
L 367.465152 69.957268 
L 372.738081 69.957268 
L 378.01101 69.957268 
L 383.283939 69.957268 
L 388.556869 69.957268 
L 393.829798 69.957268 
L 399.102727 69.957268 
L 404.375657 69.957268 
L 409.648586 69.957268 
L 414.921515 69.957268 
L 420.194444 69.957268 
L 425.467374 54.8293 
L 430.740303 85.085236 
L 436.013232 85.085236 
L 441.286162 85.085236 
L 446.559091 85.085236 
L 451.83202 85.085236 
L 457.104949 85.085236 
L 462.377879 54.8293 
L 467.650808 122.905157 
L 472.923737 122.905157 
L 478.196667 122.905157 
L 483.469596 122.905157 
L 488.742525 130.469141 
L 494.015455 54.8293 
L 499.288384 122.905157 
L 504.561313 122.905157 
L 509.834242 122.905157 
L 515.107172 122.905157 
L 520.380101 122.905157 
L 525.65303 122.905157 
L 536.198889 122.905157 
L 541.471818 122.905157 
" clip-path="url(#pb2ca62d911)" style="fill: none; stroke: #d62728; stroke-width: 1.5; stroke-linecap: square"/>
   </g>
   <g id="patch_3">
    <path d="M 43.18 225.745464 
L 43.18 26.88 
" style="fill: none; stroke: #000000; stroke-width: 0.8; stroke-linejoin: miter; stroke-linecap: square"/>
   </g>
   <g id="patch_4">
    <path d="M 565.2 225.745464 
L 565.2 26.88 
" style="fill: none; stroke: #000000; stroke-width: 0.8; stroke-linejoin: miter; stroke-linecap: square"/>
   </g>
   <g id="patch_5">
    <path d="M 43.18 225.745464 
L 565.2 225.745464 
" style="fill: none; stroke: #000000; stroke-width: 0.8; stroke-linejoin: miter; stroke-linecap: square"/>
   </g>
   <g id="patch_6">
    <path d="M 43.18 26.88 
L 565.2 26.88 
" style="fill: none; stroke: #000000; stroke-width: 0.8; stroke-linejoin: miter; stroke-linecap: square"/>
   </g>
   <g id="text_14">
    <!-- Apple iPhone 15 Pro, 256GB -->
    <g transform="translate(219.952812 20.88) scale(0.12 -0.12)">
     <defs>
      <path id="DejaVuSans-41" d="M 2188 4044 
L 1331 1722 
L 3047 1722 
L 2188 4044 
z
M 1831 4666 
L 2547 4666 
L 4325 0 
L 3669 0 
L 3244 1197 
L 1141 1197 
L 716 0 
L 50 0 
L 1831 4666 
z
" transform="scale(0.015625)"/>
      <path id="DejaVuSans-70" d="M 1159 525 
L 1159 -1331 
L 581 -1331 
L 581 3500 
L 1159 3500 
L 1159 2969 
Q 1341 3281 1617 3432 
Q 1894 3584 2278 3584 
Q 2916 3584 3314 3078 
Q 3713 2572 3713 1747 
Q 3713 922 3314 415 
Q 2916 -91 2278 -91 
Q 1894 -91 1617 61 
Q 1341 213 1159 525 
z
M 3116 1747 
Q 3116 2381 2855 2742 
Q 2594 3103 2138 3103 
Q 1681 3103 1420 2742 
Q 1159 2381 1159 1747 
Q 1159 1113 1420 752 
Q 1681 391 2138 391 
Q 2594 391 2855 752 
Q 3116 1113 3116 1747 
z
" transform="scale(0.015625)"/>
      <path id="DejaVuSans-6c" d="M 603 4863 
L 1178 4863 
L 1178 0 
L 603 0 
L 603 4863 
z
" transform="scale(0.015625)"/>
      <path id="DejaVuSans-68" d="M 3513 2113 
L 3513 0 
L 2938 0 
L 2938 2094 
Q 2938 2591 2744 2837 
Q 2550 3084 2163 3084 
Q 1697 3084 1428 2787 
Q 1159 2491 1159 1978 
L 1159 0 
L 581 0 
L 581 4863 
L 1159 4863 
L 1159 2956 
Q 1366 3272 1645 3428 
Q 1925 3584 2291 3584 
Q 2894 3584 3203 3211 
Q 3513 2838 3513 2113 
z
" transform="scale(0.015625)"/>
      <path id="DejaVuSans-6f" d="M 1959 3097 
Q 1497 3097 1228 2736 
Q 959 2375 959 1747 
Q 959 1119 1226 758 
Q 1494 397 1959 397 
Q 2419 397 2687 759 
Q 2956 1122 2956 1747 
Q 2956 2369 2687 2733 
Q 2419 3097 1959 3097 
z
M 1959 3584 
Q 2709 3584 3137 3096 
Q 3566 2609 3566 1747 
Q 3566 888 3137 398 
Q 2709 -91 1959 -91 
Q 1206 -91 779 398 
Q 353 888 353 1747 
Q 353 2609 779 3096 
Q 1206 3584 1959 3584 
z
" transform="scale(0.015625)"/>
      <path id="DejaVuSans-6e" d="M 3513 2113 
L 3513 0 
L 2938 0 
L 2938 2094 
Q 2938 2591 2744 2837 
Q 2550 3084 2163 3084 
Q 1697 3084 1428 2787 
Q 1159 2491 1159 1978 
L 1159 0 
L 581 0 
L 581 3500 
L 1159 3500 
L 1159 2956 
Q 1366 3272 1645 3428 
Q 1925 3584 2291 3584 
Q 2894 3584 3203 3211 
Q 3513 2838 3513 2113 
z
" transform="scale(0.015625)"/>
      <path id="DejaVuSans-2c" d="M 750 794 
L 1409 794 
L 1409 256 
L 897 -744 
L 494 -744 
L 750 256 
L 750 794 
z
" transform="scale(0.015625)"/>
      <path id="DejaVuSans-36" d="M 2113 2584 
Q 1688 2584 1439 2293 
Q 1191 2003 1191 1497 
Q 1191 994 1439 701 
Q 1688 409 2113 409 
Q 2538 409 2786 701 
Q 3034 994 3034 1497 
Q 3034 2003 2786 2293 
Q 2538 2584 2113 2584 
z
M 3366 4563 
L 3366 3988 
Q 3128 4100 2886 4159 
Q 2644 4219 2406 4219 
Q 1781 4219 1451 3797 
Q 1122 3375 1075 2522 
Q 1259 2794 1537 2939 
Q 1816 3084 2150 3084 
Q 2853 3084 3261 2657 
Q 3669 2231 3669 1497 
Q 3669 778 3244 343 
Q 2819 -91 2113 -91 
Q 1303 -91 875 529 
Q 447 1150 447 2328 
Q 447 3434 972 4092 
Q 1497 4750 2381 4750 
Q 2619 4750 2861 4703 
Q 3103 4656 3366 4563 
z
" transform="scale(0.015625)"/>
      <path id="DejaVuSans-47" d="M 3809 666 
L 3809 1919 
L 2778 1919 
L 2778 2438 
L 4434 2438 
L 4434 434 
Q 4069 175 3628 42 
Q 3188 -91 2688 -91 
Q 1594 -91 976 548 
Q 359 1188 359 2328 
Q 359 3472 976 4111 
Q 1594 4750 2688 4750 
Q 3144 4750 3555 4637 
Q 3966 4525 4313 4306 
L 4313 3634 
Q 3963 3931 3569 4081 
Q 3175 4231 2741 4231 
Q 1884 4231 1454 3753 
Q 1025 3275 1025 2328 
Q 1025 1384 1454 906 
Q 1884 428 2741 428 
Q 3075 428 3337 486 
Q 3600 544 3809 666 
z
" transform="scale(0.015625)"/>
      <path id="DejaVuSans-42" d="M 1259 2228 
L 1259 519 
L 2272 519 
Q 2781 519 3026 730 
Q 3272 941 3272 1375 
Q 3272 1813 3026 2020 
Q 2781 2228 2272 2228 
L 1259 2228 
z
M 1259 4147 
L 1259 2741 
L 2194 2741 
Q 2656 2741 2882 2914 
Q 3109 3088 3109 3444 
Q 3109 3797 2882 3972 
Q 2656 4147 2194 4147 
L 1259 4147 
z
M 628 4666 
L 2241 4666 
Q 2963 4666 3353 4366 
Q 3744 4066 3744 3513 
Q 3744 3084 3544 2831 
Q 3344 2578 2956 2516 
Q 3422 2416 3680 2098 
Q 3938 1781 3938 1306 
Q 3938 681 3513 340 
Q 3088 0 2303 0 
L 628 0 
L 628 4666 
z
" transform="scale(0.015625)"/>
     </defs>
     <use xlink:href="#DejaVuSans-41"/>
     <use xlink:href="#DejaVuSans-70" x="68.408203"/>
     <use xlink:href="#DejaVuSans-70" x="131.884766"/>
     <use xlink:href="#DejaVuSans-6c" x="195.361328"/>
     <use xlink:href="#DejaVuSans-65" x="223.144531"/>
     <use xlink:href="#DejaVuSans-20" x="284.667969"/>
     <use xlink:href="#DejaVuSans-69" x="316.455078"/>
     <use xlink:href="#DejaVuSans-50" x="344.238281"/>
     <use xlink:href="#DejaVuSans-68" x="404.541016"/>
     <use xlink:href="#DejaVuSans-6f" x="467.919922"/>
     <use xlink:href="#DejaVuSans-6e" x="529.101562"/>
     <use xlink:href="#DejaVuSans-65" x="592.480469"/>
     <use xlink:href="#DejaVuSans-20" x="654.003906"/>
     <use xlink:href="#DejaVuSans-31" x="685.791016"/>
     <use xlink:href="#DejaVuSans-35" x="749.414062"/>
     <use xlink:href="#DejaVuSans-20" x="813.037109"/>
     <use xlink:href="#DejaVuSans-50" x="844.824219"/>
     <use xlink:href="#DejaVuSans-72" x="903.376953"/>
     <use xlink:href="#DejaVuSans-6f" x="942.240234"/>
     <use xlink:href="#DejaVuSans-2c" x="1003.421875"/>
     <use xlink:href="#DejaVuSans-20" x="1035.208984"/>
     <use xlink:href="#DejaVuSans-32" x="1066.996094"/>
     <use xlink:href="#DejaVuSans-35" x="1130.619141"/>
     <use xlink:href="#DejaVuSans-36" x="1194.242188"/>
     <use xlink:href="#DejaVuSans-47" x="1257.865234"/>
     <use xlink:href="#DejaVuSans-42" x="1335.355469"/>
    </g>
   </g>
   <g id="legend_1">
    <g id="patch_7">
     <path d="M 452.6 108.270625 
L 558.2 108.270625 
Q 560.2 108.270625 560.2 106.270625 
L 560.2 33.88 
Q 560.2 31.88 558.2 31.88 
L 452.6 31.88 
Q 450.6 31.88 450.6 33.88 
L 450.6 106.270625 
Q 450.6 108.270625 452.6 108.270625 
z
" style="fill: #ffffff; opacity: 0.8; stroke: #cccccc; stroke-linejoin: miter"/>
    </g>
    <g id="text_15">
     <!-- source -->
     <g transform="translate(488.798437 43.478438) scale(0.1 -0.1)">
      <defs>
       <path id="DejaVuSans-73" d="M 2834 3397 
L 2834 2853 
Q 2591 2978 2328 3040 
Q 2066 3103 1784 3103 
Q 1356 3103 1142 2972 
Q 928 2841 928 2578 
Q 928 2378 1081 2264 
Q 1234 2150 1697 2047 
L 1894 2003 
Q 2506 1872 2764 1633 
Q 3022 1394 3022 966 
Q 3022 478 2636 193 
Q 2250 -91 1575 -91 
Q 1294 -91 989 -36 
Q 684 19 347 128 
L 347 722 
Q 666 556 975 473 
Q 1284 391 1588 391 
Q 1994 391 2212 530 
Q 2431 669 2431 922 
Q 2431 1156 2273 1281 
Q 2116 1406 1581 1522 
L 1381 1569 
Q 847 1681 609 1914 
Q 372 2147 372 2553 
Q 372 3047 722 3315 
Q 1072 3584 1716 3584 
Q 2034 3584 2315 3537 
Q 2597 3491 2834 3397 
z
" transform="scale(0.015625)"/>
       <path id="DejaVuSans-75" d="M 544 1381 
L 544 3500 
L 1119 3500 
L 1119 1403 
Q 1119 906 1312 657 
Q 1506 409 1894 409 
Q 2359 409 2629 706 
Q 2900 1003 2900 1516 
L 2900 3500 
L 3475 3500 
L 3475 0 
L 2900 0 
L 2900 538 
Q 2691 219 2414 64 
Q 2138 -91 1772 -91 
Q 1169 -91 856 284 
Q 544 659 544 1381 
z
M 1991 3584 
L 1991 3584 
z
" transform="scale(0.015625)"/>
      </defs>
      <use xlink:href="#DejaVuSans-73"/>
      <use xlink:href="#DejaVuSans-6f" x="52.099609"/>
      <use xlink:href="#DejaVuSans-75" x="113.28125"/>
      <use xlink:href="#DejaVuSans-72" x="176.660156"/>
      <use xlink:href="#DejaVuSans-63" x="215.523438"/>
      <use xlink:href="#DejaVuSans-65" x="270.503906"/>
     </g>
    </g>
    <g id="line2d_17">
     <path d="M 454.6 54.656563 
L 464.6 54.656563 
L 474.6 54.656563 
" style="fill: none; stroke: #1f77b4; stroke-width: 1.5; stroke-linecap: square"/>
    </g>
    <g id="text_16">
     <!-- links.hr -->
     <g transform="translate(482.6 58.156563) scale(0.1 -0.1)">
      <defs>
       <path id="DejaVuSans-6b" d="M 581 4863 
L 1159 4863 
L 1159 1991 
L 2875 3500 
L 3609 3500 
L 1753 1863 
L 3688 0 
L 2938 0 
L 1159 1709 
L 1159 0 
L 581 0 
L 581 4863 
z
" transform="scale(0.015625)"/>
       <path id="DejaVuSans-2e" d="M 684 794 
L 1344 794 
L 1344 0 
L 684 0 
L 684 794 
z
" transform="scale(0.015625)"/>
      </defs>
      <use xlink:href="#DejaVuSans-6c"/>
      <use xlink:href="#DejaVuSans-69" x="27.783203"/>
      <use xlink:href="#DejaVuSans-6e" x="55.566406"/>
      <use xlink:href="#DejaVuSans-6b" x="118.945312"/>
      <use xlink:href="#DejaVuSans-73" x="176.855469"/>
      <use xlink:href="#DejaVuSans-2e" x="228.955078"/>
      <use xlink:href="#DejaVuSans-68" x="260.742188"/>
      <use xlink:href="#DejaVuSans-72" x="324.121094"/>
     </g>
    </g>
    <g id="line2d_18">
     <path d="M 454.6 69.334688 
L 464.6 69.334688 
L 474.6 69.334688 
" style="fill: none; stroke: #ff7f0e; stroke-width: 1.5; stroke-linecap: square"/>
    </g>
    <g id="text_17">
     <!-- mobileshop.eu -->
     <g transform="translate(482.6 72.834688) scale(0.1 -0.1)">
      <defs>
       <path id="DejaVuSans-6d" d="M 3328 2828 
Q 3544 3216 3844 3400 
Q 4144 3584 4550 3584 
Q 5097 3584 5394 3201 
Q 5691 2819 5691 2113 
L 5691 0 
L 5113 0 
L 5113 2094 
Q 5113 2597 4934 2840 
Q 4756 3084 4391 3084 
Q 3944 3084 3684 2787 
Q 3425 2491 3425 1978 
L 3425 0 
L 2847 0 
L 2847 2094 
Q 2847 2600 2669 2842 
Q 2491 3084 2119 3084 
Q 1678 3084 1418 2786 
Q 1159 2488 1159 1978 
L 1159 0 
L 581 0 
L 581 3500 
L 1159 3500 
L 1159 2956 
Q 1356 3278 1631 3431 
Q 1906 3584 2284 3584 
Q 2666 3584 2933 3390 
Q 3200 3197 3328 2828 
z
" transform="scale(0.015625)"/>
       <path id="DejaVuSans-62" d="M 3116 1747 
Q 3116 2381 2855 2742 
Q 2594 3103 2138 3103 
Q 1681 3103 1420 2742 
Q 1159 2381 1159 1747 
Q 1159 1113 1420 752 
Q 1681 391 2138 391 
Q 2594 391 2855 752 
Q 3116 1113 3116 1747 
z
M 1159 2969 
Q 1341 3281 1617 3432 
Q 1894 3584 2278 3584 
Q 2916 3584 3314 3078 
Q 3713 2572 3713 1747 
Q 3713 922 3314 415 
Q 2916 -91 2278 -91 
Q 1894 -91 1617 61 
Q 1341 213 1159 525 
L 1159 0 
L 581 0 
L 581 4863 
L 1159 4863 
L 1159 2969 
z
" transform="scale(0.015625)"/>
      </defs>
      <use xlink:href="#DejaVuSans-6d"/>
      <use xlink:href="#DejaVuSans-6f" x="97.412109"/>
      <use xlink:href="#DejaVuSans-62" x="158.59375"/>
      <use xlink:href="#DejaVuSans-69" x="222.070312"/>
      <use xlink:href="#DejaVuSans-6c" x="249.853516"/>
      <use xlink:href="#DejaVuSans-65" x="277.636719"/>
      <use xlink:href="#DejaVuSans-73" x="339.160156"/>
      <use xlink:href="#DejaVuSans-68" x="391.259766"/>
      <use xlink:href="#DejaVuSans-6f" x="454.638672"/>
      <use xlink:href="#DejaVuSans-70" x="515.820312"/>
      <use xlink:href="#DejaVuSans-2e" x="579.296875"/>
      <use xlink:href="#DejaVuSans-65" x="611.083984"/>
      <use xlink:href="#DejaVuSans-75" x="672.607422"/>
     </g>
    </g>
    <g id="line2d_19">
     <path d="M 454.6 84.012813 
L 464.6 84.012813 
L 474.6 84.012813 
" style="fill: none; stroke: #2ca02c; stroke-width: 1.5; stroke-linecap: square"/>
    </g>
    <g id="text_18">
     <!-- nabava.net -->
     <g transform="translate(482.6 87.512813) scale(0.1 -0.1)">
      <defs>
       <path id="DejaVuSans-76" d="M 191 3500 
L 800 3500 
L 1894 563 
L 2988 3500 
L 3597 3500 
L 2284 0 
L 1503 0 
L 191 3500 
z
" transform="scale(0.015625)"/>
      </defs>
      <use xlink:href="#DejaVuSans-6e"/>
      <use xlink:href="#DejaVuSans-61" x="63.378906"/>
      <use xlink:href="#DejaVuSans-62" x="124.658203"/>
      <use xlink:href="#DejaVuSans-61" x="188.134766"/>
      <use xlink:href="#DejaVuSans-76" x="249.414062"/>
      <use xlink:href="#DejaVuSans-61" x="308.59375"/>
      <use xlink:href="#DejaVuSans-2e" x="369.873047"/>
      <use xlink:href="#DejaVuSans-6e" x="401.660156"/>
      <use xlink:href="#DejaVuSans-65" x="465.039062"/>
      <use xlink:href="#DejaVuSans-74" x="526.5625"/>
     </g>
    </g>
    <g id="line2d_20">
     <path d="M 454.6 98.690938 
L 464.6 98.690938 
L 474.6 98.690938 
" style="fill: none; stroke: #d62728; stroke-width: 1.5; stroke-linecap: square"/>
    </g>
    <g id="text_19">
     <!-- unieuro.it -->
     <g transform="translate(482.6 102.190938) scale(0.1 -0.1)">
      <use xlink:href="#DejaVuSans-75"/>
      <use xlink:href="#DejaVuSans-6e" x="63.378906"/>
      <use xlink:href="#DejaVuSans-69" x="126.757812"/>
      <use xlink:href="#DejaVuSans-65" x="154.541016"/>
      <use xlink:href="#DejaVuSans-75" x="216.064453"/>
      <use xlink:href="#DejaVuSans-72" x="279.443359"/>
      <use xlink:href="#DejaVuSans-6f" x="318.306641"/>
      <use xlink:href="#DejaVuSans-2e" x="377.738281"/>
      <use xlink:href="#DejaVuSans-69" x="409.525391"/>
      <use xlink:href="#DejaVuSans-74" x="437.308594"/>
     </g>
    </g>
   </g>
  </g>
  <g id="axes_2">
   <g id="patch_8">
    <path d="M 43.18 510.145464 
L 565.2 510.145464 
L 565.2 311.28 
L 43.18 311.28 
z
" style="fill: #ffffff"/>
   </g>
   <g id="matplotlib.axis_3">
    <g id="xtick_7">
     <g id="line2d_21">
      <g>
       <use xlink:href="#me8929e1fe6" x="82.72697" y="510.145464" style="stroke: #000000; stroke-width: 0.8"/>
      </g>
     </g>
     <g id="text_20">
      <!-- 2023-11-01 -->
      <g transform="translate(58.941853 552.783716) rotate(-30) scale(0.1 -0.1)">
       <use xlink:href="#DejaVuSans-32"/>
       <use xlink:href="#DejaVuSans-30" x="63.623047"/>
       <use xlink:href="#DejaVuSans-32" x="127.246094"/>
       <use xlink:href="#DejaVuSans-33" x="190.869141"/>
       <use xlink:href="#DejaVuSans-2d" x="254.492188"/>
       <use xlink:href="#DejaVuSans-31" x="290.576172"/>
       <use xlink:href="#DejaVuSans-31" x="354.199219"/>
       <use xlink:href="#DejaVuSans-2d" x="417.822266"/>
       <use xlink:href="#DejaVuSans-30" x="453.90625"/>
       <use xlink:href="#DejaVuSans-31" x="517.529297"/>
      </g>
     </g>
    </g>
    <g id="xtick_8">
     <g id="line2d_22">
      <g>
       <use xlink:href="#me8929e1fe6" x="156.54798" y="510.145464" style="stroke: #000000; stroke-width: 0.8"/>
      </g>
     </g>
     <g id="text_21">
      <!-- 2023-11-15 -->
      <g transform="translate(132.762863 552.783716) rotate(-30) scale(0.1 -0.1)">
       <use xlink:href="#DejaVuSans-32"/>
       <use xlink:href="#DejaVuSans-30" x="63.623047"/>
       <use xlink:href="#DejaVuSans-32" x="127.246094"/>
       <use xlink:href="#DejaVuSans-33" x="190.869141"/>
       <use xlink:href="#DejaVuSans-2d" x="254.492188"/>
       <use xlink:href="#DejaVuSans-31" x="290.576172"/>
       <use xlink:href="#DejaVuSans-31" x="354.199219"/>
       <use xlink:href="#DejaVuSans-2d" x="417.822266"/>
       <use xlink:href="#DejaVuSans-31" x="453.90625"/>
       <use xlink:href="#DejaVuSans-35" x="517.529297"/>
      </g>
     </g>
    </g>
    <g id="xtick_9">
     <g id="line2d_23">
      <g>
       <use xlink:href="#me8929e1fe6" x="240.914848" y="510.145464" style="stroke: #000000; stroke-width: 0.8"/>
      </g>
     </g>
     <g id="text_22">
      <!-- 2023-12-01 -->
      <g transform="translate(217.129732 552.783716) rotate(-30) scale(0.1 -0.1)">
       <use xlink:href="#DejaVuSans-32"/>
       <use xlink:href="#DejaVuSans-30" x="63.623047"/>
       <use xlink:href="#DejaVuSans-32" x="127.246094"/>
       <use xlink:href="#DejaVuSans-33" x="190.869141"/>
       <use xlink:href="#DejaVuSans-2d" x="254.492188"/>
       <use xlink:href="#DejaVuSans-31" x="290.576172"/>
       <use xlink:href="#DejaVuSans-32" x="354.199219"/>
       <use xlink:href="#DejaVuSans-2d" x="417.822266"/>
       <use xlink:href="#DejaVuSans-30" x="453.90625"/>
       <use xlink:href="#DejaVuSans-31" x="517.529297"/>
      </g>
     </g>
    </g>
    <g id="xtick_10">
     <g id="line2d_24">
      <g>
       <use xlink:href="#me8929e1fe6" x="314.735859" y="510.145464" style="stroke: #000000; stroke-width: 0.8"/>
      </g>
     </g>
     <g id="text_23">
      <!-- 2023-12-15 -->
      <g transform="translate(290.950742 552.783716) rotate(-30) scale(0.1 -0.1)">
       <use xlink:href="#DejaVuSans-32"/>
       <use xlink:href="#DejaVuSans-30" x="63.623047"/>
       <use xlink:href="#DejaVuSans-32" x="127.246094"/>
       <use xlink:href="#DejaVuSans-33" x="190.869141"/>
       <use xlink:href="#DejaVuSans-2d" x="254.492188"/>
       <use xlink:href="#DejaVuSans-31" x="290.576172"/>
       <use xlink:href="#DejaVuSans-32" x="354.199219"/>
       <use xlink:href="#DejaVuSans-2d" x="417.822266"/>
       <use xlink:href="#DejaVuSans-31" x="453.90625"/>
       <use xlink:href="#DejaVuSans-35" x="517.529297"/>
      </g>
     </g>
    </g>
    <g id="xtick_11">
     <g id="line2d_25">
      <g>
       <use xlink:href="#me8929e1fe6" x="404.375657" y="510.145464" style="stroke: #000000; stroke-width: 0.8"/>
      </g>
     </g>
     <g id="text_24">
      <!-- 2024-01-01 -->
      <g transform="translate(380.59054 552.783716) rotate(-30) scale(0.1 -0.1)">
       <use xlink:href="#DejaVuSans-32"/>
       <use xlink:href="#DejaVuSans-30" x="63.623047"/>
       <use xlink:href="#DejaVuSans-32" x="127.246094"/>
       <use xlink:href="#DejaVuSans-34" x="190.869141"/>
       <use xlink:href="#DejaVuSans-2d" x="254.492188"/>
       <use xlink:href="#DejaVuSans-30" x="290.576172"/>
       <use xlink:href="#DejaVuSans-31" x="354.199219"/>
       <use xlink:href="#DejaVuSans-2d" x="417.822266"/>
       <use xlink:href="#DejaVuSans-30" x="453.90625"/>
       <use xlink:href="#DejaVuSans-31" x="517.529297"/>
      </g>
     </g>
    </g>
    <g id="xtick_12">
     <g id="line2d_26">
      <g>
       <use xlink:href="#me8929e1fe6" x="478.196667" y="510.145464" style="stroke: #000000; stroke-width: 0.8"/>
      </g>
     </g>
     <g id="text_25">
      <!-- 2024-01-15 -->
      <g transform="translate(454.41155 552.783716) rotate(-30) scale(0.1 -0.1)">
       <use xlink:href="#DejaVuSans-32"/>
       <use xlink:href="#DejaVuSans-30" x="63.623047"/>
       <use xlink:href="#DejaVuSans-32" x="127.246094"/>
       <use xlink:href="#DejaVuSans-34" x="190.869141"/>
       <use xlink:href="#DejaVuSans-2d" x="254.492188"/>
       <use xlink:href="#DejaVuSans-30" x="290.576172"/>
       <use xlink:href="#DejaVuSans-31" x="354.199219"/>
       <use xlink:href="#DejaVuSans-2d" x="417.822266"/>
       <use xlink:href="#DejaVuSans-31" x="453.90625"/>
       <use xlink:href="#DejaVuSans-35" x="517.529297"/>
      </g>
     </g>
    </g>
    <g id="text_26">
     <!-- Price date -->
     <g transform="translate(279.128281 566.183216) scale(0.1 -0.1)">
      <use xlink:href="#DejaVuSans-50"/>
      <use xlink:href="#DejaVuSans-72" x="58.552734"/>
      <use xlink:href="#DejaVuSans-69" x="99.666016"/>
      <use xlink:href="#DejaVuSans-63" x="127.449219"/>
      <use xlink:href="#DejaVuSans-65" x="182.429688"/>
      <use xlink:href="#DejaVuSans-20" x="243.953125"/>
      <use xlink:href="#DejaVuSans-64" x="275.740234"/>
      <use xlink:href="#DejaVuSans-61" x="339.216797"/>
      <use xlink:href="#DejaVuSans-74" x="400.496094"/>
      <use xlink:href="#DejaVuSans-65" x="439.705078"/>
     </g>
    </g>
   </g>
   <g id="matplotlib.axis_4">
    <g id="ytick_7">
     <g id="line2d_27">
      <g>
       <use xlink:href="#m2004dc1aa9" x="43.18" y="493.56901" style="stroke: #000000; stroke-width: 0.8"/>
      </g>
     </g>
     <g id="text_27">
      <!-- 420 -->
      <g transform="translate(17.0925 497.368229) scale(0.1 -0.1)">
       <use xlink:href="#DejaVuSans-34"/>
       <use xlink:href="#DejaVuSans-32" x="63.623047"/>
       <use xlink:href="#DejaVuSans-30" x="127.246094"/>
      </g>
     </g>
    </g>
    <g id="ytick_8">
     <g id="line2d_28">
      <g>
       <use xlink:href="#m2004dc1aa9" x="43.18" y="458.915611" style="stroke: #000000; stroke-width: 0.8"/>
      </g>
     </g>
     <g id="text_28">
      <!-- 440 -->
      <g transform="translate(17.0925 462.714829) scale(0.1 -0.1)">
       <use xlink:href="#DejaVuSans-34"/>
       <use xlink:href="#DejaVuSans-34" x="63.623047"/>
       <use xlink:href="#DejaVuSans-30" x="127.246094"/>
      </g>
     </g>
    </g>
    <g id="ytick_9">
     <g id="line2d_29">
      <g>
       <use xlink:href="#m2004dc1aa9" x="43.18" y="424.262211" style="stroke: #000000; stroke-width: 0.8"/>
      </g>
     </g>
     <g id="text_29">
      <!-- 460 -->
      <g transform="translate(17.0925 428.06143) scale(0.1 -0.1)">
       <use xlink:href="#DejaVuSans-34"/>
       <use xlink:href="#DejaVuSans-36" x="63.623047"/>
       <use xlink:href="#DejaVuSans-30" x="127.246094"/>
      </g>
     </g>
    </g>
    <g id="ytick_10">
     <g id="line2d_30">
      <g>
       <use xlink:href="#m2004dc1aa9" x="43.18" y="389.608812" style="stroke: #000000; stroke-width: 0.8"/>
      </g>
     </g>
     <g id="text_30">
      <!-- 480 -->
      <g transform="translate(17.0925 393.40803) scale(0.1 -0.1)">
       <defs>
        <path id="DejaVuSans-38" d="M 2034 2216 
Q 1584 2216 1326 1975 
Q 1069 1734 1069 1313 
Q 1069 891 1326 650 
Q 1584 409 2034 409 
Q 2484 409 2743 651 
Q 3003 894 3003 1313 
Q 3003 1734 2745 1975 
Q 2488 2216 2034 2216 
z
M 1403 2484 
Q 997 2584 770 2862 
Q 544 3141 544 3541 
Q 544 4100 942 4425 
Q 1341 4750 2034 4750 
Q 2731 4750 3128 4425 
Q 3525 4100 3525 3541 
Q 3525 3141 3298 2862 
Q 3072 2584 2669 2484 
Q 3125 2378 3379 2068 
Q 3634 1759 3634 1313 
Q 3634 634 3220 271 
Q 2806 -91 2034 -91 
Q 1263 -91 848 271 
Q 434 634 434 1313 
Q 434 1759 690 2068 
Q 947 2378 1403 2484 
z
M 1172 3481 
Q 1172 3119 1398 2916 
Q 1625 2713 2034 2713 
Q 2441 2713 2670 2916 
Q 2900 3119 2900 3481 
Q 2900 3844 2670 4047 
Q 2441 4250 2034 4250 
Q 1625 4250 1398 4047 
Q 1172 3844 1172 3481 
z
" transform="scale(0.015625)"/>
       </defs>
       <use xlink:href="#DejaVuSans-34"/>
       <use xlink:href="#DejaVuSans-38" x="63.623047"/>
       <use xlink:href="#DejaVuSans-30" x="127.246094"/>
      </g>
     </g>
    </g>
    <g id="ytick_11">
     <g id="line2d_31">
      <g>
       <use xlink:href="#m2004dc1aa9" x="43.18" y="354.955412" style="stroke: #000000; stroke-width: 0.8"/>
      </g>
     </g>
     <g id="text_31">
      <!-- 500 -->
      <g transform="translate(17.0925 358.754631) scale(0.1 -0.1)">
       <use xlink:href="#DejaVuSans-35"/>
       <use xlink:href="#DejaVuSans-30" x="63.623047"/>
       <use xlink:href="#DejaVuSans-30" x="127.246094"/>
      </g>
     </g>
    </g>
    <g id="ytick_12">
     <g id="line2d_32">
      <g>
       <use xlink:href="#m2004dc1aa9" x="43.18" y="320.302013" style="stroke: #000000; stroke-width: 0.8"/>
      </g>
     </g>
     <g id="text_32">
      <!-- 520 -->
      <g transform="translate(17.0925 324.101231) scale(0.1 -0.1)">
       <use xlink:href="#DejaVuSans-35"/>
       <use xlink:href="#DejaVuSans-32" x="63.623047"/>
       <use xlink:href="#DejaVuSans-30" x="127.246094"/>
      </g>
     </g>
    </g>
   </g>
   <g id="line2d_33">
    <path d="M 66.908182 356.688082 
L 103.818687 356.688082 
L 109.091616 356.688082 
L 114.364545 356.688082 
L 119.637475 356.688082 
L 124.910404 356.688082 
L 130.183333 356.688082 
L 135.456263 356.688082 
L 140.729192 356.688082 
L 146.002121 356.688082 
L 151.275051 356.688082 
L 156.54798 356.688082 
L 161.820909 356.688082 
L 167.093838 356.688082 
L 172.366768 356.688082 
L 177.639697 356.688082 
L 182.912626 356.688082 
L 188.185556 356.688082 
L 193.458485 356.688082 
L 198.731414 356.688082 
L 204.004343 356.688082 
L 209.277273 356.688082 
L 214.550202 356.688082 
L 219.823131 356.688082 
L 225.096061 356.688082 
L 230.36899 356.688082 
L 235.641919 356.688082 
L 240.914848 356.688082 
L 246.187778 356.688082 
L 251.460707 356.688082 
L 256.733636 356.688082 
L 262.006566 356.688082 
L 267.279495 356.688082 
L 272.552424 356.688082 
L 277.825354 356.688082 
L 283.098283 391.341482 
L 288.371212 391.341482 
L 293.644141 391.341482 
L 298.917071 391.341482 
L 304.19 391.341482 
L 309.462929 391.341482 
L 314.735859 391.341482 
L 320.008788 391.341482 
L 325.281717 391.341482 
L 330.554646 391.341482 
L 335.827576 391.341482 
L 341.100505 391.341482 
L 346.373434 391.341482 
L 351.646364 391.341482 
L 356.919293 391.341482 
L 362.192222 391.341482 
L 367.465152 391.341482 
L 372.738081 391.341482 
L 378.01101 391.341482 
L 383.283939 391.341482 
L 388.556869 391.341482 
L 393.829798 391.341482 
L 399.102727 391.341482 
L 404.375657 391.341482 
L 409.648586 391.341482 
L 414.921515 391.341482 
L 420.194444 391.341482 
L 425.467374 391.341482 
L 430.740303 391.341482 
L 436.013232 391.341482 
L 441.286162 391.341482 
L 446.559091 391.341482 
L 451.83202 391.341482 
L 457.104949 391.341482 
L 462.377879 391.341482 
L 467.650808 391.341482 
L 472.923737 391.341482 
L 478.196667 391.341482 
L 483.469596 391.341482 
L 488.742525 391.341482 
L 494.015455 391.341482 
L 499.288384 391.341482 
" clip-path="url(#p3779c8ef0c)" style="fill: none; stroke: #1f77b4; stroke-width: 1.5; stroke-linecap: square"/>
   </g>
   <g id="line2d_34">
    <path d="M 103.818687 328.982689 
L 109.091616 328.982689 
L 114.364545 328.982689 
L 119.637475 328.982689 
L 124.910404 328.982689 
L 130.183333 328.982689 
L 135.456263 328.982689 
L 140.729192 328.982689 
L 146.002121 328.982689 
L 151.275051 328.982689 
L 156.54798 328.982689 
L 161.820909 328.982689 
L 167.093838 328.982689 
L 172.366768 328.982689 
L 177.639697 328.982689 
L 182.912626 328.982689 
L 188.185556 328.982689 
L 193.458485 328.982689 
L 198.731414 328.982689 
L 204.004343 328.982689 
L 209.277273 328.982689 
L 214.550202 328.982689 
L 219.823131 328.982689 
L 225.096061 328.982689 
L 230.36899 328.982689 
L 235.641919 328.982689 
L 240.914848 328.982689 
L 246.187778 328.982689 
L 251.460707 328.982689 
L 256.733636 328.982689 
L 262.006566 328.982689 
L 267.279495 328.982689 
L 272.552424 328.982689 
L 277.825354 328.982689 
L 283.098283 328.982689 
L 288.371212 328.982689 
L 293.644141 328.982689 
L 298.917071 328.982689 
L 304.19 328.982689 
L 309.462929 328.982689 
L 314.735859 328.982689 
L 320.008788 328.982689 
L 325.281717 328.982689 
L 330.554646 328.982689 
L 335.827576 328.982689 
L 341.100505 328.982689 
L 346.373434 328.982689 
L 351.646364 328.982689 
L 356.919293 328.982689 
L 362.192222 328.982689 
L 367.465152 328.982689 
L 372.738081 328.982689 
L 378.01101 328.982689 
L 383.283939 328.982689 
L 388.556869 328.982689 
L 393.829798 328.982689 
L 399.102727 328.982689 
L 404.375657 328.982689 
M 414.921515 328.982689 
L 420.194444 328.982689 
L 425.467374 328.982689 
L 430.740303 328.982689 
L 436.013232 328.982689 
L 441.286162 320.319339 
L 446.559091 320.319339 
L 451.83202 320.319339 
L 457.104949 320.319339 
L 462.377879 320.319339 
L 467.650808 320.319339 
L 472.923737 320.319339 
L 478.196667 320.319339 
L 483.469596 320.319339 
L 488.742525 320.319339 
L 494.015455 320.319339 
L 499.288384 320.319339 
L 504.561313 320.319339 
L 509.834242 320.319339 
L 515.107172 320.319339 
L 520.380101 320.319339 
L 525.65303 320.319339 
L 536.198889 320.319339 
L 541.471818 320.319339 
" clip-path="url(#p3779c8ef0c)" style="fill: none; stroke: #ff7f0e; stroke-width: 1.5; stroke-linecap: square"/>
   </g>
   <g id="line2d_35">
    <path d="M 103.818687 356.688082 
L 109.091616 356.688082 
L 114.364545 356.688082 
L 119.637475 356.688082 
L 124.910404 356.688082 
L 130.183333 356.688082 
L 135.456263 356.688082 
L 140.729192 356.688082 
L 146.002121 356.688082 
L 151.275051 356.688082 
L 156.54798 356.688082 
L 161.820909 356.688082 
L 167.093838 356.688082 
L 172.366768 356.688082 
L 177.639697 356.688082 
L 182.912626 356.688082 
L 188.185556 356.688082 
L 193.458485 356.688082 
L 198.731414 356.688082 
L 204.004343 356.688082 
L 209.277273 356.688082 
L 214.550202 356.688082 
L 219.823131 356.688082 
L 225.096061 356.688082 
L 230.36899 356.688082 
L 235.641919 356.688082 
L 240.914848 356.688082 
L 246.187778 356.688082 
L 251.460707 356.688082 
L 256.733636 356.688082 
L 262.006566 356.688082 
L 267.279495 356.688082 
L 272.552424 356.688082 
L 277.825354 356.688082 
L 283.098283 356.688082 
L 288.371212 356.688082 
L 293.644141 356.688082 
L 298.917071 356.688082 
L 304.19 356.688082 
L 309.462929 356.688082 
L 314.735859 356.688082 
L 320.008788 356.688082 
L 325.281717 356.688082 
L 330.554646 356.688082 
L 335.827576 356.688082 
L 341.100505 356.688082 
L 346.373434 356.688082 
L 351.646364 356.688082 
L 356.919293 356.688082 
L 362.192222 356.688082 
L 367.465152 356.688082 
L 372.738081 356.688082 
L 378.01101 356.688082 
L 383.283939 356.688082 
L 388.556869 356.688082 
L 393.829798 356.688082 
L 399.102727 356.688082 
L 404.375657 356.688082 
L 409.648586 356.688082 
L 414.921515 356.688082 
L 420.194444 356.688082 
L 425.467374 356.688082 
L 430.740303 356.688082 
L 436.013232 356.688082 
L 441.286162 356.688082 
L 446.559091 356.688082 
L 451.83202 356.688082 
L 457.104949 356.688082 
L 462.377879 356.688082 
L 467.650808 356.688082 
L 472.923737 356.688082 
L 478.196667 356.688082 
L 483.469596 356.688082 
L 488.742525 356.688082 
L 494.015455 356.688082 
L 499.288384 356.688082 
L 504.561313 356.688082 
L 509.834242 356.688082 
L 515.107172 356.688082 
L 520.380101 356.688082 
L 525.65303 356.688082 
L 536.198889 356.688082 
L 541.471818 356.688082 
" clip-path="url(#p3779c8ef0c)" style="fill: none; stroke: #2ca02c; stroke-width: 1.5; stroke-linecap: square"/>
   </g>
   <g id="line2d_36">
    <path d="M 66.908182 501.106125 
L 103.818687 408.668181 
L 109.091616 408.668181 
L 114.364545 408.668181 
L 119.637475 408.668181 
L 124.910404 408.668181 
L 130.183333 408.668181 
L 135.456263 415.598861 
L 140.729192 415.598861 
L 146.002121 415.598861 
L 151.275051 415.598861 
L 156.54798 415.598861 
L 161.820909 415.598861 
L 167.093838 415.598861 
L 172.366768 415.598861 
L 177.639697 415.598861 
L 182.912626 415.598861 
L 188.185556 415.598861 
L 193.458485 415.598861 
L 198.731414 415.598861 
L 204.004343 415.598861 
L 209.277273 415.598861 
L 214.550202 399.918198 
L 219.823131 399.918198 
L 225.096061 399.918198 
L 230.36899 356.688082 
L 235.641919 356.861349 
L 240.914848 356.861349 
L 246.187778 356.861349 
L 251.460707 356.861349 
L 256.733636 356.861349 
L 262.006566 363.618762 
L 267.279495 363.792029 
L 272.552424 391.341482 
L 277.825354 393.074152 
L 283.098283 408.668181 
L 288.371212 408.668181 
L 293.644141 408.668181 
L 298.917071 408.841448 
L 304.19 408.668181 
L 309.462929 408.841448 
L 314.735859 416.239949 
L 320.008788 416.239949 
L 325.281717 416.239949 
L 330.554646 416.239949 
L 335.827576 416.239949 
L 341.100505 416.239949 
L 346.373434 425.994881 
L 351.646364 425.994881 
L 356.919293 425.994881 
L 362.192222 425.994881 
L 367.465152 425.994881 
L 372.738081 425.994881 
L 378.01101 425.994881 
L 383.283939 425.994881 
L 388.556869 425.994881 
L 393.829798 425.994881 
L 399.102727 425.994881 
L 404.375657 425.994881 
L 409.648586 425.994881 
L 414.921515 425.994881 
L 420.194444 425.994881 
L 425.467374 425.994881 
L 430.740303 425.994881 
L 436.013232 425.994881 
L 441.286162 425.994881 
L 446.559091 425.994881 
L 451.83202 425.994881 
L 457.104949 425.994881 
L 462.377879 425.994881 
L 467.650808 425.994881 
L 472.923737 425.994881 
L 478.196667 425.994881 
L 483.469596 425.994881 
L 488.742525 425.994881 
L 494.015455 425.994881 
L 499.288384 425.994881 
L 504.561313 425.994881 
L 509.834242 425.994881 
L 515.107172 425.994881 
L 520.380101 425.994881 
L 525.65303 425.994881 
L 536.198889 425.994881 
L 541.471818 425.994881 
" clip-path="url(#p3779c8ef0c)" style="fill: none; stroke: #d62728; stroke-width: 1.5; stroke-linecap: square"/>
   </g>
   <g id="patch_9">
    <path d="M 43.18 510.145464 
L 43.18 311.28 
" style="fill: none; stroke: #000000; stroke-width: 0.8; stroke-linejoin: miter; stroke-linecap: square"/>
   </g>
   <g id="patch_10">
    <path d="M 565.2 510.145464 
L 565.2 311.28 
" style="fill: none; stroke: #000000; stroke-width: 0.8; stroke-linejoin: miter; stroke-linecap: square"/>
   </g>
   <g id="patch_11">
    <path d="M 43.18 510.145464 
L 565.2 510.145464 
" style="fill: none; stroke: #000000; stroke-width: 0.8; stroke-linejoin: miter; stroke-linecap: square"/>
   </g>
   <g id="patch_12">
    <path d="M 43.18 311.28 
L 565.2 311.28 
" style="fill: none; stroke: #000000; stroke-width: 0.8; stroke-linejoin: miter; stroke-linecap: square"/>
   </g>
   <g id="text_33">
    <!-- Lenovo IdeaPad 3 -->
    <g transform="translate(251.150937 305.28) scale(0.12 -0.12)">
     <defs>
      <path id="DejaVuSans-4c" d="M 628 4666 
L 1259 4666 
L 1259 531 
L 3531 531 
L 3531 0 
L 628 0 
L 628 4666 
z
" transform="scale(0.015625)"/>
      <path id="DejaVuSans-49" d="M 628 4666 
L 1259 4666 
L 1259 0 
L 628 0 
L 628 4666 
z
" transform="scale(0.015625)"/>
     </defs>
     <use xlink:href="#DejaVuSans-4c"/>
     <use xlink:href="#DejaVuSans-65" x="53.962891"/>
     <use xlink:href="#DejaVuSans-6e" x="115.486328"/>
     <use xlink:href="#DejaVuSans-6f" x="178.865234"/>
     <use xlink:href="#DejaVuSans-76" x="240.046875"/>
     <use xlink:href="#DejaVuSans-6f" x="299.226562"/>
     <use xlink:href="#DejaVuSans-20" x="360.408203"/>
     <use xlink:href="#DejaVuSans-49" x="392.195312"/>
     <use xlink:href="#DejaVuSans-64" x="421.6875"/>
     <use xlink:href="#DejaVuSans-65" x="485.164062"/>
     <use xlink:href="#DejaVuSans-61" x="546.6875"/>
     <use xlink:href="#DejaVuSans-50" x="607.966797"/>
     <use xlink:href="#DejaVuSans-61" x="663.769531"/>
     <use xlink:href="#DejaVuSans-64" x="725.048828"/>
     <use xlink:href="#DejaVuSans-20" x="788.525391"/>
     <use xlink:href="#DejaVuSans-33" x="820.3125"/>
    </g>
   </g>
   <g id="legend_2">
    <g id="patch_13">
     <path d="M 424.117188 505.145464 
L 558.2 505.145464 
Q 560.2 505.145464 560.2 503.145464 
L 560.2 430.754839 
Q 560.2 428.754839 558.2 428.754839 
L 424.117188 428.754839 
Q 422.117188 428.754839 422.117188 430.754839 
L 422.117188 503.145464 
Q 422.117188 505.145464 424.117188 505.145464 
z
" style="fill: #ffffff; opacity: 0.8; stroke: #cccccc; stroke-linejoin: miter"/>
    </g>
    <g id="text_34">
     <!-- source -->
     <g transform="translate(474.557031 440.353276) scale(0.1 -0.1)">
      <use xlink:href="#DejaVuSans-73"/>
      <use xlink:href="#DejaVuSans-6f" x="52.099609"/>
      <use xlink:href="#DejaVuSans-75" x="113.28125"/>
      <use xlink:href="#DejaVuSans-72" x="176.660156"/>
      <use xlink:href="#DejaVuSans-63" x="215.523438"/>
      <use xlink:href="#DejaVuSans-65" x="270.503906"/>
     </g>
    </g>
    <g id="line2d_37">
     <path d="M 426.117188 451.531401 
L 436.117188 451.531401 
L 446.117188 451.531401 
" style="fill: none; stroke: #1f77b4; stroke-width: 1.5; stroke-linecap: square"/>
    </g>
    <g id="text_35">
     <!-- instar-informatika.hr -->
     <g transform="translate(454.117188 455.031401) scale(0.1 -0.1)">
      <defs>
       <path id="DejaVuSans-66" d="M 2375 4863 
L 2375 4384 
L 1825 4384 
Q 1516 4384 1395 4259 
Q 1275 4134 1275 3809 
L 1275 3500 
L 2222 3500 
L 2222 3053 
L 1275 3053 
L 1275 0 
L 697 0 
L 697 3053 
L 147 3053 
L 147 3500 
L 697 3500 
L 697 3744 
Q 697 4328 969 4595 
Q 1241 4863 1831 4863 
L 2375 4863 
z
" transform="scale(0.015625)"/>
      </defs>
      <use xlink:href="#DejaVuSans-69"/>
      <use xlink:href="#DejaVuSans-6e" x="27.783203"/>
      <use xlink:href="#DejaVuSans-73" x="91.162109"/>
      <use xlink:href="#DejaVuSans-74" x="143.261719"/>
      <use xlink:href="#DejaVuSans-61" x="182.470703"/>
      <use xlink:href="#DejaVuSans-72" x="243.75"/>
      <use xlink:href="#DejaVuSans-2d" x="278.488281"/>
      <use xlink:href="#DejaVuSans-69" x="314.572266"/>
      <use xlink:href="#DejaVuSans-6e" x="342.355469"/>
      <use xlink:href="#DejaVuSans-66" x="405.734375"/>
      <use xlink:href="#DejaVuSans-6f" x="440.939453"/>
      <use xlink:href="#DejaVuSans-72" x="502.121094"/>
      <use xlink:href="#DejaVuSans-6d" x="541.484375"/>
      <use xlink:href="#DejaVuSans-61" x="638.896484"/>
      <use xlink:href="#DejaVuSans-74" x="700.175781"/>
      <use xlink:href="#DejaVuSans-69" x="739.384766"/>
      <use xlink:href="#DejaVuSans-6b" x="767.167969"/>
      <use xlink:href="#DejaVuSans-61" x="823.328125"/>
      <use xlink:href="#DejaVuSans-2e" x="884.607422"/>
      <use xlink:href="#DejaVuSans-68" x="916.394531"/>
      <use xlink:href="#DejaVuSans-72" x="979.773438"/>
     </g>
    </g>
    <g id="line2d_38">
     <path d="M 426.117188 466.209526 
L 436.117188 466.209526 
L 446.117188 466.209526 
" style="fill: none; stroke: #ff7f0e; stroke-width: 1.5; stroke-linecap: square"/>
    </g>
    <g id="text_36">
     <!-- links.hr -->
     <g transform="translate(454.117188 469.709526) scale(0.1 -0.1)">
      <use xlink:href="#DejaVuSans-6c"/>
      <use xlink:href="#DejaVuSans-69" x="27.783203"/>
      <use xlink:href="#DejaVuSans-6e" x="55.566406"/>
      <use xlink:href="#DejaVuSans-6b" x="118.945312"/>
      <use xlink:href="#DejaVuSans-73" x="176.855469"/>
      <use xlink:href="#DejaVuSans-2e" x="228.955078"/>
      <use xlink:href="#DejaVuSans-68" x="260.742188"/>
      <use xlink:href="#DejaVuSans-72" x="324.121094"/>
     </g>
    </g>
    <g id="line2d_39">
     <path d="M 426.117188 480.887651 
L 436.117188 480.887651 
L 446.117188 480.887651 
" style="fill: none; stroke: #2ca02c; stroke-width: 1.5; stroke-linecap: square"/>
    </g>
    <g id="text_37">
     <!-- mikronis.hr -->
     <g transform="translate(454.117188 484.387651) scale(0.1 -0.1)">
      <use xlink:href="#DejaVuSans-6d"/>
      <use xlink:href="#DejaVuSans-69" x="97.412109"/>
      <use xlink:href="#DejaVuSans-6b" x="125.195312"/>
      <use xlink:href="#DejaVuSans-72" x="183.105469"/>
      <use xlink:href="#DejaVuSans-6f" x="221.96875"/>
      <use xlink:href="#DejaVuSans-6e" x="283.150391"/>
      <use xlink:href="#DejaVuSans-69" x="346.529297"/>
      <use xlink:href="#DejaVuSans-73" x="374.3125"/>
      <use xlink:href="#DejaVuSans-2e" x="426.412109"/>
      <use xlink:href="#DejaVuSans-68" x="458.199219"/>
      <use xlink:href="#DejaVuSans-72" x="521.578125"/>
     </g>
    </g>
    <g id="line2d_40">
     <path d="M 426.117188 495.565776 
L 436.117188 495.565776 
L 446.117188 495.565776 
" style="fill: none; stroke: #d62728; stroke-width: 1.5; stroke-linecap: square"/>
    </g>
    <g id="text_38">
     <!-- nabava.net -->
     <g transform="translate(454.117188 499.065776) scale(0.1 -0.1)">
      <use xlink:href="#DejaVuSans-6e"/>
      <use xlink:href="#DejaVuSans-61" x="63.378906"/>
      <use xlink:href="#DejaVuSans-62" x="124.658203"/>
      <use xlink:href="#DejaVuSans-61" x="188.134766"/>
      <use xlink:href="#DejaVuSans-76" x="249.414062"/>
      <use xlink:href="#DejaVuSans-61" x="308.59375"/>
      <use xlink:href="#DejaVuSans-2e" x="369.873047"/>
      <use xlink:href="#DejaVuSans-6e" x="401.660156"/>
      <use xlink:href="#DejaVuSans-65" x="465.039062"/>
      <use xlink:href="#DejaVuSans-74" x="526.5625"/>
     </g>
    </g>
   </g>
  </g>
  <g id="axes_3">
   <g id="patch_14">
    <path d="M 43.18 794.545464 
L 565.2 794.545464 
L 565.2 595.68 
L 43.18 595.68 
z
" style="fill: #ffffff"/>
   </g>
   <g id="matplotlib.axis_5">
    <g id="xtick_13">
     <g id="line2d_41">
      <g>
       <use xlink:href="#me8929e1fe6" x="44.037645" y="794.545464" style="stroke: #000000; stroke-width: 0.8"/>
      </g>
     </g>
     <g id="text_39">
      <!-- 2023-11-01 -->
      <g transform="translate(20.252529 837.183716) rotate(-30) scale(0.1 -0.1)">
       <use xlink:href="#DejaVuSans-32"/>
       <use xlink:href="#DejaVuSans-30" x="63.623047"/>
       <use xlink:href="#DejaVuSans-32" x="127.246094"/>
       <use xlink:href="#DejaVuSans-33" x="190.869141"/>
       <use xlink:href="#DejaVuSans-2d" x="254.492188"/>
       <use xlink:href="#DejaVuSans-31" x="290.576172"/>
       <use xlink:href="#DejaVuSans-31" x="354.199219"/>
       <use xlink:href="#DejaVuSans-2d" x="417.822266"/>
       <use xlink:href="#DejaVuSans-30" x="453.90625"/>
       <use xlink:href="#DejaVuSans-31" x="517.529297"/>
      </g>
     </g>
    </g>
    <g id="xtick_14">
     <g id="line2d_42">
      <g>
       <use xlink:href="#me8929e1fe6" x="124.084524" y="794.545464" style="stroke: #000000; stroke-width: 0.8"/>
      </g>
     </g>
     <g id="text_40">
      <!-- 2023-11-15 -->
      <g transform="translate(100.299407 837.183716) rotate(-30) scale(0.1 -0.1)">
       <use xlink:href="#DejaVuSans-32"/>
       <use xlink:href="#DejaVuSans-30" x="63.623047"/>
       <use xlink:href="#DejaVuSans-32" x="127.246094"/>
       <use xlink:href="#DejaVuSans-33" x="190.869141"/>
       <use xlink:href="#DejaVuSans-2d" x="254.492188"/>
       <use xlink:href="#DejaVuSans-31" x="290.576172"/>
       <use xlink:href="#DejaVuSans-31" x="354.199219"/>
       <use xlink:href="#DejaVuSans-2d" x="417.822266"/>
       <use xlink:href="#DejaVuSans-31" x="453.90625"/>
       <use xlink:href="#DejaVuSans-35" x="517.529297"/>
      </g>
     </g>
    </g>
    <g id="xtick_15">
     <g id="line2d_43">
      <g>
       <use xlink:href="#me8929e1fe6" x="215.56667" y="794.545464" style="stroke: #000000; stroke-width: 0.8"/>
      </g>
     </g>
     <g id="text_41">
      <!-- 2023-12-01 -->
      <g transform="translate(191.781554 837.183716) rotate(-30) scale(0.1 -0.1)">
       <use xlink:href="#DejaVuSans-32"/>
       <use xlink:href="#DejaVuSans-30" x="63.623047"/>
       <use xlink:href="#DejaVuSans-32" x="127.246094"/>
       <use xlink:href="#DejaVuSans-33" x="190.869141"/>
       <use xlink:href="#DejaVuSans-2d" x="254.492188"/>
       <use xlink:href="#DejaVuSans-31" x="290.576172"/>
       <use xlink:href="#DejaVuSans-32" x="354.199219"/>
       <use xlink:href="#DejaVuSans-2d" x="417.822266"/>
       <use xlink:href="#DejaVuSans-30" x="453.90625"/>
       <use xlink:href="#DejaVuSans-31" x="517.529297"/>
      </g>
     </g>
    </g>
    <g id="xtick_16">
     <g id="line2d_44">
      <g>
       <use xlink:href="#me8929e1fe6" x="295.613549" y="794.545464" style="stroke: #000000; stroke-width: 0.8"/>
      </g>
     </g>
     <g id="text_42">
      <!-- 2023-12-15 -->
      <g transform="translate(271.828432 837.183716) rotate(-30) scale(0.1 -0.1)">
       <use xlink:href="#DejaVuSans-32"/>
       <use xlink:href="#DejaVuSans-30" x="63.623047"/>
       <use xlink:href="#DejaVuSans-32" x="127.246094"/>
       <use xlink:href="#DejaVuSans-33" x="190.869141"/>
       <use xlink:href="#DejaVuSans-2d" x="254.492188"/>
       <use xlink:href="#DejaVuSans-31" x="290.576172"/>
       <use xlink:href="#DejaVuSans-32" x="354.199219"/>
       <use xlink:href="#DejaVuSans-2d" x="417.822266"/>
       <use xlink:href="#DejaVuSans-31" x="453.90625"/>
       <use xlink:href="#DejaVuSans-35" x="517.529297"/>
      </g>
     </g>
    </g>
    <g id="xtick_17">
     <g id="line2d_45">
      <g>
       <use xlink:href="#me8929e1fe6" x="392.81333" y="794.545464" style="stroke: #000000; stroke-width: 0.8"/>
      </g>
     </g>
     <g id="text_43">
      <!-- 2024-01-01 -->
      <g transform="translate(369.028213 837.183716) rotate(-30) scale(0.1 -0.1)">
       <use xlink:href="#DejaVuSans-32"/>
       <use xlink:href="#DejaVuSans-30" x="63.623047"/>
       <use xlink:href="#DejaVuSans-32" x="127.246094"/>
       <use xlink:href="#DejaVuSans-34" x="190.869141"/>
       <use xlink:href="#DejaVuSans-2d" x="254.492188"/>
       <use xlink:href="#DejaVuSans-30" x="290.576172"/>
       <use xlink:href="#DejaVuSans-31" x="354.199219"/>
       <use xlink:href="#DejaVuSans-2d" x="417.822266"/>
       <use xlink:href="#DejaVuSans-30" x="453.90625"/>
       <use xlink:href="#DejaVuSans-31" x="517.529297"/>
      </g>
     </g>
    </g>
    <g id="xtick_18">
     <g id="line2d_46">
      <g>
       <use xlink:href="#me8929e1fe6" x="472.860208" y="794.545464" style="stroke: #000000; stroke-width: 0.8"/>
      </g>
     </g>
     <g id="text_44">
      <!-- 2024-01-15 -->
      <g transform="translate(449.075092 837.183716) rotate(-30) scale(0.1 -0.1)">
       <use xlink:href="#DejaVuSans-32"/>
       <use xlink:href="#DejaVuSans-30" x="63.623047"/>
       <use xlink:href="#DejaVuSans-32" x="127.246094"/>
       <use xlink:href="#DejaVuSans-34" x="190.869141"/>
       <use xlink:href="#DejaVuSans-2d" x="254.492188"/>
       <use xlink:href="#DejaVuSans-30" x="290.576172"/>
       <use xlink:href="#DejaVuSans-31" x="354.199219"/>
       <use xlink:href="#DejaVuSans-2d" x="417.822266"/>
       <use xlink:href="#DejaVuSans-31" x="453.90625"/>
       <use xlink:href="#DejaVuSans-35" x="517.529297"/>
      </g>
     </g>
    </g>
    <g id="text_45">
     <!-- Price date -->
     <g transform="translate(279.128281 850.583216) scale(0.1 -0.1)">
      <use xlink:href="#DejaVuSans-50"/>
      <use xlink:href="#DejaVuSans-72" x="58.552734"/>
      <use xlink:href="#DejaVuSans-69" x="99.666016"/>
      <use xlink:href="#DejaVuSans-63" x="127.449219"/>
      <use xlink:href="#DejaVuSans-65" x="182.429688"/>
      <use xlink:href="#DejaVuSans-20" x="243.953125"/>
      <use xlink:href="#DejaVuSans-64" x="275.740234"/>
      <use xlink:href="#DejaVuSans-61" x="339.216797"/>
      <use xlink:href="#DejaVuSans-74" x="400.496094"/>
      <use xlink:href="#DejaVuSans-65" x="439.705078"/>
     </g>
    </g>
   </g>
   <g id="matplotlib.axis_6">
    <g id="ytick_13">
     <g id="line2d_47">
      <g>
       <use xlink:href="#m2004dc1aa9" x="43.18" y="785.496777" style="stroke: #000000; stroke-width: 0.8"/>
      </g>
     </g>
     <g id="text_46">
      <!-- 550 -->
      <g transform="translate(17.0925 789.295996) scale(0.1 -0.1)">
       <use xlink:href="#DejaVuSans-35"/>
       <use xlink:href="#DejaVuSans-35" x="63.623047"/>
       <use xlink:href="#DejaVuSans-30" x="127.246094"/>
      </g>
     </g>
    </g>
    <g id="ytick_14">
     <g id="line2d_48">
      <g>
       <use xlink:href="#m2004dc1aa9" x="43.18" y="762.127234" style="stroke: #000000; stroke-width: 0.8"/>
      </g>
     </g>
     <g id="text_47">
      <!-- 575 -->
      <g transform="translate(17.0925 765.926452) scale(0.1 -0.1)">
       <defs>
        <path id="DejaVuSans-37" d="M 525 4666 
L 3525 4666 
L 3525 4397 
L 1831 0 
L 1172 0 
L 2766 4134 
L 525 4134 
L 525 4666 
z
" transform="scale(0.015625)"/>
       </defs>
       <use xlink:href="#DejaVuSans-35"/>
       <use xlink:href="#DejaVuSans-37" x="63.623047"/>
       <use xlink:href="#DejaVuSans-35" x="127.246094"/>
      </g>
     </g>
    </g>
    <g id="ytick_15">
     <g id="line2d_49">
      <g>
       <use xlink:href="#m2004dc1aa9" x="43.18" y="738.757691" style="stroke: #000000; stroke-width: 0.8"/>
      </g>
     </g>
     <g id="text_48">
      <!-- 600 -->
      <g transform="translate(17.0925 742.556909) scale(0.1 -0.1)">
       <use xlink:href="#DejaVuSans-36"/>
       <use xlink:href="#DejaVuSans-30" x="63.623047"/>
       <use xlink:href="#DejaVuSans-30" x="127.246094"/>
      </g>
     </g>
    </g>
    <g id="ytick_16">
     <g id="line2d_50">
      <g>
       <use xlink:href="#m2004dc1aa9" x="43.18" y="715.388148" style="stroke: #000000; stroke-width: 0.8"/>
      </g>
     </g>
     <g id="text_49">
      <!-- 625 -->
      <g transform="translate(17.0925 719.187366) scale(0.1 -0.1)">
       <use xlink:href="#DejaVuSans-36"/>
       <use xlink:href="#DejaVuSans-32" x="63.623047"/>
       <use xlink:href="#DejaVuSans-35" x="127.246094"/>
      </g>
     </g>
    </g>
    <g id="ytick_17">
     <g id="line2d_51">
      <g>
       <use xlink:href="#m2004dc1aa9" x="43.18" y="692.018604" style="stroke: #000000; stroke-width: 0.8"/>
      </g>
     </g>
     <g id="text_50">
      <!-- 650 -->
      <g transform="translate(17.0925 695.817823) scale(0.1 -0.1)">
       <use xlink:href="#DejaVuSans-36"/>
       <use xlink:href="#DejaVuSans-35" x="63.623047"/>
       <use xlink:href="#DejaVuSans-30" x="127.246094"/>
      </g>
     </g>
    </g>
    <g id="ytick_18">
     <g id="line2d_52">
      <g>
       <use xlink:href="#m2004dc1aa9" x="43.18" y="668.649061" style="stroke: #000000; stroke-width: 0.8"/>
      </g>
     </g>
     <g id="text_51">
      <!-- 675 -->
      <g transform="translate(17.0925 672.44828) scale(0.1 -0.1)">
       <use xlink:href="#DejaVuSans-36"/>
       <use xlink:href="#DejaVuSans-37" x="63.623047"/>
       <use xlink:href="#DejaVuSans-35" x="127.246094"/>
      </g>
     </g>
    </g>
    <g id="ytick_19">
     <g id="line2d_53">
      <g>
       <use xlink:href="#m2004dc1aa9" x="43.18" y="645.279518" style="stroke: #000000; stroke-width: 0.8"/>
      </g>
     </g>
     <g id="text_52">
      <!-- 700 -->
      <g transform="translate(17.0925 649.078737) scale(0.1 -0.1)">
       <use xlink:href="#DejaVuSans-37"/>
       <use xlink:href="#DejaVuSans-30" x="63.623047"/>
       <use xlink:href="#DejaVuSans-30" x="127.246094"/>
      </g>
     </g>
    </g>
    <g id="ytick_20">
     <g id="line2d_54">
      <g>
       <use xlink:href="#m2004dc1aa9" x="43.18" y="621.909975" style="stroke: #000000; stroke-width: 0.8"/>
      </g>
     </g>
     <g id="text_53">
      <!-- 725 -->
      <g transform="translate(17.0925 625.709194) scale(0.1 -0.1)">
       <use xlink:href="#DejaVuSans-37"/>
       <use xlink:href="#DejaVuSans-32" x="63.623047"/>
       <use xlink:href="#DejaVuSans-35" x="127.246094"/>
      </g>
     </g>
    </g>
    <g id="ytick_21">
     <g id="line2d_55">
      <g>
       <use xlink:href="#m2004dc1aa9" x="43.18" y="598.540432" style="stroke: #000000; stroke-width: 0.8"/>
      </g>
     </g>
     <g id="text_54">
      <!-- 750 -->
      <g transform="translate(17.0925 602.339651) scale(0.1 -0.1)">
       <use xlink:href="#DejaVuSans-37"/>
       <use xlink:href="#DejaVuSans-35" x="63.623047"/>
       <use xlink:href="#DejaVuSans-30" x="127.246094"/>
      </g>
     </g>
    </g>
   </g>
   <g id="line2d_56">
    <path d="M 66.908182 604.719339 
L 72.625816 604.719339 
L 78.34345 604.719339 
L 84.061084 604.719339 
L 89.778719 604.719339 
L 95.496353 604.719339 
L 101.213987 604.719339 
L 106.931621 604.719339 
L 112.649255 604.719339 
L 118.366889 604.719339 
L 124.084524 604.719339 
L 129.802158 604.719339 
L 135.519792 604.719339 
L 141.237426 604.719339 
L 146.95506 604.719339 
L 152.672694 604.719339 
L 158.390329 604.719339 
L 164.107963 604.719339 
L 169.825597 604.719339 
L 175.543231 604.719339 
L 181.260865 604.719339 
L 186.978499 604.719339 
L 192.696134 604.719339 
L 198.413768 604.719339 
L 204.131402 604.719339 
L 209.849036 604.719339 
L 215.56667 604.719339 
L 221.284304 604.719339 
L 227.001939 604.719339 
L 232.719573 604.719339 
L 238.437207 604.719339 
L 244.154841 604.719339 
L 249.872475 604.719339 
L 255.59011 604.719339 
L 261.307744 604.719339 
L 267.025378 604.719339 
L 272.743012 604.719339 
L 278.460646 604.719339 
L 284.17828 604.719339 
L 289.895915 604.719339 
L 295.613549 604.719339 
L 301.331183 604.719339 
L 307.048817 604.719339 
L 312.766451 604.719339 
L 318.484085 604.719339 
L 324.20172 604.719339 
L 329.919354 604.719339 
L 335.636988 604.719339 
L 341.354622 604.719339 
L 347.072256 604.719339 
L 352.78989 604.719339 
L 358.507525 604.719339 
L 364.225159 604.719339 
L 369.942793 604.719339 
L 375.660427 604.719339 
L 381.378061 604.719339 
L 387.095696 604.719339 
L 392.81333 604.719339 
L 398.530964 604.719339 
L 404.248598 604.719339 
L 409.966232 604.719339 
L 415.683866 604.719339 
L 421.401501 604.719339 
L 427.119135 604.719339 
L 432.836769 604.719339 
L 438.554403 604.719339 
L 444.272037 604.719339 
L 449.989671 604.719339 
L 455.707306 604.719339 
L 461.42494 604.719339 
L 467.142574 604.719339 
L 472.860208 604.719339 
L 478.577842 604.719339 
L 484.295476 604.719339 
L 490.013111 604.719339 
L 495.730745 604.719339 
L 501.448379 604.719339 
L 507.166013 604.719339 
L 512.883647 604.719339 
L 518.601281 604.719339 
L 524.318916 604.719339 
L 535.754184 604.719339 
L 541.471818 604.719339 
" clip-path="url(#p10a87bcd6e)" style="fill: none; stroke: #1f77b4; stroke-width: 1.5; stroke-linecap: square"/>
   </g>
   <g id="line2d_57">
    <path d="M 66.908182 738.767038 
L 72.625816 738.767038 
L 78.34345 738.767038 
L 84.061084 738.767038 
L 89.778719 738.767038 
L 95.496353 738.767038 
L 101.213987 738.767038 
L 106.931621 738.767038 
L 112.649255 738.767038 
L 118.366889 738.767038 
L 124.084524 738.767038 
L 129.802158 738.767038 
L 135.519792 738.767038 
L 141.237426 738.767038 
L 146.95506 738.767038 
L 152.672694 738.767038 
L 158.390329 738.767038 
L 164.107963 785.506125 
L 169.825597 785.506125 
L 175.543231 785.506125 
M 198.413768 785.506125 
" clip-path="url(#p10a87bcd6e)" style="fill: none; stroke: #ff7f0e; stroke-width: 1.5; stroke-linecap: square"/>
   </g>
   <g id="line2d_58">
    <path d="M 66.908182 739.692472 
L 72.625816 739.692472 
L 78.34345 739.692472 
L 84.061084 739.692472 
L 89.778719 739.692472 
L 95.496353 739.692472 
L 101.213987 739.692472 
L 106.931621 739.692472 
L 112.649255 739.692472 
L 118.366889 739.692472 
L 124.084524 739.692472 
L 129.802158 739.692472 
L 135.519792 739.692472 
L 141.237426 739.692472 
L 146.95506 739.692472 
L 152.672694 739.692472 
L 158.390329 739.692472 
L 164.107963 739.692472 
L 169.825597 739.692472 
L 175.543231 739.692472 
L 181.260865 739.692472 
L 186.978499 739.692472 
L 192.696134 739.692472 
L 198.413768 739.692472 
L 204.131402 739.692472 
L 209.849036 739.692472 
L 215.56667 739.692472 
L 221.284304 739.692472 
L 227.001939 739.692472 
L 232.719573 739.692472 
L 238.437207 739.692472 
L 244.154841 739.692472 
L 249.872475 739.692472 
L 255.59011 739.692472 
L 261.307744 739.692472 
L 267.025378 739.692472 
L 272.743012 739.692472 
L 278.460646 739.692472 
L 284.17828 739.692472 
L 289.895915 739.692472 
L 295.613549 739.692472 
L 301.331183 739.692472 
L 307.048817 739.692472 
L 312.766451 739.692472 
L 318.484085 739.692472 
L 324.20172 739.692472 
L 329.919354 739.692472 
L 335.636988 739.692472 
L 341.354622 739.692472 
L 347.072256 739.692472 
L 352.78989 739.692472 
L 358.507525 739.692472 
L 364.225159 739.692472 
L 369.942793 739.692472 
L 375.660427 739.692472 
L 381.378061 739.692472 
L 387.095696 739.692472 
L 392.81333 739.692472 
L 398.530964 739.692472 
L 404.248598 739.692472 
L 409.966232 739.692472 
L 415.683866 739.692472 
L 421.401501 739.692472 
L 427.119135 739.692472 
L 432.836769 739.692472 
L 438.554403 739.692472 
L 444.272037 739.692472 
L 449.989671 739.692472 
L 455.707306 739.692472 
L 461.42494 739.692472 
L 467.142574 739.692472 
L 472.860208 739.692472 
L 478.577842 739.692472 
L 484.295476 739.692472 
L 490.013111 739.692472 
L 495.730745 739.692472 
L 501.448379 739.692472 
L 507.166013 739.692472 
L 512.883647 739.692472 
L 518.601281 739.692472 
L 524.318916 739.692472 
L 535.754184 739.692472 
L 541.471818 739.692472 
" clip-path="url(#p10a87bcd6e)" style="fill: none; stroke: #2ca02c; stroke-width: 1.5; stroke-linecap: square"/>
   </g>
   <g id="line2d_59">
    <path d="M 66.908182 670.518625 
L 72.625816 670.518625 
L 78.34345 670.518625 
L 84.061084 670.518625 
L 89.778719 670.518625 
L 95.496353 670.518625 
L 101.213987 670.518625 
L 106.931621 670.518625 
L 112.649255 670.518625 
L 118.366889 670.518625 
L 124.084524 670.518625 
L 129.802158 670.518625 
L 135.519792 670.518625 
L 141.237426 670.518625 
L 146.95506 670.518625 
L 152.672694 670.518625 
L 158.390329 670.518625 
L 164.107963 670.518625 
L 169.825597 670.518625 
L 175.543231 670.518625 
L 181.260865 670.518625 
L 186.978499 670.518625 
L 192.696134 670.518625 
L 198.413768 670.518625 
L 204.131402 670.518625 
L 209.849036 670.518625 
L 215.56667 670.518625 
L 221.284304 670.518625 
L 227.001939 670.518625 
L 232.719573 670.518625 
L 238.437207 670.518625 
L 244.154841 670.518625 
L 249.872475 670.518625 
L 255.59011 670.518625 
L 261.307744 670.518625 
L 267.025378 670.518625 
L 272.743012 670.518625 
L 278.460646 670.518625 
L 284.17828 670.518625 
L 289.895915 670.518625 
L 295.613549 670.518625 
L 301.331183 670.518625 
L 307.048817 670.518625 
L 312.766451 670.518625 
L 318.484085 670.518625 
L 324.20172 670.518625 
L 329.919354 670.518625 
L 335.636988 670.518625 
L 341.354622 670.518625 
L 347.072256 670.518625 
L 352.78989 670.518625 
L 358.507525 670.518625 
L 364.225159 670.518625 
L 369.942793 670.518625 
L 375.660427 670.518625 
L 381.378061 670.518625 
L 387.095696 670.518625 
L 392.81333 670.518625 
L 398.530964 670.518625 
L 404.248598 670.518625 
L 409.966232 670.518625 
L 415.683866 670.518625 
L 421.401501 670.518625 
L 427.119135 670.518625 
L 432.836769 670.518625 
L 438.554403 670.518625 
L 444.272037 670.518625 
L 449.989671 670.518625 
L 455.707306 670.518625 
L 461.42494 670.518625 
L 467.142574 670.518625 
L 472.860208 670.518625 
L 478.577842 670.518625 
L 484.295476 670.518625 
L 490.013111 670.518625 
L 495.730745 670.518625 
L 501.448379 670.518625 
L 507.166013 670.518625 
L 512.883647 670.518625 
L 518.601281 670.518625 
L 524.318916 670.518625 
L 535.754184 670.518625 
L 541.471818 670.518625 
" clip-path="url(#p10a87bcd6e)" style="fill: none; stroke: #d62728; stroke-width: 1.5; stroke-linecap: square"/>
   </g>
   <g id="patch_15">
    <path d="M 43.18 794.545464 
L 43.18 595.68 
" style="fill: none; stroke: #000000; stroke-width: 0.8; stroke-linejoin: miter; stroke-linecap: square"/>
   </g>
   <g id="patch_16">
    <path d="M 565.2 794.545464 
L 565.2 595.68 
" style="fill: none; stroke: #000000; stroke-width: 0.8; stroke-linejoin: miter; stroke-linecap: square"/>
   </g>
   <g id="patch_17">
    <path d="M 43.18 794.545464 
L 565.2 794.545464 
" style="fill: none; stroke: #000000; stroke-width: 0.8; stroke-linejoin: miter; stroke-linecap: square"/>
   </g>
   <g id="patch_18">
    <path d="M 43.18 595.68 
L 565.2 595.68 
" style="fill: none; stroke: #000000; stroke-width: 0.8; stroke-linejoin: miter; stroke-linecap: square"/>
   </g>
   <g id="text_55">
    <!-- HP 15-fd0007nm -->
    <g transform="translate(253.515312 589.68) scale(0.12 -0.12)">
     <defs>
      <path id="DejaVuSans-48" d="M 628 4666 
L 1259 4666 
L 1259 2753 
L 3553 2753 
L 3553 4666 
L 4184 4666 
L 4184 0 
L 3553 0 
L 3553 2222 
L 1259 2222 
L 1259 0 
L 628 0 
L 628 4666 
z
" transform="scale(0.015625)"/>
     </defs>
     <use xlink:href="#DejaVuSans-48"/>
     <use xlink:href="#DejaVuSans-50" x="75.195312"/>
     <use xlink:href="#DejaVuSans-20" x="135.498047"/>
     <use xlink:href="#DejaVuSans-31" x="167.285156"/>
     <use xlink:href="#DejaVuSans-35" x="230.908203"/>
     <use xlink:href="#DejaVuSans-2d" x="294.53125"/>
     <use xlink:href="#DejaVuSans-66" x="330.615234"/>
     <use xlink:href="#DejaVuSans-64" x="365.820312"/>
     <use xlink:href="#DejaVuSans-30" x="429.296875"/>
     <use xlink:href="#DejaVuSans-30" x="492.919922"/>
     <use xlink:href="#DejaVuSans-30" x="556.542969"/>
     <use xlink:href="#DejaVuSans-37" x="620.166016"/>
     <use xlink:href="#DejaVuSans-6e" x="683.789062"/>
     <use xlink:href="#DejaVuSans-6d" x="747.167969"/>
    </g>
   </g>
   <g id="legend_3">
    <g id="patch_19">
     <path d="M 424.117188 789.545464 
L 558.2 789.545464 
Q 560.2 789.545464 560.2 787.545464 
L 560.2 715.154839 
Q 560.2 713.154839 558.2 713.154839 
L 424.117188 713.154839 
Q 422.117188 713.154839 422.117188 715.154839 
L 422.117188 787.545464 
Q 422.117188 789.545464 424.117188 789.545464 
z
" style="fill: #ffffff; opacity: 0.8; stroke: #cccccc; stroke-linejoin: miter"/>
    </g>
    <g id="text_56">
     <!-- source -->
     <g transform="translate(474.557031 724.753276) scale(0.1 -0.1)">
      <use xlink:href="#DejaVuSans-73"/>
      <use xlink:href="#DejaVuSans-6f" x="52.099609"/>
      <use xlink:href="#DejaVuSans-75" x="113.28125"/>
      <use xlink:href="#DejaVuSans-72" x="176.660156"/>
      <use xlink:href="#DejaVuSans-63" x="215.523438"/>
      <use xlink:href="#DejaVuSans-65" x="270.503906"/>
     </g>
    </g>
    <g id="line2d_60">
     <path d="M 426.117188 735.931401 
L 436.117188 735.931401 
L 446.117188 735.931401 
" style="fill: none; stroke: #1f77b4; stroke-width: 1.5; stroke-linecap: square"/>
    </g>
    <g id="text_57">
     <!-- instar-informatika.hr -->
     <g transform="translate(454.117188 739.431401) scale(0.1 -0.1)">
      <use xlink:href="#DejaVuSans-69"/>
      <use xlink:href="#DejaVuSans-6e" x="27.783203"/>
      <use xlink:href="#DejaVuSans-73" x="91.162109"/>
      <use xlink:href="#DejaVuSans-74" x="143.261719"/>
      <use xlink:href="#DejaVuSans-61" x="182.470703"/>
      <use xlink:href="#DejaVuSans-72" x="243.75"/>
      <use xlink:href="#DejaVuSans-2d" x="278.488281"/>
      <use xlink:href="#DejaVuSans-69" x="314.572266"/>
      <use xlink:href="#DejaVuSans-6e" x="342.355469"/>
      <use xlink:href="#DejaVuSans-66" x="405.734375"/>
      <use xlink:href="#DejaVuSans-6f" x="440.939453"/>
      <use xlink:href="#DejaVuSans-72" x="502.121094"/>
      <use xlink:href="#DejaVuSans-6d" x="541.484375"/>
      <use xlink:href="#DejaVuSans-61" x="638.896484"/>
      <use xlink:href="#DejaVuSans-74" x="700.175781"/>
      <use xlink:href="#DejaVuSans-69" x="739.384766"/>
      <use xlink:href="#DejaVuSans-6b" x="767.167969"/>
      <use xlink:href="#DejaVuSans-61" x="823.328125"/>
      <use xlink:href="#DejaVuSans-2e" x="884.607422"/>
      <use xlink:href="#DejaVuSans-68" x="916.394531"/>
      <use xlink:href="#DejaVuSans-72" x="979.773438"/>
     </g>
    </g>
    <g id="line2d_61">
     <path d="M 426.117188 750.609526 
L 436.117188 750.609526 
L 446.117188 750.609526 
" style="fill: none; stroke: #ff7f0e; stroke-width: 1.5; stroke-linecap: square"/>
    </g>
    <g id="text_58">
     <!-- links.hr -->
     <g transform="translate(454.117188 754.109526) scale(0.1 -0.1)">
      <use xlink:href="#DejaVuSans-6c"/>
      <use xlink:href="#DejaVuSans-69" x="27.783203"/>
      <use xlink:href="#DejaVuSans-6e" x="55.566406"/>
      <use xlink:href="#DejaVuSans-6b" x="118.945312"/>
      <use xlink:href="#DejaVuSans-73" x="176.855469"/>
      <use xlink:href="#DejaVuSans-2e" x="228.955078"/>
      <use xlink:href="#DejaVuSans-68" x="260.742188"/>
      <use xlink:href="#DejaVuSans-72" x="324.121094"/>
     </g>
    </g>
    <g id="line2d_62">
     <path d="M 426.117188 765.287651 
L 436.117188 765.287651 
L 446.117188 765.287651 
" style="fill: none; stroke: #2ca02c; stroke-width: 1.5; stroke-linecap: square"/>
    </g>
    <g id="text_59">
     <!-- mikronis.hr -->
     <g transform="translate(454.117188 768.787651) scale(0.1 -0.1)">
      <use xlink:href="#DejaVuSans-6d"/>
      <use xlink:href="#DejaVuSans-69" x="97.412109"/>
      <use xlink:href="#DejaVuSans-6b" x="125.195312"/>
      <use xlink:href="#DejaVuSans-72" x="183.105469"/>
      <use xlink:href="#DejaVuSans-6f" x="221.96875"/>
      <use xlink:href="#DejaVuSans-6e" x="283.150391"/>
      <use xlink:href="#DejaVuSans-69" x="346.529297"/>
      <use xlink:href="#DejaVuSans-73" x="374.3125"/>
      <use xlink:href="#DejaVuSans-2e" x="426.412109"/>
      <use xlink:href="#DejaVuSans-68" x="458.199219"/>
      <use xlink:href="#DejaVuSans-72" x="521.578125"/>
     </g>
    </g>
    <g id="line2d_63">
     <path d="M 426.117188 779.965776 
L 436.117188 779.965776 
L 446.117188 779.965776 
" style="fill: none; stroke: #d62728; stroke-width: 1.5; stroke-linecap: square"/>
    </g>
    <g id="text_60">
     <!-- nabava.net -->
     <g transform="translate(454.117188 783.465776) scale(0.1 -0.1)">
      <use xlink:href="#DejaVuSans-6e"/>
      <use xlink:href="#DejaVuSans-61" x="63.378906"/>
      <use xlink:href="#DejaVuSans-62" x="124.658203"/>
      <use xlink:href="#DejaVuSans-61" x="188.134766"/>
      <use xlink:href="#DejaVuSans-76" x="249.414062"/>
      <use xlink:href="#DejaVuSans-61" x="308.59375"/>
      <use xlink:href="#DejaVuSans-2e" x="369.873047"/>
      <use xlink:href="#DejaVuSans-6e" x="401.660156"/>
      <use xlink:href="#DejaVuSans-65" x="465.039062"/>
      <use xlink:href="#DejaVuSans-74" x="526.5625"/>
     </g>
    </g>
   </g>
  </g>
 </g>
 <defs>
  <clipPath id="pb2ca62d911">
   <rect x="43.18" y="26.88" width="522.02" height="198.865464"/>
  </clipPath>
  <clipPath id="p3779c8ef0c">
   <rect x="43.18" y="311.28" width="522.02" height="198.865464"/>
  </clipPath>
  <clipPath id="p10a87bcd6e">
   <rect x="43.18" y="595.68" width="522.02" height="198.865464"/>
  </clipPath>
 </defs>
</svg>
