<?xml version="1.0" encoding="utf-8" standalone="no"?>
<!DOCTYPE svg PUBLIC "-//W3C//DTD SVG 1.1//EN"
  "http://www.w3.org/Graphics/SVG/1.1/DTD/svg11.dtd">
<svg xmlns:xlink="http://www.w3.org/1999/xlink" width="576pt" height="864pt" viewBox="0 0 576 864" xmlns="http://www.w3.org/2000/svg" version="1.1">
 <metadata>
  <rdf:RDF xmlns:dc="http://purl.org/dc/elements/1.1/" xmlns:cc="http://creativecommons.org/ns#" xmlns:rdf="http://www.w3.org/1999/02/22-rdf-syntax-ns#">
   <cc:Work>
    <dc:type rdf:resource="http://purl.org/dc/dcmitype/StillImage"/>
    <dc:date>2024-02-12T00:41:25.855098</dc:date>
    <dc:format>image/svg+xml</dc:format>
    <dc:creator>
     <cc:Agent>
      <dc:title>Matplotlib v3.8.2, https://matplotlib.org/</dc:title>
     </cc:Agent>
    </dc:creator>
   </cc:Work>
  </rdf:RDF>
 </metadata>
 <defs>
  <style type="text/css">*{stroke-linejoin: round; stroke-linecap: butt}</style>
 </defs>
 <g id="figure_1">
  <g id="patch_1">
   <path d="M 0 864 
L 576 864 
L 576 0 
L 0 0 
z
" style="fill: #ffffff"/>
  </g>
  <g id="axes_1">
   <g id="patch_2">
    <path d="M 43.18 225.745464 
L 545.770828 225.745464 
L 545.770828 26.88 
L 43.18 26.88 
z
" style="fill: #ffffff"/>
   </g>
   <g id="matplotlib.axis_1">
    <g id="xtick_1">
     <g id="line2d_1">
      <defs>
       <path id="m36332ddf4d" d="M 0 0 
L 0 3.5 
" style="stroke: #000000; stroke-width: 0.8"/>
      </defs>
      <g>
       <use xlink:href="#m36332ddf4d" x="78.956191" y="225.745464" style="stroke: #000000; stroke-width: 0.8"/>
      </g>
     </g>
     <g id="text_1">
      <!-- 2023-11-01 -->
      <g transform="translate(55.171075 268.383716) rotate(-30) scale(0.1 -0.1)">
       <defs>
        <path id="DejaVuSans-32" d="M 1228 531 
L 3431 531 
L 3431 0 
L 469 0 
L 469 531 
Q 828 903 1448 1529 
Q 2069 2156 2228 2338 
Q 2531 2678 2651 2914 
Q 2772 3150 2772 3378 
Q 2772 3750 2511 3984 
Q 2250 4219 1831 4219 
Q 1534 4219 1204 4116 
Q 875 4013 500 3803 
L 500 4441 
Q 881 4594 1212 4672 
Q 1544 4750 1819 4750 
Q 2544 4750 2975 4387 
Q 3406 4025 3406 3419 
Q 3406 3131 3298 2873 
Q 3191 2616 2906 2266 
Q 2828 2175 2409 1742 
Q 1991 1309 1228 531 
z
" transform="scale(0.015625)"/>
        <path id="DejaVuSans-30" d="M 2034 4250 
Q 1547 4250 1301 3770 
Q 1056 3291 1056 2328 
Q 1056 1369 1301 889 
Q 1547 409 2034 409 
Q 2525 409 2770 889 
Q 3016 1369 3016 2328 
Q 3016 3291 2770 3770 
Q 2525 4250 2034 4250 
z
M 2034 4750 
Q 2819 4750 3233 4129 
Q 3647 3509 3647 2328 
Q 3647 1150 3233 529 
Q 2819 -91 2034 -91 
Q 1250 -91 836 529 
Q 422 1150 422 2328 
Q 422 3509 836 4129 
Q 1250 4750 2034 4750 
z
" transform="scale(0.015625)"/>
        <path id="DejaVuSans-33" d="M 2597 2516 
Q 3050 2419 3304 2112 
Q 3559 1806 3559 1356 
Q 3559 666 3084 287 
Q 2609 -91 1734 -91 
Q 1441 -91 1130 -33 
Q 819 25 488 141 
L 488 750 
Q 750 597 1062 519 
Q 1375 441 1716 441 
Q 2309 441 2620 675 
Q 2931 909 2931 1356 
Q 2931 1769 2642 2001 
Q 2353 2234 1838 2234 
L 1294 2234 
L 1294 2753 
L 1863 2753 
Q 2328 2753 2575 2939 
Q 2822 3125 2822 3475 
Q 2822 3834 2567 4026 
Q 2313 4219 1838 4219 
Q 1578 4219 1281 4162 
Q 984 4106 628 3988 
L 628 4550 
Q 988 4650 1302 4700 
Q 1616 4750 1894 4750 
Q 2613 4750 3031 4423 
Q 3450 4097 3450 3541 
Q 3450 3153 3228 2886 
Q 3006 2619 2597 2516 
z
" transform="scale(0.015625)"/>
        <path id="DejaVuSans-2d" d="M 313 2009 
L 1997 2009 
L 1997 1497 
L 313 1497 
L 313 2009 
z
" transform="scale(0.015625)"/>
        <path id="DejaVuSans-31" d="M 794 531 
L 1825 531 
L 1825 4091 
L 703 3866 
L 703 4441 
L 1819 4666 
L 2450 4666 
L 2450 531 
L 3481 531 
L 3481 0 
L 794 0 
L 794 531 
z
" transform="scale(0.015625)"/>
       </defs>
       <use xlink:href="#DejaVuSans-32"/>
       <use xlink:href="#DejaVuSans-30" x="63.623047"/>
       <use xlink:href="#DejaVuSans-32" x="127.246094"/>
       <use xlink:href="#DejaVuSans-33" x="190.869141"/>
       <use xlink:href="#DejaVuSans-2d" x="254.492188"/>
       <use xlink:href="#DejaVuSans-31" x="290.576172"/>
       <use xlink:href="#DejaVuSans-31" x="354.199219"/>
       <use xlink:href="#DejaVuSans-2d" x="417.822266"/>
       <use xlink:href="#DejaVuSans-30" x="453.90625"/>
       <use xlink:href="#DejaVuSans-31" x="517.529297"/>
      </g>
     </g>
    </g>
    <g id="xtick_2">
     <g id="line2d_2">
      <g>
       <use xlink:href="#m36332ddf4d" x="139.301573" y="225.745464" style="stroke: #000000; stroke-width: 0.8"/>
      </g>
     </g>
     <g id="text_2">
      <!-- 2023-11-15 -->
      <g transform="translate(115.516457 268.383716) rotate(-30) scale(0.1 -0.1)">
       <defs>
        <path id="DejaVuSans-35" d="M 691 4666 
L 3169 4666 
L 3169 4134 
L 1269 4134 
L 1269 2991 
Q 1406 3038 1543 3061 
Q 1681 3084 1819 3084 
Q 2600 3084 3056 2656 
Q 3513 2228 3513 1497 
Q 3513 744 3044 326 
Q 2575 -91 1722 -91 
Q 1428 -91 1123 -41 
Q 819 9 494 109 
L 494 744 
Q 775 591 1075 516 
Q 1375 441 1709 441 
Q 2250 441 2565 725 
Q 2881 1009 2881 1497 
Q 2881 1984 2565 2268 
Q 2250 2553 1709 2553 
Q 1456 2553 1204 2497 
Q 953 2441 691 2322 
L 691 4666 
z
" transform="scale(0.015625)"/>
       </defs>
       <use xlink:href="#DejaVuSans-32"/>
       <use xlink:href="#DejaVuSans-30" x="63.623047"/>
       <use xlink:href="#DejaVuSans-32" x="127.246094"/>
       <use xlink:href="#DejaVuSans-33" x="190.869141"/>
       <use xlink:href="#DejaVuSans-2d" x="254.492188"/>
       <use xlink:href="#DejaVuSans-31" x="290.576172"/>
       <use xlink:href="#DejaVuSans-31" x="354.199219"/>
       <use xlink:href="#DejaVuSans-2d" x="417.822266"/>
       <use xlink:href="#DejaVuSans-31" x="453.90625"/>
       <use xlink:href="#DejaVuSans-35" x="517.529297"/>
      </g>
     </g>
    </g>
    <g id="xtick_3">
     <g id="line2d_3">
      <g>
       <use xlink:href="#m36332ddf4d" x="208.267725" y="225.745464" style="stroke: #000000; stroke-width: 0.8"/>
      </g>
     </g>
     <g id="text_3">
      <!-- 2023-12-01 -->
      <g transform="translate(184.482608 268.383716) rotate(-30) scale(0.1 -0.1)">
       <use xlink:href="#DejaVuSans-32"/>
       <use xlink:href="#DejaVuSans-30" x="63.623047"/>
       <use xlink:href="#DejaVuSans-32" x="127.246094"/>
       <use xlink:href="#DejaVuSans-33" x="190.869141"/>
       <use xlink:href="#DejaVuSans-2d" x="254.492188"/>
       <use xlink:href="#DejaVuSans-31" x="290.576172"/>
       <use xlink:href="#DejaVuSans-32" x="354.199219"/>
       <use xlink:href="#DejaVuSans-2d" x="417.822266"/>
       <use xlink:href="#DejaVuSans-30" x="453.90625"/>
       <use xlink:href="#DejaVuSans-31" x="517.529297"/>
      </g>
     </g>
    </g>
    <g id="xtick_4">
     <g id="line2d_4">
      <g>
       <use xlink:href="#m36332ddf4d" x="268.613107" y="225.745464" style="stroke: #000000; stroke-width: 0.8"/>
      </g>
     </g>
     <g id="text_4">
      <!-- 2023-12-15 -->
      <g transform="translate(244.827991 268.383716) rotate(-30) scale(0.1 -0.1)">
       <use xlink:href="#DejaVuSans-32"/>
       <use xlink:href="#DejaVuSans-30" x="63.623047"/>
       <use xlink:href="#DejaVuSans-32" x="127.246094"/>
       <use xlink:href="#DejaVuSans-33" x="190.869141"/>
       <use xlink:href="#DejaVuSans-2d" x="254.492188"/>
       <use xlink:href="#DejaVuSans-31" x="290.576172"/>
       <use xlink:href="#DejaVuSans-32" x="354.199219"/>
       <use xlink:href="#DejaVuSans-2d" x="417.822266"/>
       <use xlink:href="#DejaVuSans-31" x="453.90625"/>
       <use xlink:href="#DejaVuSans-35" x="517.529297"/>
      </g>
     </g>
    </g>
    <g id="xtick_5">
     <g id="line2d_5">
      <g>
       <use xlink:href="#m36332ddf4d" x="341.889643" y="225.745464" style="stroke: #000000; stroke-width: 0.8"/>
      </g>
     </g>
     <g id="text_5">
      <!-- 2024-01-01 -->
      <g transform="translate(318.104527 268.383716) rotate(-30) scale(0.1 -0.1)">
       <defs>
        <path id="DejaVuSans-34" d="M 2419 4116 
L 825 1625 
L 2419 1625 
L 2419 4116 
z
M 2253 4666 
L 3047 4666 
L 3047 1625 
L 3713 1625 
L 3713 1100 
L 3047 1100 
L 3047 0 
L 2419 0 
L 2419 1100 
L 313 1100 
L 313 1709 
L 2253 4666 
z
" transform="scale(0.015625)"/>
       </defs>
       <use xlink:href="#DejaVuSans-32"/>
       <use xlink:href="#DejaVuSans-30" x="63.623047"/>
       <use xlink:href="#DejaVuSans-32" x="127.246094"/>
       <use xlink:href="#DejaVuSans-34" x="190.869141"/>
       <use xlink:href="#DejaVuSans-2d" x="254.492188"/>
       <use xlink:href="#DejaVuSans-30" x="290.576172"/>
       <use xlink:href="#DejaVuSans-31" x="354.199219"/>
       <use xlink:href="#DejaVuSans-2d" x="417.822266"/>
       <use xlink:href="#DejaVuSans-30" x="453.90625"/>
       <use xlink:href="#DejaVuSans-31" x="517.529297"/>
      </g>
     </g>
    </g>
    <g id="xtick_6">
     <g id="line2d_6">
      <g>
       <use xlink:href="#m36332ddf4d" x="402.235025" y="225.745464" style="stroke: #000000; stroke-width: 0.8"/>
      </g>
     </g>
     <g id="text_6">
      <!-- 2024-01-15 -->
      <g transform="translate(378.449909 268.383716) rotate(-30) scale(0.1 -0.1)">
       <use xlink:href="#DejaVuSans-32"/>
       <use xlink:href="#DejaVuSans-30" x="63.623047"/>
       <use xlink:href="#DejaVuSans-32" x="127.246094"/>
       <use xlink:href="#DejaVuSans-34" x="190.869141"/>
       <use xlink:href="#DejaVuSans-2d" x="254.492188"/>
       <use xlink:href="#DejaVuSans-30" x="290.576172"/>
       <use xlink:href="#DejaVuSans-31" x="354.199219"/>
       <use xlink:href="#DejaVuSans-2d" x="417.822266"/>
       <use xlink:href="#DejaVuSans-31" x="453.90625"/>
       <use xlink:href="#DejaVuSans-35" x="517.529297"/>
      </g>
     </g>
    </g>
    <g id="xtick_7">
     <g id="line2d_7">
      <g>
       <use xlink:href="#m36332ddf4d" x="475.511561" y="225.745464" style="stroke: #000000; stroke-width: 0.8"/>
      </g>
     </g>
     <g id="text_7">
      <!-- 2024-02-01 -->
      <g transform="translate(451.726445 268.383716) rotate(-30) scale(0.1 -0.1)">
       <use xlink:href="#DejaVuSans-32"/>
       <use xlink:href="#DejaVuSans-30" x="63.623047"/>
       <use xlink:href="#DejaVuSans-32" x="127.246094"/>
       <use xlink:href="#DejaVuSans-34" x="190.869141"/>
       <use xlink:href="#DejaVuSans-2d" x="254.492188"/>
       <use xlink:href="#DejaVuSans-30" x="290.576172"/>
       <use xlink:href="#DejaVuSans-32" x="354.199219"/>
       <use xlink:href="#DejaVuSans-2d" x="417.822266"/>
       <use xlink:href="#DejaVuSans-30" x="453.90625"/>
       <use xlink:href="#DejaVuSans-31" x="517.529297"/>
      </g>
     </g>
    </g>
    <g id="xtick_8">
     <g id="line2d_8">
      <g>
       <use xlink:href="#m36332ddf4d" x="535.856944" y="225.745464" style="stroke: #000000; stroke-width: 0.8"/>
      </g>
     </g>
     <g id="text_8">
      <!-- 2024-02-15 -->
      <g transform="translate(512.071827 268.383716) rotate(-30) scale(0.1 -0.1)">
       <use xlink:href="#DejaVuSans-32"/>
       <use xlink:href="#DejaVuSans-30" x="63.623047"/>
       <use xlink:href="#DejaVuSans-32" x="127.246094"/>
       <use xlink:href="#DejaVuSans-34" x="190.869141"/>
       <use xlink:href="#DejaVuSans-2d" x="254.492188"/>
       <use xlink:href="#DejaVuSans-30" x="290.576172"/>
       <use xlink:href="#DejaVuSans-32" x="354.199219"/>
       <use xlink:href="#DejaVuSans-2d" x="417.822266"/>
       <use xlink:href="#DejaVuSans-31" x="453.90625"/>
       <use xlink:href="#DejaVuSans-35" x="517.529297"/>
      </g>
     </g>
    </g>
    <g id="text_9">
     <!-- Price date -->
     <g transform="translate(269.413695 281.783216) scale(0.1 -0.1)">
      <defs>
       <path id="DejaVuSans-50" d="M 1259 4147 
L 1259 2394 
L 2053 2394 
Q 2494 2394 2734 2622 
Q 2975 2850 2975 3272 
Q 2975 3691 2734 3919 
Q 2494 4147 2053 4147 
L 1259 4147 
z
M 628 4666 
L 2053 4666 
Q 2838 4666 3239 4311 
Q 3641 3956 3641 3272 
Q 3641 2581 3239 2228 
Q 2838 1875 2053 1875 
L 1259 1875 
L 1259 0 
L 628 0 
L 628 4666 
z
" transform="scale(0.015625)"/>
       <path id="DejaVuSans-72" d="M 2631 2963 
Q 2534 3019 2420 3045 
Q 2306 3072 2169 3072 
Q 1681 3072 1420 2755 
Q 1159 2438 1159 1844 
L 1159 0 
L 581 0 
L 581 3500 
L 1159 3500 
L 1159 2956 
Q 1341 3275 1631 3429 
Q 1922 3584 2338 3584 
Q 2397 3584 2469 3576 
Q 2541 3569 2628 3553 
L 2631 2963 
z
" transform="scale(0.015625)"/>
       <path id="DejaVuSans-69" d="M 603 3500 
L 1178 3500 
L 1178 0 
L 603 0 
L 603 3500 
z
M 603 4863 
L 1178 4863 
L 1178 4134 
L 603 4134 
L 603 4863 
z
" transform="scale(0.015625)"/>
       <path id="DejaVuSans-63" d="M 3122 3366 
L 3122 2828 
Q 2878 2963 2633 3030 
Q 2388 3097 2138 3097 
Q 1578 3097 1268 2742 
Q 959 2388 959 1747 
Q 959 1106 1268 751 
Q 1578 397 2138 397 
Q 2388 397 2633 464 
Q 2878 531 3122 666 
L 3122 134 
Q 2881 22 2623 -34 
Q 2366 -91 2075 -91 
Q 1284 -91 818 406 
Q 353 903 353 1747 
Q 353 2603 823 3093 
Q 1294 3584 2113 3584 
Q 2378 3584 2631 3529 
Q 2884 3475 3122 3366 
z
" transform="scale(0.015625)"/>
       <path id="DejaVuSans-65" d="M 3597 1894 
L 3597 1613 
L 953 1613 
Q 991 1019 1311 708 
Q 1631 397 2203 397 
Q 2534 397 2845 478 
Q 3156 559 3463 722 
L 3463 178 
Q 3153 47 2828 -22 
Q 2503 -91 2169 -91 
Q 1331 -91 842 396 
Q 353 884 353 1716 
Q 353 2575 817 3079 
Q 1281 3584 2069 3584 
Q 2775 3584 3186 3129 
Q 3597 2675 3597 1894 
z
M 3022 2063 
Q 3016 2534 2758 2815 
Q 2500 3097 2075 3097 
Q 1594 3097 1305 2825 
Q 1016 2553 972 2059 
L 3022 2063 
z
" transform="scale(0.015625)"/>
       <path id="DejaVuSans-20" transform="scale(0.015625)"/>
       <path id="DejaVuSans-64" d="M 2906 2969 
L 2906 4863 
L 3481 4863 
L 3481 0 
L 2906 0 
L 2906 525 
Q 2725 213 2448 61 
Q 2172 -91 1784 -91 
Q 1150 -91 751 415 
Q 353 922 353 1747 
Q 353 2572 751 3078 
Q 1150 3584 1784 3584 
Q 2172 3584 2448 3432 
Q 2725 3281 2906 2969 
z
M 947 1747 
Q 947 1113 1208 752 
Q 1469 391 1925 391 
Q 2381 391 2643 752 
Q 2906 1113 2906 1747 
Q 2906 2381 2643 2742 
Q 2381 3103 1925 3103 
Q 1469 3103 1208 2742 
Q 947 2381 947 1747 
z
" transform="scale(0.015625)"/>
       <path id="DejaVuSans-61" d="M 2194 1759 
Q 1497 1759 1228 1600 
Q 959 1441 959 1056 
Q 959 750 1161 570 
Q 1363 391 1709 391 
Q 2188 391 2477 730 
Q 2766 1069 2766 1631 
L 2766 1759 
L 2194 1759 
z
M 3341 1997 
L 3341 0 
L 2766 0 
L 2766 531 
Q 2569 213 2275 61 
Q 1981 -91 1556 -91 
Q 1019 -91 701 211 
Q 384 513 384 1019 
Q 384 1609 779 1909 
Q 1175 2209 1959 2209 
L 2766 2209 
L 2766 2266 
Q 2766 2663 2505 2880 
Q 2244 3097 1772 3097 
Q 1472 3097 1187 3025 
Q 903 2953 641 2809 
L 641 3341 
Q 956 3463 1253 3523 
Q 1550 3584 1831 3584 
Q 2591 3584 2966 3190 
Q 3341 2797 3341 1997 
z
" transform="scale(0.015625)"/>
       <path id="DejaVuSans-74" d="M 1172 4494 
L 1172 3500 
L 2356 3500 
L 2356 3053 
L 1172 3053 
L 1172 1153 
Q 1172 725 1289 603 
Q 1406 481 1766 481 
L 2356 481 
L 2356 0 
L 1766 0 
Q 1100 0 847 248 
Q 594 497 594 1153 
L 594 3053 
L 172 3053 
L 172 3500 
L 594 3500 
L 594 4494 
L 1172 4494 
z
" transform="scale(0.015625)"/>
      </defs>
      <use xlink:href="#DejaVuSans-50"/>
      <use xlink:href="#DejaVuSans-72" x="58.552734"/>
      <use xlink:href="#DejaVuSans-69" x="99.666016"/>
      <use xlink:href="#DejaVuSans-63" x="127.449219"/>
      <use xlink:href="#DejaVuSans-65" x="182.429688"/>
      <use xlink:href="#DejaVuSans-20" x="243.953125"/>
      <use xlink:href="#DejaVuSans-64" x="275.740234"/>
      <use xlink:href="#DejaVuSans-61" x="339.216797"/>
      <use xlink:href="#DejaVuSans-74" x="400.496094"/>
      <use xlink:href="#DejaVuSans-65" x="439.705078"/>
     </g>
    </g>
   </g>
   <g id="matplotlib.axis_2">
    <g id="ytick_1">
     <g id="line2d_9">
      <defs>
       <path id="m5a7e9ba207" d="M 0 0 
L -3.5 0 
" style="stroke: #000000; stroke-width: 0.8"/>
      </defs>
      <g>
       <use xlink:href="#m5a7e9ba207" x="43.18" y="215.968219" style="stroke: #000000; stroke-width: 0.8"/>
      </g>
     </g>
     <g id="text_10">
      <!-- 1150 -->
      <g transform="translate(10.73 219.767438) scale(0.1 -0.1)">
       <use xlink:href="#DejaVuSans-31"/>
       <use xlink:href="#DejaVuSans-31" x="63.623047"/>
       <use xlink:href="#DejaVuSans-35" x="127.246094"/>
       <use xlink:href="#DejaVuSans-30" x="190.869141"/>
      </g>
     </g>
    </g>
    <g id="ytick_2">
     <g id="line2d_10">
      <g>
       <use xlink:href="#m5a7e9ba207" x="43.18" y="179.072957" style="stroke: #000000; stroke-width: 0.8"/>
      </g>
     </g>
     <g id="text_11">
      <!-- 1200 -->
      <g transform="translate(10.73 182.872176) scale(0.1 -0.1)">
       <use xlink:href="#DejaVuSans-31"/>
       <use xlink:href="#DejaVuSans-32" x="63.623047"/>
       <use xlink:href="#DejaVuSans-30" x="127.246094"/>
       <use xlink:href="#DejaVuSans-30" x="190.869141"/>
      </g>
     </g>
    </g>
    <g id="ytick_3">
     <g id="line2d_11">
      <g>
       <use xlink:href="#m5a7e9ba207" x="43.18" y="142.177695" style="stroke: #000000; stroke-width: 0.8"/>
      </g>
     </g>
     <g id="text_12">
      <!-- 1250 -->
      <g transform="translate(10.73 145.976914) scale(0.1 -0.1)">
       <use xlink:href="#DejaVuSans-31"/>
       <use xlink:href="#DejaVuSans-32" x="63.623047"/>
       <use xlink:href="#DejaVuSans-35" x="127.246094"/>
       <use xlink:href="#DejaVuSans-30" x="190.869141"/>
      </g>
     </g>
    </g>
    <g id="ytick_4">
     <g id="line2d_12">
      <g>
       <use xlink:href="#m5a7e9ba207" x="43.18" y="105.282432" style="stroke: #000000; stroke-width: 0.8"/>
      </g>
     </g>
     <g id="text_13">
      <!-- 1300 -->
      <g transform="translate(10.73 109.081651) scale(0.1 -0.1)">
       <use xlink:href="#DejaVuSans-31"/>
       <use xlink:href="#DejaVuSans-33" x="63.623047"/>
       <use xlink:href="#DejaVuSans-30" x="127.246094"/>
       <use xlink:href="#DejaVuSans-30" x="190.869141"/>
      </g>
     </g>
    </g>
    <g id="ytick_5">
     <g id="line2d_13">
      <g>
       <use xlink:href="#m5a7e9ba207" x="43.18" y="68.38717" style="stroke: #000000; stroke-width: 0.8"/>
      </g>
     </g>
     <g id="text_14">
      <!-- 1350 -->
      <g transform="translate(10.73 72.186389) scale(0.1 -0.1)">
       <use xlink:href="#DejaVuSans-31"/>
       <use xlink:href="#DejaVuSans-33" x="63.623047"/>
       <use xlink:href="#DejaVuSans-35" x="127.246094"/>
       <use xlink:href="#DejaVuSans-30" x="190.869141"/>
      </g>
     </g>
    </g>
    <g id="ytick_6">
     <g id="line2d_14">
      <g>
       <use xlink:href="#m5a7e9ba207" x="43.18" y="31.491908" style="stroke: #000000; stroke-width: 0.8"/>
      </g>
     </g>
     <g id="text_15">
      <!-- 1400 -->
      <g transform="translate(10.73 35.291127) scale(0.1 -0.1)">
       <use xlink:href="#DejaVuSans-31"/>
       <use xlink:href="#DejaVuSans-34" x="63.623047"/>
       <use xlink:href="#DejaVuSans-30" x="127.246094"/>
       <use xlink:href="#DejaVuSans-30" x="190.869141"/>
      </g>
     </g>
    </g>
   </g>
   <g id="line2d_15">
    <path d="M 96.197729 149.564126 
L 100.508113 149.564126 
L 104.818498 149.564126 
L 109.128882 149.564126 
L 113.439267 149.564126 
L 117.749651 149.564126 
L 122.060036 149.564126 
L 126.37042 149.564126 
L 130.680805 149.564126 
L 134.991189 149.564126 
L 139.301573 149.564126 
L 143.611958 149.564126 
L 147.922342 149.564126 
L 152.232727 149.564126 
L 156.543111 149.564126 
L 160.853496 149.564126 
L 165.16388 149.564126 
L 169.474265 149.564126 
L 173.784649 149.564126 
L 178.095034 149.564126 
L 182.405418 149.564126 
L 186.715802 149.564126 
L 191.026187 149.564126 
L 195.336571 149.564126 
L 199.646956 149.564126 
L 203.95734 149.564126 
L 208.267725 149.564126 
L 212.578109 149.564126 
L 216.888494 149.564126 
L 221.198878 149.564126 
L 225.509263 149.564126 
L 229.819647 149.564126 
L 234.130032 149.564126 
L 238.440416 149.564126 
L 242.7508 149.564126 
L 247.061185 149.564126 
L 251.371569 149.564126 
L 255.681954 149.564126 
L 259.992338 149.564126 
L 264.302723 149.564126 
L 268.613107 149.564126 
L 272.923492 149.564126 
L 277.233876 149.564126 
L 281.544261 149.564126 
L 285.854645 149.564126 
L 290.16503 149.564126 
L 294.475414 149.564126 
L 298.785798 149.564126 
L 303.096183 149.564126 
L 307.406567 149.564126 
L 311.716952 149.564126 
L 316.027336 149.564126 
L 320.337721 149.564126 
L 324.648105 149.564126 
L 328.95849 149.564126 
L 333.268874 149.564126 
L 337.579259 149.564126 
L 341.889643 149.564126 
M 350.510412 149.564126 
L 354.820796 149.564126 
L 359.131181 149.564126 
L 363.441565 149.564126 
L 367.75195 149.564126 
L 372.062334 149.564126 
L 376.372719 149.564126 
L 380.683103 212.286072 
L 384.993488 212.286072 
L 389.303872 212.286072 
L 393.614257 212.286072 
L 397.924641 212.286072 
L 402.235025 212.286072 
L 406.54541 212.286072 
L 410.855794 212.286072 
L 415.166179 212.286072 
L 419.476563 212.286072 
L 423.786948 212.286072 
L 428.097332 212.286072 
L 432.407717 212.286072 
L 436.718101 212.286072 
L 441.028486 212.286072 
L 449.649255 212.286072 
L 453.959639 212.286072 
L 458.270023 212.286072 
L 462.580408 212.286072 
L 466.890792 212.286072 
L 471.201177 212.286072 
L 475.511561 212.286072 
L 479.821946 212.286072 
L 484.13233 212.286072 
L 488.442715 212.286072 
L 492.753099 212.286072 
L 497.063484 212.286072 
L 501.373868 212.286072 
L 505.684252 212.286072 
L 509.994637 212.286072 
L 514.305021 212.286072 
L 518.615406 212.286072 
L 522.92579 212.286072 
" clip-path="url(#pe3101d0d40)" style="fill: none; stroke: #1f77b4; stroke-width: 1.5; stroke-linecap: square"/>
   </g>
   <g id="line2d_16">
    <path d="M 66.025038 35.919339 
L 96.197729 45.512107 
L 100.508113 45.512107 
L 104.818498 45.512107 
L 109.128882 45.512107 
L 113.439267 44.774202 
L 117.749651 45.512107 
L 122.060036 45.512107 
L 126.37042 45.512107 
L 130.680805 45.512107 
L 134.991189 45.512107 
L 139.301573 44.774202 
L 143.611958 45.512107 
L 147.922342 62.483928 
L 152.232727 62.483928 
L 156.543111 62.483928 
L 160.853496 62.483928 
L 165.16388 62.483928 
L 169.474265 62.483928 
L 173.784649 62.483928 
L 178.095034 62.483928 
L 182.405418 62.483928 
L 186.715802 62.483928 
L 191.026187 62.483928 
L 195.336571 58.794402 
L 199.646956 58.794402 
L 203.95734 36.657245 
L 208.267725 58.056497 
L 212.578109 58.056497 
L 216.888494 66.91136 
L 221.198878 66.91136 
L 225.509263 75.766223 
L 229.819647 75.766223 
L 234.130032 106.758243 
L 238.440416 106.758243 
L 242.7508 106.758243 
L 247.061185 106.758243 
L 251.371569 106.758243 
L 255.681954 92.000138 
L 259.992338 92.000138 
L 264.302723 92.000138 
L 268.613107 91.262233 
L 272.923492 91.262233 
L 277.233876 83.88318 
L 281.544261 83.88318 
L 285.854645 94.213854 
L 290.16503 92.000138 
L 294.475414 91.262233 
L 298.785798 91.262233 
L 303.096183 91.262233 
L 307.406567 91.262233 
L 311.716952 91.262233 
L 316.027336 91.262233 
L 320.337721 91.262233 
L 324.648105 92.000138 
L 328.95849 100.117096 
L 333.268874 100.117096 
L 337.579259 100.117096 
L 341.889643 100.117096 
L 346.200027 100.117096 
L 350.510412 100.117096 
L 354.820796 100.117096 
L 359.131181 92.000138 
L 363.441565 100.117096 
L 367.75195 100.117096 
L 372.062334 100.117096 
L 376.372719 92.000138 
L 380.683103 95.689664 
L 384.993488 100.117096 
L 389.303872 109.709864 
L 393.614257 109.709864 
L 397.924641 109.709864 
L 402.235025 109.709864 
L 406.54541 109.709864 
L 410.855794 109.709864 
L 415.166179 118.564727 
L 419.476563 127.41959 
L 423.786948 127.41959 
L 428.097332 127.41959 
L 432.407717 127.41959 
L 436.718101 127.41959 
L 441.028486 128.8954 
L 449.649255 136.274453 
M 497.063484 148.818842 
L 501.373868 148.818842 
L 505.684252 148.818842 
L 509.994637 145.129316 
L 514.305021 145.129316 
L 518.615406 145.129316 
L 522.92579 145.129316 
" clip-path="url(#pe3101d0d40)" style="fill: none; stroke: #ff7f0e; stroke-width: 1.5; stroke-linecap: square"/>
   </g>
   <g id="line2d_17">
    <path d="M 96.197729 53.629065 
L 100.508113 53.629065 
L 104.818498 53.629065 
L 109.128882 53.629065 
L 113.439267 53.629065 
L 117.749651 53.629065 
L 122.060036 53.629065 
L 126.37042 53.629065 
L 130.680805 53.629065 
L 134.991189 53.629065 
L 139.301573 53.629065 
L 143.611958 53.629065 
L 147.922342 53.629065 
L 152.232727 53.629065 
L 156.543111 53.629065 
L 160.853496 53.629065 
L 165.16388 86.650325 
L 169.474265 86.650325 
L 173.784649 97.90338 
L 178.095034 97.90338 
L 182.405418 149.556747 
L 186.715802 149.556747 
L 191.026187 149.556747 
L 195.336571 97.90338 
L 199.646956 100.855001 
L 203.95734 89.786422 
L 208.267725 94.951759 
L 212.578109 94.951759 
L 216.888494 94.951759 
L 221.198878 94.951759 
L 225.509263 94.951759 
L 229.819647 94.951759 
L 234.130032 94.951759 
L 238.440416 128.8954 
L 242.7508 128.8954 
L 247.061185 128.8954 
L 251.371569 125.205874 
L 255.681954 111.185674 
L 259.992338 111.185674 
L 264.302723 111.185674 
L 268.613107 179.810862 
L 272.923492 120.040537 
L 277.233876 111.92358 
L 281.544261 111.92358 
L 285.854645 113.39939 
L 290.16503 113.39939 
L 294.475414 114.875201 
L 298.785798 114.875201 
L 303.096183 179.810862 
L 307.406567 120.040537 
L 311.716952 120.040537 
L 316.027336 120.040537 
L 320.337721 120.040537 
L 324.648105 120.040537 
L 328.95849 128.157495 
L 333.268874 123.730064 
L 337.579259 123.730064 
L 341.889643 123.730064 
L 346.200027 123.730064 
L 350.510412 123.730064 
L 354.820796 123.730064 
L 359.131181 120.040537 
L 363.441565 120.778443 
L 367.75195 120.778443 
L 372.062334 123.730064 
L 376.372719 128.157495 
L 380.683103 128.157495 
L 384.993488 106.020338 
L 389.303872 109.709864 
L 393.614257 113.39939 
L 397.924641 113.39939 
L 402.235025 113.39939 
L 406.54541 118.564727 
L 410.855794 118.564727 
L 415.166179 118.564727 
L 419.476563 127.41959 
L 423.786948 198.996399 
L 428.097332 201.94802 
L 432.407717 201.94802 
L 436.718101 131.109116 
L 441.028486 179.810862 
L 449.649255 177.781623 
L 453.959639 177.781623 
L 458.270023 177.781623 
L 462.580408 177.781623 
L 466.890792 113.39939 
L 471.201177 106.020338 
L 475.511561 156.751323 
L 479.821946 156.751323 
L 484.13233 156.751323 
L 488.442715 156.751323 
L 492.753099 156.751323 
L 497.063484 158.41161 
L 501.373868 158.41161 
L 505.684252 158.41161 
L 509.994637 158.41161 
L 514.305021 158.41161 
L 518.615406 158.41161 
L 522.92579 158.41161 
" clip-path="url(#pe3101d0d40)" style="fill: none; stroke: #2ca02c; stroke-width: 1.5; stroke-linecap: square"/>
   </g>
   <g id="line2d_18">
    <path d="M 96.197729 54.36697 
L 100.508113 54.36697 
L 104.818498 54.36697 
L 109.128882 54.36697 
L 113.439267 54.36697 
L 117.749651 54.36697 
L 122.060036 54.36697 
L 126.37042 54.36697 
L 130.680805 54.36697 
L 134.991189 54.36697 
L 139.301573 54.36697 
L 143.611958 54.36697 
L 147.922342 83.88318 
L 152.232727 83.88318 
L 156.543111 83.88318 
L 160.853496 83.88318 
L 165.16388 83.88318 
L 169.474265 83.88318 
L 173.784649 54.36697 
L 178.095034 54.36697 
L 182.405418 120.778443 
L 186.715802 54.36697 
L 191.026187 54.36697 
L 195.336571 54.36697 
L 199.646956 54.36697 
L 203.95734 54.36697 
L 208.267725 54.36697 
L 212.578109 106.020338 
L 216.888494 106.020338 
L 221.198878 106.020338 
L 225.509263 106.020338 
L 229.819647 106.020338 
L 234.130032 48.153808 
L 238.440416 69.125075 
L 242.7508 69.125075 
L 247.061185 69.125075 
L 251.371569 69.125075 
L 255.681954 69.125075 
L 259.992338 69.125075 
L 264.302723 69.125075 
L 268.613107 69.125075 
L 272.923492 69.125075 
L 277.233876 69.125075 
L 281.544261 69.125075 
L 285.854645 69.125075 
L 290.16503 69.125075 
L 294.475414 69.125075 
L 298.785798 69.125075 
L 303.096183 69.125075 
L 307.406567 69.125075 
L 311.716952 69.125075 
L 316.027336 69.125075 
L 320.337721 69.125075 
L 324.648105 69.125075 
L 328.95849 69.125075 
L 333.268874 69.125075 
L 337.579259 69.125075 
L 341.889643 69.125075 
L 346.200027 69.125075 
L 350.510412 69.125075 
L 354.820796 69.125075 
L 359.131181 54.36697 
L 363.441565 83.88318 
L 367.75195 83.88318 
L 372.062334 83.88318 
L 376.372719 83.88318 
L 380.683103 83.88318 
L 384.993488 83.88318 
L 389.303872 54.36697 
L 393.614257 120.778443 
L 397.924641 120.778443 
L 402.235025 120.778443 
L 406.54541 120.778443 
L 410.855794 128.157495 
L 415.166179 54.36697 
L 419.476563 120.778443 
L 423.786948 120.778443 
L 428.097332 120.778443 
L 432.407717 120.778443 
L 436.718101 120.778443 
L 441.028486 120.778443 
L 449.649255 120.778443 
L 453.959639 120.778443 
L 458.270023 120.778443 
L 462.580408 120.778443 
L 466.890792 120.778443 
L 471.201177 120.778443 
L 475.511561 54.36697 
L 479.821946 120.778443 
L 484.13233 120.778443 
L 488.442715 120.778443 
L 492.753099 120.778443 
L 497.063484 120.778443 
L 501.373868 120.778443 
L 505.684252 54.36697 
L 509.994637 216.706125 
L 514.305021 216.706125 
L 518.615406 216.706125 
L 522.92579 216.706125 
" clip-path="url(#pe3101d0d40)" style="fill: none; stroke: #d62728; stroke-width: 1.5; stroke-linecap: square"/>
   </g>
   <g id="patch_3">
    <path d="M 43.18 225.745464 
L 43.18 26.88 
" style="fill: none; stroke: #000000; stroke-width: 0.8; stroke-linejoin: miter; stroke-linecap: square"/>
   </g>
   <g id="patch_4">
    <path d="M 545.770828 225.745464 
L 545.770828 26.88 
" style="fill: none; stroke: #000000; stroke-width: 0.8; stroke-linejoin: miter; stroke-linecap: square"/>
   </g>
   <g id="patch_5">
    <path d="M 43.18 225.745464 
L 545.770828 225.745464 
" style="fill: none; stroke: #000000; stroke-width: 0.8; stroke-linejoin: miter; stroke-linecap: square"/>
   </g>
   <g id="patch_6">
    <path d="M 43.18 26.88 
L 545.770828 26.88 
" style="fill: none; stroke: #000000; stroke-width: 0.8; stroke-linejoin: miter; stroke-linecap: square"/>
   </g>
   <g id="text_16">
    <!-- Apple iPhone 15 Pro, 256GB -->
    <g transform="translate(210.238226 20.88) scale(0.12 -0.12)">
     <defs>
      <path id="DejaVuSans-41" d="M 2188 4044 
L 1331 1722 
L 3047 1722 
L 2188 4044 
z
M 1831 4666 
L 2547 4666 
L 4325 0 
L 3669 0 
L 3244 1197 
L 1141 1197 
L 716 0 
L 50 0 
L 1831 4666 
z
" transform="scale(0.015625)"/>
      <path id="DejaVuSans-70" d="M 1159 525 
L 1159 -1331 
L 581 -1331 
L 581 3500 
L 1159 3500 
L 1159 2969 
Q 1341 3281 1617 3432 
Q 1894 3584 2278 3584 
Q 2916 3584 3314 3078 
Q 3713 2572 3713 1747 
Q 3713 922 3314 415 
Q 2916 -91 2278 -91 
Q 1894 -91 1617 61 
Q 1341 213 1159 525 
z
M 3116 1747 
Q 3116 2381 2855 2742 
Q 2594 3103 2138 3103 
Q 1681 3103 1420 2742 
Q 1159 2381 1159 1747 
Q 1159 1113 1420 752 
Q 1681 391 2138 391 
Q 2594 391 2855 752 
Q 3116 1113 3116 1747 
z
" transform="scale(0.015625)"/>
      <path id="DejaVuSans-6c" d="M 603 4863 
L 1178 4863 
L 1178 0 
L 603 0 
L 603 4863 
z
" transform="scale(0.015625)"/>
      <path id="DejaVuSans-68" d="M 3513 2113 
L 3513 0 
L 2938 0 
L 2938 2094 
Q 2938 2591 2744 2837 
Q 2550 3084 2163 3084 
Q 1697 3084 1428 2787 
Q 1159 2491 1159 1978 
L 1159 0 
L 581 0 
L 581 4863 
L 1159 4863 
L 1159 2956 
Q 1366 3272 1645 3428 
Q 1925 3584 2291 3584 
Q 2894 3584 3203 3211 
Q 3513 2838 3513 2113 
z
" transform="scale(0.015625)"/>
      <path id="DejaVuSans-6f" d="M 1959 3097 
Q 1497 3097 1228 2736 
Q 959 2375 959 1747 
Q 959 1119 1226 758 
Q 1494 397 1959 397 
Q 2419 397 2687 759 
Q 2956 1122 2956 1747 
Q 2956 2369 2687 2733 
Q 2419 3097 1959 3097 
z
M 1959 3584 
Q 2709 3584 3137 3096 
Q 3566 2609 3566 1747 
Q 3566 888 3137 398 
Q 2709 -91 1959 -91 
Q 1206 -91 779 398 
Q 353 888 353 1747 
Q 353 2609 779 3096 
Q 1206 3584 1959 3584 
z
" transform="scale(0.015625)"/>
      <path id="DejaVuSans-6e" d="M 3513 2113 
L 3513 0 
L 2938 0 
L 2938 2094 
Q 2938 2591 2744 2837 
Q 2550 3084 2163 3084 
Q 1697 3084 1428 2787 
Q 1159 2491 1159 1978 
L 1159 0 
L 581 0 
L 581 3500 
L 1159 3500 
L 1159 2956 
Q 1366 3272 1645 3428 
Q 1925 3584 2291 3584 
Q 2894 3584 3203 3211 
Q 3513 2838 3513 2113 
z
" transform="scale(0.015625)"/>
      <path id="DejaVuSans-2c" d="M 750 794 
L 1409 794 
L 1409 256 
L 897 -744 
L 494 -744 
L 750 256 
L 750 794 
z
" transform="scale(0.015625)"/>
      <path id="DejaVuSans-36" d="M 2113 2584 
Q 1688 2584 1439 2293 
Q 1191 2003 1191 1497 
Q 1191 994 1439 701 
Q 1688 409 2113 409 
Q 2538 409 2786 701 
Q 3034 994 3034 1497 
Q 3034 2003 2786 2293 
Q 2538 2584 2113 2584 
z
M 3366 4563 
L 3366 3988 
Q 3128 4100 2886 4159 
Q 2644 4219 2406 4219 
Q 1781 4219 1451 3797 
Q 1122 3375 1075 2522 
Q 1259 2794 1537 2939 
Q 1816 3084 2150 3084 
Q 2853 3084 3261 2657 
Q 3669 2231 3669 1497 
Q 3669 778 3244 343 
Q 2819 -91 2113 -91 
Q 1303 -91 875 529 
Q 447 1150 447 2328 
Q 447 3434 972 4092 
Q 1497 4750 2381 4750 
Q 2619 4750 2861 4703 
Q 3103 4656 3366 4563 
z
" transform="scale(0.015625)"/>
      <path id="DejaVuSans-47" d="M 3809 666 
L 3809 1919 
L 2778 1919 
L 2778 2438 
L 4434 2438 
L 4434 434 
Q 4069 175 3628 42 
Q 3188 -91 2688 -91 
Q 1594 -91 976 548 
Q 359 1188 359 2328 
Q 359 3472 976 4111 
Q 1594 4750 2688 4750 
Q 3144 4750 3555 4637 
Q 3966 4525 4313 4306 
L 4313 3634 
Q 3963 3931 3569 4081 
Q 3175 4231 2741 4231 
Q 1884 4231 1454 3753 
Q 1025 3275 1025 2328 
Q 1025 1384 1454 906 
Q 1884 428 2741 428 
Q 3075 428 3337 486 
Q 3600 544 3809 666 
z
" transform="scale(0.015625)"/>
      <path id="DejaVuSans-42" d="M 1259 2228 
L 1259 519 
L 2272 519 
Q 2781 519 3026 730 
Q 3272 941 3272 1375 
Q 3272 1813 3026 2020 
Q 2781 2228 2272 2228 
L 1259 2228 
z
M 1259 4147 
L 1259 2741 
L 2194 2741 
Q 2656 2741 2882 2914 
Q 3109 3088 3109 3444 
Q 3109 3797 2882 3972 
Q 2656 4147 2194 4147 
L 1259 4147 
z
M 628 4666 
L 2241 4666 
Q 2963 4666 3353 4366 
Q 3744 4066 3744 3513 
Q 3744 3084 3544 2831 
Q 3344 2578 2956 2516 
Q 3422 2416 3680 2098 
Q 3938 1781 3938 1306 
Q 3938 681 3513 340 
Q 3088 0 2303 0 
L 628 0 
L 628 4666 
z
" transform="scale(0.015625)"/>
     </defs>
     <use xlink:href="#DejaVuSans-41"/>
     <use xlink:href="#DejaVuSans-70" x="68.408203"/>
     <use xlink:href="#DejaVuSans-70" x="131.884766"/>
     <use xlink:href="#DejaVuSans-6c" x="195.361328"/>
     <use xlink:href="#DejaVuSans-65" x="223.144531"/>
     <use xlink:href="#DejaVuSans-20" x="284.667969"/>
     <use xlink:href="#DejaVuSans-69" x="316.455078"/>
     <use xlink:href="#DejaVuSans-50" x="344.238281"/>
     <use xlink:href="#DejaVuSans-68" x="404.541016"/>
     <use xlink:href="#DejaVuSans-6f" x="467.919922"/>
     <use xlink:href="#DejaVuSans-6e" x="529.101562"/>
     <use xlink:href="#DejaVuSans-65" x="592.480469"/>
     <use xlink:href="#DejaVuSans-20" x="654.003906"/>
     <use xlink:href="#DejaVuSans-31" x="685.791016"/>
     <use xlink:href="#DejaVuSans-35" x="749.414062"/>
     <use xlink:href="#DejaVuSans-20" x="813.037109"/>
     <use xlink:href="#DejaVuSans-50" x="844.824219"/>
     <use xlink:href="#DejaVuSans-72" x="903.376953"/>
     <use xlink:href="#DejaVuSans-6f" x="942.240234"/>
     <use xlink:href="#DejaVuSans-2c" x="1003.421875"/>
     <use xlink:href="#DejaVuSans-20" x="1035.208984"/>
     <use xlink:href="#DejaVuSans-32" x="1066.996094"/>
     <use xlink:href="#DejaVuSans-35" x="1130.619141"/>
     <use xlink:href="#DejaVuSans-36" x="1194.242188"/>
     <use xlink:href="#DejaVuSans-47" x="1257.865234"/>
     <use xlink:href="#DejaVuSans-42" x="1335.355469"/>
    </g>
   </g>
   <g id="legend_1">
    <g id="patch_7">
     <path d="M 433.170828 108.270625 
L 538.770828 108.270625 
Q 540.770828 108.270625 540.770828 106.270625 
L 540.770828 33.88 
Q 540.770828 31.88 538.770828 31.88 
L 433.170828 31.88 
Q 431.170828 31.88 431.170828 33.88 
L 431.170828 106.270625 
Q 431.170828 108.270625 433.170828 108.270625 
z
" style="fill: #ffffff; opacity: 0.8; stroke: #cccccc; stroke-linejoin: miter"/>
    </g>
    <g id="text_17">
     <!-- source -->
     <g transform="translate(469.369265 43.478438) scale(0.1 -0.1)">
      <defs>
       <path id="DejaVuSans-73" d="M 2834 3397 
L 2834 2853 
Q 2591 2978 2328 3040 
Q 2066 3103 1784 3103 
Q 1356 3103 1142 2972 
Q 928 2841 928 2578 
Q 928 2378 1081 2264 
Q 1234 2150 1697 2047 
L 1894 2003 
Q 2506 1872 2764 1633 
Q 3022 1394 3022 966 
Q 3022 478 2636 193 
Q 2250 -91 1575 -91 
Q 1294 -91 989 -36 
Q 684 19 347 128 
L 347 722 
Q 666 556 975 473 
Q 1284 391 1588 391 
Q 1994 391 2212 530 
Q 2431 669 2431 922 
Q 2431 1156 2273 1281 
Q 2116 1406 1581 1522 
L 1381 1569 
Q 847 1681 609 1914 
Q 372 2147 372 2553 
Q 372 3047 722 3315 
Q 1072 3584 1716 3584 
Q 2034 3584 2315 3537 
Q 2597 3491 2834 3397 
z
" transform="scale(0.015625)"/>
       <path id="DejaVuSans-75" d="M 544 1381 
L 544 3500 
L 1119 3500 
L 1119 1403 
Q 1119 906 1312 657 
Q 1506 409 1894 409 
Q 2359 409 2629 706 
Q 2900 1003 2900 1516 
L 2900 3500 
L 3475 3500 
L 3475 0 
L 2900 0 
L 2900 538 
Q 2691 219 2414 64 
Q 2138 -91 1772 -91 
Q 1169 -91 856 284 
Q 544 659 544 1381 
z
M 1991 3584 
L 1991 3584 
z
" transform="scale(0.015625)"/>
      </defs>
      <use xlink:href="#DejaVuSans-73"/>
      <use xlink:href="#DejaVuSans-6f" x="52.099609"/>
      <use xlink:href="#DejaVuSans-75" x="113.28125"/>
      <use xlink:href="#DejaVuSans-72" x="176.660156"/>
      <use xlink:href="#DejaVuSans-63" x="215.523438"/>
      <use xlink:href="#DejaVuSans-65" x="270.503906"/>
     </g>
    </g>
    <g id="line2d_19">
     <path d="M 435.170828 54.656563 
L 445.170828 54.656563 
L 455.170828 54.656563 
" style="fill: none; stroke: #1f77b4; stroke-width: 1.5; stroke-linecap: square"/>
    </g>
    <g id="text_18">
     <!-- links.hr -->
     <g transform="translate(463.170828 58.156563) scale(0.1 -0.1)">
      <defs>
       <path id="DejaVuSans-6b" d="M 581 4863 
L 1159 4863 
L 1159 1991 
L 2875 3500 
L 3609 3500 
L 1753 1863 
L 3688 0 
L 2938 0 
L 1159 1709 
L 1159 0 
L 581 0 
L 581 4863 
z
" transform="scale(0.015625)"/>
       <path id="DejaVuSans-2e" d="M 684 794 
L 1344 794 
L 1344 0 
L 684 0 
L 684 794 
z
" transform="scale(0.015625)"/>
      </defs>
      <use xlink:href="#DejaVuSans-6c"/>
      <use xlink:href="#DejaVuSans-69" x="27.783203"/>
      <use xlink:href="#DejaVuSans-6e" x="55.566406"/>
      <use xlink:href="#DejaVuSans-6b" x="118.945312"/>
      <use xlink:href="#DejaVuSans-73" x="176.855469"/>
      <use xlink:href="#DejaVuSans-2e" x="228.955078"/>
      <use xlink:href="#DejaVuSans-68" x="260.742188"/>
      <use xlink:href="#DejaVuSans-72" x="324.121094"/>
     </g>
    </g>
    <g id="line2d_20">
     <path d="M 435.170828 69.334688 
L 445.170828 69.334688 
L 455.170828 69.334688 
" style="fill: none; stroke: #ff7f0e; stroke-width: 1.5; stroke-linecap: square"/>
    </g>
    <g id="text_19">
     <!-- mobileshop.eu -->
     <g transform="translate(463.170828 72.834688) scale(0.1 -0.1)">
      <defs>
       <path id="DejaVuSans-6d" d="M 3328 2828 
Q 3544 3216 3844 3400 
Q 4144 3584 4550 3584 
Q 5097 3584 5394 3201 
Q 5691 2819 5691 2113 
L 5691 0 
L 5113 0 
L 5113 2094 
Q 5113 2597 4934 2840 
Q 4756 3084 4391 3084 
Q 3944 3084 3684 2787 
Q 3425 2491 3425 1978 
L 3425 0 
L 2847 0 
L 2847 2094 
Q 2847 2600 2669 2842 
Q 2491 3084 2119 3084 
Q 1678 3084 1418 2786 
Q 1159 2488 1159 1978 
L 1159 0 
L 581 0 
L 581 3500 
L 1159 3500 
L 1159 2956 
Q 1356 3278 1631 3431 
Q 1906 3584 2284 3584 
Q 2666 3584 2933 3390 
Q 3200 3197 3328 2828 
z
" transform="scale(0.015625)"/>
       <path id="DejaVuSans-62" d="M 3116 1747 
Q 3116 2381 2855 2742 
Q 2594 3103 2138 3103 
Q 1681 3103 1420 2742 
Q 1159 2381 1159 1747 
Q 1159 1113 1420 752 
Q 1681 391 2138 391 
Q 2594 391 2855 752 
Q 3116 1113 3116 1747 
z
M 1159 2969 
Q 1341 3281 1617 3432 
Q 1894 3584 2278 3584 
Q 2916 3584 3314 3078 
Q 3713 2572 3713 1747 
Q 3713 922 3314 415 
Q 2916 -91 2278 -91 
Q 1894 -91 1617 61 
Q 1341 213 1159 525 
L 1159 0 
L 581 0 
L 581 4863 
L 1159 4863 
L 1159 2969 
z
" transform="scale(0.015625)"/>
      </defs>
      <use xlink:href="#DejaVuSans-6d"/>
      <use xlink:href="#DejaVuSans-6f" x="97.412109"/>
      <use xlink:href="#DejaVuSans-62" x="158.59375"/>
      <use xlink:href="#DejaVuSans-69" x="222.070312"/>
      <use xlink:href="#DejaVuSans-6c" x="249.853516"/>
      <use xlink:href="#DejaVuSans-65" x="277.636719"/>
      <use xlink:href="#DejaVuSans-73" x="339.160156"/>
      <use xlink:href="#DejaVuSans-68" x="391.259766"/>
      <use xlink:href="#DejaVuSans-6f" x="454.638672"/>
      <use xlink:href="#DejaVuSans-70" x="515.820312"/>
      <use xlink:href="#DejaVuSans-2e" x="579.296875"/>
      <use xlink:href="#DejaVuSans-65" x="611.083984"/>
      <use xlink:href="#DejaVuSans-75" x="672.607422"/>
     </g>
    </g>
    <g id="line2d_21">
     <path d="M 435.170828 84.012813 
L 445.170828 84.012813 
L 455.170828 84.012813 
" style="fill: none; stroke: #2ca02c; stroke-width: 1.5; stroke-linecap: square"/>
    </g>
    <g id="text_20">
     <!-- nabava.net -->
     <g transform="translate(463.170828 87.512813) scale(0.1 -0.1)">
      <defs>
       <path id="DejaVuSans-76" d="M 191 3500 
L 800 3500 
L 1894 563 
L 2988 3500 
L 3597 3500 
L 2284 0 
L 1503 0 
L 191 3500 
z
" transform="scale(0.015625)"/>
      </defs>
      <use xlink:href="#DejaVuSans-6e"/>
      <use xlink:href="#DejaVuSans-61" x="63.378906"/>
      <use xlink:href="#DejaVuSans-62" x="124.658203"/>
      <use xlink:href="#DejaVuSans-61" x="188.134766"/>
      <use xlink:href="#DejaVuSans-76" x="249.414062"/>
      <use xlink:href="#DejaVuSans-61" x="308.59375"/>
      <use xlink:href="#DejaVuSans-2e" x="369.873047"/>
      <use xlink:href="#DejaVuSans-6e" x="401.660156"/>
      <use xlink:href="#DejaVuSans-65" x="465.039062"/>
      <use xlink:href="#DejaVuSans-74" x="526.5625"/>
     </g>
    </g>
    <g id="line2d_22">
     <path d="M 435.170828 98.690938 
L 445.170828 98.690938 
L 455.170828 98.690938 
" style="fill: none; stroke: #d62728; stroke-width: 1.5; stroke-linecap: square"/>
    </g>
    <g id="text_21">
     <!-- unieuro.it -->
     <g transform="translate(463.170828 102.190938) scale(0.1 -0.1)">
      <use xlink:href="#DejaVuSans-75"/>
      <use xlink:href="#DejaVuSans-6e" x="63.378906"/>
      <use xlink:href="#DejaVuSans-69" x="126.757812"/>
      <use xlink:href="#DejaVuSans-65" x="154.541016"/>
      <use xlink:href="#DejaVuSans-75" x="216.064453"/>
      <use xlink:href="#DejaVuSans-72" x="279.443359"/>
      <use xlink:href="#DejaVuSans-6f" x="318.306641"/>
      <use xlink:href="#DejaVuSans-2e" x="377.738281"/>
      <use xlink:href="#DejaVuSans-69" x="409.525391"/>
      <use xlink:href="#DejaVuSans-74" x="437.308594"/>
     </g>
    </g>
   </g>
  </g>
  <g id="axes_2">
   <g id="patch_8">
    <path d="M 43.18 510.145464 
L 545.770828 510.145464 
L 545.770828 311.28 
L 43.18 311.28 
z
" style="fill: #ffffff"/>
   </g>
   <g id="matplotlib.axis_3">
    <g id="xtick_9">
     <g id="line2d_23">
      <g>
       <use xlink:href="#m36332ddf4d" x="78.956191" y="510.145464" style="stroke: #000000; stroke-width: 0.8"/>
      </g>
     </g>
     <g id="text_22">
      <!-- 2023-11-01 -->
      <g transform="translate(55.171075 552.783716) rotate(-30) scale(0.1 -0.1)">
       <use xlink:href="#DejaVuSans-32"/>
       <use xlink:href="#DejaVuSans-30" x="63.623047"/>
       <use xlink:href="#DejaVuSans-32" x="127.246094"/>
       <use xlink:href="#DejaVuSans-33" x="190.869141"/>
       <use xlink:href="#DejaVuSans-2d" x="254.492188"/>
       <use xlink:href="#DejaVuSans-31" x="290.576172"/>
       <use xlink:href="#DejaVuSans-31" x="354.199219"/>
       <use xlink:href="#DejaVuSans-2d" x="417.822266"/>
       <use xlink:href="#DejaVuSans-30" x="453.90625"/>
       <use xlink:href="#DejaVuSans-31" x="517.529297"/>
      </g>
     </g>
    </g>
    <g id="xtick_10">
     <g id="line2d_24">
      <g>
       <use xlink:href="#m36332ddf4d" x="139.301573" y="510.145464" style="stroke: #000000; stroke-width: 0.8"/>
      </g>
     </g>
     <g id="text_23">
      <!-- 2023-11-15 -->
      <g transform="translate(115.516457 552.783716) rotate(-30) scale(0.1 -0.1)">
       <use xlink:href="#DejaVuSans-32"/>
       <use xlink:href="#DejaVuSans-30" x="63.623047"/>
       <use xlink:href="#DejaVuSans-32" x="127.246094"/>
       <use xlink:href="#DejaVuSans-33" x="190.869141"/>
       <use xlink:href="#DejaVuSans-2d" x="254.492188"/>
       <use xlink:href="#DejaVuSans-31" x="290.576172"/>
       <use xlink:href="#DejaVuSans-31" x="354.199219"/>
       <use xlink:href="#DejaVuSans-2d" x="417.822266"/>
       <use xlink:href="#DejaVuSans-31" x="453.90625"/>
       <use xlink:href="#DejaVuSans-35" x="517.529297"/>
      </g>
     </g>
    </g>
    <g id="xtick_11">
     <g id="line2d_25">
      <g>
       <use xlink:href="#m36332ddf4d" x="208.267725" y="510.145464" style="stroke: #000000; stroke-width: 0.8"/>
      </g>
     </g>
     <g id="text_24">
      <!-- 2023-12-01 -->
      <g transform="translate(184.482608 552.783716) rotate(-30) scale(0.1 -0.1)">
       <use xlink:href="#DejaVuSans-32"/>
       <use xlink:href="#DejaVuSans-30" x="63.623047"/>
       <use xlink:href="#DejaVuSans-32" x="127.246094"/>
       <use xlink:href="#DejaVuSans-33" x="190.869141"/>
       <use xlink:href="#DejaVuSans-2d" x="254.492188"/>
       <use xlink:href="#DejaVuSans-31" x="290.576172"/>
       <use xlink:href="#DejaVuSans-32" x="354.199219"/>
       <use xlink:href="#DejaVuSans-2d" x="417.822266"/>
       <use xlink:href="#DejaVuSans-30" x="453.90625"/>
       <use xlink:href="#DejaVuSans-31" x="517.529297"/>
      </g>
     </g>
    </g>
    <g id="xtick_12">
     <g id="line2d_26">
      <g>
       <use xlink:href="#m36332ddf4d" x="268.613107" y="510.145464" style="stroke: #000000; stroke-width: 0.8"/>
      </g>
     </g>
     <g id="text_25">
      <!-- 2023-12-15 -->
      <g transform="translate(244.827991 552.783716) rotate(-30) scale(0.1 -0.1)">
       <use xlink:href="#DejaVuSans-32"/>
       <use xlink:href="#DejaVuSans-30" x="63.623047"/>
       <use xlink:href="#DejaVuSans-32" x="127.246094"/>
       <use xlink:href="#DejaVuSans-33" x="190.869141"/>
       <use xlink:href="#DejaVuSans-2d" x="254.492188"/>
       <use xlink:href="#DejaVuSans-31" x="290.576172"/>
       <use xlink:href="#DejaVuSans-32" x="354.199219"/>
       <use xlink:href="#DejaVuSans-2d" x="417.822266"/>
       <use xlink:href="#DejaVuSans-31" x="453.90625"/>
       <use xlink:href="#DejaVuSans-35" x="517.529297"/>
      </g>
     </g>
    </g>
    <g id="xtick_13">
     <g id="line2d_27">
      <g>
       <use xlink:href="#m36332ddf4d" x="341.889643" y="510.145464" style="stroke: #000000; stroke-width: 0.8"/>
      </g>
     </g>
     <g id="text_26">
      <!-- 2024-01-01 -->
      <g transform="translate(318.104527 552.783716) rotate(-30) scale(0.1 -0.1)">
       <use xlink:href="#DejaVuSans-32"/>
       <use xlink:href="#DejaVuSans-30" x="63.623047"/>
       <use xlink:href="#DejaVuSans-32" x="127.246094"/>
       <use xlink:href="#DejaVuSans-34" x="190.869141"/>
       <use xlink:href="#DejaVuSans-2d" x="254.492188"/>
       <use xlink:href="#DejaVuSans-30" x="290.576172"/>
       <use xlink:href="#DejaVuSans-31" x="354.199219"/>
       <use xlink:href="#DejaVuSans-2d" x="417.822266"/>
       <use xlink:href="#DejaVuSans-30" x="453.90625"/>
       <use xlink:href="#DejaVuSans-31" x="517.529297"/>
      </g>
     </g>
    </g>
    <g id="xtick_14">
     <g id="line2d_28">
      <g>
       <use xlink:href="#m36332ddf4d" x="402.235025" y="510.145464" style="stroke: #000000; stroke-width: 0.8"/>
      </g>
     </g>
     <g id="text_27">
      <!-- 2024-01-15 -->
      <g transform="translate(378.449909 552.783716) rotate(-30) scale(0.1 -0.1)">
       <use xlink:href="#DejaVuSans-32"/>
       <use xlink:href="#DejaVuSans-30" x="63.623047"/>
       <use xlink:href="#DejaVuSans-32" x="127.246094"/>
       <use xlink:href="#DejaVuSans-34" x="190.869141"/>
       <use xlink:href="#DejaVuSans-2d" x="254.492188"/>
       <use xlink:href="#DejaVuSans-30" x="290.576172"/>
       <use xlink:href="#DejaVuSans-31" x="354.199219"/>
       <use xlink:href="#DejaVuSans-2d" x="417.822266"/>
       <use xlink:href="#DejaVuSans-31" x="453.90625"/>
       <use xlink:href="#DejaVuSans-35" x="517.529297"/>
      </g>
     </g>
    </g>
    <g id="xtick_15">
     <g id="line2d_29">
      <g>
       <use xlink:href="#m36332ddf4d" x="475.511561" y="510.145464" style="stroke: #000000; stroke-width: 0.8"/>
      </g>
     </g>
     <g id="text_28">
      <!-- 2024-02-01 -->
      <g transform="translate(451.726445 552.783716) rotate(-30) scale(0.1 -0.1)">
       <use xlink:href="#DejaVuSans-32"/>
       <use xlink:href="#DejaVuSans-30" x="63.623047"/>
       <use xlink:href="#DejaVuSans-32" x="127.246094"/>
       <use xlink:href="#DejaVuSans-34" x="190.869141"/>
       <use xlink:href="#DejaVuSans-2d" x="254.492188"/>
       <use xlink:href="#DejaVuSans-30" x="290.576172"/>
       <use xlink:href="#DejaVuSans-32" x="354.199219"/>
       <use xlink:href="#DejaVuSans-2d" x="417.822266"/>
       <use xlink:href="#DejaVuSans-30" x="453.90625"/>
       <use xlink:href="#DejaVuSans-31" x="517.529297"/>
      </g>
     </g>
    </g>
    <g id="xtick_16">
     <g id="line2d_30">
      <g>
       <use xlink:href="#m36332ddf4d" x="535.856944" y="510.145464" style="stroke: #000000; stroke-width: 0.8"/>
      </g>
     </g>
     <g id="text_29">
      <!-- 2024-02-15 -->
      <g transform="translate(512.071827 552.783716) rotate(-30) scale(0.1 -0.1)">
       <use xlink:href="#DejaVuSans-32"/>
       <use xlink:href="#DejaVuSans-30" x="63.623047"/>
       <use xlink:href="#DejaVuSans-32" x="127.246094"/>
       <use xlink:href="#DejaVuSans-34" x="190.869141"/>
       <use xlink:href="#DejaVuSans-2d" x="254.492188"/>
       <use xlink:href="#DejaVuSans-30" x="290.576172"/>
       <use xlink:href="#DejaVuSans-32" x="354.199219"/>
       <use xlink:href="#DejaVuSans-2d" x="417.822266"/>
       <use xlink:href="#DejaVuSans-31" x="453.90625"/>
       <use xlink:href="#DejaVuSans-35" x="517.529297"/>
      </g>
     </g>
    </g>
    <g id="text_30">
     <!-- Price date -->
     <g transform="translate(269.413695 566.183216) scale(0.1 -0.1)">
      <use xlink:href="#DejaVuSans-50"/>
      <use xlink:href="#DejaVuSans-72" x="58.552734"/>
      <use xlink:href="#DejaVuSans-69" x="99.666016"/>
      <use xlink:href="#DejaVuSans-63" x="127.449219"/>
      <use xlink:href="#DejaVuSans-65" x="182.429688"/>
      <use xlink:href="#DejaVuSans-20" x="243.953125"/>
      <use xlink:href="#DejaVuSans-64" x="275.740234"/>
      <use xlink:href="#DejaVuSans-61" x="339.216797"/>
      <use xlink:href="#DejaVuSans-74" x="400.496094"/>
      <use xlink:href="#DejaVuSans-65" x="439.705078"/>
     </g>
    </g>
   </g>
   <g id="matplotlib.axis_4">
    <g id="ytick_7">
     <g id="line2d_31">
      <g>
       <use xlink:href="#m5a7e9ba207" x="43.18" y="493.56901" style="stroke: #000000; stroke-width: 0.8"/>
      </g>
     </g>
     <g id="text_31">
      <!-- 420 -->
      <g transform="translate(17.0925 497.368229) scale(0.1 -0.1)">
       <use xlink:href="#DejaVuSans-34"/>
       <use xlink:href="#DejaVuSans-32" x="63.623047"/>
       <use xlink:href="#DejaVuSans-30" x="127.246094"/>
      </g>
     </g>
    </g>
    <g id="ytick_8">
     <g id="line2d_32">
      <g>
       <use xlink:href="#m5a7e9ba207" x="43.18" y="458.915611" style="stroke: #000000; stroke-width: 0.8"/>
      </g>
     </g>
     <g id="text_32">
      <!-- 440 -->
      <g transform="translate(17.0925 462.714829) scale(0.1 -0.1)">
       <use xlink:href="#DejaVuSans-34"/>
       <use xlink:href="#DejaVuSans-34" x="63.623047"/>
       <use xlink:href="#DejaVuSans-30" x="127.246094"/>
      </g>
     </g>
    </g>
    <g id="ytick_9">
     <g id="line2d_33">
      <g>
       <use xlink:href="#m5a7e9ba207" x="43.18" y="424.262211" style="stroke: #000000; stroke-width: 0.8"/>
      </g>
     </g>
     <g id="text_33">
      <!-- 460 -->
      <g transform="translate(17.0925 428.06143) scale(0.1 -0.1)">
       <use xlink:href="#DejaVuSans-34"/>
       <use xlink:href="#DejaVuSans-36" x="63.623047"/>
       <use xlink:href="#DejaVuSans-30" x="127.246094"/>
      </g>
     </g>
    </g>
    <g id="ytick_10">
     <g id="line2d_34">
      <g>
       <use xlink:href="#m5a7e9ba207" x="43.18" y="389.608812" style="stroke: #000000; stroke-width: 0.8"/>
      </g>
     </g>
     <g id="text_34">
      <!-- 480 -->
      <g transform="translate(17.0925 393.40803) scale(0.1 -0.1)">
       <defs>
        <path id="DejaVuSans-38" d="M 2034 2216 
Q 1584 2216 1326 1975 
Q 1069 1734 1069 1313 
Q 1069 891 1326 650 
Q 1584 409 2034 409 
Q 2484 409 2743 651 
Q 3003 894 3003 1313 
Q 3003 1734 2745 1975 
Q 2488 2216 2034 2216 
z
M 1403 2484 
Q 997 2584 770 2862 
Q 544 3141 544 3541 
Q 544 4100 942 4425 
Q 1341 4750 2034 4750 
Q 2731 4750 3128 4425 
Q 3525 4100 3525 3541 
Q 3525 3141 3298 2862 
Q 3072 2584 2669 2484 
Q 3125 2378 3379 2068 
Q 3634 1759 3634 1313 
Q 3634 634 3220 271 
Q 2806 -91 2034 -91 
Q 1263 -91 848 271 
Q 434 634 434 1313 
Q 434 1759 690 2068 
Q 947 2378 1403 2484 
z
M 1172 3481 
Q 1172 3119 1398 2916 
Q 1625 2713 2034 2713 
Q 2441 2713 2670 2916 
Q 2900 3119 2900 3481 
Q 2900 3844 2670 4047 
Q 2441 4250 2034 4250 
Q 1625 4250 1398 4047 
Q 1172 3844 1172 3481 
z
" transform="scale(0.015625)"/>
       </defs>
       <use xlink:href="#DejaVuSans-34"/>
       <use xlink:href="#DejaVuSans-38" x="63.623047"/>
       <use xlink:href="#DejaVuSans-30" x="127.246094"/>
      </g>
     </g>
    </g>
    <g id="ytick_11">
     <g id="line2d_35">
      <g>
       <use xlink:href="#m5a7e9ba207" x="43.18" y="354.955412" style="stroke: #000000; stroke-width: 0.8"/>
      </g>
     </g>
     <g id="text_35">
      <!-- 500 -->
      <g transform="translate(17.0925 358.754631) scale(0.1 -0.1)">
       <use xlink:href="#DejaVuSans-35"/>
       <use xlink:href="#DejaVuSans-30" x="63.623047"/>
       <use xlink:href="#DejaVuSans-30" x="127.246094"/>
      </g>
     </g>
    </g>
    <g id="ytick_12">
     <g id="line2d_36">
      <g>
       <use xlink:href="#m5a7e9ba207" x="43.18" y="320.302013" style="stroke: #000000; stroke-width: 0.8"/>
      </g>
     </g>
     <g id="text_36">
      <!-- 520 -->
      <g transform="translate(17.0925 324.101231) scale(0.1 -0.1)">
       <use xlink:href="#DejaVuSans-35"/>
       <use xlink:href="#DejaVuSans-32" x="63.623047"/>
       <use xlink:href="#DejaVuSans-30" x="127.246094"/>
      </g>
     </g>
    </g>
   </g>
   <g id="line2d_37">
    <path d="M 66.025038 356.688082 
L 96.197729 356.688082 
L 100.508113 356.688082 
L 104.818498 356.688082 
L 109.128882 356.688082 
L 113.439267 356.688082 
L 117.749651 356.688082 
L 122.060036 356.688082 
L 126.37042 356.688082 
L 130.680805 356.688082 
L 134.991189 356.688082 
L 139.301573 356.688082 
L 143.611958 356.688082 
L 147.922342 356.688082 
L 152.232727 356.688082 
L 156.543111 356.688082 
L 160.853496 356.688082 
L 165.16388 356.688082 
L 169.474265 356.688082 
L 173.784649 356.688082 
L 178.095034 356.688082 
L 182.405418 356.688082 
L 186.715802 356.688082 
L 191.026187 356.688082 
L 195.336571 356.688082 
L 199.646956 356.688082 
L 203.95734 356.688082 
L 208.267725 356.688082 
L 212.578109 356.688082 
L 216.888494 356.688082 
L 221.198878 356.688082 
L 225.509263 356.688082 
L 229.819647 356.688082 
L 234.130032 356.688082 
L 238.440416 356.688082 
L 242.7508 391.341482 
L 247.061185 391.341482 
L 251.371569 391.341482 
L 255.681954 391.341482 
L 259.992338 391.341482 
L 264.302723 391.341482 
L 268.613107 391.341482 
L 272.923492 391.341482 
L 277.233876 391.341482 
L 281.544261 391.341482 
L 285.854645 391.341482 
L 290.16503 391.341482 
L 294.475414 391.341482 
L 298.785798 391.341482 
L 303.096183 391.341482 
L 307.406567 391.341482 
L 311.716952 391.341482 
L 316.027336 391.341482 
L 320.337721 391.341482 
L 324.648105 391.341482 
L 328.95849 391.341482 
L 333.268874 391.341482 
L 337.579259 391.341482 
L 341.889643 391.341482 
L 346.200027 391.341482 
L 350.510412 391.341482 
L 354.820796 391.341482 
L 359.131181 391.341482 
L 363.441565 391.341482 
L 367.75195 391.341482 
L 372.062334 391.341482 
L 376.372719 391.341482 
L 380.683103 391.341482 
L 384.993488 391.341482 
L 389.303872 391.341482 
L 393.614257 391.341482 
L 397.924641 391.341482 
L 402.235025 391.341482 
L 406.54541 391.341482 
L 410.855794 391.341482 
L 415.166179 391.341482 
L 419.476563 391.341482 
" clip-path="url(#p26f9115fd9)" style="fill: none; stroke: #1f77b4; stroke-width: 1.5; stroke-linecap: square"/>
   </g>
   <g id="line2d_38">
    <path d="M 96.197729 328.982689 
L 100.508113 328.982689 
L 104.818498 328.982689 
L 109.128882 328.982689 
L 113.439267 328.982689 
L 117.749651 328.982689 
L 122.060036 328.982689 
L 126.37042 328.982689 
L 130.680805 328.982689 
L 134.991189 328.982689 
L 139.301573 328.982689 
L 143.611958 328.982689 
L 147.922342 328.982689 
L 152.232727 328.982689 
L 156.543111 328.982689 
L 160.853496 328.982689 
L 165.16388 328.982689 
L 169.474265 328.982689 
L 173.784649 328.982689 
L 178.095034 328.982689 
L 182.405418 328.982689 
L 186.715802 328.982689 
L 191.026187 328.982689 
L 195.336571 328.982689 
L 199.646956 328.982689 
L 203.95734 328.982689 
L 208.267725 328.982689 
L 212.578109 328.982689 
L 216.888494 328.982689 
L 221.198878 328.982689 
L 225.509263 328.982689 
L 229.819647 328.982689 
L 234.130032 328.982689 
L 238.440416 328.982689 
L 242.7508 328.982689 
L 247.061185 328.982689 
L 251.371569 328.982689 
L 255.681954 328.982689 
L 259.992338 328.982689 
L 264.302723 328.982689 
L 268.613107 328.982689 
L 272.923492 328.982689 
L 277.233876 328.982689 
L 281.544261 328.982689 
L 285.854645 328.982689 
L 290.16503 328.982689 
L 294.475414 328.982689 
L 298.785798 328.982689 
L 303.096183 328.982689 
L 307.406567 328.982689 
L 311.716952 328.982689 
L 316.027336 328.982689 
L 320.337721 328.982689 
L 324.648105 328.982689 
L 328.95849 328.982689 
L 333.268874 328.982689 
L 337.579259 328.982689 
L 341.889643 328.982689 
M 350.510412 328.982689 
L 354.820796 328.982689 
L 359.131181 328.982689 
L 363.441565 328.982689 
L 367.75195 328.982689 
L 372.062334 320.319339 
L 376.372719 320.319339 
L 380.683103 320.319339 
L 384.993488 320.319339 
L 389.303872 320.319339 
L 393.614257 320.319339 
L 397.924641 320.319339 
L 402.235025 320.319339 
L 406.54541 320.319339 
L 410.855794 320.319339 
L 415.166179 320.319339 
L 419.476563 320.319339 
L 423.786948 320.319339 
L 428.097332 320.319339 
L 432.407717 320.319339 
L 436.718101 320.319339 
L 441.028486 320.319339 
L 449.649255 320.319339 
L 453.959639 320.319339 
L 458.270023 320.319339 
L 462.580408 320.319339 
L 466.890792 320.319339 
L 471.201177 320.319339 
L 475.511561 320.319339 
L 479.821946 320.319339 
L 484.13233 320.319339 
L 488.442715 320.319339 
L 492.753099 320.319339 
L 497.063484 320.319339 
L 501.373868 320.319339 
L 505.684252 320.319339 
L 509.994637 320.319339 
L 514.305021 320.319339 
L 518.615406 320.319339 
L 522.92579 320.319339 
" clip-path="url(#p26f9115fd9)" style="fill: none; stroke: #ff7f0e; stroke-width: 1.5; stroke-linecap: square"/>
   </g>
   <g id="line2d_39">
    <path d="M 96.197729 356.688082 
L 100.508113 356.688082 
L 104.818498 356.688082 
L 109.128882 356.688082 
L 113.439267 356.688082 
L 117.749651 356.688082 
L 122.060036 356.688082 
L 126.37042 356.688082 
L 130.680805 356.688082 
L 134.991189 356.688082 
L 139.301573 356.688082 
L 143.611958 356.688082 
L 147.922342 356.688082 
L 152.232727 356.688082 
L 156.543111 356.688082 
L 160.853496 356.688082 
L 165.16388 356.688082 
L 169.474265 356.688082 
L 173.784649 356.688082 
L 178.095034 356.688082 
L 182.405418 356.688082 
L 186.715802 356.688082 
L 191.026187 356.688082 
L 195.336571 356.688082 
L 199.646956 356.688082 
L 203.95734 356.688082 
L 208.267725 356.688082 
L 212.578109 356.688082 
L 216.888494 356.688082 
L 221.198878 356.688082 
L 225.509263 356.688082 
L 229.819647 356.688082 
L 234.130032 356.688082 
L 238.440416 356.688082 
L 242.7508 356.688082 
L 247.061185 356.688082 
L 251.371569 356.688082 
L 255.681954 356.688082 
L 259.992338 356.688082 
L 264.302723 356.688082 
L 268.613107 356.688082 
L 272.923492 356.688082 
L 277.233876 356.688082 
L 281.544261 356.688082 
L 285.854645 356.688082 
L 290.16503 356.688082 
L 294.475414 356.688082 
L 298.785798 356.688082 
L 303.096183 356.688082 
L 307.406567 356.688082 
L 311.716952 356.688082 
L 316.027336 356.688082 
L 320.337721 356.688082 
L 324.648105 356.688082 
L 328.95849 356.688082 
L 333.268874 356.688082 
L 337.579259 356.688082 
L 341.889643 356.688082 
L 346.200027 356.688082 
L 350.510412 356.688082 
L 354.820796 356.688082 
L 359.131181 356.688082 
L 363.441565 356.688082 
L 367.75195 356.688082 
L 372.062334 356.688082 
L 376.372719 356.688082 
L 380.683103 356.688082 
L 384.993488 356.688082 
L 389.303872 356.688082 
L 393.614257 356.688082 
L 397.924641 356.688082 
L 402.235025 356.688082 
L 406.54541 356.688082 
L 410.855794 356.688082 
L 415.166179 356.688082 
L 419.476563 356.688082 
L 423.786948 356.688082 
L 428.097332 356.688082 
L 432.407717 356.688082 
L 436.718101 356.688082 
L 441.028486 356.688082 
L 449.649255 356.688082 
L 453.959639 356.688082 
L 458.270023 356.688082 
L 462.580408 356.688082 
L 466.890792 356.688082 
L 471.201177 356.688082 
L 475.511561 356.688082 
L 479.821946 356.688082 
L 484.13233 356.688082 
L 488.442715 356.688082 
L 492.753099 356.688082 
L 497.063484 356.688082 
L 501.373868 356.688082 
L 505.684252 356.688082 
L 509.994637 356.688082 
L 514.305021 356.688082 
L 518.615406 356.688082 
L 522.92579 356.688082 
" clip-path="url(#p26f9115fd9)" style="fill: none; stroke: #2ca02c; stroke-width: 1.5; stroke-linecap: square"/>
   </g>
   <g id="line2d_40">
    <path d="M 66.025038 501.106125 
L 96.197729 408.668181 
L 100.508113 408.668181 
L 104.818498 408.668181 
L 109.128882 408.668181 
L 113.439267 408.668181 
L 117.749651 408.668181 
L 122.060036 415.598861 
L 126.37042 415.598861 
L 130.680805 415.598861 
L 134.991189 415.598861 
L 139.301573 415.598861 
L 143.611958 415.598861 
L 147.922342 415.598861 
L 152.232727 415.598861 
L 156.543111 415.598861 
L 160.853496 415.598861 
L 165.16388 415.598861 
L 169.474265 415.598861 
L 173.784649 415.598861 
L 178.095034 415.598861 
L 182.405418 415.598861 
L 186.715802 399.918198 
L 191.026187 399.918198 
L 195.336571 399.918198 
L 199.646956 356.688082 
L 203.95734 356.861349 
L 208.267725 356.861349 
L 212.578109 356.861349 
L 216.888494 356.861349 
L 221.198878 356.861349 
L 225.509263 363.618762 
L 229.819647 363.792029 
L 234.130032 391.341482 
L 238.440416 393.074152 
L 242.7508 408.668181 
L 247.061185 408.668181 
L 251.371569 408.668181 
L 255.681954 408.841448 
L 259.992338 408.668181 
L 264.302723 408.841448 
L 268.613107 416.239949 
L 272.923492 416.239949 
L 277.233876 416.239949 
L 281.544261 416.239949 
L 285.854645 416.239949 
L 290.16503 416.239949 
L 294.475414 425.994881 
L 298.785798 425.994881 
L 303.096183 425.994881 
L 307.406567 425.994881 
L 311.716952 425.994881 
L 316.027336 425.994881 
L 320.337721 425.994881 
L 324.648105 425.994881 
L 328.95849 425.994881 
L 333.268874 425.994881 
L 337.579259 425.994881 
L 341.889643 425.994881 
L 346.200027 425.994881 
L 350.510412 425.994881 
L 354.820796 425.994881 
L 359.131181 425.994881 
L 363.441565 425.994881 
L 367.75195 425.994881 
L 372.062334 425.994881 
L 376.372719 425.994881 
L 380.683103 425.994881 
L 384.993488 425.994881 
L 389.303872 425.994881 
L 393.614257 425.994881 
L 397.924641 425.994881 
L 402.235025 425.994881 
L 406.54541 425.994881 
L 410.855794 425.994881 
L 415.166179 425.994881 
L 419.476563 425.994881 
L 423.786948 425.994881 
L 428.097332 425.994881 
L 432.407717 425.994881 
L 436.718101 425.994881 
L 441.028486 425.994881 
L 449.649255 425.994881 
L 453.959639 425.994881 
L 458.270023 425.994881 
L 462.580408 425.994881 
L 466.890792 425.994881 
L 471.201177 425.994881 
L 475.511561 425.994881 
L 479.821946 356.688082 
L 484.13233 356.688082 
L 488.442715 356.688082 
L 492.753099 356.688082 
L 497.063484 320.319339 
L 501.373868 320.319339 
L 505.684252 416.239949 
L 509.994637 416.239949 
L 514.305021 416.239949 
L 518.615406 320.319339 
L 522.92579 320.319339 
" clip-path="url(#p26f9115fd9)" style="fill: none; stroke: #d62728; stroke-width: 1.5; stroke-linecap: square"/>
   </g>
   <g id="patch_9">
    <path d="M 43.18 510.145464 
L 43.18 311.28 
" style="fill: none; stroke: #000000; stroke-width: 0.8; stroke-linejoin: miter; stroke-linecap: square"/>
   </g>
   <g id="patch_10">
    <path d="M 545.770828 510.145464 
L 545.770828 311.28 
" style="fill: none; stroke: #000000; stroke-width: 0.8; stroke-linejoin: miter; stroke-linecap: square"/>
   </g>
   <g id="patch_11">
    <path d="M 43.18 510.145464 
L 545.770828 510.145464 
" style="fill: none; stroke: #000000; stroke-width: 0.8; stroke-linejoin: miter; stroke-linecap: square"/>
   </g>
   <g id="patch_12">
    <path d="M 43.18 311.28 
L 545.770828 311.28 
" style="fill: none; stroke: #000000; stroke-width: 0.8; stroke-linejoin: miter; stroke-linecap: square"/>
   </g>
   <g id="text_37">
    <!-- Lenovo IdeaPad 3 -->
    <g transform="translate(241.436351 305.28) scale(0.12 -0.12)">
     <defs>
      <path id="DejaVuSans-4c" d="M 628 4666 
L 1259 4666 
L 1259 531 
L 3531 531 
L 3531 0 
L 628 0 
L 628 4666 
z
" transform="scale(0.015625)"/>
      <path id="DejaVuSans-49" d="M 628 4666 
L 1259 4666 
L 1259 0 
L 628 0 
L 628 4666 
z
" transform="scale(0.015625)"/>
     </defs>
     <use xlink:href="#DejaVuSans-4c"/>
     <use xlink:href="#DejaVuSans-65" x="53.962891"/>
     <use xlink:href="#DejaVuSans-6e" x="115.486328"/>
     <use xlink:href="#DejaVuSans-6f" x="178.865234"/>
     <use xlink:href="#DejaVuSans-76" x="240.046875"/>
     <use xlink:href="#DejaVuSans-6f" x="299.226562"/>
     <use xlink:href="#DejaVuSans-20" x="360.408203"/>
     <use xlink:href="#DejaVuSans-49" x="392.195312"/>
     <use xlink:href="#DejaVuSans-64" x="421.6875"/>
     <use xlink:href="#DejaVuSans-65" x="485.164062"/>
     <use xlink:href="#DejaVuSans-61" x="546.6875"/>
     <use xlink:href="#DejaVuSans-50" x="607.966797"/>
     <use xlink:href="#DejaVuSans-61" x="663.769531"/>
     <use xlink:href="#DejaVuSans-64" x="725.048828"/>
     <use xlink:href="#DejaVuSans-20" x="788.525391"/>
     <use xlink:href="#DejaVuSans-33" x="820.3125"/>
    </g>
   </g>
   <g id="legend_2">
    <g id="patch_13">
     <path d="M 404.688015 505.145464 
L 538.770828 505.145464 
Q 540.770828 505.145464 540.770828 503.145464 
L 540.770828 430.754839 
Q 540.770828 428.754839 538.770828 428.754839 
L 404.688015 428.754839 
Q 402.688015 428.754839 402.688015 430.754839 
L 402.688015 503.145464 
Q 402.688015 505.145464 404.688015 505.145464 
z
" style="fill: #ffffff; opacity: 0.8; stroke: #cccccc; stroke-linejoin: miter"/>
    </g>
    <g id="text_38">
     <!-- source -->
     <g transform="translate(455.127859 440.353276) scale(0.1 -0.1)">
      <use xlink:href="#DejaVuSans-73"/>
      <use xlink:href="#DejaVuSans-6f" x="52.099609"/>
      <use xlink:href="#DejaVuSans-75" x="113.28125"/>
      <use xlink:href="#DejaVuSans-72" x="176.660156"/>
      <use xlink:href="#DejaVuSans-63" x="215.523438"/>
      <use xlink:href="#DejaVuSans-65" x="270.503906"/>
     </g>
    </g>
    <g id="line2d_41">
     <path d="M 406.688015 451.531401 
L 416.688015 451.531401 
L 426.688015 451.531401 
" style="fill: none; stroke: #1f77b4; stroke-width: 1.5; stroke-linecap: square"/>
    </g>
    <g id="text_39">
     <!-- instar-informatika.hr -->
     <g transform="translate(434.688015 455.031401) scale(0.1 -0.1)">
      <defs>
       <path id="DejaVuSans-66" d="M 2375 4863 
L 2375 4384 
L 1825 4384 
Q 1516 4384 1395 4259 
Q 1275 4134 1275 3809 
L 1275 3500 
L 2222 3500 
L 2222 3053 
L 1275 3053 
L 1275 0 
L 697 0 
L 697 3053 
L 147 3053 
L 147 3500 
L 697 3500 
L 697 3744 
Q 697 4328 969 4595 
Q 1241 4863 1831 4863 
L 2375 4863 
z
" transform="scale(0.015625)"/>
      </defs>
      <use xlink:href="#DejaVuSans-69"/>
      <use xlink:href="#DejaVuSans-6e" x="27.783203"/>
      <use xlink:href="#DejaVuSans-73" x="91.162109"/>
      <use xlink:href="#DejaVuSans-74" x="143.261719"/>
      <use xlink:href="#DejaVuSans-61" x="182.470703"/>
      <use xlink:href="#DejaVuSans-72" x="243.75"/>
      <use xlink:href="#DejaVuSans-2d" x="278.488281"/>
      <use xlink:href="#DejaVuSans-69" x="314.572266"/>
      <use xlink:href="#DejaVuSans-6e" x="342.355469"/>
      <use xlink:href="#DejaVuSans-66" x="405.734375"/>
      <use xlink:href="#DejaVuSans-6f" x="440.939453"/>
      <use xlink:href="#DejaVuSans-72" x="502.121094"/>
      <use xlink:href="#DejaVuSans-6d" x="541.484375"/>
      <use xlink:href="#DejaVuSans-61" x="638.896484"/>
      <use xlink:href="#DejaVuSans-74" x="700.175781"/>
      <use xlink:href="#DejaVuSans-69" x="739.384766"/>
      <use xlink:href="#DejaVuSans-6b" x="767.167969"/>
      <use xlink:href="#DejaVuSans-61" x="823.328125"/>
      <use xlink:href="#DejaVuSans-2e" x="884.607422"/>
      <use xlink:href="#DejaVuSans-68" x="916.394531"/>
      <use xlink:href="#DejaVuSans-72" x="979.773438"/>
     </g>
    </g>
    <g id="line2d_42">
     <path d="M 406.688015 466.209526 
L 416.688015 466.209526 
L 426.688015 466.209526 
" style="fill: none; stroke: #ff7f0e; stroke-width: 1.5; stroke-linecap: square"/>
    </g>
    <g id="text_40">
     <!-- links.hr -->
     <g transform="translate(434.688015 469.709526) scale(0.1 -0.1)">
      <use xlink:href="#DejaVuSans-6c"/>
      <use xlink:href="#DejaVuSans-69" x="27.783203"/>
      <use xlink:href="#DejaVuSans-6e" x="55.566406"/>
      <use xlink:href="#DejaVuSans-6b" x="118.945312"/>
      <use xlink:href="#DejaVuSans-73" x="176.855469"/>
      <use xlink:href="#DejaVuSans-2e" x="228.955078"/>
      <use xlink:href="#DejaVuSans-68" x="260.742188"/>
      <use xlink:href="#DejaVuSans-72" x="324.121094"/>
     </g>
    </g>
    <g id="line2d_43">
     <path d="M 406.688015 480.887651 
L 416.688015 480.887651 
L 426.688015 480.887651 
" style="fill: none; stroke: #2ca02c; stroke-width: 1.5; stroke-linecap: square"/>
    </g>
    <g id="text_41">
     <!-- mikronis.hr -->
     <g transform="translate(434.688015 484.387651) scale(0.1 -0.1)">
      <use xlink:href="#DejaVuSans-6d"/>
      <use xlink:href="#DejaVuSans-69" x="97.412109"/>
      <use xlink:href="#DejaVuSans-6b" x="125.195312"/>
      <use xlink:href="#DejaVuSans-72" x="183.105469"/>
      <use xlink:href="#DejaVuSans-6f" x="221.96875"/>
      <use xlink:href="#DejaVuSans-6e" x="283.150391"/>
      <use xlink:href="#DejaVuSans-69" x="346.529297"/>
      <use xlink:href="#DejaVuSans-73" x="374.3125"/>
      <use xlink:href="#DejaVuSans-2e" x="426.412109"/>
      <use xlink:href="#DejaVuSans-68" x="458.199219"/>
      <use xlink:href="#DejaVuSans-72" x="521.578125"/>
     </g>
    </g>
    <g id="line2d_44">
     <path d="M 406.688015 495.565776 
L 416.688015 495.565776 
L 426.688015 495.565776 
" style="fill: none; stroke: #d62728; stroke-width: 1.5; stroke-linecap: square"/>
    </g>
    <g id="text_42">
     <!-- nabava.net -->
     <g transform="translate(434.688015 499.065776) scale(0.1 -0.1)">
      <use xlink:href="#DejaVuSans-6e"/>
      <use xlink:href="#DejaVuSans-61" x="63.378906"/>
      <use xlink:href="#DejaVuSans-62" x="124.658203"/>
      <use xlink:href="#DejaVuSans-61" x="188.134766"/>
      <use xlink:href="#DejaVuSans-76" x="249.414062"/>
      <use xlink:href="#DejaVuSans-61" x="308.59375"/>
      <use xlink:href="#DejaVuSans-2e" x="369.873047"/>
      <use xlink:href="#DejaVuSans-6e" x="401.660156"/>
      <use xlink:href="#DejaVuSans-65" x="465.039062"/>
      <use xlink:href="#DejaVuSans-74" x="526.5625"/>
     </g>
    </g>
   </g>
  </g>
  <g id="axes_3">
   <g id="patch_14">
    <path d="M 43.18 794.545464 
L 545.770828 794.545464 
L 545.770828 595.68 
L 43.18 595.68 
z
" style="fill: #ffffff"/>
   </g>
   <g id="matplotlib.axis_5">
    <g id="xtick_17">
     <g id="line2d_45">
      <g>
       <use xlink:href="#m36332ddf4d" x="47.564401" y="794.545464" style="stroke: #000000; stroke-width: 0.8"/>
      </g>
     </g>
     <g id="text_43">
      <!-- 2023-11-01 -->
      <g transform="translate(23.779285 837.183716) rotate(-30) scale(0.1 -0.1)">
       <use xlink:href="#DejaVuSans-32"/>
       <use xlink:href="#DejaVuSans-30" x="63.623047"/>
       <use xlink:href="#DejaVuSans-32" x="127.246094"/>
       <use xlink:href="#DejaVuSans-33" x="190.869141"/>
       <use xlink:href="#DejaVuSans-2d" x="254.492188"/>
       <use xlink:href="#DejaVuSans-31" x="290.576172"/>
       <use xlink:href="#DejaVuSans-31" x="354.199219"/>
       <use xlink:href="#DejaVuSans-2d" x="417.822266"/>
       <use xlink:href="#DejaVuSans-30" x="453.90625"/>
       <use xlink:href="#DejaVuSans-31" x="517.529297"/>
      </g>
     </g>
    </g>
    <g id="xtick_18">
     <g id="line2d_46">
      <g>
       <use xlink:href="#m36332ddf4d" x="112.176629" y="794.545464" style="stroke: #000000; stroke-width: 0.8"/>
      </g>
     </g>
     <g id="text_44">
      <!-- 2023-11-15 -->
      <g transform="translate(88.391513 837.183716) rotate(-30) scale(0.1 -0.1)">
       <use xlink:href="#DejaVuSans-32"/>
       <use xlink:href="#DejaVuSans-30" x="63.623047"/>
       <use xlink:href="#DejaVuSans-32" x="127.246094"/>
       <use xlink:href="#DejaVuSans-33" x="190.869141"/>
       <use xlink:href="#DejaVuSans-2d" x="254.492188"/>
       <use xlink:href="#DejaVuSans-31" x="290.576172"/>
       <use xlink:href="#DejaVuSans-31" x="354.199219"/>
       <use xlink:href="#DejaVuSans-2d" x="417.822266"/>
       <use xlink:href="#DejaVuSans-31" x="453.90625"/>
       <use xlink:href="#DejaVuSans-35" x="517.529297"/>
      </g>
     </g>
    </g>
    <g id="xtick_19">
     <g id="line2d_47">
      <g>
       <use xlink:href="#m36332ddf4d" x="186.019175" y="794.545464" style="stroke: #000000; stroke-width: 0.8"/>
      </g>
     </g>
     <g id="text_45">
      <!-- 2023-12-01 -->
      <g transform="translate(162.234058 837.183716) rotate(-30) scale(0.1 -0.1)">
       <use xlink:href="#DejaVuSans-32"/>
       <use xlink:href="#DejaVuSans-30" x="63.623047"/>
       <use xlink:href="#DejaVuSans-32" x="127.246094"/>
       <use xlink:href="#DejaVuSans-33" x="190.869141"/>
       <use xlink:href="#DejaVuSans-2d" x="254.492188"/>
       <use xlink:href="#DejaVuSans-31" x="290.576172"/>
       <use xlink:href="#DejaVuSans-32" x="354.199219"/>
       <use xlink:href="#DejaVuSans-2d" x="417.822266"/>
       <use xlink:href="#DejaVuSans-30" x="453.90625"/>
       <use xlink:href="#DejaVuSans-31" x="517.529297"/>
      </g>
     </g>
    </g>
    <g id="xtick_20">
     <g id="line2d_48">
      <g>
       <use xlink:href="#m36332ddf4d" x="250.631402" y="794.545464" style="stroke: #000000; stroke-width: 0.8"/>
      </g>
     </g>
     <g id="text_46">
      <!-- 2023-12-15 -->
      <g transform="translate(226.846286 837.183716) rotate(-30) scale(0.1 -0.1)">
       <use xlink:href="#DejaVuSans-32"/>
       <use xlink:href="#DejaVuSans-30" x="63.623047"/>
       <use xlink:href="#DejaVuSans-32" x="127.246094"/>
       <use xlink:href="#DejaVuSans-33" x="190.869141"/>
       <use xlink:href="#DejaVuSans-2d" x="254.492188"/>
       <use xlink:href="#DejaVuSans-31" x="290.576172"/>
       <use xlink:href="#DejaVuSans-32" x="354.199219"/>
       <use xlink:href="#DejaVuSans-2d" x="417.822266"/>
       <use xlink:href="#DejaVuSans-31" x="453.90625"/>
       <use xlink:href="#DejaVuSans-35" x="517.529297"/>
      </g>
     </g>
    </g>
    <g id="xtick_21">
     <g id="line2d_49">
      <g>
       <use xlink:href="#m36332ddf4d" x="329.089107" y="794.545464" style="stroke: #000000; stroke-width: 0.8"/>
      </g>
     </g>
     <g id="text_47">
      <!-- 2024-01-01 -->
      <g transform="translate(305.303991 837.183716) rotate(-30) scale(0.1 -0.1)">
       <use xlink:href="#DejaVuSans-32"/>
       <use xlink:href="#DejaVuSans-30" x="63.623047"/>
       <use xlink:href="#DejaVuSans-32" x="127.246094"/>
       <use xlink:href="#DejaVuSans-34" x="190.869141"/>
       <use xlink:href="#DejaVuSans-2d" x="254.492188"/>
       <use xlink:href="#DejaVuSans-30" x="290.576172"/>
       <use xlink:href="#DejaVuSans-31" x="354.199219"/>
       <use xlink:href="#DejaVuSans-2d" x="417.822266"/>
       <use xlink:href="#DejaVuSans-30" x="453.90625"/>
       <use xlink:href="#DejaVuSans-31" x="517.529297"/>
      </g>
     </g>
    </g>
    <g id="xtick_22">
     <g id="line2d_50">
      <g>
       <use xlink:href="#m36332ddf4d" x="393.701335" y="794.545464" style="stroke: #000000; stroke-width: 0.8"/>
      </g>
     </g>
     <g id="text_48">
      <!-- 2024-01-15 -->
      <g transform="translate(369.916219 837.183716) rotate(-30) scale(0.1 -0.1)">
       <use xlink:href="#DejaVuSans-32"/>
       <use xlink:href="#DejaVuSans-30" x="63.623047"/>
       <use xlink:href="#DejaVuSans-32" x="127.246094"/>
       <use xlink:href="#DejaVuSans-34" x="190.869141"/>
       <use xlink:href="#DejaVuSans-2d" x="254.492188"/>
       <use xlink:href="#DejaVuSans-30" x="290.576172"/>
       <use xlink:href="#DejaVuSans-31" x="354.199219"/>
       <use xlink:href="#DejaVuSans-2d" x="417.822266"/>
       <use xlink:href="#DejaVuSans-31" x="453.90625"/>
       <use xlink:href="#DejaVuSans-35" x="517.529297"/>
      </g>
     </g>
    </g>
    <g id="xtick_23">
     <g id="line2d_51">
      <g>
       <use xlink:href="#m36332ddf4d" x="472.15904" y="794.545464" style="stroke: #000000; stroke-width: 0.8"/>
      </g>
     </g>
     <g id="text_49">
      <!-- 2024-02-01 -->
      <g transform="translate(448.373924 837.183716) rotate(-30) scale(0.1 -0.1)">
       <use xlink:href="#DejaVuSans-32"/>
       <use xlink:href="#DejaVuSans-30" x="63.623047"/>
       <use xlink:href="#DejaVuSans-32" x="127.246094"/>
       <use xlink:href="#DejaVuSans-34" x="190.869141"/>
       <use xlink:href="#DejaVuSans-2d" x="254.492188"/>
       <use xlink:href="#DejaVuSans-30" x="290.576172"/>
       <use xlink:href="#DejaVuSans-32" x="354.199219"/>
       <use xlink:href="#DejaVuSans-2d" x="417.822266"/>
       <use xlink:href="#DejaVuSans-30" x="453.90625"/>
       <use xlink:href="#DejaVuSans-31" x="517.529297"/>
      </g>
     </g>
    </g>
    <g id="xtick_24">
     <g id="line2d_52">
      <g>
       <use xlink:href="#m36332ddf4d" x="536.771268" y="794.545464" style="stroke: #000000; stroke-width: 0.8"/>
      </g>
     </g>
     <g id="text_50">
      <!-- 2024-02-15 -->
      <g transform="translate(512.986151 837.183716) rotate(-30) scale(0.1 -0.1)">
       <use xlink:href="#DejaVuSans-32"/>
       <use xlink:href="#DejaVuSans-30" x="63.623047"/>
       <use xlink:href="#DejaVuSans-32" x="127.246094"/>
       <use xlink:href="#DejaVuSans-34" x="190.869141"/>
       <use xlink:href="#DejaVuSans-2d" x="254.492188"/>
       <use xlink:href="#DejaVuSans-30" x="290.576172"/>
       <use xlink:href="#DejaVuSans-32" x="354.199219"/>
       <use xlink:href="#DejaVuSans-2d" x="417.822266"/>
       <use xlink:href="#DejaVuSans-31" x="453.90625"/>
       <use xlink:href="#DejaVuSans-35" x="517.529297"/>
      </g>
     </g>
    </g>
    <g id="text_51">
     <!-- Price date -->
     <g transform="translate(269.413695 850.583216) scale(0.1 -0.1)">
      <use xlink:href="#DejaVuSans-50"/>
      <use xlink:href="#DejaVuSans-72" x="58.552734"/>
      <use xlink:href="#DejaVuSans-69" x="99.666016"/>
      <use xlink:href="#DejaVuSans-63" x="127.449219"/>
      <use xlink:href="#DejaVuSans-65" x="182.429688"/>
      <use xlink:href="#DejaVuSans-20" x="243.953125"/>
      <use xlink:href="#DejaVuSans-64" x="275.740234"/>
      <use xlink:href="#DejaVuSans-61" x="339.216797"/>
      <use xlink:href="#DejaVuSans-74" x="400.496094"/>
      <use xlink:href="#DejaVuSans-65" x="439.705078"/>
     </g>
    </g>
   </g>
   <g id="matplotlib.axis_6">
    <g id="ytick_13">
     <g id="line2d_53">
      <g>
       <use xlink:href="#m5a7e9ba207" x="43.18" y="785.496777" style="stroke: #000000; stroke-width: 0.8"/>
      </g>
     </g>
     <g id="text_52">
      <!-- 550 -->
      <g transform="translate(17.0925 789.295996) scale(0.1 -0.1)">
       <use xlink:href="#DejaVuSans-35"/>
       <use xlink:href="#DejaVuSans-35" x="63.623047"/>
       <use xlink:href="#DejaVuSans-30" x="127.246094"/>
      </g>
     </g>
    </g>
    <g id="ytick_14">
     <g id="line2d_54">
      <g>
       <use xlink:href="#m5a7e9ba207" x="43.18" y="762.127234" style="stroke: #000000; stroke-width: 0.8"/>
      </g>
     </g>
     <g id="text_53">
      <!-- 575 -->
      <g transform="translate(17.0925 765.926452) scale(0.1 -0.1)">
       <defs>
        <path id="DejaVuSans-37" d="M 525 4666 
L 3525 4666 
L 3525 4397 
L 1831 0 
L 1172 0 
L 2766 4134 
L 525 4134 
L 525 4666 
z
" transform="scale(0.015625)"/>
       </defs>
       <use xlink:href="#DejaVuSans-35"/>
       <use xlink:href="#DejaVuSans-37" x="63.623047"/>
       <use xlink:href="#DejaVuSans-35" x="127.246094"/>
      </g>
     </g>
    </g>
    <g id="ytick_15">
     <g id="line2d_55">
      <g>
       <use xlink:href="#m5a7e9ba207" x="43.18" y="738.757691" style="stroke: #000000; stroke-width: 0.8"/>
      </g>
     </g>
     <g id="text_54">
      <!-- 600 -->
      <g transform="translate(17.0925 742.556909) scale(0.1 -0.1)">
       <use xlink:href="#DejaVuSans-36"/>
       <use xlink:href="#DejaVuSans-30" x="63.623047"/>
       <use xlink:href="#DejaVuSans-30" x="127.246094"/>
      </g>
     </g>
    </g>
    <g id="ytick_16">
     <g id="line2d_56">
      <g>
       <use xlink:href="#m5a7e9ba207" x="43.18" y="715.388148" style="stroke: #000000; stroke-width: 0.8"/>
      </g>
     </g>
     <g id="text_55">
      <!-- 625 -->
      <g transform="translate(17.0925 719.187366) scale(0.1 -0.1)">
       <use xlink:href="#DejaVuSans-36"/>
       <use xlink:href="#DejaVuSans-32" x="63.623047"/>
       <use xlink:href="#DejaVuSans-35" x="127.246094"/>
      </g>
     </g>
    </g>
    <g id="ytick_17">
     <g id="line2d_57">
      <g>
       <use xlink:href="#m5a7e9ba207" x="43.18" y="692.018604" style="stroke: #000000; stroke-width: 0.8"/>
      </g>
     </g>
     <g id="text_56">
      <!-- 650 -->
      <g transform="translate(17.0925 695.817823) scale(0.1 -0.1)">
       <use xlink:href="#DejaVuSans-36"/>
       <use xlink:href="#DejaVuSans-35" x="63.623047"/>
       <use xlink:href="#DejaVuSans-30" x="127.246094"/>
      </g>
     </g>
    </g>
    <g id="ytick_18">
     <g id="line2d_58">
      <g>
       <use xlink:href="#m5a7e9ba207" x="43.18" y="668.649061" style="stroke: #000000; stroke-width: 0.8"/>
      </g>
     </g>
     <g id="text_57">
      <!-- 675 -->
      <g transform="translate(17.0925 672.44828) scale(0.1 -0.1)">
       <use xlink:href="#DejaVuSans-36"/>
       <use xlink:href="#DejaVuSans-37" x="63.623047"/>
       <use xlink:href="#DejaVuSans-35" x="127.246094"/>
      </g>
     </g>
    </g>
    <g id="ytick_19">
     <g id="line2d_59">
      <g>
       <use xlink:href="#m5a7e9ba207" x="43.18" y="645.279518" style="stroke: #000000; stroke-width: 0.8"/>
      </g>
     </g>
     <g id="text_58">
      <!-- 700 -->
      <g transform="translate(17.0925 649.078737) scale(0.1 -0.1)">
       <use xlink:href="#DejaVuSans-37"/>
       <use xlink:href="#DejaVuSans-30" x="63.623047"/>
       <use xlink:href="#DejaVuSans-30" x="127.246094"/>
      </g>
     </g>
    </g>
    <g id="ytick_20">
     <g id="line2d_60">
      <g>
       <use xlink:href="#m5a7e9ba207" x="43.18" y="621.909975" style="stroke: #000000; stroke-width: 0.8"/>
      </g>
     </g>
     <g id="text_59">
      <!-- 725 -->
      <g transform="translate(17.0925 625.709194) scale(0.1 -0.1)">
       <use xlink:href="#DejaVuSans-37"/>
       <use xlink:href="#DejaVuSans-32" x="63.623047"/>
       <use xlink:href="#DejaVuSans-35" x="127.246094"/>
      </g>
     </g>
    </g>
    <g id="ytick_21">
     <g id="line2d_61">
      <g>
       <use xlink:href="#m5a7e9ba207" x="43.18" y="598.540432" style="stroke: #000000; stroke-width: 0.8"/>
      </g>
     </g>
     <g id="text_60">
      <!-- 750 -->
      <g transform="translate(17.0925 602.339651) scale(0.1 -0.1)">
       <use xlink:href="#DejaVuSans-37"/>
       <use xlink:href="#DejaVuSans-35" x="63.623047"/>
       <use xlink:href="#DejaVuSans-30" x="127.246094"/>
      </g>
     </g>
    </g>
   </g>
   <g id="line2d_62">
    <path d="M 66.025038 604.719339 
L 70.640197 604.719339 
L 75.255356 604.719339 
L 79.870515 604.719339 
L 84.485674 604.719339 
L 89.100833 604.719339 
L 93.715992 604.719339 
L 98.331151 604.719339 
L 102.946311 604.719339 
L 107.56147 604.719339 
L 112.176629 604.719339 
L 116.791788 604.719339 
L 121.406947 604.719339 
L 126.022106 604.719339 
L 130.637265 604.719339 
L 135.252424 604.719339 
L 139.867584 604.719339 
L 144.482743 604.719339 
L 149.097902 604.719339 
L 153.713061 604.719339 
L 158.32822 604.719339 
L 162.943379 604.719339 
L 167.558538 604.719339 
L 172.173697 604.719339 
L 176.788856 604.719339 
L 181.404016 604.719339 
L 186.019175 604.719339 
L 190.634334 604.719339 
L 195.249493 604.719339 
L 199.864652 604.719339 
L 204.479811 604.719339 
L 209.09497 604.719339 
L 213.710129 604.719339 
L 218.325289 604.719339 
L 222.940448 604.719339 
L 227.555607 604.719339 
L 232.170766 604.719339 
L 236.785925 604.719339 
L 241.401084 604.719339 
L 246.016243 604.719339 
L 250.631402 604.719339 
L 255.246561 604.719339 
L 259.861721 604.719339 
L 264.47688 604.719339 
L 269.092039 604.719339 
L 273.707198 604.719339 
L 278.322357 604.719339 
L 282.937516 604.719339 
L 287.552675 604.719339 
L 292.167834 604.719339 
L 296.782994 604.719339 
L 301.398153 604.719339 
L 306.013312 604.719339 
L 310.628471 604.719339 
L 315.24363 604.719339 
L 319.858789 604.719339 
L 324.473948 604.719339 
L 329.089107 604.719339 
L 333.704266 604.719339 
L 338.319426 604.719339 
L 342.934585 604.719339 
L 347.549744 604.719339 
L 352.164903 604.719339 
L 356.780062 604.719339 
L 361.395221 604.719339 
L 366.01038 604.719339 
L 370.625539 604.719339 
L 375.240699 604.719339 
L 379.855858 604.719339 
L 384.471017 604.719339 
L 389.086176 604.719339 
L 393.701335 604.719339 
L 398.316494 604.719339 
L 402.931653 604.719339 
L 407.546812 604.719339 
L 412.161971 604.719339 
L 416.777131 604.719339 
L 421.39229 604.719339 
L 426.007449 604.719339 
L 430.622608 604.719339 
L 435.237767 604.719339 
L 444.468085 604.719339 
L 449.083244 604.719339 
L 453.698404 604.719339 
L 458.313563 604.719339 
L 462.928722 604.719339 
L 467.543881 604.719339 
L 472.15904 604.719339 
L 476.774199 604.719339 
L 481.389358 604.719339 
L 486.004517 604.719339 
L 490.619676 604.719339 
L 495.234836 604.719339 
L 499.849995 604.719339 
L 504.465154 604.719339 
L 509.080313 604.719339 
L 513.695472 604.719339 
L 518.310631 604.719339 
L 522.92579 604.719339 
" clip-path="url(#pee3bc83c9d)" style="fill: none; stroke: #1f77b4; stroke-width: 1.5; stroke-linecap: square"/>
   </g>
   <g id="line2d_63">
    <path d="M 66.025038 738.767038 
L 70.640197 738.767038 
L 75.255356 738.767038 
L 79.870515 738.767038 
L 84.485674 738.767038 
L 89.100833 738.767038 
L 93.715992 738.767038 
L 98.331151 738.767038 
L 102.946311 738.767038 
L 107.56147 738.767038 
L 112.176629 738.767038 
L 116.791788 738.767038 
L 121.406947 738.767038 
L 126.022106 738.767038 
L 130.637265 738.767038 
L 135.252424 738.767038 
L 139.867584 738.767038 
L 144.482743 785.506125 
L 149.097902 785.506125 
L 153.713061 785.506125 
M 172.173697 785.506125 
" clip-path="url(#pee3bc83c9d)" style="fill: none; stroke: #ff7f0e; stroke-width: 1.5; stroke-linecap: square"/>
   </g>
   <g id="line2d_64">
    <path d="M 66.025038 739.692472 
L 70.640197 739.692472 
L 75.255356 739.692472 
L 79.870515 739.692472 
L 84.485674 739.692472 
L 89.100833 739.692472 
L 93.715992 739.692472 
L 98.331151 739.692472 
L 102.946311 739.692472 
L 107.56147 739.692472 
L 112.176629 739.692472 
L 116.791788 739.692472 
L 121.406947 739.692472 
L 126.022106 739.692472 
L 130.637265 739.692472 
L 135.252424 739.692472 
L 139.867584 739.692472 
L 144.482743 739.692472 
L 149.097902 739.692472 
L 153.713061 739.692472 
L 158.32822 739.692472 
L 162.943379 739.692472 
L 167.558538 739.692472 
L 172.173697 739.692472 
L 176.788856 739.692472 
L 181.404016 739.692472 
L 186.019175 739.692472 
L 190.634334 739.692472 
L 195.249493 739.692472 
L 199.864652 739.692472 
L 204.479811 739.692472 
L 209.09497 739.692472 
L 213.710129 739.692472 
L 218.325289 739.692472 
L 222.940448 739.692472 
L 227.555607 739.692472 
L 232.170766 739.692472 
L 236.785925 739.692472 
L 241.401084 739.692472 
L 246.016243 739.692472 
L 250.631402 739.692472 
L 255.246561 739.692472 
L 259.861721 739.692472 
L 264.47688 739.692472 
L 269.092039 739.692472 
L 273.707198 739.692472 
L 278.322357 739.692472 
L 282.937516 739.692472 
L 287.552675 739.692472 
L 292.167834 739.692472 
L 296.782994 739.692472 
L 301.398153 739.692472 
L 306.013312 739.692472 
L 310.628471 739.692472 
L 315.24363 739.692472 
L 319.858789 739.692472 
L 324.473948 739.692472 
L 329.089107 739.692472 
L 333.704266 739.692472 
L 338.319426 739.692472 
L 342.934585 739.692472 
L 347.549744 739.692472 
L 352.164903 739.692472 
L 356.780062 739.692472 
L 361.395221 739.692472 
L 366.01038 739.692472 
L 370.625539 739.692472 
L 375.240699 739.692472 
L 379.855858 739.692472 
L 384.471017 739.692472 
L 389.086176 739.692472 
L 393.701335 739.692472 
L 398.316494 739.692472 
L 402.931653 739.692472 
L 407.546812 739.692472 
L 412.161971 739.692472 
L 416.777131 739.692472 
L 421.39229 739.692472 
L 426.007449 739.692472 
L 430.622608 739.692472 
L 435.237767 739.692472 
L 444.468085 739.692472 
L 449.083244 739.692472 
L 453.698404 739.692472 
L 458.313563 739.692472 
L 462.928722 739.692472 
L 467.543881 739.692472 
L 472.15904 739.692472 
L 476.774199 739.692472 
L 481.389358 739.692472 
L 486.004517 739.692472 
L 490.619676 739.692472 
L 495.234836 739.692472 
L 499.849995 739.692472 
L 504.465154 739.692472 
L 509.080313 739.692472 
L 513.695472 739.692472 
L 518.310631 739.692472 
L 522.92579 739.692472 
" clip-path="url(#pee3bc83c9d)" style="fill: none; stroke: #2ca02c; stroke-width: 1.5; stroke-linecap: square"/>
   </g>
   <g id="line2d_65">
    <path d="M 66.025038 670.518625 
L 70.640197 670.518625 
L 75.255356 670.518625 
L 79.870515 670.518625 
L 84.485674 670.518625 
L 89.100833 670.518625 
L 93.715992 670.518625 
L 98.331151 670.518625 
L 102.946311 670.518625 
L 107.56147 670.518625 
L 112.176629 670.518625 
L 116.791788 670.518625 
L 121.406947 670.518625 
L 126.022106 670.518625 
L 130.637265 670.518625 
L 135.252424 670.518625 
L 139.867584 670.518625 
L 144.482743 670.518625 
L 149.097902 670.518625 
L 153.713061 670.518625 
L 158.32822 670.518625 
L 162.943379 670.518625 
L 167.558538 670.518625 
L 172.173697 670.518625 
L 176.788856 670.518625 
L 181.404016 670.518625 
L 186.019175 670.518625 
L 190.634334 670.518625 
L 195.249493 670.518625 
L 199.864652 670.518625 
L 204.479811 670.518625 
L 209.09497 670.518625 
L 213.710129 670.518625 
L 218.325289 670.518625 
L 222.940448 670.518625 
L 227.555607 670.518625 
L 232.170766 670.518625 
L 236.785925 670.518625 
L 241.401084 670.518625 
L 246.016243 670.518625 
L 250.631402 670.518625 
L 255.246561 670.518625 
L 259.861721 670.518625 
L 264.47688 670.518625 
L 269.092039 670.518625 
L 273.707198 670.518625 
L 278.322357 670.518625 
L 282.937516 670.518625 
L 287.552675 670.518625 
L 292.167834 670.518625 
L 296.782994 670.518625 
L 301.398153 670.518625 
L 306.013312 670.518625 
L 310.628471 670.518625 
L 315.24363 670.518625 
L 319.858789 670.518625 
L 324.473948 670.518625 
L 329.089107 670.518625 
L 333.704266 670.518625 
L 338.319426 670.518625 
L 342.934585 670.518625 
L 347.549744 670.518625 
L 352.164903 670.518625 
L 356.780062 670.518625 
L 361.395221 670.518625 
L 366.01038 670.518625 
L 370.625539 670.518625 
L 375.240699 670.518625 
L 379.855858 670.518625 
L 384.471017 670.518625 
L 389.086176 670.518625 
L 393.701335 670.518625 
L 398.316494 670.518625 
L 402.931653 670.518625 
L 407.546812 670.518625 
L 412.161971 670.518625 
L 416.777131 670.518625 
L 421.39229 670.518625 
L 426.007449 670.518625 
L 430.622608 670.518625 
L 435.237767 670.518625 
L 444.468085 670.518625 
L 449.083244 670.518625 
L 453.698404 670.518625 
L 458.313563 670.518625 
L 462.928722 670.518625 
L 467.543881 670.518625 
L 472.15904 670.518625 
L 476.774199 670.518625 
L 481.389358 670.518625 
L 486.004517 670.518625 
L 490.619676 670.518625 
L 495.234836 670.518625 
L 499.849995 670.518625 
L 504.465154 670.518625 
L 509.080313 670.518625 
L 513.695472 670.518625 
L 518.310631 670.518625 
L 522.92579 670.518625 
" clip-path="url(#pee3bc83c9d)" style="fill: none; stroke: #d62728; stroke-width: 1.5; stroke-linecap: square"/>
   </g>
   <g id="patch_15">
    <path d="M 43.18 794.545464 
L 43.18 595.68 
" style="fill: none; stroke: #000000; stroke-width: 0.8; stroke-linejoin: miter; stroke-linecap: square"/>
   </g>
   <g id="patch_16">
    <path d="M 545.770828 794.545464 
L 545.770828 595.68 
" style="fill: none; stroke: #000000; stroke-width: 0.8; stroke-linejoin: miter; stroke-linecap: square"/>
   </g>
   <g id="patch_17">
    <path d="M 43.18 794.545464 
L 545.770828 794.545464 
" style="fill: none; stroke: #000000; stroke-width: 0.8; stroke-linejoin: miter; stroke-linecap: square"/>
   </g>
   <g id="patch_18">
    <path d="M 43.18 595.68 
L 545.770828 595.68 
" style="fill: none; stroke: #000000; stroke-width: 0.8; stroke-linejoin: miter; stroke-linecap: square"/>
   </g>
   <g id="text_61">
    <!-- HP 15-fd0007nm -->
    <g transform="translate(243.800726 589.68) scale(0.12 -0.12)">
     <defs>
      <path id="DejaVuSans-48" d="M 628 4666 
L 1259 4666 
L 1259 2753 
L 3553 2753 
L 3553 4666 
L 4184 4666 
L 4184 0 
L 3553 0 
L 3553 2222 
L 1259 2222 
L 1259 0 
L 628 0 
L 628 4666 
z
" transform="scale(0.015625)"/>
     </defs>
     <use xlink:href="#DejaVuSans-48"/>
     <use xlink:href="#DejaVuSans-50" x="75.195312"/>
     <use xlink:href="#DejaVuSans-20" x="135.498047"/>
     <use xlink:href="#DejaVuSans-31" x="167.285156"/>
     <use xlink:href="#DejaVuSans-35" x="230.908203"/>
     <use xlink:href="#DejaVuSans-2d" x="294.53125"/>
     <use xlink:href="#DejaVuSans-66" x="330.615234"/>
     <use xlink:href="#DejaVuSans-64" x="365.820312"/>
     <use xlink:href="#DejaVuSans-30" x="429.296875"/>
     <use xlink:href="#DejaVuSans-30" x="492.919922"/>
     <use xlink:href="#DejaVuSans-30" x="556.542969"/>
     <use xlink:href="#DejaVuSans-37" x="620.166016"/>
     <use xlink:href="#DejaVuSans-6e" x="683.789062"/>
     <use xlink:href="#DejaVuSans-6d" x="747.167969"/>
    </g>
   </g>
   <g id="legend_3">
    <g id="patch_19">
     <path d="M 404.688015 789.545464 
L 538.770828 789.545464 
Q 540.770828 789.545464 540.770828 787.545464 
L 540.770828 715.154839 
Q 540.770828 713.154839 538.770828 713.154839 
L 404.688015 713.154839 
Q 402.688015 713.154839 402.688015 715.154839 
L 402.688015 787.545464 
Q 402.688015 789.545464 404.688015 789.545464 
z
" style="fill: #ffffff; opacity: 0.8; stroke: #cccccc; stroke-linejoin: miter"/>
    </g>
    <g id="text_62">
     <!-- source -->
     <g transform="translate(455.127859 724.753276) scale(0.1 -0.1)">
      <use xlink:href="#DejaVuSans-73"/>
      <use xlink:href="#DejaVuSans-6f" x="52.099609"/>
      <use xlink:href="#DejaVuSans-75" x="113.28125"/>
      <use xlink:href="#DejaVuSans-72" x="176.660156"/>
      <use xlink:href="#DejaVuSans-63" x="215.523438"/>
      <use xlink:href="#DejaVuSans-65" x="270.503906"/>
     </g>
    </g>
    <g id="line2d_66">
     <path d="M 406.688015 735.931401 
L 416.688015 735.931401 
L 426.688015 735.931401 
" style="fill: none; stroke: #1f77b4; stroke-width: 1.5; stroke-linecap: square"/>
    </g>
    <g id="text_63">
     <!-- instar-informatika.hr -->
     <g transform="translate(434.688015 739.431401) scale(0.1 -0.1)">
      <use xlink:href="#DejaVuSans-69"/>
      <use xlink:href="#DejaVuSans-6e" x="27.783203"/>
      <use xlink:href="#DejaVuSans-73" x="91.162109"/>
      <use xlink:href="#DejaVuSans-74" x="143.261719"/>
      <use xlink:href="#DejaVuSans-61" x="182.470703"/>
      <use xlink:href="#DejaVuSans-72" x="243.75"/>
      <use xlink:href="#DejaVuSans-2d" x="278.488281"/>
      <use xlink:href="#DejaVuSans-69" x="314.572266"/>
      <use xlink:href="#DejaVuSans-6e" x="342.355469"/>
      <use xlink:href="#DejaVuSans-66" x="405.734375"/>
      <use xlink:href="#DejaVuSans-6f" x="440.939453"/>
      <use xlink:href="#DejaVuSans-72" x="502.121094"/>
      <use xlink:href="#DejaVuSans-6d" x="541.484375"/>
      <use xlink:href="#DejaVuSans-61" x="638.896484"/>
      <use xlink:href="#DejaVuSans-74" x="700.175781"/>
      <use xlink:href="#DejaVuSans-69" x="739.384766"/>
      <use xlink:href="#DejaVuSans-6b" x="767.167969"/>
      <use xlink:href="#DejaVuSans-61" x="823.328125"/>
      <use xlink:href="#DejaVuSans-2e" x="884.607422"/>
      <use xlink:href="#DejaVuSans-68" x="916.394531"/>
      <use xlink:href="#DejaVuSans-72" x="979.773438"/>
     </g>
    </g>
    <g id="line2d_67">
     <path d="M 406.688015 750.609526 
L 416.688015 750.609526 
L 426.688015 750.609526 
" style="fill: none; stroke: #ff7f0e; stroke-width: 1.5; stroke-linecap: square"/>
    </g>
    <g id="text_64">
     <!-- links.hr -->
     <g transform="translate(434.688015 754.109526) scale(0.1 -0.1)">
      <use xlink:href="#DejaVuSans-6c"/>
      <use xlink:href="#DejaVuSans-69" x="27.783203"/>
      <use xlink:href="#DejaVuSans-6e" x="55.566406"/>
      <use xlink:href="#DejaVuSans-6b" x="118.945312"/>
      <use xlink:href="#DejaVuSans-73" x="176.855469"/>
      <use xlink:href="#DejaVuSans-2e" x="228.955078"/>
      <use xlink:href="#DejaVuSans-68" x="260.742188"/>
      <use xlink:href="#DejaVuSans-72" x="324.121094"/>
     </g>
    </g>
    <g id="line2d_68">
     <path d="M 406.688015 765.287651 
L 416.688015 765.287651 
L 426.688015 765.287651 
" style="fill: none; stroke: #2ca02c; stroke-width: 1.5; stroke-linecap: square"/>
    </g>
    <g id="text_65">
     <!-- mikronis.hr -->
     <g transform="translate(434.688015 768.787651) scale(0.1 -0.1)">
      <use xlink:href="#DejaVuSans-6d"/>
      <use xlink:href="#DejaVuSans-69" x="97.412109"/>
      <use xlink:href="#DejaVuSans-6b" x="125.195312"/>
      <use xlink:href="#DejaVuSans-72" x="183.105469"/>
      <use xlink:href="#DejaVuSans-6f" x="221.96875"/>
      <use xlink:href="#DejaVuSans-6e" x="283.150391"/>
      <use xlink:href="#DejaVuSans-69" x="346.529297"/>
      <use xlink:href="#DejaVuSans-73" x="374.3125"/>
      <use xlink:href="#DejaVuSans-2e" x="426.412109"/>
      <use xlink:href="#DejaVuSans-68" x="458.199219"/>
      <use xlink:href="#DejaVuSans-72" x="521.578125"/>
     </g>
    </g>
    <g id="line2d_69">
     <path d="M 406.688015 779.965776 
L 416.688015 779.965776 
L 426.688015 779.965776 
" style="fill: none; stroke: #d62728; stroke-width: 1.5; stroke-linecap: square"/>
    </g>
    <g id="text_66">
     <!-- nabava.net -->
     <g transform="translate(434.688015 783.465776) scale(0.1 -0.1)">
      <use xlink:href="#DejaVuSans-6e"/>
      <use xlink:href="#DejaVuSans-61" x="63.378906"/>
      <use xlink:href="#DejaVuSans-62" x="124.658203"/>
      <use xlink:href="#DejaVuSans-61" x="188.134766"/>
      <use xlink:href="#DejaVuSans-76" x="249.414062"/>
      <use xlink:href="#DejaVuSans-61" x="308.59375"/>
      <use xlink:href="#DejaVuSans-2e" x="369.873047"/>
      <use xlink:href="#DejaVuSans-6e" x="401.660156"/>
      <use xlink:href="#DejaVuSans-65" x="465.039062"/>
      <use xlink:href="#DejaVuSans-74" x="526.5625"/>
     </g>
    </g>
   </g>
  </g>
 </g>
 <defs>
  <clipPath id="pe3101d0d40">
   <rect x="43.18" y="26.88" width="502.590828" height="198.865464"/>
  </clipPath>
  <clipPath id="p26f9115fd9">
   <rect x="43.18" y="311.28" width="502.590828" height="198.865464"/>
  </clipPath>
  <clipPath id="pee3bc83c9d">
   <rect x="43.18" y="595.68" width="502.590828" height="198.865464"/>
  </clipPath>
 </defs>
</svg>
