<?xml version="1.0" encoding="utf-8" standalone="no"?>
<!DOCTYPE svg PUBLIC "-//W3C//DTD SVG 1.1//EN"
  "http://www.w3.org/Graphics/SVG/1.1/DTD/svg11.dtd">
<svg xmlns:xlink="http://www.w3.org/1999/xlink" width="576pt" height="864pt" viewBox="0 0 576 864" xmlns="http://www.w3.org/2000/svg" version="1.1">
 <metadata>
  <rdf:RDF xmlns:dc="http://purl.org/dc/elements/1.1/" xmlns:cc="http://creativecommons.org/ns#" xmlns:rdf="http://www.w3.org/1999/02/22-rdf-syntax-ns#">
   <cc:Work>
    <dc:type rdf:resource="http://purl.org/dc/dcmitype/StillImage"/>
    <dc:date>2024-02-10T00:38:57.283357</dc:date>
    <dc:format>image/svg+xml</dc:format>
    <dc:creator>
     <cc:Agent>
      <dc:title>Matplotlib v3.8.2, https://matplotlib.org/</dc:title>
     </cc:Agent>
    </dc:creator>
   </cc:Work>
  </rdf:RDF>
 </metadata>
 <defs>
  <style type="text/css">*{stroke-linejoin: round; stroke-linecap: butt}</style>
 </defs>
 <g id="figure_1">
  <g id="patch_1">
   <path d="M 0 864 
L 576 864 
L 576 0 
L 0 0 
z
" style="fill: #ffffff"/>
  </g>
  <g id="axes_1">
   <g id="patch_2">
    <path d="M 43.18 225.745464 
L 538.557859 225.745464 
L 538.557859 26.88 
L 43.18 26.88 
z
" style="fill: #ffffff"/>
   </g>
   <g id="matplotlib.axis_1">
    <g id="xtick_1">
     <g id="line2d_1">
      <defs>
       <path id="m0f60ca23df" d="M 0 0 
L 0 3.5 
" style="stroke: #000000; stroke-width: 0.8"/>
      </defs>
      <g>
       <use xlink:href="#m0f60ca23df" x="78.687854" y="225.745464" style="stroke: #000000; stroke-width: 0.8"/>
      </g>
     </g>
     <g id="text_1">
      <!-- 2023-11-01 -->
      <g transform="translate(54.902737 268.383716) rotate(-30) scale(0.1 -0.1)">
       <defs>
        <path id="DejaVuSans-32" d="M 1228 531 
L 3431 531 
L 3431 0 
L 469 0 
L 469 531 
Q 828 903 1448 1529 
Q 2069 2156 2228 2338 
Q 2531 2678 2651 2914 
Q 2772 3150 2772 3378 
Q 2772 3750 2511 3984 
Q 2250 4219 1831 4219 
Q 1534 4219 1204 4116 
Q 875 4013 500 3803 
L 500 4441 
Q 881 4594 1212 4672 
Q 1544 4750 1819 4750 
Q 2544 4750 2975 4387 
Q 3406 4025 3406 3419 
Q 3406 3131 3298 2873 
Q 3191 2616 2906 2266 
Q 2828 2175 2409 1742 
Q 1991 1309 1228 531 
z
" transform="scale(0.015625)"/>
        <path id="DejaVuSans-30" d="M 2034 4250 
Q 1547 4250 1301 3770 
Q 1056 3291 1056 2328 
Q 1056 1369 1301 889 
Q 1547 409 2034 409 
Q 2525 409 2770 889 
Q 3016 1369 3016 2328 
Q 3016 3291 2770 3770 
Q 2525 4250 2034 4250 
z
M 2034 4750 
Q 2819 4750 3233 4129 
Q 3647 3509 3647 2328 
Q 3647 1150 3233 529 
Q 2819 -91 2034 -91 
Q 1250 -91 836 529 
Q 422 1150 422 2328 
Q 422 3509 836 4129 
Q 1250 4750 2034 4750 
z
" transform="scale(0.015625)"/>
        <path id="DejaVuSans-33" d="M 2597 2516 
Q 3050 2419 3304 2112 
Q 3559 1806 3559 1356 
Q 3559 666 3084 287 
Q 2609 -91 1734 -91 
Q 1441 -91 1130 -33 
Q 819 25 488 141 
L 488 750 
Q 750 597 1062 519 
Q 1375 441 1716 441 
Q 2309 441 2620 675 
Q 2931 909 2931 1356 
Q 2931 1769 2642 2001 
Q 2353 2234 1838 2234 
L 1294 2234 
L 1294 2753 
L 1863 2753 
Q 2328 2753 2575 2939 
Q 2822 3125 2822 3475 
Q 2822 3834 2567 4026 
Q 2313 4219 1838 4219 
Q 1578 4219 1281 4162 
Q 984 4106 628 3988 
L 628 4550 
Q 988 4650 1302 4700 
Q 1616 4750 1894 4750 
Q 2613 4750 3031 4423 
Q 3450 4097 3450 3541 
Q 3450 3153 3228 2886 
Q 3006 2619 2597 2516 
z
" transform="scale(0.015625)"/>
        <path id="DejaVuSans-2d" d="M 313 2009 
L 1997 2009 
L 1997 1497 
L 313 1497 
L 313 2009 
z
" transform="scale(0.015625)"/>
        <path id="DejaVuSans-31" d="M 794 531 
L 1825 531 
L 1825 4091 
L 703 3866 
L 703 4441 
L 1819 4666 
L 2450 4666 
L 2450 531 
L 3481 531 
L 3481 0 
L 794 0 
L 794 531 
z
" transform="scale(0.015625)"/>
       </defs>
       <use xlink:href="#DejaVuSans-32"/>
       <use xlink:href="#DejaVuSans-30" x="63.623047"/>
       <use xlink:href="#DejaVuSans-32" x="127.246094"/>
       <use xlink:href="#DejaVuSans-33" x="190.869141"/>
       <use xlink:href="#DejaVuSans-2d" x="254.492188"/>
       <use xlink:href="#DejaVuSans-31" x="290.576172"/>
       <use xlink:href="#DejaVuSans-31" x="354.199219"/>
       <use xlink:href="#DejaVuSans-2d" x="417.822266"/>
       <use xlink:href="#DejaVuSans-30" x="453.90625"/>
       <use xlink:href="#DejaVuSans-31" x="517.529297"/>
      </g>
     </g>
    </g>
    <g id="xtick_2">
     <g id="line2d_2">
      <g>
       <use xlink:href="#m0f60ca23df" x="139.311018" y="225.745464" style="stroke: #000000; stroke-width: 0.8"/>
      </g>
     </g>
     <g id="text_2">
      <!-- 2023-11-15 -->
      <g transform="translate(115.525902 268.383716) rotate(-30) scale(0.1 -0.1)">
       <defs>
        <path id="DejaVuSans-35" d="M 691 4666 
L 3169 4666 
L 3169 4134 
L 1269 4134 
L 1269 2991 
Q 1406 3038 1543 3061 
Q 1681 3084 1819 3084 
Q 2600 3084 3056 2656 
Q 3513 2228 3513 1497 
Q 3513 744 3044 326 
Q 2575 -91 1722 -91 
Q 1428 -91 1123 -41 
Q 819 9 494 109 
L 494 744 
Q 775 591 1075 516 
Q 1375 441 1709 441 
Q 2250 441 2565 725 
Q 2881 1009 2881 1497 
Q 2881 1984 2565 2268 
Q 2250 2553 1709 2553 
Q 1456 2553 1204 2497 
Q 953 2441 691 2322 
L 691 4666 
z
" transform="scale(0.015625)"/>
       </defs>
       <use xlink:href="#DejaVuSans-32"/>
       <use xlink:href="#DejaVuSans-30" x="63.623047"/>
       <use xlink:href="#DejaVuSans-32" x="127.246094"/>
       <use xlink:href="#DejaVuSans-33" x="190.869141"/>
       <use xlink:href="#DejaVuSans-2d" x="254.492188"/>
       <use xlink:href="#DejaVuSans-31" x="290.576172"/>
       <use xlink:href="#DejaVuSans-31" x="354.199219"/>
       <use xlink:href="#DejaVuSans-2d" x="417.822266"/>
       <use xlink:href="#DejaVuSans-31" x="453.90625"/>
       <use xlink:href="#DejaVuSans-35" x="517.529297"/>
      </g>
     </g>
    </g>
    <g id="xtick_3">
     <g id="line2d_3">
      <g>
       <use xlink:href="#m0f60ca23df" x="208.594635" y="225.745464" style="stroke: #000000; stroke-width: 0.8"/>
      </g>
     </g>
     <g id="text_3">
      <!-- 2023-12-01 -->
      <g transform="translate(184.809518 268.383716) rotate(-30) scale(0.1 -0.1)">
       <use xlink:href="#DejaVuSans-32"/>
       <use xlink:href="#DejaVuSans-30" x="63.623047"/>
       <use xlink:href="#DejaVuSans-32" x="127.246094"/>
       <use xlink:href="#DejaVuSans-33" x="190.869141"/>
       <use xlink:href="#DejaVuSans-2d" x="254.492188"/>
       <use xlink:href="#DejaVuSans-31" x="290.576172"/>
       <use xlink:href="#DejaVuSans-32" x="354.199219"/>
       <use xlink:href="#DejaVuSans-2d" x="417.822266"/>
       <use xlink:href="#DejaVuSans-30" x="453.90625"/>
       <use xlink:href="#DejaVuSans-31" x="517.529297"/>
      </g>
     </g>
    </g>
    <g id="xtick_4">
     <g id="line2d_4">
      <g>
       <use xlink:href="#m0f60ca23df" x="269.217799" y="225.745464" style="stroke: #000000; stroke-width: 0.8"/>
      </g>
     </g>
     <g id="text_4">
      <!-- 2023-12-15 -->
      <g transform="translate(245.432683 268.383716) rotate(-30) scale(0.1 -0.1)">
       <use xlink:href="#DejaVuSans-32"/>
       <use xlink:href="#DejaVuSans-30" x="63.623047"/>
       <use xlink:href="#DejaVuSans-32" x="127.246094"/>
       <use xlink:href="#DejaVuSans-33" x="190.869141"/>
       <use xlink:href="#DejaVuSans-2d" x="254.492188"/>
       <use xlink:href="#DejaVuSans-31" x="290.576172"/>
       <use xlink:href="#DejaVuSans-32" x="354.199219"/>
       <use xlink:href="#DejaVuSans-2d" x="417.822266"/>
       <use xlink:href="#DejaVuSans-31" x="453.90625"/>
       <use xlink:href="#DejaVuSans-35" x="517.529297"/>
      </g>
     </g>
    </g>
    <g id="xtick_5">
     <g id="line2d_5">
      <g>
       <use xlink:href="#m0f60ca23df" x="342.831642" y="225.745464" style="stroke: #000000; stroke-width: 0.8"/>
      </g>
     </g>
     <g id="text_5">
      <!-- 2024-01-01 -->
      <g transform="translate(319.046526 268.383716) rotate(-30) scale(0.1 -0.1)">
       <defs>
        <path id="DejaVuSans-34" d="M 2419 4116 
L 825 1625 
L 2419 1625 
L 2419 4116 
z
M 2253 4666 
L 3047 4666 
L 3047 1625 
L 3713 1625 
L 3713 1100 
L 3047 1100 
L 3047 0 
L 2419 0 
L 2419 1100 
L 313 1100 
L 313 1709 
L 2253 4666 
z
" transform="scale(0.015625)"/>
       </defs>
       <use xlink:href="#DejaVuSans-32"/>
       <use xlink:href="#DejaVuSans-30" x="63.623047"/>
       <use xlink:href="#DejaVuSans-32" x="127.246094"/>
       <use xlink:href="#DejaVuSans-34" x="190.869141"/>
       <use xlink:href="#DejaVuSans-2d" x="254.492188"/>
       <use xlink:href="#DejaVuSans-30" x="290.576172"/>
       <use xlink:href="#DejaVuSans-31" x="354.199219"/>
       <use xlink:href="#DejaVuSans-2d" x="417.822266"/>
       <use xlink:href="#DejaVuSans-30" x="453.90625"/>
       <use xlink:href="#DejaVuSans-31" x="517.529297"/>
      </g>
     </g>
    </g>
    <g id="xtick_6">
     <g id="line2d_6">
      <g>
       <use xlink:href="#m0f60ca23df" x="403.454807" y="225.745464" style="stroke: #000000; stroke-width: 0.8"/>
      </g>
     </g>
     <g id="text_6">
      <!-- 2024-01-15 -->
      <g transform="translate(379.66969 268.383716) rotate(-30) scale(0.1 -0.1)">
       <use xlink:href="#DejaVuSans-32"/>
       <use xlink:href="#DejaVuSans-30" x="63.623047"/>
       <use xlink:href="#DejaVuSans-32" x="127.246094"/>
       <use xlink:href="#DejaVuSans-34" x="190.869141"/>
       <use xlink:href="#DejaVuSans-2d" x="254.492188"/>
       <use xlink:href="#DejaVuSans-30" x="290.576172"/>
       <use xlink:href="#DejaVuSans-31" x="354.199219"/>
       <use xlink:href="#DejaVuSans-2d" x="417.822266"/>
       <use xlink:href="#DejaVuSans-31" x="453.90625"/>
       <use xlink:href="#DejaVuSans-35" x="517.529297"/>
      </g>
     </g>
    </g>
    <g id="xtick_7">
     <g id="line2d_7">
      <g>
       <use xlink:href="#m0f60ca23df" x="477.068649" y="225.745464" style="stroke: #000000; stroke-width: 0.8"/>
      </g>
     </g>
     <g id="text_7">
      <!-- 2024-02-01 -->
      <g transform="translate(453.283533 268.383716) rotate(-30) scale(0.1 -0.1)">
       <use xlink:href="#DejaVuSans-32"/>
       <use xlink:href="#DejaVuSans-30" x="63.623047"/>
       <use xlink:href="#DejaVuSans-32" x="127.246094"/>
       <use xlink:href="#DejaVuSans-34" x="190.869141"/>
       <use xlink:href="#DejaVuSans-2d" x="254.492188"/>
       <use xlink:href="#DejaVuSans-30" x="290.576172"/>
       <use xlink:href="#DejaVuSans-32" x="354.199219"/>
       <use xlink:href="#DejaVuSans-2d" x="417.822266"/>
       <use xlink:href="#DejaVuSans-30" x="453.90625"/>
       <use xlink:href="#DejaVuSans-31" x="517.529297"/>
      </g>
     </g>
    </g>
    <g id="xtick_8">
     <g id="line2d_8">
      <g>
       <use xlink:href="#m0f60ca23df" x="537.691814" y="225.745464" style="stroke: #000000; stroke-width: 0.8"/>
      </g>
     </g>
     <g id="text_8">
      <!-- 2024-02-15 -->
      <g transform="translate(513.906698 268.383716) rotate(-30) scale(0.1 -0.1)">
       <use xlink:href="#DejaVuSans-32"/>
       <use xlink:href="#DejaVuSans-30" x="63.623047"/>
       <use xlink:href="#DejaVuSans-32" x="127.246094"/>
       <use xlink:href="#DejaVuSans-34" x="190.869141"/>
       <use xlink:href="#DejaVuSans-2d" x="254.492188"/>
       <use xlink:href="#DejaVuSans-30" x="290.576172"/>
       <use xlink:href="#DejaVuSans-32" x="354.199219"/>
       <use xlink:href="#DejaVuSans-2d" x="417.822266"/>
       <use xlink:href="#DejaVuSans-31" x="453.90625"/>
       <use xlink:href="#DejaVuSans-35" x="517.529297"/>
      </g>
     </g>
    </g>
    <g id="text_9">
     <!-- Price date -->
     <g transform="translate(265.807211 281.783216) scale(0.1 -0.1)">
      <defs>
       <path id="DejaVuSans-50" d="M 1259 4147 
L 1259 2394 
L 2053 2394 
Q 2494 2394 2734 2622 
Q 2975 2850 2975 3272 
Q 2975 3691 2734 3919 
Q 2494 4147 2053 4147 
L 1259 4147 
z
M 628 4666 
L 2053 4666 
Q 2838 4666 3239 4311 
Q 3641 3956 3641 3272 
Q 3641 2581 3239 2228 
Q 2838 1875 2053 1875 
L 1259 1875 
L 1259 0 
L 628 0 
L 628 4666 
z
" transform="scale(0.015625)"/>
       <path id="DejaVuSans-72" d="M 2631 2963 
Q 2534 3019 2420 3045 
Q 2306 3072 2169 3072 
Q 1681 3072 1420 2755 
Q 1159 2438 1159 1844 
L 1159 0 
L 581 0 
L 581 3500 
L 1159 3500 
L 1159 2956 
Q 1341 3275 1631 3429 
Q 1922 3584 2338 3584 
Q 2397 3584 2469 3576 
Q 2541 3569 2628 3553 
L 2631 2963 
z
" transform="scale(0.015625)"/>
       <path id="DejaVuSans-69" d="M 603 3500 
L 1178 3500 
L 1178 0 
L 603 0 
L 603 3500 
z
M 603 4863 
L 1178 4863 
L 1178 4134 
L 603 4134 
L 603 4863 
z
" transform="scale(0.015625)"/>
       <path id="DejaVuSans-63" d="M 3122 3366 
L 3122 2828 
Q 2878 2963 2633 3030 
Q 2388 3097 2138 3097 
Q 1578 3097 1268 2742 
Q 959 2388 959 1747 
Q 959 1106 1268 751 
Q 1578 397 2138 397 
Q 2388 397 2633 464 
Q 2878 531 3122 666 
L 3122 134 
Q 2881 22 2623 -34 
Q 2366 -91 2075 -91 
Q 1284 -91 818 406 
Q 353 903 353 1747 
Q 353 2603 823 3093 
Q 1294 3584 2113 3584 
Q 2378 3584 2631 3529 
Q 2884 3475 3122 3366 
z
" transform="scale(0.015625)"/>
       <path id="DejaVuSans-65" d="M 3597 1894 
L 3597 1613 
L 953 1613 
Q 991 1019 1311 708 
Q 1631 397 2203 397 
Q 2534 397 2845 478 
Q 3156 559 3463 722 
L 3463 178 
Q 3153 47 2828 -22 
Q 2503 -91 2169 -91 
Q 1331 -91 842 396 
Q 353 884 353 1716 
Q 353 2575 817 3079 
Q 1281 3584 2069 3584 
Q 2775 3584 3186 3129 
Q 3597 2675 3597 1894 
z
M 3022 2063 
Q 3016 2534 2758 2815 
Q 2500 3097 2075 3097 
Q 1594 3097 1305 2825 
Q 1016 2553 972 2059 
L 3022 2063 
z
" transform="scale(0.015625)"/>
       <path id="DejaVuSans-20" transform="scale(0.015625)"/>
       <path id="DejaVuSans-64" d="M 2906 2969 
L 2906 4863 
L 3481 4863 
L 3481 0 
L 2906 0 
L 2906 525 
Q 2725 213 2448 61 
Q 2172 -91 1784 -91 
Q 1150 -91 751 415 
Q 353 922 353 1747 
Q 353 2572 751 3078 
Q 1150 3584 1784 3584 
Q 2172 3584 2448 3432 
Q 2725 3281 2906 2969 
z
M 947 1747 
Q 947 1113 1208 752 
Q 1469 391 1925 391 
Q 2381 391 2643 752 
Q 2906 1113 2906 1747 
Q 2906 2381 2643 2742 
Q 2381 3103 1925 3103 
Q 1469 3103 1208 2742 
Q 947 2381 947 1747 
z
" transform="scale(0.015625)"/>
       <path id="DejaVuSans-61" d="M 2194 1759 
Q 1497 1759 1228 1600 
Q 959 1441 959 1056 
Q 959 750 1161 570 
Q 1363 391 1709 391 
Q 2188 391 2477 730 
Q 2766 1069 2766 1631 
L 2766 1759 
L 2194 1759 
z
M 3341 1997 
L 3341 0 
L 2766 0 
L 2766 531 
Q 2569 213 2275 61 
Q 1981 -91 1556 -91 
Q 1019 -91 701 211 
Q 384 513 384 1019 
Q 384 1609 779 1909 
Q 1175 2209 1959 2209 
L 2766 2209 
L 2766 2266 
Q 2766 2663 2505 2880 
Q 2244 3097 1772 3097 
Q 1472 3097 1187 3025 
Q 903 2953 641 2809 
L 641 3341 
Q 956 3463 1253 3523 
Q 1550 3584 1831 3584 
Q 2591 3584 2966 3190 
Q 3341 2797 3341 1997 
z
" transform="scale(0.015625)"/>
       <path id="DejaVuSans-74" d="M 1172 4494 
L 1172 3500 
L 2356 3500 
L 2356 3053 
L 1172 3053 
L 1172 1153 
Q 1172 725 1289 603 
Q 1406 481 1766 481 
L 2356 481 
L 2356 0 
L 1766 0 
Q 1100 0 847 248 
Q 594 497 594 1153 
L 594 3053 
L 172 3053 
L 172 3500 
L 594 3500 
L 594 4494 
L 1172 4494 
z
" transform="scale(0.015625)"/>
      </defs>
      <use xlink:href="#DejaVuSans-50"/>
      <use xlink:href="#DejaVuSans-72" x="58.552734"/>
      <use xlink:href="#DejaVuSans-69" x="99.666016"/>
      <use xlink:href="#DejaVuSans-63" x="127.449219"/>
      <use xlink:href="#DejaVuSans-65" x="182.429688"/>
      <use xlink:href="#DejaVuSans-20" x="243.953125"/>
      <use xlink:href="#DejaVuSans-64" x="275.740234"/>
      <use xlink:href="#DejaVuSans-61" x="339.216797"/>
      <use xlink:href="#DejaVuSans-74" x="400.496094"/>
      <use xlink:href="#DejaVuSans-65" x="439.705078"/>
     </g>
    </g>
   </g>
   <g id="matplotlib.axis_2">
    <g id="ytick_1">
     <g id="line2d_9">
      <defs>
       <path id="mb36159177c" d="M 0 0 
L -3.5 0 
" style="stroke: #000000; stroke-width: 0.8"/>
      </defs>
      <g>
       <use xlink:href="#mb36159177c" x="43.18" y="215.968219" style="stroke: #000000; stroke-width: 0.8"/>
      </g>
     </g>
     <g id="text_10">
      <!-- 1150 -->
      <g transform="translate(10.73 219.767438) scale(0.1 -0.1)">
       <use xlink:href="#DejaVuSans-31"/>
       <use xlink:href="#DejaVuSans-31" x="63.623047"/>
       <use xlink:href="#DejaVuSans-35" x="127.246094"/>
       <use xlink:href="#DejaVuSans-30" x="190.869141"/>
      </g>
     </g>
    </g>
    <g id="ytick_2">
     <g id="line2d_10">
      <g>
       <use xlink:href="#mb36159177c" x="43.18" y="179.072957" style="stroke: #000000; stroke-width: 0.8"/>
      </g>
     </g>
     <g id="text_11">
      <!-- 1200 -->
      <g transform="translate(10.73 182.872176) scale(0.1 -0.1)">
       <use xlink:href="#DejaVuSans-31"/>
       <use xlink:href="#DejaVuSans-32" x="63.623047"/>
       <use xlink:href="#DejaVuSans-30" x="127.246094"/>
       <use xlink:href="#DejaVuSans-30" x="190.869141"/>
      </g>
     </g>
    </g>
    <g id="ytick_3">
     <g id="line2d_11">
      <g>
       <use xlink:href="#mb36159177c" x="43.18" y="142.177695" style="stroke: #000000; stroke-width: 0.8"/>
      </g>
     </g>
     <g id="text_12">
      <!-- 1250 -->
      <g transform="translate(10.73 145.976914) scale(0.1 -0.1)">
       <use xlink:href="#DejaVuSans-31"/>
       <use xlink:href="#DejaVuSans-32" x="63.623047"/>
       <use xlink:href="#DejaVuSans-35" x="127.246094"/>
       <use xlink:href="#DejaVuSans-30" x="190.869141"/>
      </g>
     </g>
    </g>
    <g id="ytick_4">
     <g id="line2d_12">
      <g>
       <use xlink:href="#mb36159177c" x="43.18" y="105.282432" style="stroke: #000000; stroke-width: 0.8"/>
      </g>
     </g>
     <g id="text_13">
      <!-- 1300 -->
      <g transform="translate(10.73 109.081651) scale(0.1 -0.1)">
       <use xlink:href="#DejaVuSans-31"/>
       <use xlink:href="#DejaVuSans-33" x="63.623047"/>
       <use xlink:href="#DejaVuSans-30" x="127.246094"/>
       <use xlink:href="#DejaVuSans-30" x="190.869141"/>
      </g>
     </g>
    </g>
    <g id="ytick_5">
     <g id="line2d_13">
      <g>
       <use xlink:href="#mb36159177c" x="43.18" y="68.38717" style="stroke: #000000; stroke-width: 0.8"/>
      </g>
     </g>
     <g id="text_14">
      <!-- 1350 -->
      <g transform="translate(10.73 72.186389) scale(0.1 -0.1)">
       <use xlink:href="#DejaVuSans-31"/>
       <use xlink:href="#DejaVuSans-33" x="63.623047"/>
       <use xlink:href="#DejaVuSans-35" x="127.246094"/>
       <use xlink:href="#DejaVuSans-30" x="190.869141"/>
      </g>
     </g>
    </g>
    <g id="ytick_6">
     <g id="line2d_14">
      <g>
       <use xlink:href="#mb36159177c" x="43.18" y="31.491908" style="stroke: #000000; stroke-width: 0.8"/>
      </g>
     </g>
     <g id="text_15">
      <!-- 1400 -->
      <g transform="translate(10.73 35.291127) scale(0.1 -0.1)">
       <use xlink:href="#DejaVuSans-31"/>
       <use xlink:href="#DejaVuSans-34" x="63.623047"/>
       <use xlink:href="#DejaVuSans-30" x="127.246094"/>
       <use xlink:href="#DejaVuSans-30" x="190.869141"/>
      </g>
     </g>
    </g>
   </g>
   <g id="line2d_15">
    <path d="M 96.008758 149.564126 
L 100.338984 149.564126 
L 104.66921 149.564126 
L 108.999436 149.564126 
L 113.329662 149.564126 
L 117.659888 149.564126 
L 121.990114 149.564126 
L 126.32034 149.564126 
L 130.650566 149.564126 
L 134.980792 149.564126 
L 139.311018 149.564126 
L 143.641244 149.564126 
L 147.97147 149.564126 
L 152.301696 149.564126 
L 156.631922 149.564126 
L 160.962148 149.564126 
L 165.292374 149.564126 
L 169.6226 149.564126 
L 173.952826 149.564126 
L 178.283052 149.564126 
L 182.613279 149.564126 
L 186.943505 149.564126 
L 191.273731 149.564126 
L 195.603957 149.564126 
L 199.934183 149.564126 
L 204.264409 149.564126 
L 208.594635 149.564126 
L 212.924861 149.564126 
L 217.255087 149.564126 
L 221.585313 149.564126 
L 225.915539 149.564126 
L 230.245765 149.564126 
L 234.575991 149.564126 
L 238.906217 149.564126 
L 243.236443 149.564126 
L 247.566669 149.564126 
L 251.896895 149.564126 
L 256.227121 149.564126 
L 260.557347 149.564126 
L 264.887573 149.564126 
L 269.217799 149.564126 
L 273.548025 149.564126 
L 277.878251 149.564126 
L 282.208477 149.564126 
L 286.538704 149.564126 
L 290.86893 149.564126 
L 295.199156 149.564126 
L 299.529382 149.564126 
L 303.859608 149.564126 
L 308.189834 149.564126 
L 312.52006 149.564126 
L 316.850286 149.564126 
L 321.180512 149.564126 
L 325.510738 149.564126 
L 329.840964 149.564126 
L 334.17119 149.564126 
L 338.501416 149.564126 
L 342.831642 149.564126 
M 351.492094 149.564126 
L 355.82232 149.564126 
L 360.152546 149.564126 
L 364.482772 149.564126 
L 368.812998 149.564126 
L 373.143224 149.564126 
L 377.47345 149.564126 
L 381.803676 212.286072 
L 386.133902 212.286072 
L 390.464128 212.286072 
L 394.794355 212.286072 
L 399.124581 212.286072 
L 403.454807 212.286072 
L 407.785033 212.286072 
L 412.115259 212.286072 
L 416.445485 212.286072 
L 420.775711 212.286072 
L 425.105937 212.286072 
L 429.436163 212.286072 
L 433.766389 212.286072 
L 438.096615 212.286072 
L 442.426841 212.286072 
L 451.087293 212.286072 
L 455.417519 212.286072 
L 459.747745 212.286072 
L 464.077971 212.286072 
L 468.408197 212.286072 
L 472.738423 212.286072 
L 477.068649 212.286072 
L 481.398875 212.286072 
L 485.729101 212.286072 
L 490.059327 212.286072 
L 494.389553 212.286072 
L 498.71978 212.286072 
L 503.050006 212.286072 
L 507.380232 212.286072 
L 511.710458 212.286072 
L 516.040684 212.286072 
" clip-path="url(#p35b6db7922)" style="fill: none; stroke: #1f77b4; stroke-width: 1.5; stroke-linecap: square"/>
   </g>
   <g id="line2d_16">
    <path d="M 65.697175 35.919339 
L 96.008758 45.512107 
L 100.338984 45.512107 
L 104.66921 45.512107 
L 108.999436 45.512107 
L 113.329662 44.774202 
L 117.659888 45.512107 
L 121.990114 45.512107 
L 126.32034 45.512107 
L 130.650566 45.512107 
L 134.980792 45.512107 
L 139.311018 44.774202 
L 143.641244 45.512107 
L 147.97147 62.483928 
L 152.301696 62.483928 
L 156.631922 62.483928 
L 160.962148 62.483928 
L 165.292374 62.483928 
L 169.6226 62.483928 
L 173.952826 62.483928 
L 178.283052 62.483928 
L 182.613279 62.483928 
L 186.943505 62.483928 
L 191.273731 62.483928 
L 195.603957 58.794402 
L 199.934183 58.794402 
L 204.264409 36.657245 
L 208.594635 58.056497 
L 212.924861 58.056497 
L 217.255087 66.91136 
L 221.585313 66.91136 
L 225.915539 75.766223 
L 230.245765 75.766223 
L 234.575991 106.758243 
L 238.906217 106.758243 
L 243.236443 106.758243 
L 247.566669 106.758243 
L 251.896895 106.758243 
L 256.227121 92.000138 
L 260.557347 92.000138 
L 264.887573 92.000138 
L 269.217799 91.262233 
L 273.548025 91.262233 
L 277.878251 83.88318 
L 282.208477 83.88318 
L 286.538704 94.213854 
L 290.86893 92.000138 
L 295.199156 91.262233 
L 299.529382 91.262233 
L 303.859608 91.262233 
L 308.189834 91.262233 
L 312.52006 91.262233 
L 316.850286 91.262233 
L 321.180512 91.262233 
L 325.510738 92.000138 
L 329.840964 100.117096 
L 334.17119 100.117096 
L 338.501416 100.117096 
L 342.831642 100.117096 
L 347.161868 100.117096 
L 351.492094 100.117096 
L 355.82232 100.117096 
L 360.152546 92.000138 
L 364.482772 100.117096 
L 368.812998 100.117096 
L 373.143224 100.117096 
L 377.47345 92.000138 
L 381.803676 95.689664 
L 386.133902 100.117096 
L 390.464128 109.709864 
L 394.794355 109.709864 
L 399.124581 109.709864 
L 403.454807 109.709864 
L 407.785033 109.709864 
L 412.115259 109.709864 
L 416.445485 118.564727 
L 420.775711 127.41959 
L 425.105937 127.41959 
L 429.436163 127.41959 
L 433.766389 127.41959 
L 438.096615 127.41959 
L 442.426841 128.8954 
L 451.087293 136.274453 
M 498.71978 148.818842 
L 503.050006 148.818842 
L 507.380232 148.818842 
L 511.710458 145.129316 
L 516.040684 145.129316 
" clip-path="url(#p35b6db7922)" style="fill: none; stroke: #ff7f0e; stroke-width: 1.5; stroke-linecap: square"/>
   </g>
   <g id="line2d_17">
    <path d="M 96.008758 53.629065 
L 100.338984 53.629065 
L 104.66921 53.629065 
L 108.999436 53.629065 
L 113.329662 53.629065 
L 117.659888 53.629065 
L 121.990114 53.629065 
L 126.32034 53.629065 
L 130.650566 53.629065 
L 134.980792 53.629065 
L 139.311018 53.629065 
L 143.641244 53.629065 
L 147.97147 53.629065 
L 152.301696 53.629065 
L 156.631922 53.629065 
L 160.962148 53.629065 
L 165.292374 86.650325 
L 169.6226 86.650325 
L 173.952826 97.90338 
L 178.283052 97.90338 
L 182.613279 149.556747 
L 186.943505 149.556747 
L 191.273731 149.556747 
L 195.603957 97.90338 
L 199.934183 100.855001 
L 204.264409 89.786422 
L 208.594635 94.951759 
L 212.924861 94.951759 
L 217.255087 94.951759 
L 221.585313 94.951759 
L 225.915539 94.951759 
L 230.245765 94.951759 
L 234.575991 94.951759 
L 238.906217 128.8954 
L 243.236443 128.8954 
L 247.566669 128.8954 
L 251.896895 125.205874 
L 256.227121 111.185674 
L 260.557347 111.185674 
L 264.887573 111.185674 
L 269.217799 179.810862 
L 273.548025 120.040537 
L 277.878251 111.92358 
L 282.208477 111.92358 
L 286.538704 113.39939 
L 290.86893 113.39939 
L 295.199156 114.875201 
L 299.529382 114.875201 
L 303.859608 179.810862 
L 308.189834 120.040537 
L 312.52006 120.040537 
L 316.850286 120.040537 
L 321.180512 120.040537 
L 325.510738 120.040537 
L 329.840964 128.157495 
L 334.17119 123.730064 
L 338.501416 123.730064 
L 342.831642 123.730064 
L 347.161868 123.730064 
L 351.492094 123.730064 
L 355.82232 123.730064 
L 360.152546 120.040537 
L 364.482772 120.778443 
L 368.812998 120.778443 
L 373.143224 123.730064 
L 377.47345 128.157495 
L 381.803676 128.157495 
L 386.133902 106.020338 
L 390.464128 109.709864 
L 394.794355 113.39939 
L 399.124581 113.39939 
L 403.454807 113.39939 
L 407.785033 118.564727 
L 412.115259 118.564727 
L 416.445485 118.564727 
L 420.775711 127.41959 
L 425.105937 198.996399 
L 429.436163 201.94802 
L 433.766389 201.94802 
L 438.096615 131.109116 
L 442.426841 179.810862 
L 451.087293 177.781623 
L 455.417519 177.781623 
L 459.747745 177.781623 
L 464.077971 177.781623 
L 468.408197 113.39939 
L 472.738423 106.020338 
L 477.068649 156.751323 
L 481.398875 156.751323 
L 485.729101 156.751323 
L 490.059327 156.751323 
L 494.389553 156.751323 
L 498.71978 158.41161 
L 503.050006 158.41161 
L 507.380232 158.41161 
L 511.710458 158.41161 
L 516.040684 158.41161 
" clip-path="url(#p35b6db7922)" style="fill: none; stroke: #2ca02c; stroke-width: 1.5; stroke-linecap: square"/>
   </g>
   <g id="line2d_18">
    <path d="M 96.008758 54.36697 
L 100.338984 54.36697 
L 104.66921 54.36697 
L 108.999436 54.36697 
L 113.329662 54.36697 
L 117.659888 54.36697 
L 121.990114 54.36697 
L 126.32034 54.36697 
L 130.650566 54.36697 
L 134.980792 54.36697 
L 139.311018 54.36697 
L 143.641244 54.36697 
L 147.97147 83.88318 
L 152.301696 83.88318 
L 156.631922 83.88318 
L 160.962148 83.88318 
L 165.292374 83.88318 
L 169.6226 83.88318 
L 173.952826 54.36697 
L 178.283052 54.36697 
L 182.613279 120.778443 
L 186.943505 54.36697 
L 191.273731 54.36697 
L 195.603957 54.36697 
L 199.934183 54.36697 
L 204.264409 54.36697 
L 208.594635 54.36697 
L 212.924861 106.020338 
L 217.255087 106.020338 
L 221.585313 106.020338 
L 225.915539 106.020338 
L 230.245765 106.020338 
L 234.575991 48.153808 
L 238.906217 69.125075 
L 243.236443 69.125075 
L 247.566669 69.125075 
L 251.896895 69.125075 
L 256.227121 69.125075 
L 260.557347 69.125075 
L 264.887573 69.125075 
L 269.217799 69.125075 
L 273.548025 69.125075 
L 277.878251 69.125075 
L 282.208477 69.125075 
L 286.538704 69.125075 
L 290.86893 69.125075 
L 295.199156 69.125075 
L 299.529382 69.125075 
L 303.859608 69.125075 
L 308.189834 69.125075 
L 312.52006 69.125075 
L 316.850286 69.125075 
L 321.180512 69.125075 
L 325.510738 69.125075 
L 329.840964 69.125075 
L 334.17119 69.125075 
L 338.501416 69.125075 
L 342.831642 69.125075 
L 347.161868 69.125075 
L 351.492094 69.125075 
L 355.82232 69.125075 
L 360.152546 54.36697 
L 364.482772 83.88318 
L 368.812998 83.88318 
L 373.143224 83.88318 
L 377.47345 83.88318 
L 381.803676 83.88318 
L 386.133902 83.88318 
L 390.464128 54.36697 
L 394.794355 120.778443 
L 399.124581 120.778443 
L 403.454807 120.778443 
L 407.785033 120.778443 
L 412.115259 128.157495 
L 416.445485 54.36697 
L 420.775711 120.778443 
L 425.105937 120.778443 
L 429.436163 120.778443 
L 433.766389 120.778443 
L 438.096615 120.778443 
L 442.426841 120.778443 
L 451.087293 120.778443 
L 455.417519 120.778443 
L 459.747745 120.778443 
L 464.077971 120.778443 
L 468.408197 120.778443 
L 472.738423 120.778443 
L 477.068649 54.36697 
L 481.398875 120.778443 
L 485.729101 120.778443 
L 490.059327 120.778443 
L 494.389553 120.778443 
L 498.71978 120.778443 
L 503.050006 120.778443 
L 507.380232 54.36697 
L 511.710458 216.706125 
L 516.040684 216.706125 
" clip-path="url(#p35b6db7922)" style="fill: none; stroke: #d62728; stroke-width: 1.5; stroke-linecap: square"/>
   </g>
   <g id="patch_3">
    <path d="M 43.18 225.745464 
L 43.18 26.88 
" style="fill: none; stroke: #000000; stroke-width: 0.8; stroke-linejoin: miter; stroke-linecap: square"/>
   </g>
   <g id="patch_4">
    <path d="M 538.557859 225.745464 
L 538.557859 26.88 
" style="fill: none; stroke: #000000; stroke-width: 0.8; stroke-linejoin: miter; stroke-linecap: square"/>
   </g>
   <g id="patch_5">
    <path d="M 43.18 225.745464 
L 538.557859 225.745464 
" style="fill: none; stroke: #000000; stroke-width: 0.8; stroke-linejoin: miter; stroke-linecap: square"/>
   </g>
   <g id="patch_6">
    <path d="M 43.18 26.88 
L 538.557859 26.88 
" style="fill: none; stroke: #000000; stroke-width: 0.8; stroke-linejoin: miter; stroke-linecap: square"/>
   </g>
   <g id="text_16">
    <!-- Apple iPhone 15 Pro, 256GB -->
    <g transform="translate(206.631742 20.88) scale(0.12 -0.12)">
     <defs>
      <path id="DejaVuSans-41" d="M 2188 4044 
L 1331 1722 
L 3047 1722 
L 2188 4044 
z
M 1831 4666 
L 2547 4666 
L 4325 0 
L 3669 0 
L 3244 1197 
L 1141 1197 
L 716 0 
L 50 0 
L 1831 4666 
z
" transform="scale(0.015625)"/>
      <path id="DejaVuSans-70" d="M 1159 525 
L 1159 -1331 
L 581 -1331 
L 581 3500 
L 1159 3500 
L 1159 2969 
Q 1341 3281 1617 3432 
Q 1894 3584 2278 3584 
Q 2916 3584 3314 3078 
Q 3713 2572 3713 1747 
Q 3713 922 3314 415 
Q 2916 -91 2278 -91 
Q 1894 -91 1617 61 
Q 1341 213 1159 525 
z
M 3116 1747 
Q 3116 2381 2855 2742 
Q 2594 3103 2138 3103 
Q 1681 3103 1420 2742 
Q 1159 2381 1159 1747 
Q 1159 1113 1420 752 
Q 1681 391 2138 391 
Q 2594 391 2855 752 
Q 3116 1113 3116 1747 
z
" transform="scale(0.015625)"/>
      <path id="DejaVuSans-6c" d="M 603 4863 
L 1178 4863 
L 1178 0 
L 603 0 
L 603 4863 
z
" transform="scale(0.015625)"/>
      <path id="DejaVuSans-68" d="M 3513 2113 
L 3513 0 
L 2938 0 
L 2938 2094 
Q 2938 2591 2744 2837 
Q 2550 3084 2163 3084 
Q 1697 3084 1428 2787 
Q 1159 2491 1159 1978 
L 1159 0 
L 581 0 
L 581 4863 
L 1159 4863 
L 1159 2956 
Q 1366 3272 1645 3428 
Q 1925 3584 2291 3584 
Q 2894 3584 3203 3211 
Q 3513 2838 3513 2113 
z
" transform="scale(0.015625)"/>
      <path id="DejaVuSans-6f" d="M 1959 3097 
Q 1497 3097 1228 2736 
Q 959 2375 959 1747 
Q 959 1119 1226 758 
Q 1494 397 1959 397 
Q 2419 397 2687 759 
Q 2956 1122 2956 1747 
Q 2956 2369 2687 2733 
Q 2419 3097 1959 3097 
z
M 1959 3584 
Q 2709 3584 3137 3096 
Q 3566 2609 3566 1747 
Q 3566 888 3137 398 
Q 2709 -91 1959 -91 
Q 1206 -91 779 398 
Q 353 888 353 1747 
Q 353 2609 779 3096 
Q 1206 3584 1959 3584 
z
" transform="scale(0.015625)"/>
      <path id="DejaVuSans-6e" d="M 3513 2113 
L 3513 0 
L 2938 0 
L 2938 2094 
Q 2938 2591 2744 2837 
Q 2550 3084 2163 3084 
Q 1697 3084 1428 2787 
Q 1159 2491 1159 1978 
L 1159 0 
L 581 0 
L 581 3500 
L 1159 3500 
L 1159 2956 
Q 1366 3272 1645 3428 
Q 1925 3584 2291 3584 
Q 2894 3584 3203 3211 
Q 3513 2838 3513 2113 
z
" transform="scale(0.015625)"/>
      <path id="DejaVuSans-2c" d="M 750 794 
L 1409 794 
L 1409 256 
L 897 -744 
L 494 -744 
L 750 256 
L 750 794 
z
" transform="scale(0.015625)"/>
      <path id="DejaVuSans-36" d="M 2113 2584 
Q 1688 2584 1439 2293 
Q 1191 2003 1191 1497 
Q 1191 994 1439 701 
Q 1688 409 2113 409 
Q 2538 409 2786 701 
Q 3034 994 3034 1497 
Q 3034 2003 2786 2293 
Q 2538 2584 2113 2584 
z
M 3366 4563 
L 3366 3988 
Q 3128 4100 2886 4159 
Q 2644 4219 2406 4219 
Q 1781 4219 1451 3797 
Q 1122 3375 1075 2522 
Q 1259 2794 1537 2939 
Q 1816 3084 2150 3084 
Q 2853 3084 3261 2657 
Q 3669 2231 3669 1497 
Q 3669 778 3244 343 
Q 2819 -91 2113 -91 
Q 1303 -91 875 529 
Q 447 1150 447 2328 
Q 447 3434 972 4092 
Q 1497 4750 2381 4750 
Q 2619 4750 2861 4703 
Q 3103 4656 3366 4563 
z
" transform="scale(0.015625)"/>
      <path id="DejaVuSans-47" d="M 3809 666 
L 3809 1919 
L 2778 1919 
L 2778 2438 
L 4434 2438 
L 4434 434 
Q 4069 175 3628 42 
Q 3188 -91 2688 -91 
Q 1594 -91 976 548 
Q 359 1188 359 2328 
Q 359 3472 976 4111 
Q 1594 4750 2688 4750 
Q 3144 4750 3555 4637 
Q 3966 4525 4313 4306 
L 4313 3634 
Q 3963 3931 3569 4081 
Q 3175 4231 2741 4231 
Q 1884 4231 1454 3753 
Q 1025 3275 1025 2328 
Q 1025 1384 1454 906 
Q 1884 428 2741 428 
Q 3075 428 3337 486 
Q 3600 544 3809 666 
z
" transform="scale(0.015625)"/>
      <path id="DejaVuSans-42" d="M 1259 2228 
L 1259 519 
L 2272 519 
Q 2781 519 3026 730 
Q 3272 941 3272 1375 
Q 3272 1813 3026 2020 
Q 2781 2228 2272 2228 
L 1259 2228 
z
M 1259 4147 
L 1259 2741 
L 2194 2741 
Q 2656 2741 2882 2914 
Q 3109 3088 3109 3444 
Q 3109 3797 2882 3972 
Q 2656 4147 2194 4147 
L 1259 4147 
z
M 628 4666 
L 2241 4666 
Q 2963 4666 3353 4366 
Q 3744 4066 3744 3513 
Q 3744 3084 3544 2831 
Q 3344 2578 2956 2516 
Q 3422 2416 3680 2098 
Q 3938 1781 3938 1306 
Q 3938 681 3513 340 
Q 3088 0 2303 0 
L 628 0 
L 628 4666 
z
" transform="scale(0.015625)"/>
     </defs>
     <use xlink:href="#DejaVuSans-41"/>
     <use xlink:href="#DejaVuSans-70" x="68.408203"/>
     <use xlink:href="#DejaVuSans-70" x="131.884766"/>
     <use xlink:href="#DejaVuSans-6c" x="195.361328"/>
     <use xlink:href="#DejaVuSans-65" x="223.144531"/>
     <use xlink:href="#DejaVuSans-20" x="284.667969"/>
     <use xlink:href="#DejaVuSans-69" x="316.455078"/>
     <use xlink:href="#DejaVuSans-50" x="344.238281"/>
     <use xlink:href="#DejaVuSans-68" x="404.541016"/>
     <use xlink:href="#DejaVuSans-6f" x="467.919922"/>
     <use xlink:href="#DejaVuSans-6e" x="529.101562"/>
     <use xlink:href="#DejaVuSans-65" x="592.480469"/>
     <use xlink:href="#DejaVuSans-20" x="654.003906"/>
     <use xlink:href="#DejaVuSans-31" x="685.791016"/>
     <use xlink:href="#DejaVuSans-35" x="749.414062"/>
     <use xlink:href="#DejaVuSans-20" x="813.037109"/>
     <use xlink:href="#DejaVuSans-50" x="844.824219"/>
     <use xlink:href="#DejaVuSans-72" x="903.376953"/>
     <use xlink:href="#DejaVuSans-6f" x="942.240234"/>
     <use xlink:href="#DejaVuSans-2c" x="1003.421875"/>
     <use xlink:href="#DejaVuSans-20" x="1035.208984"/>
     <use xlink:href="#DejaVuSans-32" x="1066.996094"/>
     <use xlink:href="#DejaVuSans-35" x="1130.619141"/>
     <use xlink:href="#DejaVuSans-36" x="1194.242188"/>
     <use xlink:href="#DejaVuSans-47" x="1257.865234"/>
     <use xlink:href="#DejaVuSans-42" x="1335.355469"/>
    </g>
   </g>
   <g id="legend_1">
    <g id="patch_7">
     <path d="M 425.957859 108.270625 
L 531.557859 108.270625 
Q 533.557859 108.270625 533.557859 106.270625 
L 533.557859 33.88 
Q 533.557859 31.88 531.557859 31.88 
L 425.957859 31.88 
Q 423.957859 31.88 423.957859 33.88 
L 423.957859 106.270625 
Q 423.957859 108.270625 425.957859 108.270625 
z
" style="fill: #ffffff; opacity: 0.8; stroke: #cccccc; stroke-linejoin: miter"/>
    </g>
    <g id="text_17">
     <!-- source -->
     <g transform="translate(462.156297 43.478438) scale(0.1 -0.1)">
      <defs>
       <path id="DejaVuSans-73" d="M 2834 3397 
L 2834 2853 
Q 2591 2978 2328 3040 
Q 2066 3103 1784 3103 
Q 1356 3103 1142 2972 
Q 928 2841 928 2578 
Q 928 2378 1081 2264 
Q 1234 2150 1697 2047 
L 1894 2003 
Q 2506 1872 2764 1633 
Q 3022 1394 3022 966 
Q 3022 478 2636 193 
Q 2250 -91 1575 -91 
Q 1294 -91 989 -36 
Q 684 19 347 128 
L 347 722 
Q 666 556 975 473 
Q 1284 391 1588 391 
Q 1994 391 2212 530 
Q 2431 669 2431 922 
Q 2431 1156 2273 1281 
Q 2116 1406 1581 1522 
L 1381 1569 
Q 847 1681 609 1914 
Q 372 2147 372 2553 
Q 372 3047 722 3315 
Q 1072 3584 1716 3584 
Q 2034 3584 2315 3537 
Q 2597 3491 2834 3397 
z
" transform="scale(0.015625)"/>
       <path id="DejaVuSans-75" d="M 544 1381 
L 544 3500 
L 1119 3500 
L 1119 1403 
Q 1119 906 1312 657 
Q 1506 409 1894 409 
Q 2359 409 2629 706 
Q 2900 1003 2900 1516 
L 2900 3500 
L 3475 3500 
L 3475 0 
L 2900 0 
L 2900 538 
Q 2691 219 2414 64 
Q 2138 -91 1772 -91 
Q 1169 -91 856 284 
Q 544 659 544 1381 
z
M 1991 3584 
L 1991 3584 
z
" transform="scale(0.015625)"/>
      </defs>
      <use xlink:href="#DejaVuSans-73"/>
      <use xlink:href="#DejaVuSans-6f" x="52.099609"/>
      <use xlink:href="#DejaVuSans-75" x="113.28125"/>
      <use xlink:href="#DejaVuSans-72" x="176.660156"/>
      <use xlink:href="#DejaVuSans-63" x="215.523438"/>
      <use xlink:href="#DejaVuSans-65" x="270.503906"/>
     </g>
    </g>
    <g id="line2d_19">
     <path d="M 427.957859 54.656563 
L 437.957859 54.656563 
L 447.957859 54.656563 
" style="fill: none; stroke: #1f77b4; stroke-width: 1.5; stroke-linecap: square"/>
    </g>
    <g id="text_18">
     <!-- links.hr -->
     <g transform="translate(455.957859 58.156563) scale(0.1 -0.1)">
      <defs>
       <path id="DejaVuSans-6b" d="M 581 4863 
L 1159 4863 
L 1159 1991 
L 2875 3500 
L 3609 3500 
L 1753 1863 
L 3688 0 
L 2938 0 
L 1159 1709 
L 1159 0 
L 581 0 
L 581 4863 
z
" transform="scale(0.015625)"/>
       <path id="DejaVuSans-2e" d="M 684 794 
L 1344 794 
L 1344 0 
L 684 0 
L 684 794 
z
" transform="scale(0.015625)"/>
      </defs>
      <use xlink:href="#DejaVuSans-6c"/>
      <use xlink:href="#DejaVuSans-69" x="27.783203"/>
      <use xlink:href="#DejaVuSans-6e" x="55.566406"/>
      <use xlink:href="#DejaVuSans-6b" x="118.945312"/>
      <use xlink:href="#DejaVuSans-73" x="176.855469"/>
      <use xlink:href="#DejaVuSans-2e" x="228.955078"/>
      <use xlink:href="#DejaVuSans-68" x="260.742188"/>
      <use xlink:href="#DejaVuSans-72" x="324.121094"/>
     </g>
    </g>
    <g id="line2d_20">
     <path d="M 427.957859 69.334688 
L 437.957859 69.334688 
L 447.957859 69.334688 
" style="fill: none; stroke: #ff7f0e; stroke-width: 1.5; stroke-linecap: square"/>
    </g>
    <g id="text_19">
     <!-- mobileshop.eu -->
     <g transform="translate(455.957859 72.834688) scale(0.1 -0.1)">
      <defs>
       <path id="DejaVuSans-6d" d="M 3328 2828 
Q 3544 3216 3844 3400 
Q 4144 3584 4550 3584 
Q 5097 3584 5394 3201 
Q 5691 2819 5691 2113 
L 5691 0 
L 5113 0 
L 5113 2094 
Q 5113 2597 4934 2840 
Q 4756 3084 4391 3084 
Q 3944 3084 3684 2787 
Q 3425 2491 3425 1978 
L 3425 0 
L 2847 0 
L 2847 2094 
Q 2847 2600 2669 2842 
Q 2491 3084 2119 3084 
Q 1678 3084 1418 2786 
Q 1159 2488 1159 1978 
L 1159 0 
L 581 0 
L 581 3500 
L 1159 3500 
L 1159 2956 
Q 1356 3278 1631 3431 
Q 1906 3584 2284 3584 
Q 2666 3584 2933 3390 
Q 3200 3197 3328 2828 
z
" transform="scale(0.015625)"/>
       <path id="DejaVuSans-62" d="M 3116 1747 
Q 3116 2381 2855 2742 
Q 2594 3103 2138 3103 
Q 1681 3103 1420 2742 
Q 1159 2381 1159 1747 
Q 1159 1113 1420 752 
Q 1681 391 2138 391 
Q 2594 391 2855 752 
Q 3116 1113 3116 1747 
z
M 1159 2969 
Q 1341 3281 1617 3432 
Q 1894 3584 2278 3584 
Q 2916 3584 3314 3078 
Q 3713 2572 3713 1747 
Q 3713 922 3314 415 
Q 2916 -91 2278 -91 
Q 1894 -91 1617 61 
Q 1341 213 1159 525 
L 1159 0 
L 581 0 
L 581 4863 
L 1159 4863 
L 1159 2969 
z
" transform="scale(0.015625)"/>
      </defs>
      <use xlink:href="#DejaVuSans-6d"/>
      <use xlink:href="#DejaVuSans-6f" x="97.412109"/>
      <use xlink:href="#DejaVuSans-62" x="158.59375"/>
      <use xlink:href="#DejaVuSans-69" x="222.070312"/>
      <use xlink:href="#DejaVuSans-6c" x="249.853516"/>
      <use xlink:href="#DejaVuSans-65" x="277.636719"/>
      <use xlink:href="#DejaVuSans-73" x="339.160156"/>
      <use xlink:href="#DejaVuSans-68" x="391.259766"/>
      <use xlink:href="#DejaVuSans-6f" x="454.638672"/>
      <use xlink:href="#DejaVuSans-70" x="515.820312"/>
      <use xlink:href="#DejaVuSans-2e" x="579.296875"/>
      <use xlink:href="#DejaVuSans-65" x="611.083984"/>
      <use xlink:href="#DejaVuSans-75" x="672.607422"/>
     </g>
    </g>
    <g id="line2d_21">
     <path d="M 427.957859 84.012813 
L 437.957859 84.012813 
L 447.957859 84.012813 
" style="fill: none; stroke: #2ca02c; stroke-width: 1.5; stroke-linecap: square"/>
    </g>
    <g id="text_20">
     <!-- nabava.net -->
     <g transform="translate(455.957859 87.512813) scale(0.1 -0.1)">
      <defs>
       <path id="DejaVuSans-76" d="M 191 3500 
L 800 3500 
L 1894 563 
L 2988 3500 
L 3597 3500 
L 2284 0 
L 1503 0 
L 191 3500 
z
" transform="scale(0.015625)"/>
      </defs>
      <use xlink:href="#DejaVuSans-6e"/>
      <use xlink:href="#DejaVuSans-61" x="63.378906"/>
      <use xlink:href="#DejaVuSans-62" x="124.658203"/>
      <use xlink:href="#DejaVuSans-61" x="188.134766"/>
      <use xlink:href="#DejaVuSans-76" x="249.414062"/>
      <use xlink:href="#DejaVuSans-61" x="308.59375"/>
      <use xlink:href="#DejaVuSans-2e" x="369.873047"/>
      <use xlink:href="#DejaVuSans-6e" x="401.660156"/>
      <use xlink:href="#DejaVuSans-65" x="465.039062"/>
      <use xlink:href="#DejaVuSans-74" x="526.5625"/>
     </g>
    </g>
    <g id="line2d_22">
     <path d="M 427.957859 98.690938 
L 437.957859 98.690938 
L 447.957859 98.690938 
" style="fill: none; stroke: #d62728; stroke-width: 1.5; stroke-linecap: square"/>
    </g>
    <g id="text_21">
     <!-- unieuro.it -->
     <g transform="translate(455.957859 102.190938) scale(0.1 -0.1)">
      <use xlink:href="#DejaVuSans-75"/>
      <use xlink:href="#DejaVuSans-6e" x="63.378906"/>
      <use xlink:href="#DejaVuSans-69" x="126.757812"/>
      <use xlink:href="#DejaVuSans-65" x="154.541016"/>
      <use xlink:href="#DejaVuSans-75" x="216.064453"/>
      <use xlink:href="#DejaVuSans-72" x="279.443359"/>
      <use xlink:href="#DejaVuSans-6f" x="318.306641"/>
      <use xlink:href="#DejaVuSans-2e" x="377.738281"/>
      <use xlink:href="#DejaVuSans-69" x="409.525391"/>
      <use xlink:href="#DejaVuSans-74" x="437.308594"/>
     </g>
    </g>
   </g>
  </g>
  <g id="axes_2">
   <g id="patch_8">
    <path d="M 43.18 510.145464 
L 538.557859 510.145464 
L 538.557859 311.28 
L 43.18 311.28 
z
" style="fill: #ffffff"/>
   </g>
   <g id="matplotlib.axis_3">
    <g id="xtick_9">
     <g id="line2d_23">
      <g>
       <use xlink:href="#m0f60ca23df" x="78.687854" y="510.145464" style="stroke: #000000; stroke-width: 0.8"/>
      </g>
     </g>
     <g id="text_22">
      <!-- 2023-11-01 -->
      <g transform="translate(54.902737 552.783716) rotate(-30) scale(0.1 -0.1)">
       <use xlink:href="#DejaVuSans-32"/>
       <use xlink:href="#DejaVuSans-30" x="63.623047"/>
       <use xlink:href="#DejaVuSans-32" x="127.246094"/>
       <use xlink:href="#DejaVuSans-33" x="190.869141"/>
       <use xlink:href="#DejaVuSans-2d" x="254.492188"/>
       <use xlink:href="#DejaVuSans-31" x="290.576172"/>
       <use xlink:href="#DejaVuSans-31" x="354.199219"/>
       <use xlink:href="#DejaVuSans-2d" x="417.822266"/>
       <use xlink:href="#DejaVuSans-30" x="453.90625"/>
       <use xlink:href="#DejaVuSans-31" x="517.529297"/>
      </g>
     </g>
    </g>
    <g id="xtick_10">
     <g id="line2d_24">
      <g>
       <use xlink:href="#m0f60ca23df" x="139.311018" y="510.145464" style="stroke: #000000; stroke-width: 0.8"/>
      </g>
     </g>
     <g id="text_23">
      <!-- 2023-11-15 -->
      <g transform="translate(115.525902 552.783716) rotate(-30) scale(0.1 -0.1)">
       <use xlink:href="#DejaVuSans-32"/>
       <use xlink:href="#DejaVuSans-30" x="63.623047"/>
       <use xlink:href="#DejaVuSans-32" x="127.246094"/>
       <use xlink:href="#DejaVuSans-33" x="190.869141"/>
       <use xlink:href="#DejaVuSans-2d" x="254.492188"/>
       <use xlink:href="#DejaVuSans-31" x="290.576172"/>
       <use xlink:href="#DejaVuSans-31" x="354.199219"/>
       <use xlink:href="#DejaVuSans-2d" x="417.822266"/>
       <use xlink:href="#DejaVuSans-31" x="453.90625"/>
       <use xlink:href="#DejaVuSans-35" x="517.529297"/>
      </g>
     </g>
    </g>
    <g id="xtick_11">
     <g id="line2d_25">
      <g>
       <use xlink:href="#m0f60ca23df" x="208.594635" y="510.145464" style="stroke: #000000; stroke-width: 0.8"/>
      </g>
     </g>
     <g id="text_24">
      <!-- 2023-12-01 -->
      <g transform="translate(184.809518 552.783716) rotate(-30) scale(0.1 -0.1)">
       <use xlink:href="#DejaVuSans-32"/>
       <use xlink:href="#DejaVuSans-30" x="63.623047"/>
       <use xlink:href="#DejaVuSans-32" x="127.246094"/>
       <use xlink:href="#DejaVuSans-33" x="190.869141"/>
       <use xlink:href="#DejaVuSans-2d" x="254.492188"/>
       <use xlink:href="#DejaVuSans-31" x="290.576172"/>
       <use xlink:href="#DejaVuSans-32" x="354.199219"/>
       <use xlink:href="#DejaVuSans-2d" x="417.822266"/>
       <use xlink:href="#DejaVuSans-30" x="453.90625"/>
       <use xlink:href="#DejaVuSans-31" x="517.529297"/>
      </g>
     </g>
    </g>
    <g id="xtick_12">
     <g id="line2d_26">
      <g>
       <use xlink:href="#m0f60ca23df" x="269.217799" y="510.145464" style="stroke: #000000; stroke-width: 0.8"/>
      </g>
     </g>
     <g id="text_25">
      <!-- 2023-12-15 -->
      <g transform="translate(245.432683 552.783716) rotate(-30) scale(0.1 -0.1)">
       <use xlink:href="#DejaVuSans-32"/>
       <use xlink:href="#DejaVuSans-30" x="63.623047"/>
       <use xlink:href="#DejaVuSans-32" x="127.246094"/>
       <use xlink:href="#DejaVuSans-33" x="190.869141"/>
       <use xlink:href="#DejaVuSans-2d" x="254.492188"/>
       <use xlink:href="#DejaVuSans-31" x="290.576172"/>
       <use xlink:href="#DejaVuSans-32" x="354.199219"/>
       <use xlink:href="#DejaVuSans-2d" x="417.822266"/>
       <use xlink:href="#DejaVuSans-31" x="453.90625"/>
       <use xlink:href="#DejaVuSans-35" x="517.529297"/>
      </g>
     </g>
    </g>
    <g id="xtick_13">
     <g id="line2d_27">
      <g>
       <use xlink:href="#m0f60ca23df" x="342.831642" y="510.145464" style="stroke: #000000; stroke-width: 0.8"/>
      </g>
     </g>
     <g id="text_26">
      <!-- 2024-01-01 -->
      <g transform="translate(319.046526 552.783716) rotate(-30) scale(0.1 -0.1)">
       <use xlink:href="#DejaVuSans-32"/>
       <use xlink:href="#DejaVuSans-30" x="63.623047"/>
       <use xlink:href="#DejaVuSans-32" x="127.246094"/>
       <use xlink:href="#DejaVuSans-34" x="190.869141"/>
       <use xlink:href="#DejaVuSans-2d" x="254.492188"/>
       <use xlink:href="#DejaVuSans-30" x="290.576172"/>
       <use xlink:href="#DejaVuSans-31" x="354.199219"/>
       <use xlink:href="#DejaVuSans-2d" x="417.822266"/>
       <use xlink:href="#DejaVuSans-30" x="453.90625"/>
       <use xlink:href="#DejaVuSans-31" x="517.529297"/>
      </g>
     </g>
    </g>
    <g id="xtick_14">
     <g id="line2d_28">
      <g>
       <use xlink:href="#m0f60ca23df" x="403.454807" y="510.145464" style="stroke: #000000; stroke-width: 0.8"/>
      </g>
     </g>
     <g id="text_27">
      <!-- 2024-01-15 -->
      <g transform="translate(379.66969 552.783716) rotate(-30) scale(0.1 -0.1)">
       <use xlink:href="#DejaVuSans-32"/>
       <use xlink:href="#DejaVuSans-30" x="63.623047"/>
       <use xlink:href="#DejaVuSans-32" x="127.246094"/>
       <use xlink:href="#DejaVuSans-34" x="190.869141"/>
       <use xlink:href="#DejaVuSans-2d" x="254.492188"/>
       <use xlink:href="#DejaVuSans-30" x="290.576172"/>
       <use xlink:href="#DejaVuSans-31" x="354.199219"/>
       <use xlink:href="#DejaVuSans-2d" x="417.822266"/>
       <use xlink:href="#DejaVuSans-31" x="453.90625"/>
       <use xlink:href="#DejaVuSans-35" x="517.529297"/>
      </g>
     </g>
    </g>
    <g id="xtick_15">
     <g id="line2d_29">
      <g>
       <use xlink:href="#m0f60ca23df" x="477.068649" y="510.145464" style="stroke: #000000; stroke-width: 0.8"/>
      </g>
     </g>
     <g id="text_28">
      <!-- 2024-02-01 -->
      <g transform="translate(453.283533 552.783716) rotate(-30) scale(0.1 -0.1)">
       <use xlink:href="#DejaVuSans-32"/>
       <use xlink:href="#DejaVuSans-30" x="63.623047"/>
       <use xlink:href="#DejaVuSans-32" x="127.246094"/>
       <use xlink:href="#DejaVuSans-34" x="190.869141"/>
       <use xlink:href="#DejaVuSans-2d" x="254.492188"/>
       <use xlink:href="#DejaVuSans-30" x="290.576172"/>
       <use xlink:href="#DejaVuSans-32" x="354.199219"/>
       <use xlink:href="#DejaVuSans-2d" x="417.822266"/>
       <use xlink:href="#DejaVuSans-30" x="453.90625"/>
       <use xlink:href="#DejaVuSans-31" x="517.529297"/>
      </g>
     </g>
    </g>
    <g id="xtick_16">
     <g id="line2d_30">
      <g>
       <use xlink:href="#m0f60ca23df" x="537.691814" y="510.145464" style="stroke: #000000; stroke-width: 0.8"/>
      </g>
     </g>
     <g id="text_29">
      <!-- 2024-02-15 -->
      <g transform="translate(513.906698 552.783716) rotate(-30) scale(0.1 -0.1)">
       <use xlink:href="#DejaVuSans-32"/>
       <use xlink:href="#DejaVuSans-30" x="63.623047"/>
       <use xlink:href="#DejaVuSans-32" x="127.246094"/>
       <use xlink:href="#DejaVuSans-34" x="190.869141"/>
       <use xlink:href="#DejaVuSans-2d" x="254.492188"/>
       <use xlink:href="#DejaVuSans-30" x="290.576172"/>
       <use xlink:href="#DejaVuSans-32" x="354.199219"/>
       <use xlink:href="#DejaVuSans-2d" x="417.822266"/>
       <use xlink:href="#DejaVuSans-31" x="453.90625"/>
       <use xlink:href="#DejaVuSans-35" x="517.529297"/>
      </g>
     </g>
    </g>
    <g id="text_30">
     <!-- Price date -->
     <g transform="translate(265.807211 566.183216) scale(0.1 -0.1)">
      <use xlink:href="#DejaVuSans-50"/>
      <use xlink:href="#DejaVuSans-72" x="58.552734"/>
      <use xlink:href="#DejaVuSans-69" x="99.666016"/>
      <use xlink:href="#DejaVuSans-63" x="127.449219"/>
      <use xlink:href="#DejaVuSans-65" x="182.429688"/>
      <use xlink:href="#DejaVuSans-20" x="243.953125"/>
      <use xlink:href="#DejaVuSans-64" x="275.740234"/>
      <use xlink:href="#DejaVuSans-61" x="339.216797"/>
      <use xlink:href="#DejaVuSans-74" x="400.496094"/>
      <use xlink:href="#DejaVuSans-65" x="439.705078"/>
     </g>
    </g>
   </g>
   <g id="matplotlib.axis_4">
    <g id="ytick_7">
     <g id="line2d_31">
      <g>
       <use xlink:href="#mb36159177c" x="43.18" y="493.56901" style="stroke: #000000; stroke-width: 0.8"/>
      </g>
     </g>
     <g id="text_31">
      <!-- 420 -->
      <g transform="translate(17.0925 497.368229) scale(0.1 -0.1)">
       <use xlink:href="#DejaVuSans-34"/>
       <use xlink:href="#DejaVuSans-32" x="63.623047"/>
       <use xlink:href="#DejaVuSans-30" x="127.246094"/>
      </g>
     </g>
    </g>
    <g id="ytick_8">
     <g id="line2d_32">
      <g>
       <use xlink:href="#mb36159177c" x="43.18" y="458.915611" style="stroke: #000000; stroke-width: 0.8"/>
      </g>
     </g>
     <g id="text_32">
      <!-- 440 -->
      <g transform="translate(17.0925 462.714829) scale(0.1 -0.1)">
       <use xlink:href="#DejaVuSans-34"/>
       <use xlink:href="#DejaVuSans-34" x="63.623047"/>
       <use xlink:href="#DejaVuSans-30" x="127.246094"/>
      </g>
     </g>
    </g>
    <g id="ytick_9">
     <g id="line2d_33">
      <g>
       <use xlink:href="#mb36159177c" x="43.18" y="424.262211" style="stroke: #000000; stroke-width: 0.8"/>
      </g>
     </g>
     <g id="text_33">
      <!-- 460 -->
      <g transform="translate(17.0925 428.06143) scale(0.1 -0.1)">
       <use xlink:href="#DejaVuSans-34"/>
       <use xlink:href="#DejaVuSans-36" x="63.623047"/>
       <use xlink:href="#DejaVuSans-30" x="127.246094"/>
      </g>
     </g>
    </g>
    <g id="ytick_10">
     <g id="line2d_34">
      <g>
       <use xlink:href="#mb36159177c" x="43.18" y="389.608812" style="stroke: #000000; stroke-width: 0.8"/>
      </g>
     </g>
     <g id="text_34">
      <!-- 480 -->
      <g transform="translate(17.0925 393.40803) scale(0.1 -0.1)">
       <defs>
        <path id="DejaVuSans-38" d="M 2034 2216 
Q 1584 2216 1326 1975 
Q 1069 1734 1069 1313 
Q 1069 891 1326 650 
Q 1584 409 2034 409 
Q 2484 409 2743 651 
Q 3003 894 3003 1313 
Q 3003 1734 2745 1975 
Q 2488 2216 2034 2216 
z
M 1403 2484 
Q 997 2584 770 2862 
Q 544 3141 544 3541 
Q 544 4100 942 4425 
Q 1341 4750 2034 4750 
Q 2731 4750 3128 4425 
Q 3525 4100 3525 3541 
Q 3525 3141 3298 2862 
Q 3072 2584 2669 2484 
Q 3125 2378 3379 2068 
Q 3634 1759 3634 1313 
Q 3634 634 3220 271 
Q 2806 -91 2034 -91 
Q 1263 -91 848 271 
Q 434 634 434 1313 
Q 434 1759 690 2068 
Q 947 2378 1403 2484 
z
M 1172 3481 
Q 1172 3119 1398 2916 
Q 1625 2713 2034 2713 
Q 2441 2713 2670 2916 
Q 2900 3119 2900 3481 
Q 2900 3844 2670 4047 
Q 2441 4250 2034 4250 
Q 1625 4250 1398 4047 
Q 1172 3844 1172 3481 
z
" transform="scale(0.015625)"/>
       </defs>
       <use xlink:href="#DejaVuSans-34"/>
       <use xlink:href="#DejaVuSans-38" x="63.623047"/>
       <use xlink:href="#DejaVuSans-30" x="127.246094"/>
      </g>
     </g>
    </g>
    <g id="ytick_11">
     <g id="line2d_35">
      <g>
       <use xlink:href="#mb36159177c" x="43.18" y="354.955412" style="stroke: #000000; stroke-width: 0.8"/>
      </g>
     </g>
     <g id="text_35">
      <!-- 500 -->
      <g transform="translate(17.0925 358.754631) scale(0.1 -0.1)">
       <use xlink:href="#DejaVuSans-35"/>
       <use xlink:href="#DejaVuSans-30" x="63.623047"/>
       <use xlink:href="#DejaVuSans-30" x="127.246094"/>
      </g>
     </g>
    </g>
    <g id="ytick_12">
     <g id="line2d_36">
      <g>
       <use xlink:href="#mb36159177c" x="43.18" y="320.302013" style="stroke: #000000; stroke-width: 0.8"/>
      </g>
     </g>
     <g id="text_36">
      <!-- 520 -->
      <g transform="translate(17.0925 324.101231) scale(0.1 -0.1)">
       <use xlink:href="#DejaVuSans-35"/>
       <use xlink:href="#DejaVuSans-32" x="63.623047"/>
       <use xlink:href="#DejaVuSans-30" x="127.246094"/>
      </g>
     </g>
    </g>
   </g>
   <g id="line2d_37">
    <path d="M 65.697175 356.688082 
L 96.008758 356.688082 
L 100.338984 356.688082 
L 104.66921 356.688082 
L 108.999436 356.688082 
L 113.329662 356.688082 
L 117.659888 356.688082 
L 121.990114 356.688082 
L 126.32034 356.688082 
L 130.650566 356.688082 
L 134.980792 356.688082 
L 139.311018 356.688082 
L 143.641244 356.688082 
L 147.97147 356.688082 
L 152.301696 356.688082 
L 156.631922 356.688082 
L 160.962148 356.688082 
L 165.292374 356.688082 
L 169.6226 356.688082 
L 173.952826 356.688082 
L 178.283052 356.688082 
L 182.613279 356.688082 
L 186.943505 356.688082 
L 191.273731 356.688082 
L 195.603957 356.688082 
L 199.934183 356.688082 
L 204.264409 356.688082 
L 208.594635 356.688082 
L 212.924861 356.688082 
L 217.255087 356.688082 
L 221.585313 356.688082 
L 225.915539 356.688082 
L 230.245765 356.688082 
L 234.575991 356.688082 
L 238.906217 356.688082 
L 243.236443 391.341482 
L 247.566669 391.341482 
L 251.896895 391.341482 
L 256.227121 391.341482 
L 260.557347 391.341482 
L 264.887573 391.341482 
L 269.217799 391.341482 
L 273.548025 391.341482 
L 277.878251 391.341482 
L 282.208477 391.341482 
L 286.538704 391.341482 
L 290.86893 391.341482 
L 295.199156 391.341482 
L 299.529382 391.341482 
L 303.859608 391.341482 
L 308.189834 391.341482 
L 312.52006 391.341482 
L 316.850286 391.341482 
L 321.180512 391.341482 
L 325.510738 391.341482 
L 329.840964 391.341482 
L 334.17119 391.341482 
L 338.501416 391.341482 
L 342.831642 391.341482 
L 347.161868 391.341482 
L 351.492094 391.341482 
L 355.82232 391.341482 
L 360.152546 391.341482 
L 364.482772 391.341482 
L 368.812998 391.341482 
L 373.143224 391.341482 
L 377.47345 391.341482 
L 381.803676 391.341482 
L 386.133902 391.341482 
L 390.464128 391.341482 
L 394.794355 391.341482 
L 399.124581 391.341482 
L 403.454807 391.341482 
L 407.785033 391.341482 
L 412.115259 391.341482 
L 416.445485 391.341482 
L 420.775711 391.341482 
" clip-path="url(#p83a00cf2df)" style="fill: none; stroke: #1f77b4; stroke-width: 1.5; stroke-linecap: square"/>
   </g>
   <g id="line2d_38">
    <path d="M 96.008758 328.982689 
L 100.338984 328.982689 
L 104.66921 328.982689 
L 108.999436 328.982689 
L 113.329662 328.982689 
L 117.659888 328.982689 
L 121.990114 328.982689 
L 126.32034 328.982689 
L 130.650566 328.982689 
L 134.980792 328.982689 
L 139.311018 328.982689 
L 143.641244 328.982689 
L 147.97147 328.982689 
L 152.301696 328.982689 
L 156.631922 328.982689 
L 160.962148 328.982689 
L 165.292374 328.982689 
L 169.6226 328.982689 
L 173.952826 328.982689 
L 178.283052 328.982689 
L 182.613279 328.982689 
L 186.943505 328.982689 
L 191.273731 328.982689 
L 195.603957 328.982689 
L 199.934183 328.982689 
L 204.264409 328.982689 
L 208.594635 328.982689 
L 212.924861 328.982689 
L 217.255087 328.982689 
L 221.585313 328.982689 
L 225.915539 328.982689 
L 230.245765 328.982689 
L 234.575991 328.982689 
L 238.906217 328.982689 
L 243.236443 328.982689 
L 247.566669 328.982689 
L 251.896895 328.982689 
L 256.227121 328.982689 
L 260.557347 328.982689 
L 264.887573 328.982689 
L 269.217799 328.982689 
L 273.548025 328.982689 
L 277.878251 328.982689 
L 282.208477 328.982689 
L 286.538704 328.982689 
L 290.86893 328.982689 
L 295.199156 328.982689 
L 299.529382 328.982689 
L 303.859608 328.982689 
L 308.189834 328.982689 
L 312.52006 328.982689 
L 316.850286 328.982689 
L 321.180512 328.982689 
L 325.510738 328.982689 
L 329.840964 328.982689 
L 334.17119 328.982689 
L 338.501416 328.982689 
L 342.831642 328.982689 
M 351.492094 328.982689 
L 355.82232 328.982689 
L 360.152546 328.982689 
L 364.482772 328.982689 
L 368.812998 328.982689 
L 373.143224 320.319339 
L 377.47345 320.319339 
L 381.803676 320.319339 
L 386.133902 320.319339 
L 390.464128 320.319339 
L 394.794355 320.319339 
L 399.124581 320.319339 
L 403.454807 320.319339 
L 407.785033 320.319339 
L 412.115259 320.319339 
L 416.445485 320.319339 
L 420.775711 320.319339 
L 425.105937 320.319339 
L 429.436163 320.319339 
L 433.766389 320.319339 
L 438.096615 320.319339 
L 442.426841 320.319339 
L 451.087293 320.319339 
L 455.417519 320.319339 
L 459.747745 320.319339 
L 464.077971 320.319339 
L 468.408197 320.319339 
L 472.738423 320.319339 
L 477.068649 320.319339 
L 481.398875 320.319339 
L 485.729101 320.319339 
L 490.059327 320.319339 
L 494.389553 320.319339 
L 498.71978 320.319339 
L 503.050006 320.319339 
L 507.380232 320.319339 
L 511.710458 320.319339 
L 516.040684 320.319339 
" clip-path="url(#p83a00cf2df)" style="fill: none; stroke: #ff7f0e; stroke-width: 1.5; stroke-linecap: square"/>
   </g>
   <g id="line2d_39">
    <path d="M 96.008758 356.688082 
L 100.338984 356.688082 
L 104.66921 356.688082 
L 108.999436 356.688082 
L 113.329662 356.688082 
L 117.659888 356.688082 
L 121.990114 356.688082 
L 126.32034 356.688082 
L 130.650566 356.688082 
L 134.980792 356.688082 
L 139.311018 356.688082 
L 143.641244 356.688082 
L 147.97147 356.688082 
L 152.301696 356.688082 
L 156.631922 356.688082 
L 160.962148 356.688082 
L 165.292374 356.688082 
L 169.6226 356.688082 
L 173.952826 356.688082 
L 178.283052 356.688082 
L 182.613279 356.688082 
L 186.943505 356.688082 
L 191.273731 356.688082 
L 195.603957 356.688082 
L 199.934183 356.688082 
L 204.264409 356.688082 
L 208.594635 356.688082 
L 212.924861 356.688082 
L 217.255087 356.688082 
L 221.585313 356.688082 
L 225.915539 356.688082 
L 230.245765 356.688082 
L 234.575991 356.688082 
L 238.906217 356.688082 
L 243.236443 356.688082 
L 247.566669 356.688082 
L 251.896895 356.688082 
L 256.227121 356.688082 
L 260.557347 356.688082 
L 264.887573 356.688082 
L 269.217799 356.688082 
L 273.548025 356.688082 
L 277.878251 356.688082 
L 282.208477 356.688082 
L 286.538704 356.688082 
L 290.86893 356.688082 
L 295.199156 356.688082 
L 299.529382 356.688082 
L 303.859608 356.688082 
L 308.189834 356.688082 
L 312.52006 356.688082 
L 316.850286 356.688082 
L 321.180512 356.688082 
L 325.510738 356.688082 
L 329.840964 356.688082 
L 334.17119 356.688082 
L 338.501416 356.688082 
L 342.831642 356.688082 
L 347.161868 356.688082 
L 351.492094 356.688082 
L 355.82232 356.688082 
L 360.152546 356.688082 
L 364.482772 356.688082 
L 368.812998 356.688082 
L 373.143224 356.688082 
L 377.47345 356.688082 
L 381.803676 356.688082 
L 386.133902 356.688082 
L 390.464128 356.688082 
L 394.794355 356.688082 
L 399.124581 356.688082 
L 403.454807 356.688082 
L 407.785033 356.688082 
L 412.115259 356.688082 
L 416.445485 356.688082 
L 420.775711 356.688082 
L 425.105937 356.688082 
L 429.436163 356.688082 
L 433.766389 356.688082 
L 438.096615 356.688082 
L 442.426841 356.688082 
L 451.087293 356.688082 
L 455.417519 356.688082 
L 459.747745 356.688082 
L 464.077971 356.688082 
L 468.408197 356.688082 
L 472.738423 356.688082 
L 477.068649 356.688082 
L 481.398875 356.688082 
L 485.729101 356.688082 
L 490.059327 356.688082 
L 494.389553 356.688082 
L 498.71978 356.688082 
L 503.050006 356.688082 
L 507.380232 356.688082 
L 511.710458 356.688082 
L 516.040684 356.688082 
" clip-path="url(#p83a00cf2df)" style="fill: none; stroke: #2ca02c; stroke-width: 1.5; stroke-linecap: square"/>
   </g>
   <g id="line2d_40">
    <path d="M 65.697175 501.106125 
L 96.008758 408.668181 
L 100.338984 408.668181 
L 104.66921 408.668181 
L 108.999436 408.668181 
L 113.329662 408.668181 
L 117.659888 408.668181 
L 121.990114 415.598861 
L 126.32034 415.598861 
L 130.650566 415.598861 
L 134.980792 415.598861 
L 139.311018 415.598861 
L 143.641244 415.598861 
L 147.97147 415.598861 
L 152.301696 415.598861 
L 156.631922 415.598861 
L 160.962148 415.598861 
L 165.292374 415.598861 
L 169.6226 415.598861 
L 173.952826 415.598861 
L 178.283052 415.598861 
L 182.613279 415.598861 
L 186.943505 399.918198 
L 191.273731 399.918198 
L 195.603957 399.918198 
L 199.934183 356.688082 
L 204.264409 356.861349 
L 208.594635 356.861349 
L 212.924861 356.861349 
L 217.255087 356.861349 
L 221.585313 356.861349 
L 225.915539 363.618762 
L 230.245765 363.792029 
L 234.575991 391.341482 
L 238.906217 393.074152 
L 243.236443 408.668181 
L 247.566669 408.668181 
L 251.896895 408.668181 
L 256.227121 408.841448 
L 260.557347 408.668181 
L 264.887573 408.841448 
L 269.217799 416.239949 
L 273.548025 416.239949 
L 277.878251 416.239949 
L 282.208477 416.239949 
L 286.538704 416.239949 
L 290.86893 416.239949 
L 295.199156 425.994881 
L 299.529382 425.994881 
L 303.859608 425.994881 
L 308.189834 425.994881 
L 312.52006 425.994881 
L 316.850286 425.994881 
L 321.180512 425.994881 
L 325.510738 425.994881 
L 329.840964 425.994881 
L 334.17119 425.994881 
L 338.501416 425.994881 
L 342.831642 425.994881 
L 347.161868 425.994881 
L 351.492094 425.994881 
L 355.82232 425.994881 
L 360.152546 425.994881 
L 364.482772 425.994881 
L 368.812998 425.994881 
L 373.143224 425.994881 
L 377.47345 425.994881 
L 381.803676 425.994881 
L 386.133902 425.994881 
L 390.464128 425.994881 
L 394.794355 425.994881 
L 399.124581 425.994881 
L 403.454807 425.994881 
L 407.785033 425.994881 
L 412.115259 425.994881 
L 416.445485 425.994881 
L 420.775711 425.994881 
L 425.105937 425.994881 
L 429.436163 425.994881 
L 433.766389 425.994881 
L 438.096615 425.994881 
L 442.426841 425.994881 
L 451.087293 425.994881 
L 455.417519 425.994881 
L 459.747745 425.994881 
L 464.077971 425.994881 
L 468.408197 425.994881 
L 472.738423 425.994881 
L 477.068649 425.994881 
L 481.398875 356.688082 
L 485.729101 356.688082 
L 490.059327 356.688082 
L 494.389553 356.688082 
L 498.71978 320.319339 
L 503.050006 320.319339 
L 507.380232 416.239949 
L 511.710458 416.239949 
L 516.040684 416.239949 
" clip-path="url(#p83a00cf2df)" style="fill: none; stroke: #d62728; stroke-width: 1.5; stroke-linecap: square"/>
   </g>
   <g id="patch_9">
    <path d="M 43.18 510.145464 
L 43.18 311.28 
" style="fill: none; stroke: #000000; stroke-width: 0.8; stroke-linejoin: miter; stroke-linecap: square"/>
   </g>
   <g id="patch_10">
    <path d="M 538.557859 510.145464 
L 538.557859 311.28 
" style="fill: none; stroke: #000000; stroke-width: 0.8; stroke-linejoin: miter; stroke-linecap: square"/>
   </g>
   <g id="patch_11">
    <path d="M 43.18 510.145464 
L 538.557859 510.145464 
" style="fill: none; stroke: #000000; stroke-width: 0.8; stroke-linejoin: miter; stroke-linecap: square"/>
   </g>
   <g id="patch_12">
    <path d="M 43.18 311.28 
L 538.557859 311.28 
" style="fill: none; stroke: #000000; stroke-width: 0.8; stroke-linejoin: miter; stroke-linecap: square"/>
   </g>
   <g id="text_37">
    <!-- Lenovo IdeaPad 3 -->
    <g transform="translate(237.829867 305.28) scale(0.12 -0.12)">
     <defs>
      <path id="DejaVuSans-4c" d="M 628 4666 
L 1259 4666 
L 1259 531 
L 3531 531 
L 3531 0 
L 628 0 
L 628 4666 
z
" transform="scale(0.015625)"/>
      <path id="DejaVuSans-49" d="M 628 4666 
L 1259 4666 
L 1259 0 
L 628 0 
L 628 4666 
z
" transform="scale(0.015625)"/>
     </defs>
     <use xlink:href="#DejaVuSans-4c"/>
     <use xlink:href="#DejaVuSans-65" x="53.962891"/>
     <use xlink:href="#DejaVuSans-6e" x="115.486328"/>
     <use xlink:href="#DejaVuSans-6f" x="178.865234"/>
     <use xlink:href="#DejaVuSans-76" x="240.046875"/>
     <use xlink:href="#DejaVuSans-6f" x="299.226562"/>
     <use xlink:href="#DejaVuSans-20" x="360.408203"/>
     <use xlink:href="#DejaVuSans-49" x="392.195312"/>
     <use xlink:href="#DejaVuSans-64" x="421.6875"/>
     <use xlink:href="#DejaVuSans-65" x="485.164062"/>
     <use xlink:href="#DejaVuSans-61" x="546.6875"/>
     <use xlink:href="#DejaVuSans-50" x="607.966797"/>
     <use xlink:href="#DejaVuSans-61" x="663.769531"/>
     <use xlink:href="#DejaVuSans-64" x="725.048828"/>
     <use xlink:href="#DejaVuSans-20" x="788.525391"/>
     <use xlink:href="#DejaVuSans-33" x="820.3125"/>
    </g>
   </g>
   <g id="legend_2">
    <g id="patch_13">
     <path d="M 397.475047 505.145464 
L 531.557859 505.145464 
Q 533.557859 505.145464 533.557859 503.145464 
L 533.557859 430.754839 
Q 533.557859 428.754839 531.557859 428.754839 
L 397.475047 428.754839 
Q 395.475047 428.754839 395.475047 430.754839 
L 395.475047 503.145464 
Q 395.475047 505.145464 397.475047 505.145464 
z
" style="fill: #ffffff; opacity: 0.8; stroke: #cccccc; stroke-linejoin: miter"/>
    </g>
    <g id="text_38">
     <!-- source -->
     <g transform="translate(447.91489 440.353276) scale(0.1 -0.1)">
      <use xlink:href="#DejaVuSans-73"/>
      <use xlink:href="#DejaVuSans-6f" x="52.099609"/>
      <use xlink:href="#DejaVuSans-75" x="113.28125"/>
      <use xlink:href="#DejaVuSans-72" x="176.660156"/>
      <use xlink:href="#DejaVuSans-63" x="215.523438"/>
      <use xlink:href="#DejaVuSans-65" x="270.503906"/>
     </g>
    </g>
    <g id="line2d_41">
     <path d="M 399.475047 451.531401 
L 409.475047 451.531401 
L 419.475047 451.531401 
" style="fill: none; stroke: #1f77b4; stroke-width: 1.5; stroke-linecap: square"/>
    </g>
    <g id="text_39">
     <!-- instar-informatika.hr -->
     <g transform="translate(427.475047 455.031401) scale(0.1 -0.1)">
      <defs>
       <path id="DejaVuSans-66" d="M 2375 4863 
L 2375 4384 
L 1825 4384 
Q 1516 4384 1395 4259 
Q 1275 4134 1275 3809 
L 1275 3500 
L 2222 3500 
L 2222 3053 
L 1275 3053 
L 1275 0 
L 697 0 
L 697 3053 
L 147 3053 
L 147 3500 
L 697 3500 
L 697 3744 
Q 697 4328 969 4595 
Q 1241 4863 1831 4863 
L 2375 4863 
z
" transform="scale(0.015625)"/>
      </defs>
      <use xlink:href="#DejaVuSans-69"/>
      <use xlink:href="#DejaVuSans-6e" x="27.783203"/>
      <use xlink:href="#DejaVuSans-73" x="91.162109"/>
      <use xlink:href="#DejaVuSans-74" x="143.261719"/>
      <use xlink:href="#DejaVuSans-61" x="182.470703"/>
      <use xlink:href="#DejaVuSans-72" x="243.75"/>
      <use xlink:href="#DejaVuSans-2d" x="278.488281"/>
      <use xlink:href="#DejaVuSans-69" x="314.572266"/>
      <use xlink:href="#DejaVuSans-6e" x="342.355469"/>
      <use xlink:href="#DejaVuSans-66" x="405.734375"/>
      <use xlink:href="#DejaVuSans-6f" x="440.939453"/>
      <use xlink:href="#DejaVuSans-72" x="502.121094"/>
      <use xlink:href="#DejaVuSans-6d" x="541.484375"/>
      <use xlink:href="#DejaVuSans-61" x="638.896484"/>
      <use xlink:href="#DejaVuSans-74" x="700.175781"/>
      <use xlink:href="#DejaVuSans-69" x="739.384766"/>
      <use xlink:href="#DejaVuSans-6b" x="767.167969"/>
      <use xlink:href="#DejaVuSans-61" x="823.328125"/>
      <use xlink:href="#DejaVuSans-2e" x="884.607422"/>
      <use xlink:href="#DejaVuSans-68" x="916.394531"/>
      <use xlink:href="#DejaVuSans-72" x="979.773438"/>
     </g>
    </g>
    <g id="line2d_42">
     <path d="M 399.475047 466.209526 
L 409.475047 466.209526 
L 419.475047 466.209526 
" style="fill: none; stroke: #ff7f0e; stroke-width: 1.5; stroke-linecap: square"/>
    </g>
    <g id="text_40">
     <!-- links.hr -->
     <g transform="translate(427.475047 469.709526) scale(0.1 -0.1)">
      <use xlink:href="#DejaVuSans-6c"/>
      <use xlink:href="#DejaVuSans-69" x="27.783203"/>
      <use xlink:href="#DejaVuSans-6e" x="55.566406"/>
      <use xlink:href="#DejaVuSans-6b" x="118.945312"/>
      <use xlink:href="#DejaVuSans-73" x="176.855469"/>
      <use xlink:href="#DejaVuSans-2e" x="228.955078"/>
      <use xlink:href="#DejaVuSans-68" x="260.742188"/>
      <use xlink:href="#DejaVuSans-72" x="324.121094"/>
     </g>
    </g>
    <g id="line2d_43">
     <path d="M 399.475047 480.887651 
L 409.475047 480.887651 
L 419.475047 480.887651 
" style="fill: none; stroke: #2ca02c; stroke-width: 1.5; stroke-linecap: square"/>
    </g>
    <g id="text_41">
     <!-- mikronis.hr -->
     <g transform="translate(427.475047 484.387651) scale(0.1 -0.1)">
      <use xlink:href="#DejaVuSans-6d"/>
      <use xlink:href="#DejaVuSans-69" x="97.412109"/>
      <use xlink:href="#DejaVuSans-6b" x="125.195312"/>
      <use xlink:href="#DejaVuSans-72" x="183.105469"/>
      <use xlink:href="#DejaVuSans-6f" x="221.96875"/>
      <use xlink:href="#DejaVuSans-6e" x="283.150391"/>
      <use xlink:href="#DejaVuSans-69" x="346.529297"/>
      <use xlink:href="#DejaVuSans-73" x="374.3125"/>
      <use xlink:href="#DejaVuSans-2e" x="426.412109"/>
      <use xlink:href="#DejaVuSans-68" x="458.199219"/>
      <use xlink:href="#DejaVuSans-72" x="521.578125"/>
     </g>
    </g>
    <g id="line2d_44">
     <path d="M 399.475047 495.565776 
L 409.475047 495.565776 
L 419.475047 495.565776 
" style="fill: none; stroke: #d62728; stroke-width: 1.5; stroke-linecap: square"/>
    </g>
    <g id="text_42">
     <!-- nabava.net -->
     <g transform="translate(427.475047 499.065776) scale(0.1 -0.1)">
      <use xlink:href="#DejaVuSans-6e"/>
      <use xlink:href="#DejaVuSans-61" x="63.378906"/>
      <use xlink:href="#DejaVuSans-62" x="124.658203"/>
      <use xlink:href="#DejaVuSans-61" x="188.134766"/>
      <use xlink:href="#DejaVuSans-76" x="249.414062"/>
      <use xlink:href="#DejaVuSans-61" x="308.59375"/>
      <use xlink:href="#DejaVuSans-2e" x="369.873047"/>
      <use xlink:href="#DejaVuSans-6e" x="401.660156"/>
      <use xlink:href="#DejaVuSans-65" x="465.039062"/>
      <use xlink:href="#DejaVuSans-74" x="526.5625"/>
     </g>
    </g>
   </g>
  </g>
  <g id="axes_3">
   <g id="patch_14">
    <path d="M 43.18 794.545464 
L 538.557859 794.545464 
L 538.557859 595.68 
L 43.18 595.68 
z
" style="fill: #ffffff"/>
   </g>
   <g id="matplotlib.axis_5">
    <g id="xtick_17">
     <g id="line2d_45">
      <g>
       <use xlink:href="#m0f60ca23df" x="47.126309" y="794.545464" style="stroke: #000000; stroke-width: 0.8"/>
      </g>
     </g>
     <g id="text_43">
      <!-- 2023-11-01 -->
      <g transform="translate(23.341193 837.183716) rotate(-30) scale(0.1 -0.1)">
       <use xlink:href="#DejaVuSans-32"/>
       <use xlink:href="#DejaVuSans-30" x="63.623047"/>
       <use xlink:href="#DejaVuSans-32" x="127.246094"/>
       <use xlink:href="#DejaVuSans-33" x="190.869141"/>
       <use xlink:href="#DejaVuSans-2d" x="254.492188"/>
       <use xlink:href="#DejaVuSans-31" x="290.576172"/>
       <use xlink:href="#DejaVuSans-31" x="354.199219"/>
       <use xlink:href="#DejaVuSans-2d" x="417.822266"/>
       <use xlink:href="#DejaVuSans-30" x="453.90625"/>
       <use xlink:href="#DejaVuSans-31" x="517.529297"/>
      </g>
     </g>
    </g>
    <g id="xtick_18">
     <g id="line2d_46">
      <g>
       <use xlink:href="#m0f60ca23df" x="112.124341" y="794.545464" style="stroke: #000000; stroke-width: 0.8"/>
      </g>
     </g>
     <g id="text_44">
      <!-- 2023-11-15 -->
      <g transform="translate(88.339225 837.183716) rotate(-30) scale(0.1 -0.1)">
       <use xlink:href="#DejaVuSans-32"/>
       <use xlink:href="#DejaVuSans-30" x="63.623047"/>
       <use xlink:href="#DejaVuSans-32" x="127.246094"/>
       <use xlink:href="#DejaVuSans-33" x="190.869141"/>
       <use xlink:href="#DejaVuSans-2d" x="254.492188"/>
       <use xlink:href="#DejaVuSans-31" x="290.576172"/>
       <use xlink:href="#DejaVuSans-31" x="354.199219"/>
       <use xlink:href="#DejaVuSans-2d" x="417.822266"/>
       <use xlink:href="#DejaVuSans-31" x="453.90625"/>
       <use xlink:href="#DejaVuSans-35" x="517.529297"/>
      </g>
     </g>
    </g>
    <g id="xtick_19">
     <g id="line2d_47">
      <g>
       <use xlink:href="#m0f60ca23df" x="186.407806" y="794.545464" style="stroke: #000000; stroke-width: 0.8"/>
      </g>
     </g>
     <g id="text_45">
      <!-- 2023-12-01 -->
      <g transform="translate(162.62269 837.183716) rotate(-30) scale(0.1 -0.1)">
       <use xlink:href="#DejaVuSans-32"/>
       <use xlink:href="#DejaVuSans-30" x="63.623047"/>
       <use xlink:href="#DejaVuSans-32" x="127.246094"/>
       <use xlink:href="#DejaVuSans-33" x="190.869141"/>
       <use xlink:href="#DejaVuSans-2d" x="254.492188"/>
       <use xlink:href="#DejaVuSans-31" x="290.576172"/>
       <use xlink:href="#DejaVuSans-32" x="354.199219"/>
       <use xlink:href="#DejaVuSans-2d" x="417.822266"/>
       <use xlink:href="#DejaVuSans-30" x="453.90625"/>
       <use xlink:href="#DejaVuSans-31" x="517.529297"/>
      </g>
     </g>
    </g>
    <g id="xtick_20">
     <g id="line2d_48">
      <g>
       <use xlink:href="#m0f60ca23df" x="251.405839" y="794.545464" style="stroke: #000000; stroke-width: 0.8"/>
      </g>
     </g>
     <g id="text_46">
      <!-- 2023-12-15 -->
      <g transform="translate(227.620722 837.183716) rotate(-30) scale(0.1 -0.1)">
       <use xlink:href="#DejaVuSans-32"/>
       <use xlink:href="#DejaVuSans-30" x="63.623047"/>
       <use xlink:href="#DejaVuSans-32" x="127.246094"/>
       <use xlink:href="#DejaVuSans-33" x="190.869141"/>
       <use xlink:href="#DejaVuSans-2d" x="254.492188"/>
       <use xlink:href="#DejaVuSans-31" x="290.576172"/>
       <use xlink:href="#DejaVuSans-32" x="354.199219"/>
       <use xlink:href="#DejaVuSans-2d" x="417.822266"/>
       <use xlink:href="#DejaVuSans-31" x="453.90625"/>
       <use xlink:href="#DejaVuSans-35" x="517.529297"/>
      </g>
     </g>
    </g>
    <g id="xtick_21">
     <g id="line2d_49">
      <g>
       <use xlink:href="#m0f60ca23df" x="330.33202" y="794.545464" style="stroke: #000000; stroke-width: 0.8"/>
      </g>
     </g>
     <g id="text_47">
      <!-- 2024-01-01 -->
      <g transform="translate(306.546904 837.183716) rotate(-30) scale(0.1 -0.1)">
       <use xlink:href="#DejaVuSans-32"/>
       <use xlink:href="#DejaVuSans-30" x="63.623047"/>
       <use xlink:href="#DejaVuSans-32" x="127.246094"/>
       <use xlink:href="#DejaVuSans-34" x="190.869141"/>
       <use xlink:href="#DejaVuSans-2d" x="254.492188"/>
       <use xlink:href="#DejaVuSans-30" x="290.576172"/>
       <use xlink:href="#DejaVuSans-31" x="354.199219"/>
       <use xlink:href="#DejaVuSans-2d" x="417.822266"/>
       <use xlink:href="#DejaVuSans-30" x="453.90625"/>
       <use xlink:href="#DejaVuSans-31" x="517.529297"/>
      </g>
     </g>
    </g>
    <g id="xtick_22">
     <g id="line2d_50">
      <g>
       <use xlink:href="#m0f60ca23df" x="395.330053" y="794.545464" style="stroke: #000000; stroke-width: 0.8"/>
      </g>
     </g>
     <g id="text_48">
      <!-- 2024-01-15 -->
      <g transform="translate(371.544936 837.183716) rotate(-30) scale(0.1 -0.1)">
       <use xlink:href="#DejaVuSans-32"/>
       <use xlink:href="#DejaVuSans-30" x="63.623047"/>
       <use xlink:href="#DejaVuSans-32" x="127.246094"/>
       <use xlink:href="#DejaVuSans-34" x="190.869141"/>
       <use xlink:href="#DejaVuSans-2d" x="254.492188"/>
       <use xlink:href="#DejaVuSans-30" x="290.576172"/>
       <use xlink:href="#DejaVuSans-31" x="354.199219"/>
       <use xlink:href="#DejaVuSans-2d" x="417.822266"/>
       <use xlink:href="#DejaVuSans-31" x="453.90625"/>
       <use xlink:href="#DejaVuSans-35" x="517.529297"/>
      </g>
     </g>
    </g>
    <g id="xtick_23">
     <g id="line2d_51">
      <g>
       <use xlink:href="#m0f60ca23df" x="474.256234" y="794.545464" style="stroke: #000000; stroke-width: 0.8"/>
      </g>
     </g>
     <g id="text_49">
      <!-- 2024-02-01 -->
      <g transform="translate(450.471118 837.183716) rotate(-30) scale(0.1 -0.1)">
       <use xlink:href="#DejaVuSans-32"/>
       <use xlink:href="#DejaVuSans-30" x="63.623047"/>
       <use xlink:href="#DejaVuSans-32" x="127.246094"/>
       <use xlink:href="#DejaVuSans-34" x="190.869141"/>
       <use xlink:href="#DejaVuSans-2d" x="254.492188"/>
       <use xlink:href="#DejaVuSans-30" x="290.576172"/>
       <use xlink:href="#DejaVuSans-32" x="354.199219"/>
       <use xlink:href="#DejaVuSans-2d" x="417.822266"/>
       <use xlink:href="#DejaVuSans-30" x="453.90625"/>
       <use xlink:href="#DejaVuSans-31" x="517.529297"/>
      </g>
     </g>
    </g>
    <g id="text_50">
     <!-- Price date -->
     <g transform="translate(265.807211 850.583216) scale(0.1 -0.1)">
      <use xlink:href="#DejaVuSans-50"/>
      <use xlink:href="#DejaVuSans-72" x="58.552734"/>
      <use xlink:href="#DejaVuSans-69" x="99.666016"/>
      <use xlink:href="#DejaVuSans-63" x="127.449219"/>
      <use xlink:href="#DejaVuSans-65" x="182.429688"/>
      <use xlink:href="#DejaVuSans-20" x="243.953125"/>
      <use xlink:href="#DejaVuSans-64" x="275.740234"/>
      <use xlink:href="#DejaVuSans-61" x="339.216797"/>
      <use xlink:href="#DejaVuSans-74" x="400.496094"/>
      <use xlink:href="#DejaVuSans-65" x="439.705078"/>
     </g>
    </g>
   </g>
   <g id="matplotlib.axis_6">
    <g id="ytick_13">
     <g id="line2d_52">
      <g>
       <use xlink:href="#mb36159177c" x="43.18" y="785.496777" style="stroke: #000000; stroke-width: 0.8"/>
      </g>
     </g>
     <g id="text_51">
      <!-- 550 -->
      <g transform="translate(17.0925 789.295996) scale(0.1 -0.1)">
       <use xlink:href="#DejaVuSans-35"/>
       <use xlink:href="#DejaVuSans-35" x="63.623047"/>
       <use xlink:href="#DejaVuSans-30" x="127.246094"/>
      </g>
     </g>
    </g>
    <g id="ytick_14">
     <g id="line2d_53">
      <g>
       <use xlink:href="#mb36159177c" x="43.18" y="762.127234" style="stroke: #000000; stroke-width: 0.8"/>
      </g>
     </g>
     <g id="text_52">
      <!-- 575 -->
      <g transform="translate(17.0925 765.926452) scale(0.1 -0.1)">
       <defs>
        <path id="DejaVuSans-37" d="M 525 4666 
L 3525 4666 
L 3525 4397 
L 1831 0 
L 1172 0 
L 2766 4134 
L 525 4134 
L 525 4666 
z
" transform="scale(0.015625)"/>
       </defs>
       <use xlink:href="#DejaVuSans-35"/>
       <use xlink:href="#DejaVuSans-37" x="63.623047"/>
       <use xlink:href="#DejaVuSans-35" x="127.246094"/>
      </g>
     </g>
    </g>
    <g id="ytick_15">
     <g id="line2d_54">
      <g>
       <use xlink:href="#mb36159177c" x="43.18" y="738.757691" style="stroke: #000000; stroke-width: 0.8"/>
      </g>
     </g>
     <g id="text_53">
      <!-- 600 -->
      <g transform="translate(17.0925 742.556909) scale(0.1 -0.1)">
       <use xlink:href="#DejaVuSans-36"/>
       <use xlink:href="#DejaVuSans-30" x="63.623047"/>
       <use xlink:href="#DejaVuSans-30" x="127.246094"/>
      </g>
     </g>
    </g>
    <g id="ytick_16">
     <g id="line2d_55">
      <g>
       <use xlink:href="#mb36159177c" x="43.18" y="715.388148" style="stroke: #000000; stroke-width: 0.8"/>
      </g>
     </g>
     <g id="text_54">
      <!-- 625 -->
      <g transform="translate(17.0925 719.187366) scale(0.1 -0.1)">
       <use xlink:href="#DejaVuSans-36"/>
       <use xlink:href="#DejaVuSans-32" x="63.623047"/>
       <use xlink:href="#DejaVuSans-35" x="127.246094"/>
      </g>
     </g>
    </g>
    <g id="ytick_17">
     <g id="line2d_56">
      <g>
       <use xlink:href="#mb36159177c" x="43.18" y="692.018604" style="stroke: #000000; stroke-width: 0.8"/>
      </g>
     </g>
     <g id="text_55">
      <!-- 650 -->
      <g transform="translate(17.0925 695.817823) scale(0.1 -0.1)">
       <use xlink:href="#DejaVuSans-36"/>
       <use xlink:href="#DejaVuSans-35" x="63.623047"/>
       <use xlink:href="#DejaVuSans-30" x="127.246094"/>
      </g>
     </g>
    </g>
    <g id="ytick_18">
     <g id="line2d_57">
      <g>
       <use xlink:href="#mb36159177c" x="43.18" y="668.649061" style="stroke: #000000; stroke-width: 0.8"/>
      </g>
     </g>
     <g id="text_56">
      <!-- 675 -->
      <g transform="translate(17.0925 672.44828) scale(0.1 -0.1)">
       <use xlink:href="#DejaVuSans-36"/>
       <use xlink:href="#DejaVuSans-37" x="63.623047"/>
       <use xlink:href="#DejaVuSans-35" x="127.246094"/>
      </g>
     </g>
    </g>
    <g id="ytick_19">
     <g id="line2d_58">
      <g>
       <use xlink:href="#mb36159177c" x="43.18" y="645.279518" style="stroke: #000000; stroke-width: 0.8"/>
      </g>
     </g>
     <g id="text_57">
      <!-- 700 -->
      <g transform="translate(17.0925 649.078737) scale(0.1 -0.1)">
       <use xlink:href="#DejaVuSans-37"/>
       <use xlink:href="#DejaVuSans-30" x="63.623047"/>
       <use xlink:href="#DejaVuSans-30" x="127.246094"/>
      </g>
     </g>
    </g>
    <g id="ytick_20">
     <g id="line2d_59">
      <g>
       <use xlink:href="#mb36159177c" x="43.18" y="621.909975" style="stroke: #000000; stroke-width: 0.8"/>
      </g>
     </g>
     <g id="text_58">
      <!-- 725 -->
      <g transform="translate(17.0925 625.709194) scale(0.1 -0.1)">
       <use xlink:href="#DejaVuSans-37"/>
       <use xlink:href="#DejaVuSans-32" x="63.623047"/>
       <use xlink:href="#DejaVuSans-35" x="127.246094"/>
      </g>
     </g>
    </g>
    <g id="ytick_21">
     <g id="line2d_60">
      <g>
       <use xlink:href="#mb36159177c" x="43.18" y="598.540432" style="stroke: #000000; stroke-width: 0.8"/>
      </g>
     </g>
     <g id="text_59">
      <!-- 750 -->
      <g transform="translate(17.0925 602.339651) scale(0.1 -0.1)">
       <use xlink:href="#DejaVuSans-37"/>
       <use xlink:href="#DejaVuSans-35" x="63.623047"/>
       <use xlink:href="#DejaVuSans-30" x="127.246094"/>
      </g>
     </g>
    </g>
   </g>
   <g id="line2d_61">
    <path d="M 65.697175 604.719339 
L 70.339892 604.719339 
L 74.982609 604.719339 
L 79.625325 604.719339 
L 84.268042 604.719339 
L 88.910758 604.719339 
L 93.553475 604.719339 
L 98.196191 604.719339 
L 102.838908 604.719339 
L 107.481625 604.719339 
L 112.124341 604.719339 
L 116.767058 604.719339 
L 121.409774 604.719339 
L 126.052491 604.719339 
L 130.695208 604.719339 
L 135.337924 604.719339 
L 139.980641 604.719339 
L 144.623357 604.719339 
L 149.266074 604.719339 
L 153.90879 604.719339 
L 158.551507 604.719339 
L 163.194224 604.719339 
L 167.83694 604.719339 
L 172.479657 604.719339 
L 177.122373 604.719339 
L 181.76509 604.719339 
L 186.407806 604.719339 
L 191.050523 604.719339 
L 195.69324 604.719339 
L 200.335956 604.719339 
L 204.978673 604.719339 
L 209.621389 604.719339 
L 214.264106 604.719339 
L 218.906823 604.719339 
L 223.549539 604.719339 
L 228.192256 604.719339 
L 232.834972 604.719339 
L 237.477689 604.719339 
L 242.120405 604.719339 
L 246.763122 604.719339 
L 251.405839 604.719339 
L 256.048555 604.719339 
L 260.691272 604.719339 
L 265.333988 604.719339 
L 269.976705 604.719339 
L 274.619422 604.719339 
L 279.262138 604.719339 
L 283.904855 604.719339 
L 288.547571 604.719339 
L 293.190288 604.719339 
L 297.833004 604.719339 
L 302.475721 604.719339 
L 307.118438 604.719339 
L 311.761154 604.719339 
L 316.403871 604.719339 
L 321.046587 604.719339 
L 325.689304 604.719339 
L 330.33202 604.719339 
L 334.974737 604.719339 
L 339.617454 604.719339 
L 344.26017 604.719339 
L 348.902887 604.719339 
L 353.545603 604.719339 
L 358.18832 604.719339 
L 362.831037 604.719339 
L 367.473753 604.719339 
L 372.11647 604.719339 
L 376.759186 604.719339 
L 381.401903 604.719339 
L 386.044619 604.719339 
L 390.687336 604.719339 
L 395.330053 604.719339 
L 399.972769 604.719339 
L 404.615486 604.719339 
L 409.258202 604.719339 
L 413.900919 604.719339 
L 418.543635 604.719339 
L 423.186352 604.719339 
L 427.829069 604.719339 
L 432.471785 604.719339 
L 437.114502 604.719339 
L 446.399935 604.719339 
L 451.042652 604.719339 
L 455.685368 604.719339 
L 460.328085 604.719339 
L 464.970801 604.719339 
L 469.613518 604.719339 
L 474.256234 604.719339 
L 478.898951 604.719339 
L 483.541668 604.719339 
L 488.184384 604.719339 
L 492.827101 604.719339 
L 497.469817 604.719339 
L 502.112534 604.719339 
L 506.755251 604.719339 
L 511.397967 604.719339 
L 516.040684 604.719339 
" clip-path="url(#p6932a7f466)" style="fill: none; stroke: #1f77b4; stroke-width: 1.5; stroke-linecap: square"/>
   </g>
   <g id="line2d_62">
    <path d="M 65.697175 738.767038 
L 70.339892 738.767038 
L 74.982609 738.767038 
L 79.625325 738.767038 
L 84.268042 738.767038 
L 88.910758 738.767038 
L 93.553475 738.767038 
L 98.196191 738.767038 
L 102.838908 738.767038 
L 107.481625 738.767038 
L 112.124341 738.767038 
L 116.767058 738.767038 
L 121.409774 738.767038 
L 126.052491 738.767038 
L 130.695208 738.767038 
L 135.337924 738.767038 
L 139.980641 738.767038 
L 144.623357 785.506125 
L 149.266074 785.506125 
L 153.90879 785.506125 
M 172.479657 785.506125 
" clip-path="url(#p6932a7f466)" style="fill: none; stroke: #ff7f0e; stroke-width: 1.5; stroke-linecap: square"/>
   </g>
   <g id="line2d_63">
    <path d="M 65.697175 739.692472 
L 70.339892 739.692472 
L 74.982609 739.692472 
L 79.625325 739.692472 
L 84.268042 739.692472 
L 88.910758 739.692472 
L 93.553475 739.692472 
L 98.196191 739.692472 
L 102.838908 739.692472 
L 107.481625 739.692472 
L 112.124341 739.692472 
L 116.767058 739.692472 
L 121.409774 739.692472 
L 126.052491 739.692472 
L 130.695208 739.692472 
L 135.337924 739.692472 
L 139.980641 739.692472 
L 144.623357 739.692472 
L 149.266074 739.692472 
L 153.90879 739.692472 
L 158.551507 739.692472 
L 163.194224 739.692472 
L 167.83694 739.692472 
L 172.479657 739.692472 
L 177.122373 739.692472 
L 181.76509 739.692472 
L 186.407806 739.692472 
L 191.050523 739.692472 
L 195.69324 739.692472 
L 200.335956 739.692472 
L 204.978673 739.692472 
L 209.621389 739.692472 
L 214.264106 739.692472 
L 218.906823 739.692472 
L 223.549539 739.692472 
L 228.192256 739.692472 
L 232.834972 739.692472 
L 237.477689 739.692472 
L 242.120405 739.692472 
L 246.763122 739.692472 
L 251.405839 739.692472 
L 256.048555 739.692472 
L 260.691272 739.692472 
L 265.333988 739.692472 
L 269.976705 739.692472 
L 274.619422 739.692472 
L 279.262138 739.692472 
L 283.904855 739.692472 
L 288.547571 739.692472 
L 293.190288 739.692472 
L 297.833004 739.692472 
L 302.475721 739.692472 
L 307.118438 739.692472 
L 311.761154 739.692472 
L 316.403871 739.692472 
L 321.046587 739.692472 
L 325.689304 739.692472 
L 330.33202 739.692472 
L 334.974737 739.692472 
L 339.617454 739.692472 
L 344.26017 739.692472 
L 348.902887 739.692472 
L 353.545603 739.692472 
L 358.18832 739.692472 
L 362.831037 739.692472 
L 367.473753 739.692472 
L 372.11647 739.692472 
L 376.759186 739.692472 
L 381.401903 739.692472 
L 386.044619 739.692472 
L 390.687336 739.692472 
L 395.330053 739.692472 
L 399.972769 739.692472 
L 404.615486 739.692472 
L 409.258202 739.692472 
L 413.900919 739.692472 
L 418.543635 739.692472 
L 423.186352 739.692472 
L 427.829069 739.692472 
L 432.471785 739.692472 
L 437.114502 739.692472 
L 446.399935 739.692472 
L 451.042652 739.692472 
L 455.685368 739.692472 
L 460.328085 739.692472 
L 464.970801 739.692472 
L 469.613518 739.692472 
L 474.256234 739.692472 
L 478.898951 739.692472 
L 483.541668 739.692472 
L 488.184384 739.692472 
L 492.827101 739.692472 
L 497.469817 739.692472 
L 502.112534 739.692472 
L 506.755251 739.692472 
L 511.397967 739.692472 
L 516.040684 739.692472 
" clip-path="url(#p6932a7f466)" style="fill: none; stroke: #2ca02c; stroke-width: 1.5; stroke-linecap: square"/>
   </g>
   <g id="line2d_64">
    <path d="M 65.697175 670.518625 
L 70.339892 670.518625 
L 74.982609 670.518625 
L 79.625325 670.518625 
L 84.268042 670.518625 
L 88.910758 670.518625 
L 93.553475 670.518625 
L 98.196191 670.518625 
L 102.838908 670.518625 
L 107.481625 670.518625 
L 112.124341 670.518625 
L 116.767058 670.518625 
L 121.409774 670.518625 
L 126.052491 670.518625 
L 130.695208 670.518625 
L 135.337924 670.518625 
L 139.980641 670.518625 
L 144.623357 670.518625 
L 149.266074 670.518625 
L 153.90879 670.518625 
L 158.551507 670.518625 
L 163.194224 670.518625 
L 167.83694 670.518625 
L 172.479657 670.518625 
L 177.122373 670.518625 
L 181.76509 670.518625 
L 186.407806 670.518625 
L 191.050523 670.518625 
L 195.69324 670.518625 
L 200.335956 670.518625 
L 204.978673 670.518625 
L 209.621389 670.518625 
L 214.264106 670.518625 
L 218.906823 670.518625 
L 223.549539 670.518625 
L 228.192256 670.518625 
L 232.834972 670.518625 
L 237.477689 670.518625 
L 242.120405 670.518625 
L 246.763122 670.518625 
L 251.405839 670.518625 
L 256.048555 670.518625 
L 260.691272 670.518625 
L 265.333988 670.518625 
L 269.976705 670.518625 
L 274.619422 670.518625 
L 279.262138 670.518625 
L 283.904855 670.518625 
L 288.547571 670.518625 
L 293.190288 670.518625 
L 297.833004 670.518625 
L 302.475721 670.518625 
L 307.118438 670.518625 
L 311.761154 670.518625 
L 316.403871 670.518625 
L 321.046587 670.518625 
L 325.689304 670.518625 
L 330.33202 670.518625 
L 334.974737 670.518625 
L 339.617454 670.518625 
L 344.26017 670.518625 
L 348.902887 670.518625 
L 353.545603 670.518625 
L 358.18832 670.518625 
L 362.831037 670.518625 
L 367.473753 670.518625 
L 372.11647 670.518625 
L 376.759186 670.518625 
L 381.401903 670.518625 
L 386.044619 670.518625 
L 390.687336 670.518625 
L 395.330053 670.518625 
L 399.972769 670.518625 
L 404.615486 670.518625 
L 409.258202 670.518625 
L 413.900919 670.518625 
L 418.543635 670.518625 
L 423.186352 670.518625 
L 427.829069 670.518625 
L 432.471785 670.518625 
L 437.114502 670.518625 
L 446.399935 670.518625 
L 451.042652 670.518625 
L 455.685368 670.518625 
L 460.328085 670.518625 
L 464.970801 670.518625 
L 469.613518 670.518625 
L 474.256234 670.518625 
L 478.898951 670.518625 
L 483.541668 670.518625 
L 488.184384 670.518625 
L 492.827101 670.518625 
L 497.469817 670.518625 
L 502.112534 670.518625 
L 506.755251 670.518625 
L 511.397967 670.518625 
L 516.040684 670.518625 
" clip-path="url(#p6932a7f466)" style="fill: none; stroke: #d62728; stroke-width: 1.5; stroke-linecap: square"/>
   </g>
   <g id="patch_15">
    <path d="M 43.18 794.545464 
L 43.18 595.68 
" style="fill: none; stroke: #000000; stroke-width: 0.8; stroke-linejoin: miter; stroke-linecap: square"/>
   </g>
   <g id="patch_16">
    <path d="M 538.557859 794.545464 
L 538.557859 595.68 
" style="fill: none; stroke: #000000; stroke-width: 0.8; stroke-linejoin: miter; stroke-linecap: square"/>
   </g>
   <g id="patch_17">
    <path d="M 43.18 794.545464 
L 538.557859 794.545464 
" style="fill: none; stroke: #000000; stroke-width: 0.8; stroke-linejoin: miter; stroke-linecap: square"/>
   </g>
   <g id="patch_18">
    <path d="M 43.18 595.68 
L 538.557859 595.68 
" style="fill: none; stroke: #000000; stroke-width: 0.8; stroke-linejoin: miter; stroke-linecap: square"/>
   </g>
   <g id="text_60">
    <!-- HP 15-fd0007nm -->
    <g transform="translate(240.194242 589.68) scale(0.12 -0.12)">
     <defs>
      <path id="DejaVuSans-48" d="M 628 4666 
L 1259 4666 
L 1259 2753 
L 3553 2753 
L 3553 4666 
L 4184 4666 
L 4184 0 
L 3553 0 
L 3553 2222 
L 1259 2222 
L 1259 0 
L 628 0 
L 628 4666 
z
" transform="scale(0.015625)"/>
     </defs>
     <use xlink:href="#DejaVuSans-48"/>
     <use xlink:href="#DejaVuSans-50" x="75.195312"/>
     <use xlink:href="#DejaVuSans-20" x="135.498047"/>
     <use xlink:href="#DejaVuSans-31" x="167.285156"/>
     <use xlink:href="#DejaVuSans-35" x="230.908203"/>
     <use xlink:href="#DejaVuSans-2d" x="294.53125"/>
     <use xlink:href="#DejaVuSans-66" x="330.615234"/>
     <use xlink:href="#DejaVuSans-64" x="365.820312"/>
     <use xlink:href="#DejaVuSans-30" x="429.296875"/>
     <use xlink:href="#DejaVuSans-30" x="492.919922"/>
     <use xlink:href="#DejaVuSans-30" x="556.542969"/>
     <use xlink:href="#DejaVuSans-37" x="620.166016"/>
     <use xlink:href="#DejaVuSans-6e" x="683.789062"/>
     <use xlink:href="#DejaVuSans-6d" x="747.167969"/>
    </g>
   </g>
   <g id="legend_3">
    <g id="patch_19">
     <path d="M 397.475047 789.545464 
L 531.557859 789.545464 
Q 533.557859 789.545464 533.557859 787.545464 
L 533.557859 715.154839 
Q 533.557859 713.154839 531.557859 713.154839 
L 397.475047 713.154839 
Q 395.475047 713.154839 395.475047 715.154839 
L 395.475047 787.545464 
Q 395.475047 789.545464 397.475047 789.545464 
z
" style="fill: #ffffff; opacity: 0.8; stroke: #cccccc; stroke-linejoin: miter"/>
    </g>
    <g id="text_61">
     <!-- source -->
     <g transform="translate(447.91489 724.753276) scale(0.1 -0.1)">
      <use xlink:href="#DejaVuSans-73"/>
      <use xlink:href="#DejaVuSans-6f" x="52.099609"/>
      <use xlink:href="#DejaVuSans-75" x="113.28125"/>
      <use xlink:href="#DejaVuSans-72" x="176.660156"/>
      <use xlink:href="#DejaVuSans-63" x="215.523438"/>
      <use xlink:href="#DejaVuSans-65" x="270.503906"/>
     </g>
    </g>
    <g id="line2d_65">
     <path d="M 399.475047 735.931401 
L 409.475047 735.931401 
L 419.475047 735.931401 
" style="fill: none; stroke: #1f77b4; stroke-width: 1.5; stroke-linecap: square"/>
    </g>
    <g id="text_62">
     <!-- instar-informatika.hr -->
     <g transform="translate(427.475047 739.431401) scale(0.1 -0.1)">
      <use xlink:href="#DejaVuSans-69"/>
      <use xlink:href="#DejaVuSans-6e" x="27.783203"/>
      <use xlink:href="#DejaVuSans-73" x="91.162109"/>
      <use xlink:href="#DejaVuSans-74" x="143.261719"/>
      <use xlink:href="#DejaVuSans-61" x="182.470703"/>
      <use xlink:href="#DejaVuSans-72" x="243.75"/>
      <use xlink:href="#DejaVuSans-2d" x="278.488281"/>
      <use xlink:href="#DejaVuSans-69" x="314.572266"/>
      <use xlink:href="#DejaVuSans-6e" x="342.355469"/>
      <use xlink:href="#DejaVuSans-66" x="405.734375"/>
      <use xlink:href="#DejaVuSans-6f" x="440.939453"/>
      <use xlink:href="#DejaVuSans-72" x="502.121094"/>
      <use xlink:href="#DejaVuSans-6d" x="541.484375"/>
      <use xlink:href="#DejaVuSans-61" x="638.896484"/>
      <use xlink:href="#DejaVuSans-74" x="700.175781"/>
      <use xlink:href="#DejaVuSans-69" x="739.384766"/>
      <use xlink:href="#DejaVuSans-6b" x="767.167969"/>
      <use xlink:href="#DejaVuSans-61" x="823.328125"/>
      <use xlink:href="#DejaVuSans-2e" x="884.607422"/>
      <use xlink:href="#DejaVuSans-68" x="916.394531"/>
      <use xlink:href="#DejaVuSans-72" x="979.773438"/>
     </g>
    </g>
    <g id="line2d_66">
     <path d="M 399.475047 750.609526 
L 409.475047 750.609526 
L 419.475047 750.609526 
" style="fill: none; stroke: #ff7f0e; stroke-width: 1.5; stroke-linecap: square"/>
    </g>
    <g id="text_63">
     <!-- links.hr -->
     <g transform="translate(427.475047 754.109526) scale(0.1 -0.1)">
      <use xlink:href="#DejaVuSans-6c"/>
      <use xlink:href="#DejaVuSans-69" x="27.783203"/>
      <use xlink:href="#DejaVuSans-6e" x="55.566406"/>
      <use xlink:href="#DejaVuSans-6b" x="118.945312"/>
      <use xlink:href="#DejaVuSans-73" x="176.855469"/>
      <use xlink:href="#DejaVuSans-2e" x="228.955078"/>
      <use xlink:href="#DejaVuSans-68" x="260.742188"/>
      <use xlink:href="#DejaVuSans-72" x="324.121094"/>
     </g>
    </g>
    <g id="line2d_67">
     <path d="M 399.475047 765.287651 
L 409.475047 765.287651 
L 419.475047 765.287651 
" style="fill: none; stroke: #2ca02c; stroke-width: 1.5; stroke-linecap: square"/>
    </g>
    <g id="text_64">
     <!-- mikronis.hr -->
     <g transform="translate(427.475047 768.787651) scale(0.1 -0.1)">
      <use xlink:href="#DejaVuSans-6d"/>
      <use xlink:href="#DejaVuSans-69" x="97.412109"/>
      <use xlink:href="#DejaVuSans-6b" x="125.195312"/>
      <use xlink:href="#DejaVuSans-72" x="183.105469"/>
      <use xlink:href="#DejaVuSans-6f" x="221.96875"/>
      <use xlink:href="#DejaVuSans-6e" x="283.150391"/>
      <use xlink:href="#DejaVuSans-69" x="346.529297"/>
      <use xlink:href="#DejaVuSans-73" x="374.3125"/>
      <use xlink:href="#DejaVuSans-2e" x="426.412109"/>
      <use xlink:href="#DejaVuSans-68" x="458.199219"/>
      <use xlink:href="#DejaVuSans-72" x="521.578125"/>
     </g>
    </g>
    <g id="line2d_68">
     <path d="M 399.475047 779.965776 
L 409.475047 779.965776 
L 419.475047 779.965776 
" style="fill: none; stroke: #d62728; stroke-width: 1.5; stroke-linecap: square"/>
    </g>
    <g id="text_65">
     <!-- nabava.net -->
     <g transform="translate(427.475047 783.465776) scale(0.1 -0.1)">
      <use xlink:href="#DejaVuSans-6e"/>
      <use xlink:href="#DejaVuSans-61" x="63.378906"/>
      <use xlink:href="#DejaVuSans-62" x="124.658203"/>
      <use xlink:href="#DejaVuSans-61" x="188.134766"/>
      <use xlink:href="#DejaVuSans-76" x="249.414062"/>
      <use xlink:href="#DejaVuSans-61" x="308.59375"/>
      <use xlink:href="#DejaVuSans-2e" x="369.873047"/>
      <use xlink:href="#DejaVuSans-6e" x="401.660156"/>
      <use xlink:href="#DejaVuSans-65" x="465.039062"/>
      <use xlink:href="#DejaVuSans-74" x="526.5625"/>
     </g>
    </g>
   </g>
  </g>
 </g>
 <defs>
  <clipPath id="p35b6db7922">
   <rect x="43.18" y="26.88" width="495.377859" height="198.865464"/>
  </clipPath>
  <clipPath id="p83a00cf2df">
   <rect x="43.18" y="311.28" width="495.377859" height="198.865464"/>
  </clipPath>
  <clipPath id="p6932a7f466">
   <rect x="43.18" y="595.68" width="495.377859" height="198.865464"/>
  </clipPath>
 </defs>
</svg>
