<?xml version="1.0" encoding="utf-8" standalone="no"?>
<!DOCTYPE svg PUBLIC "-//W3C//DTD SVG 1.1//EN"
  "http://www.w3.org/Graphics/SVG/1.1/DTD/svg11.dtd">
<svg xmlns:xlink="http://www.w3.org/1999/xlink" width="576pt" height="864pt" viewBox="0 0 576 864" xmlns="http://www.w3.org/2000/svg" version="1.1">
 <metadata>
  <rdf:RDF xmlns:dc="http://purl.org/dc/elements/1.1/" xmlns:cc="http://creativecommons.org/ns#" xmlns:rdf="http://www.w3.org/1999/02/22-rdf-syntax-ns#">
   <cc:Work>
    <dc:type rdf:resource="http://purl.org/dc/dcmitype/StillImage"/>
    <dc:date>2024-01-14T00:46:21.790102</dc:date>
    <dc:format>image/svg+xml</dc:format>
    <dc:creator>
     <cc:Agent>
      <dc:title>Matplotlib v3.8.2, https://matplotlib.org/</dc:title>
     </cc:Agent>
    </dc:creator>
   </cc:Work>
  </rdf:RDF>
 </metadata>
 <defs>
  <style type="text/css">*{stroke-linejoin: round; stroke-linecap: butt}</style>
 </defs>
 <g id="figure_1">
  <g id="patch_1">
   <path d="M 0 864 
L 576 864 
L 576 0 
L 0 0 
z
" style="fill: #ffffff"/>
  </g>
  <g id="axes_1">
   <g id="patch_2">
    <path d="M 43.18 225.745464 
L 552.231975 225.745464 
L 552.231975 26.88 
L 43.18 26.88 
z
" style="fill: #ffffff"/>
   </g>
   <g id="matplotlib.axis_1">
    <g id="xtick_1">
     <g id="line2d_1">
      <defs>
       <path id="mf1dd5ad21b" d="M 0 0 
L 0 3.5 
" style="stroke: #000000; stroke-width: 0.8"/>
      </defs>
      <g>
       <use xlink:href="#mf1dd5ad21b" x="84.348902" y="225.745464" style="stroke: #000000; stroke-width: 0.8"/>
      </g>
     </g>
     <g id="text_1">
      <!-- 2023-11-01 -->
      <g transform="translate(60.563786 268.383716) rotate(-30) scale(0.1 -0.1)">
       <defs>
        <path id="DejaVuSans-32" d="M 1228 531 
L 3431 531 
L 3431 0 
L 469 0 
L 469 531 
Q 828 903 1448 1529 
Q 2069 2156 2228 2338 
Q 2531 2678 2651 2914 
Q 2772 3150 2772 3378 
Q 2772 3750 2511 3984 
Q 2250 4219 1831 4219 
Q 1534 4219 1204 4116 
Q 875 4013 500 3803 
L 500 4441 
Q 881 4594 1212 4672 
Q 1544 4750 1819 4750 
Q 2544 4750 2975 4387 
Q 3406 4025 3406 3419 
Q 3406 3131 3298 2873 
Q 3191 2616 2906 2266 
Q 2828 2175 2409 1742 
Q 1991 1309 1228 531 
z
" transform="scale(0.015625)"/>
        <path id="DejaVuSans-30" d="M 2034 4250 
Q 1547 4250 1301 3770 
Q 1056 3291 1056 2328 
Q 1056 1369 1301 889 
Q 1547 409 2034 409 
Q 2525 409 2770 889 
Q 3016 1369 3016 2328 
Q 3016 3291 2770 3770 
Q 2525 4250 2034 4250 
z
M 2034 4750 
Q 2819 4750 3233 4129 
Q 3647 3509 3647 2328 
Q 3647 1150 3233 529 
Q 2819 -91 2034 -91 
Q 1250 -91 836 529 
Q 422 1150 422 2328 
Q 422 3509 836 4129 
Q 1250 4750 2034 4750 
z
" transform="scale(0.015625)"/>
        <path id="DejaVuSans-33" d="M 2597 2516 
Q 3050 2419 3304 2112 
Q 3559 1806 3559 1356 
Q 3559 666 3084 287 
Q 2609 -91 1734 -91 
Q 1441 -91 1130 -33 
Q 819 25 488 141 
L 488 750 
Q 750 597 1062 519 
Q 1375 441 1716 441 
Q 2309 441 2620 675 
Q 2931 909 2931 1356 
Q 2931 1769 2642 2001 
Q 2353 2234 1838 2234 
L 1294 2234 
L 1294 2753 
L 1863 2753 
Q 2328 2753 2575 2939 
Q 2822 3125 2822 3475 
Q 2822 3834 2567 4026 
Q 2313 4219 1838 4219 
Q 1578 4219 1281 4162 
Q 984 4106 628 3988 
L 628 4550 
Q 988 4650 1302 4700 
Q 1616 4750 1894 4750 
Q 2613 4750 3031 4423 
Q 3450 4097 3450 3541 
Q 3450 3153 3228 2886 
Q 3006 2619 2597 2516 
z
" transform="scale(0.015625)"/>
        <path id="DejaVuSans-2d" d="M 313 2009 
L 1997 2009 
L 1997 1497 
L 313 1497 
L 313 2009 
z
" transform="scale(0.015625)"/>
        <path id="DejaVuSans-31" d="M 794 531 
L 1825 531 
L 1825 4091 
L 703 3866 
L 703 4441 
L 1819 4666 
L 2450 4666 
L 2450 531 
L 3481 531 
L 3481 0 
L 794 0 
L 794 531 
z
" transform="scale(0.015625)"/>
       </defs>
       <use xlink:href="#DejaVuSans-32"/>
       <use xlink:href="#DejaVuSans-30" x="63.623047"/>
       <use xlink:href="#DejaVuSans-32" x="127.246094"/>
       <use xlink:href="#DejaVuSans-33" x="190.869141"/>
       <use xlink:href="#DejaVuSans-2d" x="254.492188"/>
       <use xlink:href="#DejaVuSans-31" x="290.576172"/>
       <use xlink:href="#DejaVuSans-31" x="354.199219"/>
       <use xlink:href="#DejaVuSans-2d" x="417.822266"/>
       <use xlink:href="#DejaVuSans-30" x="453.90625"/>
       <use xlink:href="#DejaVuSans-31" x="517.529297"/>
      </g>
     </g>
    </g>
    <g id="xtick_2">
     <g id="line2d_2">
      <g>
       <use xlink:href="#mf1dd5ad21b" x="168.489725" y="225.745464" style="stroke: #000000; stroke-width: 0.8"/>
      </g>
     </g>
     <g id="text_2">
      <!-- 2023-11-15 -->
      <g transform="translate(144.704608 268.383716) rotate(-30) scale(0.1 -0.1)">
       <defs>
        <path id="DejaVuSans-35" d="M 691 4666 
L 3169 4666 
L 3169 4134 
L 1269 4134 
L 1269 2991 
Q 1406 3038 1543 3061 
Q 1681 3084 1819 3084 
Q 2600 3084 3056 2656 
Q 3513 2228 3513 1497 
Q 3513 744 3044 326 
Q 2575 -91 1722 -91 
Q 1428 -91 1123 -41 
Q 819 9 494 109 
L 494 744 
Q 775 591 1075 516 
Q 1375 441 1709 441 
Q 2250 441 2565 725 
Q 2881 1009 2881 1497 
Q 2881 1984 2565 2268 
Q 2250 2553 1709 2553 
Q 1456 2553 1204 2497 
Q 953 2441 691 2322 
L 691 4666 
z
" transform="scale(0.015625)"/>
       </defs>
       <use xlink:href="#DejaVuSans-32"/>
       <use xlink:href="#DejaVuSans-30" x="63.623047"/>
       <use xlink:href="#DejaVuSans-32" x="127.246094"/>
       <use xlink:href="#DejaVuSans-33" x="190.869141"/>
       <use xlink:href="#DejaVuSans-2d" x="254.492188"/>
       <use xlink:href="#DejaVuSans-31" x="290.576172"/>
       <use xlink:href="#DejaVuSans-31" x="354.199219"/>
       <use xlink:href="#DejaVuSans-2d" x="417.822266"/>
       <use xlink:href="#DejaVuSans-31" x="453.90625"/>
       <use xlink:href="#DejaVuSans-35" x="517.529297"/>
      </g>
     </g>
    </g>
    <g id="xtick_3">
     <g id="line2d_3">
      <g>
       <use xlink:href="#mf1dd5ad21b" x="264.650664" y="225.745464" style="stroke: #000000; stroke-width: 0.8"/>
      </g>
     </g>
     <g id="text_3">
      <!-- 2023-12-01 -->
      <g transform="translate(240.865548 268.383716) rotate(-30) scale(0.1 -0.1)">
       <use xlink:href="#DejaVuSans-32"/>
       <use xlink:href="#DejaVuSans-30" x="63.623047"/>
       <use xlink:href="#DejaVuSans-32" x="127.246094"/>
       <use xlink:href="#DejaVuSans-33" x="190.869141"/>
       <use xlink:href="#DejaVuSans-2d" x="254.492188"/>
       <use xlink:href="#DejaVuSans-31" x="290.576172"/>
       <use xlink:href="#DejaVuSans-32" x="354.199219"/>
       <use xlink:href="#DejaVuSans-2d" x="417.822266"/>
       <use xlink:href="#DejaVuSans-30" x="453.90625"/>
       <use xlink:href="#DejaVuSans-31" x="517.529297"/>
      </g>
     </g>
    </g>
    <g id="xtick_4">
     <g id="line2d_4">
      <g>
       <use xlink:href="#mf1dd5ad21b" x="348.791487" y="225.745464" style="stroke: #000000; stroke-width: 0.8"/>
      </g>
     </g>
     <g id="text_4">
      <!-- 2023-12-15 -->
      <g transform="translate(325.00637 268.383716) rotate(-30) scale(0.1 -0.1)">
       <use xlink:href="#DejaVuSans-32"/>
       <use xlink:href="#DejaVuSans-30" x="63.623047"/>
       <use xlink:href="#DejaVuSans-32" x="127.246094"/>
       <use xlink:href="#DejaVuSans-33" x="190.869141"/>
       <use xlink:href="#DejaVuSans-2d" x="254.492188"/>
       <use xlink:href="#DejaVuSans-31" x="290.576172"/>
       <use xlink:href="#DejaVuSans-32" x="354.199219"/>
       <use xlink:href="#DejaVuSans-2d" x="417.822266"/>
       <use xlink:href="#DejaVuSans-31" x="453.90625"/>
       <use xlink:href="#DejaVuSans-35" x="517.529297"/>
      </g>
     </g>
    </g>
    <g id="xtick_5">
     <g id="line2d_5">
      <g>
       <use xlink:href="#mf1dd5ad21b" x="450.962485" y="225.745464" style="stroke: #000000; stroke-width: 0.8"/>
      </g>
     </g>
     <g id="text_5">
      <!-- 2024-01-01 -->
      <g transform="translate(427.177369 268.383716) rotate(-30) scale(0.1 -0.1)">
       <defs>
        <path id="DejaVuSans-34" d="M 2419 4116 
L 825 1625 
L 2419 1625 
L 2419 4116 
z
M 2253 4666 
L 3047 4666 
L 3047 1625 
L 3713 1625 
L 3713 1100 
L 3047 1100 
L 3047 0 
L 2419 0 
L 2419 1100 
L 313 1100 
L 313 1709 
L 2253 4666 
z
" transform="scale(0.015625)"/>
       </defs>
       <use xlink:href="#DejaVuSans-32"/>
       <use xlink:href="#DejaVuSans-30" x="63.623047"/>
       <use xlink:href="#DejaVuSans-32" x="127.246094"/>
       <use xlink:href="#DejaVuSans-34" x="190.869141"/>
       <use xlink:href="#DejaVuSans-2d" x="254.492188"/>
       <use xlink:href="#DejaVuSans-30" x="290.576172"/>
       <use xlink:href="#DejaVuSans-31" x="354.199219"/>
       <use xlink:href="#DejaVuSans-2d" x="417.822266"/>
       <use xlink:href="#DejaVuSans-30" x="453.90625"/>
       <use xlink:href="#DejaVuSans-31" x="517.529297"/>
      </g>
     </g>
    </g>
    <g id="xtick_6">
     <g id="line2d_6">
      <g>
       <use xlink:href="#mf1dd5ad21b" x="535.103307" y="225.745464" style="stroke: #000000; stroke-width: 0.8"/>
      </g>
     </g>
     <g id="text_6">
      <!-- 2024-01-15 -->
      <g transform="translate(511.318191 268.383716) rotate(-30) scale(0.1 -0.1)">
       <use xlink:href="#DejaVuSans-32"/>
       <use xlink:href="#DejaVuSans-30" x="63.623047"/>
       <use xlink:href="#DejaVuSans-32" x="127.246094"/>
       <use xlink:href="#DejaVuSans-34" x="190.869141"/>
       <use xlink:href="#DejaVuSans-2d" x="254.492188"/>
       <use xlink:href="#DejaVuSans-30" x="290.576172"/>
       <use xlink:href="#DejaVuSans-31" x="354.199219"/>
       <use xlink:href="#DejaVuSans-2d" x="417.822266"/>
       <use xlink:href="#DejaVuSans-31" x="453.90625"/>
       <use xlink:href="#DejaVuSans-35" x="517.529297"/>
      </g>
     </g>
    </g>
    <g id="text_7">
     <!-- Price date -->
     <g transform="translate(272.644269 281.783216) scale(0.1 -0.1)">
      <defs>
       <path id="DejaVuSans-50" d="M 1259 4147 
L 1259 2394 
L 2053 2394 
Q 2494 2394 2734 2622 
Q 2975 2850 2975 3272 
Q 2975 3691 2734 3919 
Q 2494 4147 2053 4147 
L 1259 4147 
z
M 628 4666 
L 2053 4666 
Q 2838 4666 3239 4311 
Q 3641 3956 3641 3272 
Q 3641 2581 3239 2228 
Q 2838 1875 2053 1875 
L 1259 1875 
L 1259 0 
L 628 0 
L 628 4666 
z
" transform="scale(0.015625)"/>
       <path id="DejaVuSans-72" d="M 2631 2963 
Q 2534 3019 2420 3045 
Q 2306 3072 2169 3072 
Q 1681 3072 1420 2755 
Q 1159 2438 1159 1844 
L 1159 0 
L 581 0 
L 581 3500 
L 1159 3500 
L 1159 2956 
Q 1341 3275 1631 3429 
Q 1922 3584 2338 3584 
Q 2397 3584 2469 3576 
Q 2541 3569 2628 3553 
L 2631 2963 
z
" transform="scale(0.015625)"/>
       <path id="DejaVuSans-69" d="M 603 3500 
L 1178 3500 
L 1178 0 
L 603 0 
L 603 3500 
z
M 603 4863 
L 1178 4863 
L 1178 4134 
L 603 4134 
L 603 4863 
z
" transform="scale(0.015625)"/>
       <path id="DejaVuSans-63" d="M 3122 3366 
L 3122 2828 
Q 2878 2963 2633 3030 
Q 2388 3097 2138 3097 
Q 1578 3097 1268 2742 
Q 959 2388 959 1747 
Q 959 1106 1268 751 
Q 1578 397 2138 397 
Q 2388 397 2633 464 
Q 2878 531 3122 666 
L 3122 134 
Q 2881 22 2623 -34 
Q 2366 -91 2075 -91 
Q 1284 -91 818 406 
Q 353 903 353 1747 
Q 353 2603 823 3093 
Q 1294 3584 2113 3584 
Q 2378 3584 2631 3529 
Q 2884 3475 3122 3366 
z
" transform="scale(0.015625)"/>
       <path id="DejaVuSans-65" d="M 3597 1894 
L 3597 1613 
L 953 1613 
Q 991 1019 1311 708 
Q 1631 397 2203 397 
Q 2534 397 2845 478 
Q 3156 559 3463 722 
L 3463 178 
Q 3153 47 2828 -22 
Q 2503 -91 2169 -91 
Q 1331 -91 842 396 
Q 353 884 353 1716 
Q 353 2575 817 3079 
Q 1281 3584 2069 3584 
Q 2775 3584 3186 3129 
Q 3597 2675 3597 1894 
z
M 3022 2063 
Q 3016 2534 2758 2815 
Q 2500 3097 2075 3097 
Q 1594 3097 1305 2825 
Q 1016 2553 972 2059 
L 3022 2063 
z
" transform="scale(0.015625)"/>
       <path id="DejaVuSans-20" transform="scale(0.015625)"/>
       <path id="DejaVuSans-64" d="M 2906 2969 
L 2906 4863 
L 3481 4863 
L 3481 0 
L 2906 0 
L 2906 525 
Q 2725 213 2448 61 
Q 2172 -91 1784 -91 
Q 1150 -91 751 415 
Q 353 922 353 1747 
Q 353 2572 751 3078 
Q 1150 3584 1784 3584 
Q 2172 3584 2448 3432 
Q 2725 3281 2906 2969 
z
M 947 1747 
Q 947 1113 1208 752 
Q 1469 391 1925 391 
Q 2381 391 2643 752 
Q 2906 1113 2906 1747 
Q 2906 2381 2643 2742 
Q 2381 3103 1925 3103 
Q 1469 3103 1208 2742 
Q 947 2381 947 1747 
z
" transform="scale(0.015625)"/>
       <path id="DejaVuSans-61" d="M 2194 1759 
Q 1497 1759 1228 1600 
Q 959 1441 959 1056 
Q 959 750 1161 570 
Q 1363 391 1709 391 
Q 2188 391 2477 730 
Q 2766 1069 2766 1631 
L 2766 1759 
L 2194 1759 
z
M 3341 1997 
L 3341 0 
L 2766 0 
L 2766 531 
Q 2569 213 2275 61 
Q 1981 -91 1556 -91 
Q 1019 -91 701 211 
Q 384 513 384 1019 
Q 384 1609 779 1909 
Q 1175 2209 1959 2209 
L 2766 2209 
L 2766 2266 
Q 2766 2663 2505 2880 
Q 2244 3097 1772 3097 
Q 1472 3097 1187 3025 
Q 903 2953 641 2809 
L 641 3341 
Q 956 3463 1253 3523 
Q 1550 3584 1831 3584 
Q 2591 3584 2966 3190 
Q 3341 2797 3341 1997 
z
" transform="scale(0.015625)"/>
       <path id="DejaVuSans-74" d="M 1172 4494 
L 1172 3500 
L 2356 3500 
L 2356 3053 
L 1172 3053 
L 1172 1153 
Q 1172 725 1289 603 
Q 1406 481 1766 481 
L 2356 481 
L 2356 0 
L 1766 0 
Q 1100 0 847 248 
Q 594 497 594 1153 
L 594 3053 
L 172 3053 
L 172 3500 
L 594 3500 
L 594 4494 
L 1172 4494 
z
" transform="scale(0.015625)"/>
      </defs>
      <use xlink:href="#DejaVuSans-50"/>
      <use xlink:href="#DejaVuSans-72" x="58.552734"/>
      <use xlink:href="#DejaVuSans-69" x="99.666016"/>
      <use xlink:href="#DejaVuSans-63" x="127.449219"/>
      <use xlink:href="#DejaVuSans-65" x="182.429688"/>
      <use xlink:href="#DejaVuSans-20" x="243.953125"/>
      <use xlink:href="#DejaVuSans-64" x="275.740234"/>
      <use xlink:href="#DejaVuSans-61" x="339.216797"/>
      <use xlink:href="#DejaVuSans-74" x="400.496094"/>
      <use xlink:href="#DejaVuSans-65" x="439.705078"/>
     </g>
    </g>
   </g>
   <g id="matplotlib.axis_2">
    <g id="ytick_1">
     <g id="line2d_7">
      <defs>
       <path id="m97feb7b53e" d="M 0 0 
L -3.5 0 
" style="stroke: #000000; stroke-width: 0.8"/>
      </defs>
      <g>
       <use xlink:href="#m97feb7b53e" x="43.18" y="220.480553" style="stroke: #000000; stroke-width: 0.8"/>
      </g>
     </g>
     <g id="text_8">
      <!-- 1150 -->
      <g transform="translate(10.73 224.279772) scale(0.1 -0.1)">
       <use xlink:href="#DejaVuSans-31"/>
       <use xlink:href="#DejaVuSans-31" x="63.623047"/>
       <use xlink:href="#DejaVuSans-35" x="127.246094"/>
       <use xlink:href="#DejaVuSans-30" x="190.869141"/>
      </g>
     </g>
    </g>
    <g id="ytick_2">
     <g id="line2d_8">
      <g>
       <use xlink:href="#m97feb7b53e" x="43.18" y="182.660632" style="stroke: #000000; stroke-width: 0.8"/>
      </g>
     </g>
     <g id="text_9">
      <!-- 1200 -->
      <g transform="translate(10.73 186.459851) scale(0.1 -0.1)">
       <use xlink:href="#DejaVuSans-31"/>
       <use xlink:href="#DejaVuSans-32" x="63.623047"/>
       <use xlink:href="#DejaVuSans-30" x="127.246094"/>
       <use xlink:href="#DejaVuSans-30" x="190.869141"/>
      </g>
     </g>
    </g>
    <g id="ytick_3">
     <g id="line2d_9">
      <g>
       <use xlink:href="#m97feb7b53e" x="43.18" y="144.840711" style="stroke: #000000; stroke-width: 0.8"/>
      </g>
     </g>
     <g id="text_10">
      <!-- 1250 -->
      <g transform="translate(10.73 148.63993) scale(0.1 -0.1)">
       <use xlink:href="#DejaVuSans-31"/>
       <use xlink:href="#DejaVuSans-32" x="63.623047"/>
       <use xlink:href="#DejaVuSans-35" x="127.246094"/>
       <use xlink:href="#DejaVuSans-30" x="190.869141"/>
      </g>
     </g>
    </g>
    <g id="ytick_4">
     <g id="line2d_10">
      <g>
       <use xlink:href="#m97feb7b53e" x="43.18" y="107.02079" style="stroke: #000000; stroke-width: 0.8"/>
      </g>
     </g>
     <g id="text_11">
      <!-- 1300 -->
      <g transform="translate(10.73 110.820009) scale(0.1 -0.1)">
       <use xlink:href="#DejaVuSans-31"/>
       <use xlink:href="#DejaVuSans-33" x="63.623047"/>
       <use xlink:href="#DejaVuSans-30" x="127.246094"/>
       <use xlink:href="#DejaVuSans-30" x="190.869141"/>
      </g>
     </g>
    </g>
    <g id="ytick_5">
     <g id="line2d_11">
      <g>
       <use xlink:href="#m97feb7b53e" x="43.18" y="69.20087" style="stroke: #000000; stroke-width: 0.8"/>
      </g>
     </g>
     <g id="text_12">
      <!-- 1350 -->
      <g transform="translate(10.73 73.000088) scale(0.1 -0.1)">
       <use xlink:href="#DejaVuSans-31"/>
       <use xlink:href="#DejaVuSans-33" x="63.623047"/>
       <use xlink:href="#DejaVuSans-35" x="127.246094"/>
       <use xlink:href="#DejaVuSans-30" x="190.869141"/>
      </g>
     </g>
    </g>
    <g id="ytick_6">
     <g id="line2d_12">
      <g>
       <use xlink:href="#m97feb7b53e" x="43.18" y="31.380949" style="stroke: #000000; stroke-width: 0.8"/>
      </g>
     </g>
     <g id="text_13">
      <!-- 1400 -->
      <g transform="translate(10.73 35.180168) scale(0.1 -0.1)">
       <use xlink:href="#DejaVuSans-31"/>
       <use xlink:href="#DejaVuSans-34" x="63.623047"/>
       <use xlink:href="#DejaVuSans-30" x="127.246094"/>
       <use xlink:href="#DejaVuSans-30" x="190.869141"/>
      </g>
     </g>
    </g>
   </g>
   <g id="line2d_13">
    <path d="M 108.389137 152.412259 
L 114.399196 152.412259 
L 120.409255 152.412259 
L 126.419313 152.412259 
L 132.429372 152.412259 
L 138.439431 152.412259 
L 144.44949 152.412259 
L 150.459548 152.412259 
L 156.469607 152.412259 
L 162.479666 152.412259 
L 168.489725 152.412259 
L 174.499783 152.412259 
L 180.509842 152.412259 
L 186.519901 152.412259 
L 192.52996 152.412259 
L 198.540018 152.412259 
L 204.550077 152.412259 
L 210.560136 152.412259 
L 216.570195 152.412259 
L 222.580253 152.412259 
L 228.590312 152.412259 
L 234.600371 152.412259 
L 240.610429 152.412259 
L 246.620488 152.412259 
L 252.630547 152.412259 
L 258.640606 152.412259 
L 264.650664 152.412259 
L 270.660723 152.412259 
L 276.670782 152.412259 
L 282.680841 152.412259 
L 288.690899 152.412259 
L 294.700958 152.412259 
L 300.711017 152.412259 
L 306.721076 152.412259 
L 312.731134 152.412259 
L 318.741193 152.412259 
L 324.751252 152.412259 
L 330.76131 152.412259 
L 336.771369 152.412259 
L 342.781428 152.412259 
L 348.791487 152.412259 
L 354.801545 152.412259 
L 360.811604 152.412259 
L 366.821663 152.412259 
L 372.831722 152.412259 
L 378.84178 152.412259 
L 384.851839 152.412259 
L 390.861898 152.412259 
L 396.871957 152.412259 
L 402.882015 152.412259 
L 408.892074 152.412259 
L 414.902133 152.412259 
L 420.912192 152.412259 
L 426.92225 152.412259 
L 432.932309 152.412259 
L 438.942368 152.412259 
L 444.952426 152.412259 
L 450.962485 152.412259 
M 462.982603 152.412259 
L 468.992661 152.412259 
L 475.00272 152.412259 
L 481.012779 152.412259 
L 487.022838 152.412259 
L 493.032896 152.412259 
L 499.042955 152.412259 
L 505.053014 216.706125 
L 511.063073 216.706125 
L 517.073131 216.706125 
L 523.08319 216.706125 
L 529.093249 216.706125 
" clip-path="url(#p7b3d804c89)" style="fill: none; stroke: #1f77b4; stroke-width: 1.5; stroke-linecap: square"/>
   </g>
   <g id="line2d_14">
    <path d="M 66.318726 35.919339 
L 108.389137 45.752519 
L 114.399196 45.752519 
L 120.409255 45.752519 
L 126.419313 45.752519 
L 132.429372 44.99612 
L 138.439431 45.752519 
L 144.44949 45.752519 
L 150.459548 45.752519 
L 156.469607 45.752519 
L 162.479666 45.752519 
L 168.489725 44.99612 
L 174.499783 45.752519 
L 180.509842 63.149682 
L 186.519901 63.149682 
L 192.52996 63.149682 
L 198.540018 63.149682 
L 204.550077 63.149682 
L 210.560136 63.149682 
L 216.570195 63.149682 
L 222.580253 63.149682 
L 228.590312 63.149682 
L 234.600371 63.149682 
L 240.610429 63.149682 
L 246.620488 59.36769 
L 252.630547 59.36769 
L 258.640606 36.675738 
L 264.650664 58.611292 
L 270.660723 58.611292 
L 276.670782 67.688073 
L 282.680841 67.688073 
L 288.690899 76.764854 
L 294.700958 76.764854 
L 300.711017 108.533587 
L 306.721076 108.533587 
L 312.731134 108.533587 
L 318.741193 108.533587 
L 324.751252 108.533587 
L 330.76131 93.405619 
L 336.771369 93.405619 
L 342.781428 93.405619 
L 348.791487 92.64922 
L 354.801545 92.64922 
L 360.811604 85.085236 
L 366.821663 85.085236 
L 372.831722 95.674814 
L 378.84178 93.405619 
L 384.851839 92.64922 
L 390.861898 92.64922 
L 396.871957 92.64922 
L 402.882015 92.64922 
L 408.892074 92.64922 
L 414.902133 92.64922 
L 420.912192 92.64922 
L 426.92225 93.405619 
L 432.932309 101.726001 
L 438.942368 101.726001 
L 444.952426 101.726001 
L 450.962485 101.726001 
L 456.972544 101.726001 
L 462.982603 101.726001 
L 468.992661 101.726001 
L 475.00272 93.405619 
L 481.012779 101.726001 
L 487.022838 101.726001 
L 493.032896 101.726001 
L 499.042955 93.405619 
L 505.053014 97.187611 
L 511.063073 101.726001 
L 517.073131 111.559181 
L 523.08319 111.559181 
L 529.093249 111.559181 
" clip-path="url(#p7b3d804c89)" style="fill: none; stroke: #ff7f0e; stroke-width: 1.5; stroke-linecap: square"/>
   </g>
   <g id="line2d_15">
    <path d="M 108.389137 54.072901 
L 114.399196 54.072901 
L 120.409255 54.072901 
L 126.419313 54.072901 
L 132.429372 54.072901 
L 138.439431 54.072901 
L 144.44949 54.072901 
L 150.459548 54.072901 
L 156.469607 54.072901 
L 162.479666 54.072901 
L 168.489725 54.072901 
L 174.499783 54.072901 
L 180.509842 54.072901 
L 186.519901 54.072901 
L 192.52996 54.072901 
L 198.540018 54.072901 
L 204.550077 87.92173 
L 210.560136 87.92173 
L 216.570195 99.456806 
L 222.580253 99.456806 
L 228.590312 152.404695 
L 234.600371 152.404695 
L 240.610429 152.404695 
L 246.620488 99.456806 
L 252.630547 102.4824 
L 258.640606 91.136424 
L 264.650664 96.431213 
L 270.660723 96.431213 
L 276.670782 96.431213 
L 282.680841 96.431213 
L 288.690899 96.431213 
L 294.700958 96.431213 
L 300.711017 96.431213 
L 306.721076 131.22554 
L 312.731134 131.22554 
L 318.741193 131.22554 
L 324.751252 127.443548 
L 330.76131 113.071978 
L 336.771369 113.071978 
L 342.781428 113.071978 
L 348.791487 183.41703 
L 354.801545 122.148759 
L 360.811604 113.828376 
L 366.821663 113.828376 
L 372.831722 115.341173 
L 378.84178 115.341173 
L 384.851839 116.85397 
L 390.861898 116.85397 
L 396.871957 183.41703 
L 402.882015 122.148759 
L 408.892074 122.148759 
L 414.902133 122.148759 
L 420.912192 122.148759 
L 426.92225 122.148759 
L 432.932309 130.469141 
L 438.942368 125.930751 
L 444.952426 125.930751 
L 450.962485 125.930751 
L 456.972544 125.930751 
L 462.982603 125.930751 
L 468.992661 125.930751 
L 475.00272 122.148759 
L 481.012779 122.905157 
L 487.022838 122.905157 
L 493.032896 125.930751 
L 499.042955 130.469141 
L 505.053014 130.469141 
L 511.063073 107.777189 
L 517.073131 111.559181 
L 523.08319 115.341173 
L 529.093249 115.341173 
" clip-path="url(#p7b3d804c89)" style="fill: none; stroke: #2ca02c; stroke-width: 1.5; stroke-linecap: square"/>
   </g>
   <g id="line2d_16">
    <path d="M 108.389137 54.8293 
L 114.399196 54.8293 
L 120.409255 54.8293 
L 126.419313 54.8293 
L 132.429372 54.8293 
L 138.439431 54.8293 
L 144.44949 54.8293 
L 150.459548 54.8293 
L 156.469607 54.8293 
L 162.479666 54.8293 
L 168.489725 54.8293 
L 174.499783 54.8293 
L 180.509842 85.085236 
L 186.519901 85.085236 
L 192.52996 85.085236 
L 198.540018 85.085236 
L 204.550077 85.085236 
L 210.560136 85.085236 
L 216.570195 54.8293 
L 222.580253 54.8293 
L 228.590312 122.905157 
L 234.600371 54.8293 
L 240.610429 54.8293 
L 246.620488 54.8293 
L 252.630547 54.8293 
L 258.640606 54.8293 
L 264.650664 54.8293 
L 270.660723 107.777189 
L 276.670782 107.777189 
L 282.680841 107.777189 
L 288.690899 107.777189 
L 294.700958 107.777189 
L 300.711017 48.460425 
L 306.721076 69.957268 
L 312.731134 69.957268 
L 318.741193 69.957268 
L 324.751252 69.957268 
L 330.76131 69.957268 
L 336.771369 69.957268 
L 342.781428 69.957268 
L 348.791487 69.957268 
L 354.801545 69.957268 
L 360.811604 69.957268 
L 366.821663 69.957268 
L 372.831722 69.957268 
L 378.84178 69.957268 
L 384.851839 69.957268 
L 390.861898 69.957268 
L 396.871957 69.957268 
L 402.882015 69.957268 
L 408.892074 69.957268 
L 414.902133 69.957268 
L 420.912192 69.957268 
L 426.92225 69.957268 
L 432.932309 69.957268 
L 438.942368 69.957268 
L 444.952426 69.957268 
L 450.962485 69.957268 
L 456.972544 69.957268 
L 462.982603 69.957268 
L 468.992661 69.957268 
L 475.00272 54.8293 
L 481.012779 85.085236 
L 487.022838 85.085236 
L 493.032896 85.085236 
L 499.042955 85.085236 
L 505.053014 85.085236 
L 511.063073 85.085236 
L 517.073131 54.8293 
L 523.08319 122.905157 
L 529.093249 122.905157 
" clip-path="url(#p7b3d804c89)" style="fill: none; stroke: #d62728; stroke-width: 1.5; stroke-linecap: square"/>
   </g>
   <g id="patch_3">
    <path d="M 43.18 225.745464 
L 43.18 26.88 
" style="fill: none; stroke: #000000; stroke-width: 0.8; stroke-linejoin: miter; stroke-linecap: square"/>
   </g>
   <g id="patch_4">
    <path d="M 552.231975 225.745464 
L 552.231975 26.88 
" style="fill: none; stroke: #000000; stroke-width: 0.8; stroke-linejoin: miter; stroke-linecap: square"/>
   </g>
   <g id="patch_5">
    <path d="M 43.18 225.745464 
L 552.231975 225.745464 
" style="fill: none; stroke: #000000; stroke-width: 0.8; stroke-linejoin: miter; stroke-linecap: square"/>
   </g>
   <g id="patch_6">
    <path d="M 43.18 26.88 
L 552.231975 26.88 
" style="fill: none; stroke: #000000; stroke-width: 0.8; stroke-linejoin: miter; stroke-linecap: square"/>
   </g>
   <g id="text_14">
    <!-- Apple iPhone 15 Pro, 256GB -->
    <g transform="translate(213.4688 20.88) scale(0.12 -0.12)">
     <defs>
      <path id="DejaVuSans-41" d="M 2188 4044 
L 1331 1722 
L 3047 1722 
L 2188 4044 
z
M 1831 4666 
L 2547 4666 
L 4325 0 
L 3669 0 
L 3244 1197 
L 1141 1197 
L 716 0 
L 50 0 
L 1831 4666 
z
" transform="scale(0.015625)"/>
      <path id="DejaVuSans-70" d="M 1159 525 
L 1159 -1331 
L 581 -1331 
L 581 3500 
L 1159 3500 
L 1159 2969 
Q 1341 3281 1617 3432 
Q 1894 3584 2278 3584 
Q 2916 3584 3314 3078 
Q 3713 2572 3713 1747 
Q 3713 922 3314 415 
Q 2916 -91 2278 -91 
Q 1894 -91 1617 61 
Q 1341 213 1159 525 
z
M 3116 1747 
Q 3116 2381 2855 2742 
Q 2594 3103 2138 3103 
Q 1681 3103 1420 2742 
Q 1159 2381 1159 1747 
Q 1159 1113 1420 752 
Q 1681 391 2138 391 
Q 2594 391 2855 752 
Q 3116 1113 3116 1747 
z
" transform="scale(0.015625)"/>
      <path id="DejaVuSans-6c" d="M 603 4863 
L 1178 4863 
L 1178 0 
L 603 0 
L 603 4863 
z
" transform="scale(0.015625)"/>
      <path id="DejaVuSans-68" d="M 3513 2113 
L 3513 0 
L 2938 0 
L 2938 2094 
Q 2938 2591 2744 2837 
Q 2550 3084 2163 3084 
Q 1697 3084 1428 2787 
Q 1159 2491 1159 1978 
L 1159 0 
L 581 0 
L 581 4863 
L 1159 4863 
L 1159 2956 
Q 1366 3272 1645 3428 
Q 1925 3584 2291 3584 
Q 2894 3584 3203 3211 
Q 3513 2838 3513 2113 
z
" transform="scale(0.015625)"/>
      <path id="DejaVuSans-6f" d="M 1959 3097 
Q 1497 3097 1228 2736 
Q 959 2375 959 1747 
Q 959 1119 1226 758 
Q 1494 397 1959 397 
Q 2419 397 2687 759 
Q 2956 1122 2956 1747 
Q 2956 2369 2687 2733 
Q 2419 3097 1959 3097 
z
M 1959 3584 
Q 2709 3584 3137 3096 
Q 3566 2609 3566 1747 
Q 3566 888 3137 398 
Q 2709 -91 1959 -91 
Q 1206 -91 779 398 
Q 353 888 353 1747 
Q 353 2609 779 3096 
Q 1206 3584 1959 3584 
z
" transform="scale(0.015625)"/>
      <path id="DejaVuSans-6e" d="M 3513 2113 
L 3513 0 
L 2938 0 
L 2938 2094 
Q 2938 2591 2744 2837 
Q 2550 3084 2163 3084 
Q 1697 3084 1428 2787 
Q 1159 2491 1159 1978 
L 1159 0 
L 581 0 
L 581 3500 
L 1159 3500 
L 1159 2956 
Q 1366 3272 1645 3428 
Q 1925 3584 2291 3584 
Q 2894 3584 3203 3211 
Q 3513 2838 3513 2113 
z
" transform="scale(0.015625)"/>
      <path id="DejaVuSans-2c" d="M 750 794 
L 1409 794 
L 1409 256 
L 897 -744 
L 494 -744 
L 750 256 
L 750 794 
z
" transform="scale(0.015625)"/>
      <path id="DejaVuSans-36" d="M 2113 2584 
Q 1688 2584 1439 2293 
Q 1191 2003 1191 1497 
Q 1191 994 1439 701 
Q 1688 409 2113 409 
Q 2538 409 2786 701 
Q 3034 994 3034 1497 
Q 3034 2003 2786 2293 
Q 2538 2584 2113 2584 
z
M 3366 4563 
L 3366 3988 
Q 3128 4100 2886 4159 
Q 2644 4219 2406 4219 
Q 1781 4219 1451 3797 
Q 1122 3375 1075 2522 
Q 1259 2794 1537 2939 
Q 1816 3084 2150 3084 
Q 2853 3084 3261 2657 
Q 3669 2231 3669 1497 
Q 3669 778 3244 343 
Q 2819 -91 2113 -91 
Q 1303 -91 875 529 
Q 447 1150 447 2328 
Q 447 3434 972 4092 
Q 1497 4750 2381 4750 
Q 2619 4750 2861 4703 
Q 3103 4656 3366 4563 
z
" transform="scale(0.015625)"/>
      <path id="DejaVuSans-47" d="M 3809 666 
L 3809 1919 
L 2778 1919 
L 2778 2438 
L 4434 2438 
L 4434 434 
Q 4069 175 3628 42 
Q 3188 -91 2688 -91 
Q 1594 -91 976 548 
Q 359 1188 359 2328 
Q 359 3472 976 4111 
Q 1594 4750 2688 4750 
Q 3144 4750 3555 4637 
Q 3966 4525 4313 4306 
L 4313 3634 
Q 3963 3931 3569 4081 
Q 3175 4231 2741 4231 
Q 1884 4231 1454 3753 
Q 1025 3275 1025 2328 
Q 1025 1384 1454 906 
Q 1884 428 2741 428 
Q 3075 428 3337 486 
Q 3600 544 3809 666 
z
" transform="scale(0.015625)"/>
      <path id="DejaVuSans-42" d="M 1259 2228 
L 1259 519 
L 2272 519 
Q 2781 519 3026 730 
Q 3272 941 3272 1375 
Q 3272 1813 3026 2020 
Q 2781 2228 2272 2228 
L 1259 2228 
z
M 1259 4147 
L 1259 2741 
L 2194 2741 
Q 2656 2741 2882 2914 
Q 3109 3088 3109 3444 
Q 3109 3797 2882 3972 
Q 2656 4147 2194 4147 
L 1259 4147 
z
M 628 4666 
L 2241 4666 
Q 2963 4666 3353 4366 
Q 3744 4066 3744 3513 
Q 3744 3084 3544 2831 
Q 3344 2578 2956 2516 
Q 3422 2416 3680 2098 
Q 3938 1781 3938 1306 
Q 3938 681 3513 340 
Q 3088 0 2303 0 
L 628 0 
L 628 4666 
z
" transform="scale(0.015625)"/>
     </defs>
     <use xlink:href="#DejaVuSans-41"/>
     <use xlink:href="#DejaVuSans-70" x="68.408203"/>
     <use xlink:href="#DejaVuSans-70" x="131.884766"/>
     <use xlink:href="#DejaVuSans-6c" x="195.361328"/>
     <use xlink:href="#DejaVuSans-65" x="223.144531"/>
     <use xlink:href="#DejaVuSans-20" x="284.667969"/>
     <use xlink:href="#DejaVuSans-69" x="316.455078"/>
     <use xlink:href="#DejaVuSans-50" x="344.238281"/>
     <use xlink:href="#DejaVuSans-68" x="404.541016"/>
     <use xlink:href="#DejaVuSans-6f" x="467.919922"/>
     <use xlink:href="#DejaVuSans-6e" x="529.101562"/>
     <use xlink:href="#DejaVuSans-65" x="592.480469"/>
     <use xlink:href="#DejaVuSans-20" x="654.003906"/>
     <use xlink:href="#DejaVuSans-31" x="685.791016"/>
     <use xlink:href="#DejaVuSans-35" x="749.414062"/>
     <use xlink:href="#DejaVuSans-20" x="813.037109"/>
     <use xlink:href="#DejaVuSans-50" x="844.824219"/>
     <use xlink:href="#DejaVuSans-72" x="903.376953"/>
     <use xlink:href="#DejaVuSans-6f" x="942.240234"/>
     <use xlink:href="#DejaVuSans-2c" x="1003.421875"/>
     <use xlink:href="#DejaVuSans-20" x="1035.208984"/>
     <use xlink:href="#DejaVuSans-32" x="1066.996094"/>
     <use xlink:href="#DejaVuSans-35" x="1130.619141"/>
     <use xlink:href="#DejaVuSans-36" x="1194.242188"/>
     <use xlink:href="#DejaVuSans-47" x="1257.865234"/>
     <use xlink:href="#DejaVuSans-42" x="1335.355469"/>
    </g>
   </g>
   <g id="legend_1">
    <g id="patch_7">
     <path d="M 50.18 220.745464 
L 155.78 220.745464 
Q 157.78 220.745464 157.78 218.745464 
L 157.78 146.354839 
Q 157.78 144.354839 155.78 144.354839 
L 50.18 144.354839 
Q 48.18 144.354839 48.18 146.354839 
L 48.18 218.745464 
Q 48.18 220.745464 50.18 220.745464 
z
" style="fill: #ffffff; opacity: 0.8; stroke: #cccccc; stroke-linejoin: miter"/>
    </g>
    <g id="text_15">
     <!-- source -->
     <g transform="translate(86.378438 155.953276) scale(0.1 -0.1)">
      <defs>
       <path id="DejaVuSans-73" d="M 2834 3397 
L 2834 2853 
Q 2591 2978 2328 3040 
Q 2066 3103 1784 3103 
Q 1356 3103 1142 2972 
Q 928 2841 928 2578 
Q 928 2378 1081 2264 
Q 1234 2150 1697 2047 
L 1894 2003 
Q 2506 1872 2764 1633 
Q 3022 1394 3022 966 
Q 3022 478 2636 193 
Q 2250 -91 1575 -91 
Q 1294 -91 989 -36 
Q 684 19 347 128 
L 347 722 
Q 666 556 975 473 
Q 1284 391 1588 391 
Q 1994 391 2212 530 
Q 2431 669 2431 922 
Q 2431 1156 2273 1281 
Q 2116 1406 1581 1522 
L 1381 1569 
Q 847 1681 609 1914 
Q 372 2147 372 2553 
Q 372 3047 722 3315 
Q 1072 3584 1716 3584 
Q 2034 3584 2315 3537 
Q 2597 3491 2834 3397 
z
" transform="scale(0.015625)"/>
       <path id="DejaVuSans-75" d="M 544 1381 
L 544 3500 
L 1119 3500 
L 1119 1403 
Q 1119 906 1312 657 
Q 1506 409 1894 409 
Q 2359 409 2629 706 
Q 2900 1003 2900 1516 
L 2900 3500 
L 3475 3500 
L 3475 0 
L 2900 0 
L 2900 538 
Q 2691 219 2414 64 
Q 2138 -91 1772 -91 
Q 1169 -91 856 284 
Q 544 659 544 1381 
z
M 1991 3584 
L 1991 3584 
z
" transform="scale(0.015625)"/>
      </defs>
      <use xlink:href="#DejaVuSans-73"/>
      <use xlink:href="#DejaVuSans-6f" x="52.099609"/>
      <use xlink:href="#DejaVuSans-75" x="113.28125"/>
      <use xlink:href="#DejaVuSans-72" x="176.660156"/>
      <use xlink:href="#DejaVuSans-63" x="215.523438"/>
      <use xlink:href="#DejaVuSans-65" x="270.503906"/>
     </g>
    </g>
    <g id="line2d_17">
     <path d="M 52.18 167.131401 
L 62.18 167.131401 
L 72.18 167.131401 
" style="fill: none; stroke: #1f77b4; stroke-width: 1.5; stroke-linecap: square"/>
    </g>
    <g id="text_16">
     <!-- links.hr -->
     <g transform="translate(80.18 170.631401) scale(0.1 -0.1)">
      <defs>
       <path id="DejaVuSans-6b" d="M 581 4863 
L 1159 4863 
L 1159 1991 
L 2875 3500 
L 3609 3500 
L 1753 1863 
L 3688 0 
L 2938 0 
L 1159 1709 
L 1159 0 
L 581 0 
L 581 4863 
z
" transform="scale(0.015625)"/>
       <path id="DejaVuSans-2e" d="M 684 794 
L 1344 794 
L 1344 0 
L 684 0 
L 684 794 
z
" transform="scale(0.015625)"/>
      </defs>
      <use xlink:href="#DejaVuSans-6c"/>
      <use xlink:href="#DejaVuSans-69" x="27.783203"/>
      <use xlink:href="#DejaVuSans-6e" x="55.566406"/>
      <use xlink:href="#DejaVuSans-6b" x="118.945312"/>
      <use xlink:href="#DejaVuSans-73" x="176.855469"/>
      <use xlink:href="#DejaVuSans-2e" x="228.955078"/>
      <use xlink:href="#DejaVuSans-68" x="260.742188"/>
      <use xlink:href="#DejaVuSans-72" x="324.121094"/>
     </g>
    </g>
    <g id="line2d_18">
     <path d="M 52.18 181.809526 
L 62.18 181.809526 
L 72.18 181.809526 
" style="fill: none; stroke: #ff7f0e; stroke-width: 1.5; stroke-linecap: square"/>
    </g>
    <g id="text_17">
     <!-- mobileshop.eu -->
     <g transform="translate(80.18 185.309526) scale(0.1 -0.1)">
      <defs>
       <path id="DejaVuSans-6d" d="M 3328 2828 
Q 3544 3216 3844 3400 
Q 4144 3584 4550 3584 
Q 5097 3584 5394 3201 
Q 5691 2819 5691 2113 
L 5691 0 
L 5113 0 
L 5113 2094 
Q 5113 2597 4934 2840 
Q 4756 3084 4391 3084 
Q 3944 3084 3684 2787 
Q 3425 2491 3425 1978 
L 3425 0 
L 2847 0 
L 2847 2094 
Q 2847 2600 2669 2842 
Q 2491 3084 2119 3084 
Q 1678 3084 1418 2786 
Q 1159 2488 1159 1978 
L 1159 0 
L 581 0 
L 581 3500 
L 1159 3500 
L 1159 2956 
Q 1356 3278 1631 3431 
Q 1906 3584 2284 3584 
Q 2666 3584 2933 3390 
Q 3200 3197 3328 2828 
z
" transform="scale(0.015625)"/>
       <path id="DejaVuSans-62" d="M 3116 1747 
Q 3116 2381 2855 2742 
Q 2594 3103 2138 3103 
Q 1681 3103 1420 2742 
Q 1159 2381 1159 1747 
Q 1159 1113 1420 752 
Q 1681 391 2138 391 
Q 2594 391 2855 752 
Q 3116 1113 3116 1747 
z
M 1159 2969 
Q 1341 3281 1617 3432 
Q 1894 3584 2278 3584 
Q 2916 3584 3314 3078 
Q 3713 2572 3713 1747 
Q 3713 922 3314 415 
Q 2916 -91 2278 -91 
Q 1894 -91 1617 61 
Q 1341 213 1159 525 
L 1159 0 
L 581 0 
L 581 4863 
L 1159 4863 
L 1159 2969 
z
" transform="scale(0.015625)"/>
      </defs>
      <use xlink:href="#DejaVuSans-6d"/>
      <use xlink:href="#DejaVuSans-6f" x="97.412109"/>
      <use xlink:href="#DejaVuSans-62" x="158.59375"/>
      <use xlink:href="#DejaVuSans-69" x="222.070312"/>
      <use xlink:href="#DejaVuSans-6c" x="249.853516"/>
      <use xlink:href="#DejaVuSans-65" x="277.636719"/>
      <use xlink:href="#DejaVuSans-73" x="339.160156"/>
      <use xlink:href="#DejaVuSans-68" x="391.259766"/>
      <use xlink:href="#DejaVuSans-6f" x="454.638672"/>
      <use xlink:href="#DejaVuSans-70" x="515.820312"/>
      <use xlink:href="#DejaVuSans-2e" x="579.296875"/>
      <use xlink:href="#DejaVuSans-65" x="611.083984"/>
      <use xlink:href="#DejaVuSans-75" x="672.607422"/>
     </g>
    </g>
    <g id="line2d_19">
     <path d="M 52.18 196.487651 
L 62.18 196.487651 
L 72.18 196.487651 
" style="fill: none; stroke: #2ca02c; stroke-width: 1.5; stroke-linecap: square"/>
    </g>
    <g id="text_18">
     <!-- nabava.net -->
     <g transform="translate(80.18 199.987651) scale(0.1 -0.1)">
      <defs>
       <path id="DejaVuSans-76" d="M 191 3500 
L 800 3500 
L 1894 563 
L 2988 3500 
L 3597 3500 
L 2284 0 
L 1503 0 
L 191 3500 
z
" transform="scale(0.015625)"/>
      </defs>
      <use xlink:href="#DejaVuSans-6e"/>
      <use xlink:href="#DejaVuSans-61" x="63.378906"/>
      <use xlink:href="#DejaVuSans-62" x="124.658203"/>
      <use xlink:href="#DejaVuSans-61" x="188.134766"/>
      <use xlink:href="#DejaVuSans-76" x="249.414062"/>
      <use xlink:href="#DejaVuSans-61" x="308.59375"/>
      <use xlink:href="#DejaVuSans-2e" x="369.873047"/>
      <use xlink:href="#DejaVuSans-6e" x="401.660156"/>
      <use xlink:href="#DejaVuSans-65" x="465.039062"/>
      <use xlink:href="#DejaVuSans-74" x="526.5625"/>
     </g>
    </g>
    <g id="line2d_20">
     <path d="M 52.18 211.165776 
L 62.18 211.165776 
L 72.18 211.165776 
" style="fill: none; stroke: #d62728; stroke-width: 1.5; stroke-linecap: square"/>
    </g>
    <g id="text_19">
     <!-- unieuro.it -->
     <g transform="translate(80.18 214.665776) scale(0.1 -0.1)">
      <use xlink:href="#DejaVuSans-75"/>
      <use xlink:href="#DejaVuSans-6e" x="63.378906"/>
      <use xlink:href="#DejaVuSans-69" x="126.757812"/>
      <use xlink:href="#DejaVuSans-65" x="154.541016"/>
      <use xlink:href="#DejaVuSans-75" x="216.064453"/>
      <use xlink:href="#DejaVuSans-72" x="279.443359"/>
      <use xlink:href="#DejaVuSans-6f" x="318.306641"/>
      <use xlink:href="#DejaVuSans-2e" x="377.738281"/>
      <use xlink:href="#DejaVuSans-69" x="409.525391"/>
      <use xlink:href="#DejaVuSans-74" x="437.308594"/>
     </g>
    </g>
   </g>
  </g>
  <g id="axes_2">
   <g id="patch_8">
    <path d="M 43.18 510.145464 
L 552.231975 510.145464 
L 552.231975 311.28 
L 43.18 311.28 
z
" style="fill: #ffffff"/>
   </g>
   <g id="matplotlib.axis_3">
    <g id="xtick_7">
     <g id="line2d_21">
      <g>
       <use xlink:href="#mf1dd5ad21b" x="84.348902" y="510.145464" style="stroke: #000000; stroke-width: 0.8"/>
      </g>
     </g>
     <g id="text_20">
      <!-- 2023-11-01 -->
      <g transform="translate(60.563786 552.783716) rotate(-30) scale(0.1 -0.1)">
       <use xlink:href="#DejaVuSans-32"/>
       <use xlink:href="#DejaVuSans-30" x="63.623047"/>
       <use xlink:href="#DejaVuSans-32" x="127.246094"/>
       <use xlink:href="#DejaVuSans-33" x="190.869141"/>
       <use xlink:href="#DejaVuSans-2d" x="254.492188"/>
       <use xlink:href="#DejaVuSans-31" x="290.576172"/>
       <use xlink:href="#DejaVuSans-31" x="354.199219"/>
       <use xlink:href="#DejaVuSans-2d" x="417.822266"/>
       <use xlink:href="#DejaVuSans-30" x="453.90625"/>
       <use xlink:href="#DejaVuSans-31" x="517.529297"/>
      </g>
     </g>
    </g>
    <g id="xtick_8">
     <g id="line2d_22">
      <g>
       <use xlink:href="#mf1dd5ad21b" x="168.489725" y="510.145464" style="stroke: #000000; stroke-width: 0.8"/>
      </g>
     </g>
     <g id="text_21">
      <!-- 2023-11-15 -->
      <g transform="translate(144.704608 552.783716) rotate(-30) scale(0.1 -0.1)">
       <use xlink:href="#DejaVuSans-32"/>
       <use xlink:href="#DejaVuSans-30" x="63.623047"/>
       <use xlink:href="#DejaVuSans-32" x="127.246094"/>
       <use xlink:href="#DejaVuSans-33" x="190.869141"/>
       <use xlink:href="#DejaVuSans-2d" x="254.492188"/>
       <use xlink:href="#DejaVuSans-31" x="290.576172"/>
       <use xlink:href="#DejaVuSans-31" x="354.199219"/>
       <use xlink:href="#DejaVuSans-2d" x="417.822266"/>
       <use xlink:href="#DejaVuSans-31" x="453.90625"/>
       <use xlink:href="#DejaVuSans-35" x="517.529297"/>
      </g>
     </g>
    </g>
    <g id="xtick_9">
     <g id="line2d_23">
      <g>
       <use xlink:href="#mf1dd5ad21b" x="264.650664" y="510.145464" style="stroke: #000000; stroke-width: 0.8"/>
      </g>
     </g>
     <g id="text_22">
      <!-- 2023-12-01 -->
      <g transform="translate(240.865548 552.783716) rotate(-30) scale(0.1 -0.1)">
       <use xlink:href="#DejaVuSans-32"/>
       <use xlink:href="#DejaVuSans-30" x="63.623047"/>
       <use xlink:href="#DejaVuSans-32" x="127.246094"/>
       <use xlink:href="#DejaVuSans-33" x="190.869141"/>
       <use xlink:href="#DejaVuSans-2d" x="254.492188"/>
       <use xlink:href="#DejaVuSans-31" x="290.576172"/>
       <use xlink:href="#DejaVuSans-32" x="354.199219"/>
       <use xlink:href="#DejaVuSans-2d" x="417.822266"/>
       <use xlink:href="#DejaVuSans-30" x="453.90625"/>
       <use xlink:href="#DejaVuSans-31" x="517.529297"/>
      </g>
     </g>
    </g>
    <g id="xtick_10">
     <g id="line2d_24">
      <g>
       <use xlink:href="#mf1dd5ad21b" x="348.791487" y="510.145464" style="stroke: #000000; stroke-width: 0.8"/>
      </g>
     </g>
     <g id="text_23">
      <!-- 2023-12-15 -->
      <g transform="translate(325.00637 552.783716) rotate(-30) scale(0.1 -0.1)">
       <use xlink:href="#DejaVuSans-32"/>
       <use xlink:href="#DejaVuSans-30" x="63.623047"/>
       <use xlink:href="#DejaVuSans-32" x="127.246094"/>
       <use xlink:href="#DejaVuSans-33" x="190.869141"/>
       <use xlink:href="#DejaVuSans-2d" x="254.492188"/>
       <use xlink:href="#DejaVuSans-31" x="290.576172"/>
       <use xlink:href="#DejaVuSans-32" x="354.199219"/>
       <use xlink:href="#DejaVuSans-2d" x="417.822266"/>
       <use xlink:href="#DejaVuSans-31" x="453.90625"/>
       <use xlink:href="#DejaVuSans-35" x="517.529297"/>
      </g>
     </g>
    </g>
    <g id="xtick_11">
     <g id="line2d_25">
      <g>
       <use xlink:href="#mf1dd5ad21b" x="450.962485" y="510.145464" style="stroke: #000000; stroke-width: 0.8"/>
      </g>
     </g>
     <g id="text_24">
      <!-- 2024-01-01 -->
      <g transform="translate(427.177369 552.783716) rotate(-30) scale(0.1 -0.1)">
       <use xlink:href="#DejaVuSans-32"/>
       <use xlink:href="#DejaVuSans-30" x="63.623047"/>
       <use xlink:href="#DejaVuSans-32" x="127.246094"/>
       <use xlink:href="#DejaVuSans-34" x="190.869141"/>
       <use xlink:href="#DejaVuSans-2d" x="254.492188"/>
       <use xlink:href="#DejaVuSans-30" x="290.576172"/>
       <use xlink:href="#DejaVuSans-31" x="354.199219"/>
       <use xlink:href="#DejaVuSans-2d" x="417.822266"/>
       <use xlink:href="#DejaVuSans-30" x="453.90625"/>
       <use xlink:href="#DejaVuSans-31" x="517.529297"/>
      </g>
     </g>
    </g>
    <g id="xtick_12">
     <g id="line2d_26">
      <g>
       <use xlink:href="#mf1dd5ad21b" x="535.103307" y="510.145464" style="stroke: #000000; stroke-width: 0.8"/>
      </g>
     </g>
     <g id="text_25">
      <!-- 2024-01-15 -->
      <g transform="translate(511.318191 552.783716) rotate(-30) scale(0.1 -0.1)">
       <use xlink:href="#DejaVuSans-32"/>
       <use xlink:href="#DejaVuSans-30" x="63.623047"/>
       <use xlink:href="#DejaVuSans-32" x="127.246094"/>
       <use xlink:href="#DejaVuSans-34" x="190.869141"/>
       <use xlink:href="#DejaVuSans-2d" x="254.492188"/>
       <use xlink:href="#DejaVuSans-30" x="290.576172"/>
       <use xlink:href="#DejaVuSans-31" x="354.199219"/>
       <use xlink:href="#DejaVuSans-2d" x="417.822266"/>
       <use xlink:href="#DejaVuSans-31" x="453.90625"/>
       <use xlink:href="#DejaVuSans-35" x="517.529297"/>
      </g>
     </g>
    </g>
    <g id="text_26">
     <!-- Price date -->
     <g transform="translate(272.644269 566.183216) scale(0.1 -0.1)">
      <use xlink:href="#DejaVuSans-50"/>
      <use xlink:href="#DejaVuSans-72" x="58.552734"/>
      <use xlink:href="#DejaVuSans-69" x="99.666016"/>
      <use xlink:href="#DejaVuSans-63" x="127.449219"/>
      <use xlink:href="#DejaVuSans-65" x="182.429688"/>
      <use xlink:href="#DejaVuSans-20" x="243.953125"/>
      <use xlink:href="#DejaVuSans-64" x="275.740234"/>
      <use xlink:href="#DejaVuSans-61" x="339.216797"/>
      <use xlink:href="#DejaVuSans-74" x="400.496094"/>
      <use xlink:href="#DejaVuSans-65" x="439.705078"/>
     </g>
    </g>
   </g>
   <g id="matplotlib.axis_4">
    <g id="ytick_7">
     <g id="line2d_27">
      <g>
       <use xlink:href="#m97feb7b53e" x="43.18" y="493.56901" style="stroke: #000000; stroke-width: 0.8"/>
      </g>
     </g>
     <g id="text_27">
      <!-- 420 -->
      <g transform="translate(17.0925 497.368229) scale(0.1 -0.1)">
       <use xlink:href="#DejaVuSans-34"/>
       <use xlink:href="#DejaVuSans-32" x="63.623047"/>
       <use xlink:href="#DejaVuSans-30" x="127.246094"/>
      </g>
     </g>
    </g>
    <g id="ytick_8">
     <g id="line2d_28">
      <g>
       <use xlink:href="#m97feb7b53e" x="43.18" y="458.915611" style="stroke: #000000; stroke-width: 0.8"/>
      </g>
     </g>
     <g id="text_28">
      <!-- 440 -->
      <g transform="translate(17.0925 462.714829) scale(0.1 -0.1)">
       <use xlink:href="#DejaVuSans-34"/>
       <use xlink:href="#DejaVuSans-34" x="63.623047"/>
       <use xlink:href="#DejaVuSans-30" x="127.246094"/>
      </g>
     </g>
    </g>
    <g id="ytick_9">
     <g id="line2d_29">
      <g>
       <use xlink:href="#m97feb7b53e" x="43.18" y="424.262211" style="stroke: #000000; stroke-width: 0.8"/>
      </g>
     </g>
     <g id="text_29">
      <!-- 460 -->
      <g transform="translate(17.0925 428.06143) scale(0.1 -0.1)">
       <use xlink:href="#DejaVuSans-34"/>
       <use xlink:href="#DejaVuSans-36" x="63.623047"/>
       <use xlink:href="#DejaVuSans-30" x="127.246094"/>
      </g>
     </g>
    </g>
    <g id="ytick_10">
     <g id="line2d_30">
      <g>
       <use xlink:href="#m97feb7b53e" x="43.18" y="389.608812" style="stroke: #000000; stroke-width: 0.8"/>
      </g>
     </g>
     <g id="text_30">
      <!-- 480 -->
      <g transform="translate(17.0925 393.40803) scale(0.1 -0.1)">
       <defs>
        <path id="DejaVuSans-38" d="M 2034 2216 
Q 1584 2216 1326 1975 
Q 1069 1734 1069 1313 
Q 1069 891 1326 650 
Q 1584 409 2034 409 
Q 2484 409 2743 651 
Q 3003 894 3003 1313 
Q 3003 1734 2745 1975 
Q 2488 2216 2034 2216 
z
M 1403 2484 
Q 997 2584 770 2862 
Q 544 3141 544 3541 
Q 544 4100 942 4425 
Q 1341 4750 2034 4750 
Q 2731 4750 3128 4425 
Q 3525 4100 3525 3541 
Q 3525 3141 3298 2862 
Q 3072 2584 2669 2484 
Q 3125 2378 3379 2068 
Q 3634 1759 3634 1313 
Q 3634 634 3220 271 
Q 2806 -91 2034 -91 
Q 1263 -91 848 271 
Q 434 634 434 1313 
Q 434 1759 690 2068 
Q 947 2378 1403 2484 
z
M 1172 3481 
Q 1172 3119 1398 2916 
Q 1625 2713 2034 2713 
Q 2441 2713 2670 2916 
Q 2900 3119 2900 3481 
Q 2900 3844 2670 4047 
Q 2441 4250 2034 4250 
Q 1625 4250 1398 4047 
Q 1172 3844 1172 3481 
z
" transform="scale(0.015625)"/>
       </defs>
       <use xlink:href="#DejaVuSans-34"/>
       <use xlink:href="#DejaVuSans-38" x="63.623047"/>
       <use xlink:href="#DejaVuSans-30" x="127.246094"/>
      </g>
     </g>
    </g>
    <g id="ytick_11">
     <g id="line2d_31">
      <g>
       <use xlink:href="#m97feb7b53e" x="43.18" y="354.955412" style="stroke: #000000; stroke-width: 0.8"/>
      </g>
     </g>
     <g id="text_31">
      <!-- 500 -->
      <g transform="translate(17.0925 358.754631) scale(0.1 -0.1)">
       <use xlink:href="#DejaVuSans-35"/>
       <use xlink:href="#DejaVuSans-30" x="63.623047"/>
       <use xlink:href="#DejaVuSans-30" x="127.246094"/>
      </g>
     </g>
    </g>
    <g id="ytick_12">
     <g id="line2d_32">
      <g>
       <use xlink:href="#m97feb7b53e" x="43.18" y="320.302013" style="stroke: #000000; stroke-width: 0.8"/>
      </g>
     </g>
     <g id="text_32">
      <!-- 520 -->
      <g transform="translate(17.0925 324.101231) scale(0.1 -0.1)">
       <use xlink:href="#DejaVuSans-35"/>
       <use xlink:href="#DejaVuSans-32" x="63.623047"/>
       <use xlink:href="#DejaVuSans-30" x="127.246094"/>
      </g>
     </g>
    </g>
   </g>
   <g id="line2d_33">
    <path d="M 66.318726 356.688082 
L 108.389137 356.688082 
L 114.399196 356.688082 
L 120.409255 356.688082 
L 126.419313 356.688082 
L 132.429372 356.688082 
L 138.439431 356.688082 
L 144.44949 356.688082 
L 150.459548 356.688082 
L 156.469607 356.688082 
L 162.479666 356.688082 
L 168.489725 356.688082 
L 174.499783 356.688082 
L 180.509842 356.688082 
L 186.519901 356.688082 
L 192.52996 356.688082 
L 198.540018 356.688082 
L 204.550077 356.688082 
L 210.560136 356.688082 
L 216.570195 356.688082 
L 222.580253 356.688082 
L 228.590312 356.688082 
L 234.600371 356.688082 
L 240.610429 356.688082 
L 246.620488 356.688082 
L 252.630547 356.688082 
L 258.640606 356.688082 
L 264.650664 356.688082 
L 270.660723 356.688082 
L 276.670782 356.688082 
L 282.680841 356.688082 
L 288.690899 356.688082 
L 294.700958 356.688082 
L 300.711017 356.688082 
L 306.721076 356.688082 
L 312.731134 391.341482 
L 318.741193 391.341482 
L 324.751252 391.341482 
L 330.76131 391.341482 
L 336.771369 391.341482 
L 342.781428 391.341482 
L 348.791487 391.341482 
L 354.801545 391.341482 
L 360.811604 391.341482 
L 366.821663 391.341482 
L 372.831722 391.341482 
L 378.84178 391.341482 
L 384.851839 391.341482 
L 390.861898 391.341482 
L 396.871957 391.341482 
L 402.882015 391.341482 
L 408.892074 391.341482 
L 414.902133 391.341482 
L 420.912192 391.341482 
L 426.92225 391.341482 
L 432.932309 391.341482 
L 438.942368 391.341482 
L 444.952426 391.341482 
L 450.962485 391.341482 
L 456.972544 391.341482 
L 462.982603 391.341482 
L 468.992661 391.341482 
L 475.00272 391.341482 
L 481.012779 391.341482 
L 487.022838 391.341482 
L 493.032896 391.341482 
L 499.042955 391.341482 
L 505.053014 391.341482 
L 511.063073 391.341482 
L 517.073131 391.341482 
L 523.08319 391.341482 
L 529.093249 391.341482 
" clip-path="url(#p14580ab07c)" style="fill: none; stroke: #1f77b4; stroke-width: 1.5; stroke-linecap: square"/>
   </g>
   <g id="line2d_34">
    <path d="M 108.389137 328.982689 
L 114.399196 328.982689 
L 120.409255 328.982689 
L 126.419313 328.982689 
L 132.429372 328.982689 
L 138.439431 328.982689 
L 144.44949 328.982689 
L 150.459548 328.982689 
L 156.469607 328.982689 
L 162.479666 328.982689 
L 168.489725 328.982689 
L 174.499783 328.982689 
L 180.509842 328.982689 
L 186.519901 328.982689 
L 192.52996 328.982689 
L 198.540018 328.982689 
L 204.550077 328.982689 
L 210.560136 328.982689 
L 216.570195 328.982689 
L 222.580253 328.982689 
L 228.590312 328.982689 
L 234.600371 328.982689 
L 240.610429 328.982689 
L 246.620488 328.982689 
L 252.630547 328.982689 
L 258.640606 328.982689 
L 264.650664 328.982689 
L 270.660723 328.982689 
L 276.670782 328.982689 
L 282.680841 328.982689 
L 288.690899 328.982689 
L 294.700958 328.982689 
L 300.711017 328.982689 
L 306.721076 328.982689 
L 312.731134 328.982689 
L 318.741193 328.982689 
L 324.751252 328.982689 
L 330.76131 328.982689 
L 336.771369 328.982689 
L 342.781428 328.982689 
L 348.791487 328.982689 
L 354.801545 328.982689 
L 360.811604 328.982689 
L 366.821663 328.982689 
L 372.831722 328.982689 
L 378.84178 328.982689 
L 384.851839 328.982689 
L 390.861898 328.982689 
L 396.871957 328.982689 
L 402.882015 328.982689 
L 408.892074 328.982689 
L 414.902133 328.982689 
L 420.912192 328.982689 
L 426.92225 328.982689 
L 432.932309 328.982689 
L 438.942368 328.982689 
L 444.952426 328.982689 
L 450.962485 328.982689 
M 462.982603 328.982689 
L 468.992661 328.982689 
L 475.00272 328.982689 
L 481.012779 328.982689 
L 487.022838 328.982689 
L 493.032896 320.319339 
L 499.042955 320.319339 
L 505.053014 320.319339 
L 511.063073 320.319339 
L 517.073131 320.319339 
L 523.08319 320.319339 
L 529.093249 320.319339 
" clip-path="url(#p14580ab07c)" style="fill: none; stroke: #ff7f0e; stroke-width: 1.5; stroke-linecap: square"/>
   </g>
   <g id="line2d_35">
    <path d="M 108.389137 356.688082 
L 114.399196 356.688082 
L 120.409255 356.688082 
L 126.419313 356.688082 
L 132.429372 356.688082 
L 138.439431 356.688082 
L 144.44949 356.688082 
L 150.459548 356.688082 
L 156.469607 356.688082 
L 162.479666 356.688082 
L 168.489725 356.688082 
L 174.499783 356.688082 
L 180.509842 356.688082 
L 186.519901 356.688082 
L 192.52996 356.688082 
L 198.540018 356.688082 
L 204.550077 356.688082 
L 210.560136 356.688082 
L 216.570195 356.688082 
L 222.580253 356.688082 
L 228.590312 356.688082 
L 234.600371 356.688082 
L 240.610429 356.688082 
L 246.620488 356.688082 
L 252.630547 356.688082 
L 258.640606 356.688082 
L 264.650664 356.688082 
L 270.660723 356.688082 
L 276.670782 356.688082 
L 282.680841 356.688082 
L 288.690899 356.688082 
L 294.700958 356.688082 
L 300.711017 356.688082 
L 306.721076 356.688082 
L 312.731134 356.688082 
L 318.741193 356.688082 
L 324.751252 356.688082 
L 330.76131 356.688082 
L 336.771369 356.688082 
L 342.781428 356.688082 
L 348.791487 356.688082 
L 354.801545 356.688082 
L 360.811604 356.688082 
L 366.821663 356.688082 
L 372.831722 356.688082 
L 378.84178 356.688082 
L 384.851839 356.688082 
L 390.861898 356.688082 
L 396.871957 356.688082 
L 402.882015 356.688082 
L 408.892074 356.688082 
L 414.902133 356.688082 
L 420.912192 356.688082 
L 426.92225 356.688082 
L 432.932309 356.688082 
L 438.942368 356.688082 
L 444.952426 356.688082 
L 450.962485 356.688082 
L 456.972544 356.688082 
L 462.982603 356.688082 
L 468.992661 356.688082 
L 475.00272 356.688082 
L 481.012779 356.688082 
L 487.022838 356.688082 
L 493.032896 356.688082 
L 499.042955 356.688082 
L 505.053014 356.688082 
L 511.063073 356.688082 
L 517.073131 356.688082 
L 523.08319 356.688082 
L 529.093249 356.688082 
" clip-path="url(#p14580ab07c)" style="fill: none; stroke: #2ca02c; stroke-width: 1.5; stroke-linecap: square"/>
   </g>
   <g id="line2d_36">
    <path d="M 66.318726 501.106125 
L 108.389137 408.668181 
L 114.399196 408.668181 
L 120.409255 408.668181 
L 126.419313 408.668181 
L 132.429372 408.668181 
L 138.439431 408.668181 
L 144.44949 415.598861 
L 150.459548 415.598861 
L 156.469607 415.598861 
L 162.479666 415.598861 
L 168.489725 415.598861 
L 174.499783 415.598861 
L 180.509842 415.598861 
L 186.519901 415.598861 
L 192.52996 415.598861 
L 198.540018 415.598861 
L 204.550077 415.598861 
L 210.560136 415.598861 
L 216.570195 415.598861 
L 222.580253 415.598861 
L 228.590312 415.598861 
L 234.600371 399.918198 
L 240.610429 399.918198 
L 246.620488 399.918198 
L 252.630547 356.688082 
L 258.640606 356.861349 
L 264.650664 356.861349 
L 270.660723 356.861349 
L 276.670782 356.861349 
L 282.680841 356.861349 
L 288.690899 363.618762 
L 294.700958 363.792029 
L 300.711017 391.341482 
L 306.721076 393.074152 
L 312.731134 408.668181 
L 318.741193 408.668181 
L 324.751252 408.668181 
L 330.76131 408.841448 
L 336.771369 408.668181 
L 342.781428 408.841448 
L 348.791487 416.239949 
L 354.801545 416.239949 
L 360.811604 416.239949 
L 366.821663 416.239949 
L 372.831722 416.239949 
L 378.84178 416.239949 
L 384.851839 425.994881 
L 390.861898 425.994881 
L 396.871957 425.994881 
L 402.882015 425.994881 
L 408.892074 425.994881 
L 414.902133 425.994881 
L 420.912192 425.994881 
L 426.92225 425.994881 
L 432.932309 425.994881 
L 438.942368 425.994881 
L 444.952426 425.994881 
L 450.962485 425.994881 
L 456.972544 425.994881 
L 462.982603 425.994881 
L 468.992661 425.994881 
L 475.00272 425.994881 
L 481.012779 425.994881 
L 487.022838 425.994881 
L 493.032896 425.994881 
L 499.042955 425.994881 
L 505.053014 425.994881 
L 511.063073 425.994881 
L 517.073131 425.994881 
L 523.08319 425.994881 
L 529.093249 425.994881 
" clip-path="url(#p14580ab07c)" style="fill: none; stroke: #d62728; stroke-width: 1.5; stroke-linecap: square"/>
   </g>
   <g id="patch_9">
    <path d="M 43.18 510.145464 
L 43.18 311.28 
" style="fill: none; stroke: #000000; stroke-width: 0.8; stroke-linejoin: miter; stroke-linecap: square"/>
   </g>
   <g id="patch_10">
    <path d="M 552.231975 510.145464 
L 552.231975 311.28 
" style="fill: none; stroke: #000000; stroke-width: 0.8; stroke-linejoin: miter; stroke-linecap: square"/>
   </g>
   <g id="patch_11">
    <path d="M 43.18 510.145464 
L 552.231975 510.145464 
" style="fill: none; stroke: #000000; stroke-width: 0.8; stroke-linejoin: miter; stroke-linecap: square"/>
   </g>
   <g id="patch_12">
    <path d="M 43.18 311.28 
L 552.231975 311.28 
" style="fill: none; stroke: #000000; stroke-width: 0.8; stroke-linejoin: miter; stroke-linecap: square"/>
   </g>
   <g id="text_33">
    <!-- Lenovo IdeaPad 3 -->
    <g transform="translate(244.666925 305.28) scale(0.12 -0.12)">
     <defs>
      <path id="DejaVuSans-4c" d="M 628 4666 
L 1259 4666 
L 1259 531 
L 3531 531 
L 3531 0 
L 628 0 
L 628 4666 
z
" transform="scale(0.015625)"/>
      <path id="DejaVuSans-49" d="M 628 4666 
L 1259 4666 
L 1259 0 
L 628 0 
L 628 4666 
z
" transform="scale(0.015625)"/>
     </defs>
     <use xlink:href="#DejaVuSans-4c"/>
     <use xlink:href="#DejaVuSans-65" x="53.962891"/>
     <use xlink:href="#DejaVuSans-6e" x="115.486328"/>
     <use xlink:href="#DejaVuSans-6f" x="178.865234"/>
     <use xlink:href="#DejaVuSans-76" x="240.046875"/>
     <use xlink:href="#DejaVuSans-6f" x="299.226562"/>
     <use xlink:href="#DejaVuSans-20" x="360.408203"/>
     <use xlink:href="#DejaVuSans-49" x="392.195312"/>
     <use xlink:href="#DejaVuSans-64" x="421.6875"/>
     <use xlink:href="#DejaVuSans-65" x="485.164062"/>
     <use xlink:href="#DejaVuSans-61" x="546.6875"/>
     <use xlink:href="#DejaVuSans-50" x="607.966797"/>
     <use xlink:href="#DejaVuSans-61" x="663.769531"/>
     <use xlink:href="#DejaVuSans-64" x="725.048828"/>
     <use xlink:href="#DejaVuSans-20" x="788.525391"/>
     <use xlink:href="#DejaVuSans-33" x="820.3125"/>
    </g>
   </g>
   <g id="legend_2">
    <g id="patch_13">
     <path d="M 411.149162 505.145464 
L 545.231975 505.145464 
Q 547.231975 505.145464 547.231975 503.145464 
L 547.231975 430.754839 
Q 547.231975 428.754839 545.231975 428.754839 
L 411.149162 428.754839 
Q 409.149162 428.754839 409.149162 430.754839 
L 409.149162 503.145464 
Q 409.149162 505.145464 411.149162 505.145464 
z
" style="fill: #ffffff; opacity: 0.8; stroke: #cccccc; stroke-linejoin: miter"/>
    </g>
    <g id="text_34">
     <!-- source -->
     <g transform="translate(461.589006 440.353276) scale(0.1 -0.1)">
      <use xlink:href="#DejaVuSans-73"/>
      <use xlink:href="#DejaVuSans-6f" x="52.099609"/>
      <use xlink:href="#DejaVuSans-75" x="113.28125"/>
      <use xlink:href="#DejaVuSans-72" x="176.660156"/>
      <use xlink:href="#DejaVuSans-63" x="215.523438"/>
      <use xlink:href="#DejaVuSans-65" x="270.503906"/>
     </g>
    </g>
    <g id="line2d_37">
     <path d="M 413.149162 451.531401 
L 423.149162 451.531401 
L 433.149162 451.531401 
" style="fill: none; stroke: #1f77b4; stroke-width: 1.5; stroke-linecap: square"/>
    </g>
    <g id="text_35">
     <!-- instar-informatika.hr -->
     <g transform="translate(441.149162 455.031401) scale(0.1 -0.1)">
      <defs>
       <path id="DejaVuSans-66" d="M 2375 4863 
L 2375 4384 
L 1825 4384 
Q 1516 4384 1395 4259 
Q 1275 4134 1275 3809 
L 1275 3500 
L 2222 3500 
L 2222 3053 
L 1275 3053 
L 1275 0 
L 697 0 
L 697 3053 
L 147 3053 
L 147 3500 
L 697 3500 
L 697 3744 
Q 697 4328 969 4595 
Q 1241 4863 1831 4863 
L 2375 4863 
z
" transform="scale(0.015625)"/>
      </defs>
      <use xlink:href="#DejaVuSans-69"/>
      <use xlink:href="#DejaVuSans-6e" x="27.783203"/>
      <use xlink:href="#DejaVuSans-73" x="91.162109"/>
      <use xlink:href="#DejaVuSans-74" x="143.261719"/>
      <use xlink:href="#DejaVuSans-61" x="182.470703"/>
      <use xlink:href="#DejaVuSans-72" x="243.75"/>
      <use xlink:href="#DejaVuSans-2d" x="278.488281"/>
      <use xlink:href="#DejaVuSans-69" x="314.572266"/>
      <use xlink:href="#DejaVuSans-6e" x="342.355469"/>
      <use xlink:href="#DejaVuSans-66" x="405.734375"/>
      <use xlink:href="#DejaVuSans-6f" x="440.939453"/>
      <use xlink:href="#DejaVuSans-72" x="502.121094"/>
      <use xlink:href="#DejaVuSans-6d" x="541.484375"/>
      <use xlink:href="#DejaVuSans-61" x="638.896484"/>
      <use xlink:href="#DejaVuSans-74" x="700.175781"/>
      <use xlink:href="#DejaVuSans-69" x="739.384766"/>
      <use xlink:href="#DejaVuSans-6b" x="767.167969"/>
      <use xlink:href="#DejaVuSans-61" x="823.328125"/>
      <use xlink:href="#DejaVuSans-2e" x="884.607422"/>
      <use xlink:href="#DejaVuSans-68" x="916.394531"/>
      <use xlink:href="#DejaVuSans-72" x="979.773438"/>
     </g>
    </g>
    <g id="line2d_38">
     <path d="M 413.149162 466.209526 
L 423.149162 466.209526 
L 433.149162 466.209526 
" style="fill: none; stroke: #ff7f0e; stroke-width: 1.5; stroke-linecap: square"/>
    </g>
    <g id="text_36">
     <!-- links.hr -->
     <g transform="translate(441.149162 469.709526) scale(0.1 -0.1)">
      <use xlink:href="#DejaVuSans-6c"/>
      <use xlink:href="#DejaVuSans-69" x="27.783203"/>
      <use xlink:href="#DejaVuSans-6e" x="55.566406"/>
      <use xlink:href="#DejaVuSans-6b" x="118.945312"/>
      <use xlink:href="#DejaVuSans-73" x="176.855469"/>
      <use xlink:href="#DejaVuSans-2e" x="228.955078"/>
      <use xlink:href="#DejaVuSans-68" x="260.742188"/>
      <use xlink:href="#DejaVuSans-72" x="324.121094"/>
     </g>
    </g>
    <g id="line2d_39">
     <path d="M 413.149162 480.887651 
L 423.149162 480.887651 
L 433.149162 480.887651 
" style="fill: none; stroke: #2ca02c; stroke-width: 1.5; stroke-linecap: square"/>
    </g>
    <g id="text_37">
     <!-- mikronis.hr -->
     <g transform="translate(441.149162 484.387651) scale(0.1 -0.1)">
      <use xlink:href="#DejaVuSans-6d"/>
      <use xlink:href="#DejaVuSans-69" x="97.412109"/>
      <use xlink:href="#DejaVuSans-6b" x="125.195312"/>
      <use xlink:href="#DejaVuSans-72" x="183.105469"/>
      <use xlink:href="#DejaVuSans-6f" x="221.96875"/>
      <use xlink:href="#DejaVuSans-6e" x="283.150391"/>
      <use xlink:href="#DejaVuSans-69" x="346.529297"/>
      <use xlink:href="#DejaVuSans-73" x="374.3125"/>
      <use xlink:href="#DejaVuSans-2e" x="426.412109"/>
      <use xlink:href="#DejaVuSans-68" x="458.199219"/>
      <use xlink:href="#DejaVuSans-72" x="521.578125"/>
     </g>
    </g>
    <g id="line2d_40">
     <path d="M 413.149162 495.565776 
L 423.149162 495.565776 
L 433.149162 495.565776 
" style="fill: none; stroke: #d62728; stroke-width: 1.5; stroke-linecap: square"/>
    </g>
    <g id="text_38">
     <!-- nabava.net -->
     <g transform="translate(441.149162 499.065776) scale(0.1 -0.1)">
      <use xlink:href="#DejaVuSans-6e"/>
      <use xlink:href="#DejaVuSans-61" x="63.378906"/>
      <use xlink:href="#DejaVuSans-62" x="124.658203"/>
      <use xlink:href="#DejaVuSans-61" x="188.134766"/>
      <use xlink:href="#DejaVuSans-76" x="249.414062"/>
      <use xlink:href="#DejaVuSans-61" x="308.59375"/>
      <use xlink:href="#DejaVuSans-2e" x="369.873047"/>
      <use xlink:href="#DejaVuSans-6e" x="401.660156"/>
      <use xlink:href="#DejaVuSans-65" x="465.039062"/>
      <use xlink:href="#DejaVuSans-74" x="526.5625"/>
     </g>
    </g>
   </g>
  </g>
  <g id="axes_3">
   <g id="patch_14">
    <path d="M 43.18 794.545464 
L 552.231975 794.545464 
L 552.231975 595.68 
L 43.18 595.68 
z
" style="fill: #ffffff"/>
   </g>
   <g id="matplotlib.axis_5">
    <g id="xtick_13">
     <g id="line2d_41">
      <g>
       <use xlink:href="#mf1dd5ad21b" x="132.429372" y="794.545464" style="stroke: #000000; stroke-width: 0.8"/>
      </g>
     </g>
     <g id="text_39">
      <!-- 2023-11-15 -->
      <g transform="translate(108.644256 837.183716) rotate(-30) scale(0.1 -0.1)">
       <use xlink:href="#DejaVuSans-32"/>
       <use xlink:href="#DejaVuSans-30" x="63.623047"/>
       <use xlink:href="#DejaVuSans-32" x="127.246094"/>
       <use xlink:href="#DejaVuSans-33" x="190.869141"/>
       <use xlink:href="#DejaVuSans-2d" x="254.492188"/>
       <use xlink:href="#DejaVuSans-31" x="290.576172"/>
       <use xlink:href="#DejaVuSans-31" x="354.199219"/>
       <use xlink:href="#DejaVuSans-2d" x="417.822266"/>
       <use xlink:href="#DejaVuSans-31" x="453.90625"/>
       <use xlink:href="#DejaVuSans-35" x="517.529297"/>
      </g>
     </g>
    </g>
    <g id="xtick_14">
     <g id="line2d_42">
      <g>
       <use xlink:href="#mf1dd5ad21b" x="238.206406" y="794.545464" style="stroke: #000000; stroke-width: 0.8"/>
      </g>
     </g>
     <g id="text_40">
      <!-- 2023-12-01 -->
      <g transform="translate(214.42129 837.183716) rotate(-30) scale(0.1 -0.1)">
       <use xlink:href="#DejaVuSans-32"/>
       <use xlink:href="#DejaVuSans-30" x="63.623047"/>
       <use xlink:href="#DejaVuSans-32" x="127.246094"/>
       <use xlink:href="#DejaVuSans-33" x="190.869141"/>
       <use xlink:href="#DejaVuSans-2d" x="254.492188"/>
       <use xlink:href="#DejaVuSans-31" x="290.576172"/>
       <use xlink:href="#DejaVuSans-32" x="354.199219"/>
       <use xlink:href="#DejaVuSans-2d" x="417.822266"/>
       <use xlink:href="#DejaVuSans-30" x="453.90625"/>
       <use xlink:href="#DejaVuSans-31" x="517.529297"/>
      </g>
     </g>
    </g>
    <g id="xtick_15">
     <g id="line2d_43">
      <g>
       <use xlink:href="#mf1dd5ad21b" x="330.76131" y="794.545464" style="stroke: #000000; stroke-width: 0.8"/>
      </g>
     </g>
     <g id="text_41">
      <!-- 2023-12-15 -->
      <g transform="translate(306.976194 837.183716) rotate(-30) scale(0.1 -0.1)">
       <use xlink:href="#DejaVuSans-32"/>
       <use xlink:href="#DejaVuSans-30" x="63.623047"/>
       <use xlink:href="#DejaVuSans-32" x="127.246094"/>
       <use xlink:href="#DejaVuSans-33" x="190.869141"/>
       <use xlink:href="#DejaVuSans-2d" x="254.492188"/>
       <use xlink:href="#DejaVuSans-31" x="290.576172"/>
       <use xlink:href="#DejaVuSans-32" x="354.199219"/>
       <use xlink:href="#DejaVuSans-2d" x="417.822266"/>
       <use xlink:href="#DejaVuSans-31" x="453.90625"/>
       <use xlink:href="#DejaVuSans-35" x="517.529297"/>
      </g>
     </g>
    </g>
    <g id="xtick_16">
     <g id="line2d_44">
      <g>
       <use xlink:href="#mf1dd5ad21b" x="443.149409" y="794.545464" style="stroke: #000000; stroke-width: 0.8"/>
      </g>
     </g>
     <g id="text_42">
      <!-- 2024-01-01 -->
      <g transform="translate(419.364293 837.183716) rotate(-30) scale(0.1 -0.1)">
       <use xlink:href="#DejaVuSans-32"/>
       <use xlink:href="#DejaVuSans-30" x="63.623047"/>
       <use xlink:href="#DejaVuSans-32" x="127.246094"/>
       <use xlink:href="#DejaVuSans-34" x="190.869141"/>
       <use xlink:href="#DejaVuSans-2d" x="254.492188"/>
       <use xlink:href="#DejaVuSans-30" x="290.576172"/>
       <use xlink:href="#DejaVuSans-31" x="354.199219"/>
       <use xlink:href="#DejaVuSans-2d" x="417.822266"/>
       <use xlink:href="#DejaVuSans-30" x="453.90625"/>
       <use xlink:href="#DejaVuSans-31" x="517.529297"/>
      </g>
     </g>
    </g>
    <g id="xtick_17">
     <g id="line2d_45">
      <g>
       <use xlink:href="#mf1dd5ad21b" x="535.704313" y="794.545464" style="stroke: #000000; stroke-width: 0.8"/>
      </g>
     </g>
     <g id="text_43">
      <!-- 2024-01-15 -->
      <g transform="translate(511.919197 837.183716) rotate(-30) scale(0.1 -0.1)">
       <use xlink:href="#DejaVuSans-32"/>
       <use xlink:href="#DejaVuSans-30" x="63.623047"/>
       <use xlink:href="#DejaVuSans-32" x="127.246094"/>
       <use xlink:href="#DejaVuSans-34" x="190.869141"/>
       <use xlink:href="#DejaVuSans-2d" x="254.492188"/>
       <use xlink:href="#DejaVuSans-30" x="290.576172"/>
       <use xlink:href="#DejaVuSans-31" x="354.199219"/>
       <use xlink:href="#DejaVuSans-2d" x="417.822266"/>
       <use xlink:href="#DejaVuSans-31" x="453.90625"/>
       <use xlink:href="#DejaVuSans-35" x="517.529297"/>
      </g>
     </g>
    </g>
    <g id="text_44">
     <!-- Price date -->
     <g transform="translate(272.644269 850.583216) scale(0.1 -0.1)">
      <use xlink:href="#DejaVuSans-50"/>
      <use xlink:href="#DejaVuSans-72" x="58.552734"/>
      <use xlink:href="#DejaVuSans-69" x="99.666016"/>
      <use xlink:href="#DejaVuSans-63" x="127.449219"/>
      <use xlink:href="#DejaVuSans-65" x="182.429688"/>
      <use xlink:href="#DejaVuSans-20" x="243.953125"/>
      <use xlink:href="#DejaVuSans-64" x="275.740234"/>
      <use xlink:href="#DejaVuSans-61" x="339.216797"/>
      <use xlink:href="#DejaVuSans-74" x="400.496094"/>
      <use xlink:href="#DejaVuSans-65" x="439.705078"/>
     </g>
    </g>
   </g>
   <g id="matplotlib.axis_6">
    <g id="ytick_13">
     <g id="line2d_46">
      <g>
       <use xlink:href="#m97feb7b53e" x="43.18" y="785.496777" style="stroke: #000000; stroke-width: 0.8"/>
      </g>
     </g>
     <g id="text_45">
      <!-- 550 -->
      <g transform="translate(17.0925 789.295996) scale(0.1 -0.1)">
       <use xlink:href="#DejaVuSans-35"/>
       <use xlink:href="#DejaVuSans-35" x="63.623047"/>
       <use xlink:href="#DejaVuSans-30" x="127.246094"/>
      </g>
     </g>
    </g>
    <g id="ytick_14">
     <g id="line2d_47">
      <g>
       <use xlink:href="#m97feb7b53e" x="43.18" y="762.127234" style="stroke: #000000; stroke-width: 0.8"/>
      </g>
     </g>
     <g id="text_46">
      <!-- 575 -->
      <g transform="translate(17.0925 765.926452) scale(0.1 -0.1)">
       <defs>
        <path id="DejaVuSans-37" d="M 525 4666 
L 3525 4666 
L 3525 4397 
L 1831 0 
L 1172 0 
L 2766 4134 
L 525 4134 
L 525 4666 
z
" transform="scale(0.015625)"/>
       </defs>
       <use xlink:href="#DejaVuSans-35"/>
       <use xlink:href="#DejaVuSans-37" x="63.623047"/>
       <use xlink:href="#DejaVuSans-35" x="127.246094"/>
      </g>
     </g>
    </g>
    <g id="ytick_15">
     <g id="line2d_48">
      <g>
       <use xlink:href="#m97feb7b53e" x="43.18" y="738.757691" style="stroke: #000000; stroke-width: 0.8"/>
      </g>
     </g>
     <g id="text_47">
      <!-- 600 -->
      <g transform="translate(17.0925 742.556909) scale(0.1 -0.1)">
       <use xlink:href="#DejaVuSans-36"/>
       <use xlink:href="#DejaVuSans-30" x="63.623047"/>
       <use xlink:href="#DejaVuSans-30" x="127.246094"/>
      </g>
     </g>
    </g>
    <g id="ytick_16">
     <g id="line2d_49">
      <g>
       <use xlink:href="#m97feb7b53e" x="43.18" y="715.388148" style="stroke: #000000; stroke-width: 0.8"/>
      </g>
     </g>
     <g id="text_48">
      <!-- 625 -->
      <g transform="translate(17.0925 719.187366) scale(0.1 -0.1)">
       <use xlink:href="#DejaVuSans-36"/>
       <use xlink:href="#DejaVuSans-32" x="63.623047"/>
       <use xlink:href="#DejaVuSans-35" x="127.246094"/>
      </g>
     </g>
    </g>
    <g id="ytick_17">
     <g id="line2d_50">
      <g>
       <use xlink:href="#m97feb7b53e" x="43.18" y="692.018604" style="stroke: #000000; stroke-width: 0.8"/>
      </g>
     </g>
     <g id="text_49">
      <!-- 650 -->
      <g transform="translate(17.0925 695.817823) scale(0.1 -0.1)">
       <use xlink:href="#DejaVuSans-36"/>
       <use xlink:href="#DejaVuSans-35" x="63.623047"/>
       <use xlink:href="#DejaVuSans-30" x="127.246094"/>
      </g>
     </g>
    </g>
    <g id="ytick_18">
     <g id="line2d_51">
      <g>
       <use xlink:href="#m97feb7b53e" x="43.18" y="668.649061" style="stroke: #000000; stroke-width: 0.8"/>
      </g>
     </g>
     <g id="text_50">
      <!-- 675 -->
      <g transform="translate(17.0925 672.44828) scale(0.1 -0.1)">
       <use xlink:href="#DejaVuSans-36"/>
       <use xlink:href="#DejaVuSans-37" x="63.623047"/>
       <use xlink:href="#DejaVuSans-35" x="127.246094"/>
      </g>
     </g>
    </g>
    <g id="ytick_19">
     <g id="line2d_52">
      <g>
       <use xlink:href="#m97feb7b53e" x="43.18" y="645.279518" style="stroke: #000000; stroke-width: 0.8"/>
      </g>
     </g>
     <g id="text_51">
      <!-- 700 -->
      <g transform="translate(17.0925 649.078737) scale(0.1 -0.1)">
       <use xlink:href="#DejaVuSans-37"/>
       <use xlink:href="#DejaVuSans-30" x="63.623047"/>
       <use xlink:href="#DejaVuSans-30" x="127.246094"/>
      </g>
     </g>
    </g>
    <g id="ytick_20">
     <g id="line2d_53">
      <g>
       <use xlink:href="#m97feb7b53e" x="43.18" y="621.909975" style="stroke: #000000; stroke-width: 0.8"/>
      </g>
     </g>
     <g id="text_52">
      <!-- 725 -->
      <g transform="translate(17.0925 625.709194) scale(0.1 -0.1)">
       <use xlink:href="#DejaVuSans-37"/>
       <use xlink:href="#DejaVuSans-32" x="63.623047"/>
       <use xlink:href="#DejaVuSans-35" x="127.246094"/>
      </g>
     </g>
    </g>
    <g id="ytick_21">
     <g id="line2d_54">
      <g>
       <use xlink:href="#m97feb7b53e" x="43.18" y="598.540432" style="stroke: #000000; stroke-width: 0.8"/>
      </g>
     </g>
     <g id="text_53">
      <!-- 750 -->
      <g transform="translate(17.0925 602.339651) scale(0.1 -0.1)">
       <use xlink:href="#DejaVuSans-37"/>
       <use xlink:href="#DejaVuSans-35" x="63.623047"/>
       <use xlink:href="#DejaVuSans-30" x="127.246094"/>
      </g>
     </g>
    </g>
   </g>
   <g id="line2d_55">
    <path d="M 66.318726 604.719339 
L 72.929791 604.719339 
L 79.540855 604.719339 
L 86.15192 604.719339 
L 92.762985 604.719339 
L 99.374049 604.719339 
L 105.985114 604.719339 
L 112.596178 604.719339 
L 119.207243 604.719339 
L 125.818308 604.719339 
L 132.429372 604.719339 
L 139.040437 604.719339 
L 145.651501 604.719339 
L 152.262566 604.719339 
L 158.873631 604.719339 
L 165.484695 604.719339 
L 172.09576 604.719339 
L 178.706824 604.719339 
L 185.317889 604.719339 
L 191.928954 604.719339 
L 198.540018 604.719339 
L 205.151083 604.719339 
L 211.762148 604.719339 
L 218.373212 604.719339 
L 224.984277 604.719339 
L 231.595341 604.719339 
L 238.206406 604.719339 
L 244.817471 604.719339 
L 251.428535 604.719339 
L 258.0396 604.719339 
L 264.650664 604.719339 
L 271.261729 604.719339 
L 277.872794 604.719339 
L 284.483858 604.719339 
L 291.094923 604.719339 
L 297.705987 604.719339 
L 304.317052 604.719339 
L 310.928117 604.719339 
L 317.539181 604.719339 
L 324.150246 604.719339 
L 330.76131 604.719339 
L 337.372375 604.719339 
L 343.98344 604.719339 
L 350.594504 604.719339 
L 357.205569 604.719339 
L 363.816634 604.719339 
L 370.427698 604.719339 
L 377.038763 604.719339 
L 383.649827 604.719339 
L 390.260892 604.719339 
L 396.871957 604.719339 
L 403.483021 604.719339 
L 410.094086 604.719339 
L 416.70515 604.719339 
L 423.316215 604.719339 
L 429.92728 604.719339 
L 436.538344 604.719339 
L 443.149409 604.719339 
L 449.760473 604.719339 
L 456.371538 604.719339 
L 462.982603 604.719339 
L 469.593667 604.719339 
L 476.204732 604.719339 
L 482.815796 604.719339 
L 489.426861 604.719339 
L 496.037926 604.719339 
L 502.64899 604.719339 
L 509.260055 604.719339 
L 515.87112 604.719339 
L 522.482184 604.719339 
L 529.093249 604.719339 
" clip-path="url(#p6598b59a08)" style="fill: none; stroke: #1f77b4; stroke-width: 1.5; stroke-linecap: square"/>
   </g>
   <g id="line2d_56">
    <path d="M 66.318726 738.767038 
L 72.929791 738.767038 
L 79.540855 738.767038 
L 86.15192 738.767038 
L 92.762985 738.767038 
L 99.374049 738.767038 
L 105.985114 738.767038 
L 112.596178 738.767038 
L 119.207243 738.767038 
L 125.818308 738.767038 
L 132.429372 738.767038 
L 139.040437 738.767038 
L 145.651501 738.767038 
L 152.262566 738.767038 
L 158.873631 738.767038 
L 165.484695 738.767038 
L 172.09576 738.767038 
L 178.706824 785.506125 
L 185.317889 785.506125 
L 191.928954 785.506125 
M 218.373212 785.506125 
" clip-path="url(#p6598b59a08)" style="fill: none; stroke: #ff7f0e; stroke-width: 1.5; stroke-linecap: square"/>
   </g>
   <g id="line2d_57">
    <path d="M 66.318726 739.692472 
L 72.929791 739.692472 
L 79.540855 739.692472 
L 86.15192 739.692472 
L 92.762985 739.692472 
L 99.374049 739.692472 
L 105.985114 739.692472 
L 112.596178 739.692472 
L 119.207243 739.692472 
L 125.818308 739.692472 
L 132.429372 739.692472 
L 139.040437 739.692472 
L 145.651501 739.692472 
L 152.262566 739.692472 
L 158.873631 739.692472 
L 165.484695 739.692472 
L 172.09576 739.692472 
L 178.706824 739.692472 
L 185.317889 739.692472 
L 191.928954 739.692472 
L 198.540018 739.692472 
L 205.151083 739.692472 
L 211.762148 739.692472 
L 218.373212 739.692472 
L 224.984277 739.692472 
L 231.595341 739.692472 
L 238.206406 739.692472 
L 244.817471 739.692472 
L 251.428535 739.692472 
L 258.0396 739.692472 
L 264.650664 739.692472 
L 271.261729 739.692472 
L 277.872794 739.692472 
L 284.483858 739.692472 
L 291.094923 739.692472 
L 297.705987 739.692472 
L 304.317052 739.692472 
L 310.928117 739.692472 
L 317.539181 739.692472 
L 324.150246 739.692472 
L 330.76131 739.692472 
L 337.372375 739.692472 
L 343.98344 739.692472 
L 350.594504 739.692472 
L 357.205569 739.692472 
L 363.816634 739.692472 
L 370.427698 739.692472 
L 377.038763 739.692472 
L 383.649827 739.692472 
L 390.260892 739.692472 
L 396.871957 739.692472 
L 403.483021 739.692472 
L 410.094086 739.692472 
L 416.70515 739.692472 
L 423.316215 739.692472 
L 429.92728 739.692472 
L 436.538344 739.692472 
L 443.149409 739.692472 
L 449.760473 739.692472 
L 456.371538 739.692472 
L 462.982603 739.692472 
L 469.593667 739.692472 
L 476.204732 739.692472 
L 482.815796 739.692472 
L 489.426861 739.692472 
L 496.037926 739.692472 
L 502.64899 739.692472 
L 509.260055 739.692472 
L 515.87112 739.692472 
L 522.482184 739.692472 
L 529.093249 739.692472 
" clip-path="url(#p6598b59a08)" style="fill: none; stroke: #2ca02c; stroke-width: 1.5; stroke-linecap: square"/>
   </g>
   <g id="line2d_58">
    <path d="M 66.318726 670.518625 
L 72.929791 670.518625 
L 79.540855 670.518625 
L 86.15192 670.518625 
L 92.762985 670.518625 
L 99.374049 670.518625 
L 105.985114 670.518625 
L 112.596178 670.518625 
L 119.207243 670.518625 
L 125.818308 670.518625 
L 132.429372 670.518625 
L 139.040437 670.518625 
L 145.651501 670.518625 
L 152.262566 670.518625 
L 158.873631 670.518625 
L 165.484695 670.518625 
L 172.09576 670.518625 
L 178.706824 670.518625 
L 185.317889 670.518625 
L 191.928954 670.518625 
L 198.540018 670.518625 
L 205.151083 670.518625 
L 211.762148 670.518625 
L 218.373212 670.518625 
L 224.984277 670.518625 
L 231.595341 670.518625 
L 238.206406 670.518625 
L 244.817471 670.518625 
L 251.428535 670.518625 
L 258.0396 670.518625 
L 264.650664 670.518625 
L 271.261729 670.518625 
L 277.872794 670.518625 
L 284.483858 670.518625 
L 291.094923 670.518625 
L 297.705987 670.518625 
L 304.317052 670.518625 
L 310.928117 670.518625 
L 317.539181 670.518625 
L 324.150246 670.518625 
L 330.76131 670.518625 
L 337.372375 670.518625 
L 343.98344 670.518625 
L 350.594504 670.518625 
L 357.205569 670.518625 
L 363.816634 670.518625 
L 370.427698 670.518625 
L 377.038763 670.518625 
L 383.649827 670.518625 
L 390.260892 670.518625 
L 396.871957 670.518625 
L 403.483021 670.518625 
L 410.094086 670.518625 
L 416.70515 670.518625 
L 423.316215 670.518625 
L 429.92728 670.518625 
L 436.538344 670.518625 
L 443.149409 670.518625 
L 449.760473 670.518625 
L 456.371538 670.518625 
L 462.982603 670.518625 
L 469.593667 670.518625 
L 476.204732 670.518625 
L 482.815796 670.518625 
L 489.426861 670.518625 
L 496.037926 670.518625 
L 502.64899 670.518625 
L 509.260055 670.518625 
L 515.87112 670.518625 
L 522.482184 670.518625 
L 529.093249 670.518625 
" clip-path="url(#p6598b59a08)" style="fill: none; stroke: #d62728; stroke-width: 1.5; stroke-linecap: square"/>
   </g>
   <g id="patch_15">
    <path d="M 43.18 794.545464 
L 43.18 595.68 
" style="fill: none; stroke: #000000; stroke-width: 0.8; stroke-linejoin: miter; stroke-linecap: square"/>
   </g>
   <g id="patch_16">
    <path d="M 552.231975 794.545464 
L 552.231975 595.68 
" style="fill: none; stroke: #000000; stroke-width: 0.8; stroke-linejoin: miter; stroke-linecap: square"/>
   </g>
   <g id="patch_17">
    <path d="M 43.18 794.545464 
L 552.231975 794.545464 
" style="fill: none; stroke: #000000; stroke-width: 0.8; stroke-linejoin: miter; stroke-linecap: square"/>
   </g>
   <g id="patch_18">
    <path d="M 43.18 595.68 
L 552.231975 595.68 
" style="fill: none; stroke: #000000; stroke-width: 0.8; stroke-linejoin: miter; stroke-linecap: square"/>
   </g>
   <g id="text_54">
    <!-- HP 15-fd0007nm -->
    <g transform="translate(247.0313 589.68) scale(0.12 -0.12)">
     <defs>
      <path id="DejaVuSans-48" d="M 628 4666 
L 1259 4666 
L 1259 2753 
L 3553 2753 
L 3553 4666 
L 4184 4666 
L 4184 0 
L 3553 0 
L 3553 2222 
L 1259 2222 
L 1259 0 
L 628 0 
L 628 4666 
z
" transform="scale(0.015625)"/>
     </defs>
     <use xlink:href="#DejaVuSans-48"/>
     <use xlink:href="#DejaVuSans-50" x="75.195312"/>
     <use xlink:href="#DejaVuSans-20" x="135.498047"/>
     <use xlink:href="#DejaVuSans-31" x="167.285156"/>
     <use xlink:href="#DejaVuSans-35" x="230.908203"/>
     <use xlink:href="#DejaVuSans-2d" x="294.53125"/>
     <use xlink:href="#DejaVuSans-66" x="330.615234"/>
     <use xlink:href="#DejaVuSans-64" x="365.820312"/>
     <use xlink:href="#DejaVuSans-30" x="429.296875"/>
     <use xlink:href="#DejaVuSans-30" x="492.919922"/>
     <use xlink:href="#DejaVuSans-30" x="556.542969"/>
     <use xlink:href="#DejaVuSans-37" x="620.166016"/>
     <use xlink:href="#DejaVuSans-6e" x="683.789062"/>
     <use xlink:href="#DejaVuSans-6d" x="747.167969"/>
    </g>
   </g>
   <g id="legend_3">
    <g id="patch_19">
     <path d="M 411.149162 789.545464 
L 545.231975 789.545464 
Q 547.231975 789.545464 547.231975 787.545464 
L 547.231975 715.154839 
Q 547.231975 713.154839 545.231975 713.154839 
L 411.149162 713.154839 
Q 409.149162 713.154839 409.149162 715.154839 
L 409.149162 787.545464 
Q 409.149162 789.545464 411.149162 789.545464 
z
" style="fill: #ffffff; opacity: 0.8; stroke: #cccccc; stroke-linejoin: miter"/>
    </g>
    <g id="text_55">
     <!-- source -->
     <g transform="translate(461.589006 724.753276) scale(0.1 -0.1)">
      <use xlink:href="#DejaVuSans-73"/>
      <use xlink:href="#DejaVuSans-6f" x="52.099609"/>
      <use xlink:href="#DejaVuSans-75" x="113.28125"/>
      <use xlink:href="#DejaVuSans-72" x="176.660156"/>
      <use xlink:href="#DejaVuSans-63" x="215.523438"/>
      <use xlink:href="#DejaVuSans-65" x="270.503906"/>
     </g>
    </g>
    <g id="line2d_59">
     <path d="M 413.149162 735.931401 
L 423.149162 735.931401 
L 433.149162 735.931401 
" style="fill: none; stroke: #1f77b4; stroke-width: 1.5; stroke-linecap: square"/>
    </g>
    <g id="text_56">
     <!-- instar-informatika.hr -->
     <g transform="translate(441.149162 739.431401) scale(0.1 -0.1)">
      <use xlink:href="#DejaVuSans-69"/>
      <use xlink:href="#DejaVuSans-6e" x="27.783203"/>
      <use xlink:href="#DejaVuSans-73" x="91.162109"/>
      <use xlink:href="#DejaVuSans-74" x="143.261719"/>
      <use xlink:href="#DejaVuSans-61" x="182.470703"/>
      <use xlink:href="#DejaVuSans-72" x="243.75"/>
      <use xlink:href="#DejaVuSans-2d" x="278.488281"/>
      <use xlink:href="#DejaVuSans-69" x="314.572266"/>
      <use xlink:href="#DejaVuSans-6e" x="342.355469"/>
      <use xlink:href="#DejaVuSans-66" x="405.734375"/>
      <use xlink:href="#DejaVuSans-6f" x="440.939453"/>
      <use xlink:href="#DejaVuSans-72" x="502.121094"/>
      <use xlink:href="#DejaVuSans-6d" x="541.484375"/>
      <use xlink:href="#DejaVuSans-61" x="638.896484"/>
      <use xlink:href="#DejaVuSans-74" x="700.175781"/>
      <use xlink:href="#DejaVuSans-69" x="739.384766"/>
      <use xlink:href="#DejaVuSans-6b" x="767.167969"/>
      <use xlink:href="#DejaVuSans-61" x="823.328125"/>
      <use xlink:href="#DejaVuSans-2e" x="884.607422"/>
      <use xlink:href="#DejaVuSans-68" x="916.394531"/>
      <use xlink:href="#DejaVuSans-72" x="979.773438"/>
     </g>
    </g>
    <g id="line2d_60">
     <path d="M 413.149162 750.609526 
L 423.149162 750.609526 
L 433.149162 750.609526 
" style="fill: none; stroke: #ff7f0e; stroke-width: 1.5; stroke-linecap: square"/>
    </g>
    <g id="text_57">
     <!-- links.hr -->
     <g transform="translate(441.149162 754.109526) scale(0.1 -0.1)">
      <use xlink:href="#DejaVuSans-6c"/>
      <use xlink:href="#DejaVuSans-69" x="27.783203"/>
      <use xlink:href="#DejaVuSans-6e" x="55.566406"/>
      <use xlink:href="#DejaVuSans-6b" x="118.945312"/>
      <use xlink:href="#DejaVuSans-73" x="176.855469"/>
      <use xlink:href="#DejaVuSans-2e" x="228.955078"/>
      <use xlink:href="#DejaVuSans-68" x="260.742188"/>
      <use xlink:href="#DejaVuSans-72" x="324.121094"/>
     </g>
    </g>
    <g id="line2d_61">
     <path d="M 413.149162 765.287651 
L 423.149162 765.287651 
L 433.149162 765.287651 
" style="fill: none; stroke: #2ca02c; stroke-width: 1.5; stroke-linecap: square"/>
    </g>
    <g id="text_58">
     <!-- mikronis.hr -->
     <g transform="translate(441.149162 768.787651) scale(0.1 -0.1)">
      <use xlink:href="#DejaVuSans-6d"/>
      <use xlink:href="#DejaVuSans-69" x="97.412109"/>
      <use xlink:href="#DejaVuSans-6b" x="125.195312"/>
      <use xlink:href="#DejaVuSans-72" x="183.105469"/>
      <use xlink:href="#DejaVuSans-6f" x="221.96875"/>
      <use xlink:href="#DejaVuSans-6e" x="283.150391"/>
      <use xlink:href="#DejaVuSans-69" x="346.529297"/>
      <use xlink:href="#DejaVuSans-73" x="374.3125"/>
      <use xlink:href="#DejaVuSans-2e" x="426.412109"/>
      <use xlink:href="#DejaVuSans-68" x="458.199219"/>
      <use xlink:href="#DejaVuSans-72" x="521.578125"/>
     </g>
    </g>
    <g id="line2d_62">
     <path d="M 413.149162 779.965776 
L 423.149162 779.965776 
L 433.149162 779.965776 
" style="fill: none; stroke: #d62728; stroke-width: 1.5; stroke-linecap: square"/>
    </g>
    <g id="text_59">
     <!-- nabava.net -->
     <g transform="translate(441.149162 783.465776) scale(0.1 -0.1)">
      <use xlink:href="#DejaVuSans-6e"/>
      <use xlink:href="#DejaVuSans-61" x="63.378906"/>
      <use xlink:href="#DejaVuSans-62" x="124.658203"/>
      <use xlink:href="#DejaVuSans-61" x="188.134766"/>
      <use xlink:href="#DejaVuSans-76" x="249.414062"/>
      <use xlink:href="#DejaVuSans-61" x="308.59375"/>
      <use xlink:href="#DejaVuSans-2e" x="369.873047"/>
      <use xlink:href="#DejaVuSans-6e" x="401.660156"/>
      <use xlink:href="#DejaVuSans-65" x="465.039062"/>
      <use xlink:href="#DejaVuSans-74" x="526.5625"/>
     </g>
    </g>
   </g>
  </g>
 </g>
 <defs>
  <clipPath id="p7b3d804c89">
   <rect x="43.18" y="26.88" width="509.051975" height="198.865464"/>
  </clipPath>
  <clipPath id="p14580ab07c">
   <rect x="43.18" y="311.28" width="509.051975" height="198.865464"/>
  </clipPath>
  <clipPath id="p6598b59a08">
   <rect x="43.18" y="595.68" width="509.051975" height="198.865464"/>
  </clipPath>
 </defs>
</svg>
