<?xml version="1.0" encoding="utf-8" standalone="no"?>
<!DOCTYPE svg PUBLIC "-//W3C//DTD SVG 1.1//EN"
  "http://www.w3.org/Graphics/SVG/1.1/DTD/svg11.dtd">
<svg xmlns:xlink="http://www.w3.org/1999/xlink" width="576pt" height="864pt" viewBox="0 0 576 864" xmlns="http://www.w3.org/2000/svg" version="1.1">
 <metadata>
  <rdf:RDF xmlns:dc="http://purl.org/dc/elements/1.1/" xmlns:cc="http://creativecommons.org/ns#" xmlns:rdf="http://www.w3.org/1999/02/22-rdf-syntax-ns#">
   <cc:Work>
    <dc:type rdf:resource="http://purl.org/dc/dcmitype/StillImage"/>
    <dc:date>2024-02-01T00:42:18.485126</dc:date>
    <dc:format>image/svg+xml</dc:format>
    <dc:creator>
     <cc:Agent>
      <dc:title>Matplotlib v3.8.2, https://matplotlib.org/</dc:title>
     </cc:Agent>
    </dc:creator>
   </cc:Work>
  </rdf:RDF>
 </metadata>
 <defs>
  <style type="text/css">*{stroke-linejoin: round; stroke-linecap: butt}</style>
 </defs>
 <g id="figure_1">
  <g id="patch_1">
   <path d="M 0 864 
L 576 864 
L 576 0 
L 0 0 
z
" style="fill: #ffffff"/>
  </g>
  <g id="axes_1">
   <g id="patch_2">
    <path d="M 43.18 225.745464 
L 558.068349 225.745464 
L 558.068349 26.88 
L 43.18 26.88 
z
" style="fill: #ffffff"/>
   </g>
   <g id="matplotlib.axis_1">
    <g id="xtick_1">
     <g id="line2d_1">
      <defs>
       <path id="m6581147d16" d="M 0 0 
L 0 3.5 
" style="stroke: #000000; stroke-width: 0.8"/>
      </defs>
      <g>
       <use xlink:href="#m6581147d16" x="81.3655" y="225.745464" style="stroke: #000000; stroke-width: 0.8"/>
      </g>
     </g>
     <g id="text_1">
      <!-- 2023-11-01 -->
      <g transform="translate(57.580383 268.383716) rotate(-30) scale(0.1 -0.1)">
       <defs>
        <path id="DejaVuSans-32" d="M 1228 531 
L 3431 531 
L 3431 0 
L 469 0 
L 469 531 
Q 828 903 1448 1529 
Q 2069 2156 2228 2338 
Q 2531 2678 2651 2914 
Q 2772 3150 2772 3378 
Q 2772 3750 2511 3984 
Q 2250 4219 1831 4219 
Q 1534 4219 1204 4116 
Q 875 4013 500 3803 
L 500 4441 
Q 881 4594 1212 4672 
Q 1544 4750 1819 4750 
Q 2544 4750 2975 4387 
Q 3406 4025 3406 3419 
Q 3406 3131 3298 2873 
Q 3191 2616 2906 2266 
Q 2828 2175 2409 1742 
Q 1991 1309 1228 531 
z
" transform="scale(0.015625)"/>
        <path id="DejaVuSans-30" d="M 2034 4250 
Q 1547 4250 1301 3770 
Q 1056 3291 1056 2328 
Q 1056 1369 1301 889 
Q 1547 409 2034 409 
Q 2525 409 2770 889 
Q 3016 1369 3016 2328 
Q 3016 3291 2770 3770 
Q 2525 4250 2034 4250 
z
M 2034 4750 
Q 2819 4750 3233 4129 
Q 3647 3509 3647 2328 
Q 3647 1150 3233 529 
Q 2819 -91 2034 -91 
Q 1250 -91 836 529 
Q 422 1150 422 2328 
Q 422 3509 836 4129 
Q 1250 4750 2034 4750 
z
" transform="scale(0.015625)"/>
        <path id="DejaVuSans-33" d="M 2597 2516 
Q 3050 2419 3304 2112 
Q 3559 1806 3559 1356 
Q 3559 666 3084 287 
Q 2609 -91 1734 -91 
Q 1441 -91 1130 -33 
Q 819 25 488 141 
L 488 750 
Q 750 597 1062 519 
Q 1375 441 1716 441 
Q 2309 441 2620 675 
Q 2931 909 2931 1356 
Q 2931 1769 2642 2001 
Q 2353 2234 1838 2234 
L 1294 2234 
L 1294 2753 
L 1863 2753 
Q 2328 2753 2575 2939 
Q 2822 3125 2822 3475 
Q 2822 3834 2567 4026 
Q 2313 4219 1838 4219 
Q 1578 4219 1281 4162 
Q 984 4106 628 3988 
L 628 4550 
Q 988 4650 1302 4700 
Q 1616 4750 1894 4750 
Q 2613 4750 3031 4423 
Q 3450 4097 3450 3541 
Q 3450 3153 3228 2886 
Q 3006 2619 2597 2516 
z
" transform="scale(0.015625)"/>
        <path id="DejaVuSans-2d" d="M 313 2009 
L 1997 2009 
L 1997 1497 
L 313 1497 
L 313 2009 
z
" transform="scale(0.015625)"/>
        <path id="DejaVuSans-31" d="M 794 531 
L 1825 531 
L 1825 4091 
L 703 3866 
L 703 4441 
L 1819 4666 
L 2450 4666 
L 2450 531 
L 3481 531 
L 3481 0 
L 794 0 
L 794 531 
z
" transform="scale(0.015625)"/>
       </defs>
       <use xlink:href="#DejaVuSans-32"/>
       <use xlink:href="#DejaVuSans-30" x="63.623047"/>
       <use xlink:href="#DejaVuSans-32" x="127.246094"/>
       <use xlink:href="#DejaVuSans-33" x="190.869141"/>
       <use xlink:href="#DejaVuSans-2d" x="254.492188"/>
       <use xlink:href="#DejaVuSans-31" x="290.576172"/>
       <use xlink:href="#DejaVuSans-31" x="354.199219"/>
       <use xlink:href="#DejaVuSans-2d" x="417.822266"/>
       <use xlink:href="#DejaVuSans-30" x="453.90625"/>
       <use xlink:href="#DejaVuSans-31" x="517.529297"/>
      </g>
     </g>
    </g>
    <g id="xtick_2">
     <g id="line2d_2">
      <g>
       <use xlink:href="#m6581147d16" x="150.345757" y="225.745464" style="stroke: #000000; stroke-width: 0.8"/>
      </g>
     </g>
     <g id="text_2">
      <!-- 2023-11-15 -->
      <g transform="translate(126.56064 268.383716) rotate(-30) scale(0.1 -0.1)">
       <defs>
        <path id="DejaVuSans-35" d="M 691 4666 
L 3169 4666 
L 3169 4134 
L 1269 4134 
L 1269 2991 
Q 1406 3038 1543 3061 
Q 1681 3084 1819 3084 
Q 2600 3084 3056 2656 
Q 3513 2228 3513 1497 
Q 3513 744 3044 326 
Q 2575 -91 1722 -91 
Q 1428 -91 1123 -41 
Q 819 9 494 109 
L 494 744 
Q 775 591 1075 516 
Q 1375 441 1709 441 
Q 2250 441 2565 725 
Q 2881 1009 2881 1497 
Q 2881 1984 2565 2268 
Q 2250 2553 1709 2553 
Q 1456 2553 1204 2497 
Q 953 2441 691 2322 
L 691 4666 
z
" transform="scale(0.015625)"/>
       </defs>
       <use xlink:href="#DejaVuSans-32"/>
       <use xlink:href="#DejaVuSans-30" x="63.623047"/>
       <use xlink:href="#DejaVuSans-32" x="127.246094"/>
       <use xlink:href="#DejaVuSans-33" x="190.869141"/>
       <use xlink:href="#DejaVuSans-2d" x="254.492188"/>
       <use xlink:href="#DejaVuSans-31" x="290.576172"/>
       <use xlink:href="#DejaVuSans-31" x="354.199219"/>
       <use xlink:href="#DejaVuSans-2d" x="417.822266"/>
       <use xlink:href="#DejaVuSans-31" x="453.90625"/>
       <use xlink:href="#DejaVuSans-35" x="517.529297"/>
      </g>
     </g>
    </g>
    <g id="xtick_3">
     <g id="line2d_3">
      <g>
       <use xlink:href="#m6581147d16" x="229.180336" y="225.745464" style="stroke: #000000; stroke-width: 0.8"/>
      </g>
     </g>
     <g id="text_3">
      <!-- 2023-12-01 -->
      <g transform="translate(205.39522 268.383716) rotate(-30) scale(0.1 -0.1)">
       <use xlink:href="#DejaVuSans-32"/>
       <use xlink:href="#DejaVuSans-30" x="63.623047"/>
       <use xlink:href="#DejaVuSans-32" x="127.246094"/>
       <use xlink:href="#DejaVuSans-33" x="190.869141"/>
       <use xlink:href="#DejaVuSans-2d" x="254.492188"/>
       <use xlink:href="#DejaVuSans-31" x="290.576172"/>
       <use xlink:href="#DejaVuSans-32" x="354.199219"/>
       <use xlink:href="#DejaVuSans-2d" x="417.822266"/>
       <use xlink:href="#DejaVuSans-30" x="453.90625"/>
       <use xlink:href="#DejaVuSans-31" x="517.529297"/>
      </g>
     </g>
    </g>
    <g id="xtick_4">
     <g id="line2d_4">
      <g>
       <use xlink:href="#m6581147d16" x="298.160594" y="225.745464" style="stroke: #000000; stroke-width: 0.8"/>
      </g>
     </g>
     <g id="text_4">
      <!-- 2023-12-15 -->
      <g transform="translate(274.375477 268.383716) rotate(-30) scale(0.1 -0.1)">
       <use xlink:href="#DejaVuSans-32"/>
       <use xlink:href="#DejaVuSans-30" x="63.623047"/>
       <use xlink:href="#DejaVuSans-32" x="127.246094"/>
       <use xlink:href="#DejaVuSans-33" x="190.869141"/>
       <use xlink:href="#DejaVuSans-2d" x="254.492188"/>
       <use xlink:href="#DejaVuSans-31" x="290.576172"/>
       <use xlink:href="#DejaVuSans-32" x="354.199219"/>
       <use xlink:href="#DejaVuSans-2d" x="417.822266"/>
       <use xlink:href="#DejaVuSans-31" x="453.90625"/>
       <use xlink:href="#DejaVuSans-35" x="517.529297"/>
      </g>
     </g>
    </g>
    <g id="xtick_5">
     <g id="line2d_5">
      <g>
       <use xlink:href="#m6581147d16" x="381.922335" y="225.745464" style="stroke: #000000; stroke-width: 0.8"/>
      </g>
     </g>
     <g id="text_5">
      <!-- 2024-01-01 -->
      <g transform="translate(358.137218 268.383716) rotate(-30) scale(0.1 -0.1)">
       <defs>
        <path id="DejaVuSans-34" d="M 2419 4116 
L 825 1625 
L 2419 1625 
L 2419 4116 
z
M 2253 4666 
L 3047 4666 
L 3047 1625 
L 3713 1625 
L 3713 1100 
L 3047 1100 
L 3047 0 
L 2419 0 
L 2419 1100 
L 313 1100 
L 313 1709 
L 2253 4666 
z
" transform="scale(0.015625)"/>
       </defs>
       <use xlink:href="#DejaVuSans-32"/>
       <use xlink:href="#DejaVuSans-30" x="63.623047"/>
       <use xlink:href="#DejaVuSans-32" x="127.246094"/>
       <use xlink:href="#DejaVuSans-34" x="190.869141"/>
       <use xlink:href="#DejaVuSans-2d" x="254.492188"/>
       <use xlink:href="#DejaVuSans-30" x="290.576172"/>
       <use xlink:href="#DejaVuSans-31" x="354.199219"/>
       <use xlink:href="#DejaVuSans-2d" x="417.822266"/>
       <use xlink:href="#DejaVuSans-30" x="453.90625"/>
       <use xlink:href="#DejaVuSans-31" x="517.529297"/>
      </g>
     </g>
    </g>
    <g id="xtick_6">
     <g id="line2d_6">
      <g>
       <use xlink:href="#m6581147d16" x="450.902592" y="225.745464" style="stroke: #000000; stroke-width: 0.8"/>
      </g>
     </g>
     <g id="text_6">
      <!-- 2024-01-15 -->
      <g transform="translate(427.117476 268.383716) rotate(-30) scale(0.1 -0.1)">
       <use xlink:href="#DejaVuSans-32"/>
       <use xlink:href="#DejaVuSans-30" x="63.623047"/>
       <use xlink:href="#DejaVuSans-32" x="127.246094"/>
       <use xlink:href="#DejaVuSans-34" x="190.869141"/>
       <use xlink:href="#DejaVuSans-2d" x="254.492188"/>
       <use xlink:href="#DejaVuSans-30" x="290.576172"/>
       <use xlink:href="#DejaVuSans-31" x="354.199219"/>
       <use xlink:href="#DejaVuSans-2d" x="417.822266"/>
       <use xlink:href="#DejaVuSans-31" x="453.90625"/>
       <use xlink:href="#DejaVuSans-35" x="517.529297"/>
      </g>
     </g>
    </g>
    <g id="xtick_7">
     <g id="line2d_7">
      <g>
       <use xlink:href="#m6581147d16" x="534.664333" y="225.745464" style="stroke: #000000; stroke-width: 0.8"/>
      </g>
     </g>
     <g id="text_7">
      <!-- 2024-02-01 -->
      <g transform="translate(510.879216 268.383716) rotate(-30) scale(0.1 -0.1)">
       <use xlink:href="#DejaVuSans-32"/>
       <use xlink:href="#DejaVuSans-30" x="63.623047"/>
       <use xlink:href="#DejaVuSans-32" x="127.246094"/>
       <use xlink:href="#DejaVuSans-34" x="190.869141"/>
       <use xlink:href="#DejaVuSans-2d" x="254.492188"/>
       <use xlink:href="#DejaVuSans-30" x="290.576172"/>
       <use xlink:href="#DejaVuSans-32" x="354.199219"/>
       <use xlink:href="#DejaVuSans-2d" x="417.822266"/>
       <use xlink:href="#DejaVuSans-30" x="453.90625"/>
       <use xlink:href="#DejaVuSans-31" x="517.529297"/>
      </g>
     </g>
    </g>
    <g id="text_8">
     <!-- Price date -->
     <g transform="translate(275.562456 281.783216) scale(0.1 -0.1)">
      <defs>
       <path id="DejaVuSans-50" d="M 1259 4147 
L 1259 2394 
L 2053 2394 
Q 2494 2394 2734 2622 
Q 2975 2850 2975 3272 
Q 2975 3691 2734 3919 
Q 2494 4147 2053 4147 
L 1259 4147 
z
M 628 4666 
L 2053 4666 
Q 2838 4666 3239 4311 
Q 3641 3956 3641 3272 
Q 3641 2581 3239 2228 
Q 2838 1875 2053 1875 
L 1259 1875 
L 1259 0 
L 628 0 
L 628 4666 
z
" transform="scale(0.015625)"/>
       <path id="DejaVuSans-72" d="M 2631 2963 
Q 2534 3019 2420 3045 
Q 2306 3072 2169 3072 
Q 1681 3072 1420 2755 
Q 1159 2438 1159 1844 
L 1159 0 
L 581 0 
L 581 3500 
L 1159 3500 
L 1159 2956 
Q 1341 3275 1631 3429 
Q 1922 3584 2338 3584 
Q 2397 3584 2469 3576 
Q 2541 3569 2628 3553 
L 2631 2963 
z
" transform="scale(0.015625)"/>
       <path id="DejaVuSans-69" d="M 603 3500 
L 1178 3500 
L 1178 0 
L 603 0 
L 603 3500 
z
M 603 4863 
L 1178 4863 
L 1178 4134 
L 603 4134 
L 603 4863 
z
" transform="scale(0.015625)"/>
       <path id="DejaVuSans-63" d="M 3122 3366 
L 3122 2828 
Q 2878 2963 2633 3030 
Q 2388 3097 2138 3097 
Q 1578 3097 1268 2742 
Q 959 2388 959 1747 
Q 959 1106 1268 751 
Q 1578 397 2138 397 
Q 2388 397 2633 464 
Q 2878 531 3122 666 
L 3122 134 
Q 2881 22 2623 -34 
Q 2366 -91 2075 -91 
Q 1284 -91 818 406 
Q 353 903 353 1747 
Q 353 2603 823 3093 
Q 1294 3584 2113 3584 
Q 2378 3584 2631 3529 
Q 2884 3475 3122 3366 
z
" transform="scale(0.015625)"/>
       <path id="DejaVuSans-65" d="M 3597 1894 
L 3597 1613 
L 953 1613 
Q 991 1019 1311 708 
Q 1631 397 2203 397 
Q 2534 397 2845 478 
Q 3156 559 3463 722 
L 3463 178 
Q 3153 47 2828 -22 
Q 2503 -91 2169 -91 
Q 1331 -91 842 396 
Q 353 884 353 1716 
Q 353 2575 817 3079 
Q 1281 3584 2069 3584 
Q 2775 3584 3186 3129 
Q 3597 2675 3597 1894 
z
M 3022 2063 
Q 3016 2534 2758 2815 
Q 2500 3097 2075 3097 
Q 1594 3097 1305 2825 
Q 1016 2553 972 2059 
L 3022 2063 
z
" transform="scale(0.015625)"/>
       <path id="DejaVuSans-20" transform="scale(0.015625)"/>
       <path id="DejaVuSans-64" d="M 2906 2969 
L 2906 4863 
L 3481 4863 
L 3481 0 
L 2906 0 
L 2906 525 
Q 2725 213 2448 61 
Q 2172 -91 1784 -91 
Q 1150 -91 751 415 
Q 353 922 353 1747 
Q 353 2572 751 3078 
Q 1150 3584 1784 3584 
Q 2172 3584 2448 3432 
Q 2725 3281 2906 2969 
z
M 947 1747 
Q 947 1113 1208 752 
Q 1469 391 1925 391 
Q 2381 391 2643 752 
Q 2906 1113 2906 1747 
Q 2906 2381 2643 2742 
Q 2381 3103 1925 3103 
Q 1469 3103 1208 2742 
Q 947 2381 947 1747 
z
" transform="scale(0.015625)"/>
       <path id="DejaVuSans-61" d="M 2194 1759 
Q 1497 1759 1228 1600 
Q 959 1441 959 1056 
Q 959 750 1161 570 
Q 1363 391 1709 391 
Q 2188 391 2477 730 
Q 2766 1069 2766 1631 
L 2766 1759 
L 2194 1759 
z
M 3341 1997 
L 3341 0 
L 2766 0 
L 2766 531 
Q 2569 213 2275 61 
Q 1981 -91 1556 -91 
Q 1019 -91 701 211 
Q 384 513 384 1019 
Q 384 1609 779 1909 
Q 1175 2209 1959 2209 
L 2766 2209 
L 2766 2266 
Q 2766 2663 2505 2880 
Q 2244 3097 1772 3097 
Q 1472 3097 1187 3025 
Q 903 2953 641 2809 
L 641 3341 
Q 956 3463 1253 3523 
Q 1550 3584 1831 3584 
Q 2591 3584 2966 3190 
Q 3341 2797 3341 1997 
z
" transform="scale(0.015625)"/>
       <path id="DejaVuSans-74" d="M 1172 4494 
L 1172 3500 
L 2356 3500 
L 2356 3053 
L 1172 3053 
L 1172 1153 
Q 1172 725 1289 603 
Q 1406 481 1766 481 
L 2356 481 
L 2356 0 
L 1766 0 
Q 1100 0 847 248 
Q 594 497 594 1153 
L 594 3053 
L 172 3053 
L 172 3500 
L 594 3500 
L 594 4494 
L 1172 4494 
z
" transform="scale(0.015625)"/>
      </defs>
      <use xlink:href="#DejaVuSans-50"/>
      <use xlink:href="#DejaVuSans-72" x="58.552734"/>
      <use xlink:href="#DejaVuSans-69" x="99.666016"/>
      <use xlink:href="#DejaVuSans-63" x="127.449219"/>
      <use xlink:href="#DejaVuSans-65" x="182.429688"/>
      <use xlink:href="#DejaVuSans-20" x="243.953125"/>
      <use xlink:href="#DejaVuSans-64" x="275.740234"/>
      <use xlink:href="#DejaVuSans-61" x="339.216797"/>
      <use xlink:href="#DejaVuSans-74" x="400.496094"/>
      <use xlink:href="#DejaVuSans-65" x="439.705078"/>
     </g>
    </g>
   </g>
   <g id="matplotlib.axis_2">
    <g id="ytick_1">
     <g id="line2d_8">
      <defs>
       <path id="m3f3dbcca4f" d="M 0 0 
L -3.5 0 
" style="stroke: #000000; stroke-width: 0.8"/>
      </defs>
      <g>
       <use xlink:href="#m3f3dbcca4f" x="43.18" y="220.480553" style="stroke: #000000; stroke-width: 0.8"/>
      </g>
     </g>
     <g id="text_9">
      <!-- 1150 -->
      <g transform="translate(10.73 224.279772) scale(0.1 -0.1)">
       <use xlink:href="#DejaVuSans-31"/>
       <use xlink:href="#DejaVuSans-31" x="63.623047"/>
       <use xlink:href="#DejaVuSans-35" x="127.246094"/>
       <use xlink:href="#DejaVuSans-30" x="190.869141"/>
      </g>
     </g>
    </g>
    <g id="ytick_2">
     <g id="line2d_9">
      <g>
       <use xlink:href="#m3f3dbcca4f" x="43.18" y="182.660632" style="stroke: #000000; stroke-width: 0.8"/>
      </g>
     </g>
     <g id="text_10">
      <!-- 1200 -->
      <g transform="translate(10.73 186.459851) scale(0.1 -0.1)">
       <use xlink:href="#DejaVuSans-31"/>
       <use xlink:href="#DejaVuSans-32" x="63.623047"/>
       <use xlink:href="#DejaVuSans-30" x="127.246094"/>
       <use xlink:href="#DejaVuSans-30" x="190.869141"/>
      </g>
     </g>
    </g>
    <g id="ytick_3">
     <g id="line2d_10">
      <g>
       <use xlink:href="#m3f3dbcca4f" x="43.18" y="144.840711" style="stroke: #000000; stroke-width: 0.8"/>
      </g>
     </g>
     <g id="text_11">
      <!-- 1250 -->
      <g transform="translate(10.73 148.63993) scale(0.1 -0.1)">
       <use xlink:href="#DejaVuSans-31"/>
       <use xlink:href="#DejaVuSans-32" x="63.623047"/>
       <use xlink:href="#DejaVuSans-35" x="127.246094"/>
       <use xlink:href="#DejaVuSans-30" x="190.869141"/>
      </g>
     </g>
    </g>
    <g id="ytick_4">
     <g id="line2d_11">
      <g>
       <use xlink:href="#m3f3dbcca4f" x="43.18" y="107.02079" style="stroke: #000000; stroke-width: 0.8"/>
      </g>
     </g>
     <g id="text_12">
      <!-- 1300 -->
      <g transform="translate(10.73 110.820009) scale(0.1 -0.1)">
       <use xlink:href="#DejaVuSans-31"/>
       <use xlink:href="#DejaVuSans-33" x="63.623047"/>
       <use xlink:href="#DejaVuSans-30" x="127.246094"/>
       <use xlink:href="#DejaVuSans-30" x="190.869141"/>
      </g>
     </g>
    </g>
    <g id="ytick_5">
     <g id="line2d_12">
      <g>
       <use xlink:href="#m3f3dbcca4f" x="43.18" y="69.20087" style="stroke: #000000; stroke-width: 0.8"/>
      </g>
     </g>
     <g id="text_13">
      <!-- 1350 -->
      <g transform="translate(10.73 73.000088) scale(0.1 -0.1)">
       <use xlink:href="#DejaVuSans-31"/>
       <use xlink:href="#DejaVuSans-33" x="63.623047"/>
       <use xlink:href="#DejaVuSans-35" x="127.246094"/>
       <use xlink:href="#DejaVuSans-30" x="190.869141"/>
      </g>
     </g>
    </g>
    <g id="ytick_6">
     <g id="line2d_13">
      <g>
       <use xlink:href="#m3f3dbcca4f" x="43.18" y="31.380949" style="stroke: #000000; stroke-width: 0.8"/>
      </g>
     </g>
     <g id="text_14">
      <!-- 1400 -->
      <g transform="translate(10.73 35.180168) scale(0.1 -0.1)">
       <use xlink:href="#DejaVuSans-31"/>
       <use xlink:href="#DejaVuSans-34" x="63.623047"/>
       <use xlink:href="#DejaVuSans-30" x="127.246094"/>
       <use xlink:href="#DejaVuSans-30" x="190.869141"/>
      </g>
     </g>
    </g>
   </g>
   <g id="line2d_14">
    <path d="M 101.074144 152.412259 
L 106.001306 152.412259 
L 110.928467 152.412259 
L 115.855628 152.412259 
L 120.782789 152.412259 
L 125.709951 152.412259 
L 130.637112 152.412259 
L 135.564273 152.412259 
L 140.491434 152.412259 
L 145.418596 152.412259 
L 150.345757 152.412259 
L 155.272918 152.412259 
L 160.200079 152.412259 
L 165.12724 152.412259 
L 170.054402 152.412259 
L 174.981563 152.412259 
L 179.908724 152.412259 
L 184.835885 152.412259 
L 189.763047 152.412259 
L 194.690208 152.412259 
L 199.617369 152.412259 
L 204.54453 152.412259 
L 209.471692 152.412259 
L 214.398853 152.412259 
L 219.326014 152.412259 
L 224.253175 152.412259 
L 229.180336 152.412259 
L 234.107498 152.412259 
L 239.034659 152.412259 
L 243.96182 152.412259 
L 248.888981 152.412259 
L 253.816143 152.412259 
L 258.743304 152.412259 
L 263.670465 152.412259 
L 268.597626 152.412259 
L 273.524788 152.412259 
L 278.451949 152.412259 
L 283.37911 152.412259 
L 288.306271 152.412259 
L 293.233432 152.412259 
L 298.160594 152.412259 
L 303.087755 152.412259 
L 308.014916 152.412259 
L 312.942077 152.412259 
L 317.869239 152.412259 
L 322.7964 152.412259 
L 327.723561 152.412259 
L 332.650722 152.412259 
L 337.577884 152.412259 
L 342.505045 152.412259 
L 347.432206 152.412259 
L 352.359367 152.412259 
L 357.286528 152.412259 
L 362.21369 152.412259 
L 367.140851 152.412259 
L 372.068012 152.412259 
L 376.995173 152.412259 
L 381.922335 152.412259 
M 391.776657 152.412259 
L 396.703818 152.412259 
L 401.63098 152.412259 
L 406.558141 152.412259 
L 411.485302 152.412259 
L 416.412463 152.412259 
L 421.339624 152.412259 
L 426.266786 216.706125 
L 431.193947 216.706125 
L 436.121108 216.706125 
L 441.048269 216.706125 
L 445.975431 216.706125 
L 450.902592 216.706125 
L 455.829753 216.706125 
L 460.756914 216.706125 
L 465.684076 216.706125 
L 470.611237 216.706125 
L 475.538398 216.706125 
L 480.465559 216.706125 
L 485.39272 216.706125 
L 490.319882 216.706125 
L 495.247043 216.706125 
L 505.101365 216.706125 
L 510.028527 216.706125 
L 514.955688 216.706125 
L 519.882849 216.706125 
L 524.81001 216.706125 
L 529.737172 216.706125 
L 534.664333 216.706125 
" clip-path="url(#p13c50263e8)" style="fill: none; stroke: #1f77b4; stroke-width: 1.5; stroke-linecap: square"/>
   </g>
   <g id="line2d_15">
    <path d="M 66.584016 35.919339 
L 101.074144 45.752519 
L 106.001306 45.752519 
L 110.928467 45.752519 
L 115.855628 45.752519 
L 120.782789 44.99612 
L 125.709951 45.752519 
L 130.637112 45.752519 
L 135.564273 45.752519 
L 140.491434 45.752519 
L 145.418596 45.752519 
L 150.345757 44.99612 
L 155.272918 45.752519 
L 160.200079 63.149682 
L 165.12724 63.149682 
L 170.054402 63.149682 
L 174.981563 63.149682 
L 179.908724 63.149682 
L 184.835885 63.149682 
L 189.763047 63.149682 
L 194.690208 63.149682 
L 199.617369 63.149682 
L 204.54453 63.149682 
L 209.471692 63.149682 
L 214.398853 59.36769 
L 219.326014 59.36769 
L 224.253175 36.675738 
L 229.180336 58.611292 
L 234.107498 58.611292 
L 239.034659 67.688073 
L 243.96182 67.688073 
L 248.888981 76.764854 
L 253.816143 76.764854 
L 258.743304 108.533587 
L 263.670465 108.533587 
L 268.597626 108.533587 
L 273.524788 108.533587 
L 278.451949 108.533587 
L 283.37911 93.405619 
L 288.306271 93.405619 
L 293.233432 93.405619 
L 298.160594 92.64922 
L 303.087755 92.64922 
L 308.014916 85.085236 
L 312.942077 85.085236 
L 317.869239 95.674814 
L 322.7964 93.405619 
L 327.723561 92.64922 
L 332.650722 92.64922 
L 337.577884 92.64922 
L 342.505045 92.64922 
L 347.432206 92.64922 
L 352.359367 92.64922 
L 357.286528 92.64922 
L 362.21369 93.405619 
L 367.140851 101.726001 
L 372.068012 101.726001 
L 376.995173 101.726001 
L 381.922335 101.726001 
L 386.849496 101.726001 
L 391.776657 101.726001 
L 396.703818 101.726001 
L 401.63098 93.405619 
L 406.558141 101.726001 
L 411.485302 101.726001 
L 416.412463 101.726001 
L 421.339624 93.405619 
L 426.266786 97.187611 
L 431.193947 101.726001 
L 436.121108 111.559181 
L 441.048269 111.559181 
L 445.975431 111.559181 
L 450.902592 111.559181 
L 455.829753 111.559181 
L 460.756914 111.559181 
L 465.684076 120.635962 
L 470.611237 129.712743 
L 475.538398 129.712743 
L 480.465559 129.712743 
L 485.39272 129.712743 
L 490.319882 129.712743 
L 495.247043 131.22554 
L 505.101365 138.789524 
" clip-path="url(#p13c50263e8)" style="fill: none; stroke: #ff7f0e; stroke-width: 1.5; stroke-linecap: square"/>
   </g>
   <g id="line2d_16">
    <path d="M 101.074144 54.072901 
L 106.001306 54.072901 
L 110.928467 54.072901 
L 115.855628 54.072901 
L 120.782789 54.072901 
L 125.709951 54.072901 
L 130.637112 54.072901 
L 135.564273 54.072901 
L 140.491434 54.072901 
L 145.418596 54.072901 
L 150.345757 54.072901 
L 155.272918 54.072901 
L 160.200079 54.072901 
L 165.12724 54.072901 
L 170.054402 54.072901 
L 174.981563 54.072901 
L 179.908724 87.92173 
L 184.835885 87.92173 
L 189.763047 99.456806 
L 194.690208 99.456806 
L 199.617369 152.404695 
L 204.54453 152.404695 
L 209.471692 152.404695 
L 214.398853 99.456806 
L 219.326014 102.4824 
L 224.253175 91.136424 
L 229.180336 96.431213 
L 234.107498 96.431213 
L 239.034659 96.431213 
L 243.96182 96.431213 
L 248.888981 96.431213 
L 253.816143 96.431213 
L 258.743304 96.431213 
L 263.670465 131.22554 
L 268.597626 131.22554 
L 273.524788 131.22554 
L 278.451949 127.443548 
L 283.37911 113.071978 
L 288.306271 113.071978 
L 293.233432 113.071978 
L 298.160594 183.41703 
L 303.087755 122.148759 
L 308.014916 113.828376 
L 312.942077 113.828376 
L 317.869239 115.341173 
L 322.7964 115.341173 
L 327.723561 116.85397 
L 332.650722 116.85397 
L 337.577884 183.41703 
L 342.505045 122.148759 
L 347.432206 122.148759 
L 352.359367 122.148759 
L 357.286528 122.148759 
L 362.21369 122.148759 
L 367.140851 130.469141 
L 372.068012 125.930751 
L 376.995173 125.930751 
L 381.922335 125.930751 
L 386.849496 125.930751 
L 391.776657 125.930751 
L 396.703818 125.930751 
L 401.63098 122.148759 
L 406.558141 122.905157 
L 411.485302 122.905157 
L 416.412463 125.930751 
L 421.339624 130.469141 
L 426.266786 130.469141 
L 431.193947 107.777189 
L 436.121108 111.559181 
L 441.048269 115.341173 
L 445.975431 115.341173 
L 450.902592 115.341173 
L 455.829753 120.635962 
L 460.756914 120.635962 
L 465.684076 120.635962 
L 470.611237 129.712743 
L 475.538398 203.083389 
L 480.465559 206.108983 
L 485.39272 206.108983 
L 490.319882 133.494735 
L 495.247043 183.41703 
L 505.101365 181.336935 
L 510.028527 181.336935 
L 514.955688 181.336935 
L 519.882849 181.336935 
L 524.81001 115.341173 
L 529.737172 107.777189 
L 534.664333 159.77958 
" clip-path="url(#p13c50263e8)" style="fill: none; stroke: #2ca02c; stroke-width: 1.5; stroke-linecap: square"/>
   </g>
   <g id="line2d_17">
    <path d="M 101.074144 54.8293 
L 106.001306 54.8293 
L 110.928467 54.8293 
L 115.855628 54.8293 
L 120.782789 54.8293 
L 125.709951 54.8293 
L 130.637112 54.8293 
L 135.564273 54.8293 
L 140.491434 54.8293 
L 145.418596 54.8293 
L 150.345757 54.8293 
L 155.272918 54.8293 
L 160.200079 85.085236 
L 165.12724 85.085236 
L 170.054402 85.085236 
L 174.981563 85.085236 
L 179.908724 85.085236 
L 184.835885 85.085236 
L 189.763047 54.8293 
L 194.690208 54.8293 
L 199.617369 122.905157 
L 204.54453 54.8293 
L 209.471692 54.8293 
L 214.398853 54.8293 
L 219.326014 54.8293 
L 224.253175 54.8293 
L 229.180336 54.8293 
L 234.107498 107.777189 
L 239.034659 107.777189 
L 243.96182 107.777189 
L 248.888981 107.777189 
L 253.816143 107.777189 
L 258.743304 48.460425 
L 263.670465 69.957268 
L 268.597626 69.957268 
L 273.524788 69.957268 
L 278.451949 69.957268 
L 283.37911 69.957268 
L 288.306271 69.957268 
L 293.233432 69.957268 
L 298.160594 69.957268 
L 303.087755 69.957268 
L 308.014916 69.957268 
L 312.942077 69.957268 
L 317.869239 69.957268 
L 322.7964 69.957268 
L 327.723561 69.957268 
L 332.650722 69.957268 
L 337.577884 69.957268 
L 342.505045 69.957268 
L 347.432206 69.957268 
L 352.359367 69.957268 
L 357.286528 69.957268 
L 362.21369 69.957268 
L 367.140851 69.957268 
L 372.068012 69.957268 
L 376.995173 69.957268 
L 381.922335 69.957268 
L 386.849496 69.957268 
L 391.776657 69.957268 
L 396.703818 69.957268 
L 401.63098 54.8293 
L 406.558141 85.085236 
L 411.485302 85.085236 
L 416.412463 85.085236 
L 421.339624 85.085236 
L 426.266786 85.085236 
L 431.193947 85.085236 
L 436.121108 54.8293 
L 441.048269 122.905157 
L 445.975431 122.905157 
L 450.902592 122.905157 
L 455.829753 122.905157 
L 460.756914 130.469141 
L 465.684076 54.8293 
L 470.611237 122.905157 
L 475.538398 122.905157 
L 480.465559 122.905157 
L 485.39272 122.905157 
L 490.319882 122.905157 
L 495.247043 122.905157 
L 505.101365 122.905157 
L 510.028527 122.905157 
L 514.955688 122.905157 
L 519.882849 122.905157 
L 524.81001 122.905157 
L 529.737172 122.905157 
L 534.664333 54.8293 
" clip-path="url(#p13c50263e8)" style="fill: none; stroke: #d62728; stroke-width: 1.5; stroke-linecap: square"/>
   </g>
   <g id="patch_3">
    <path d="M 43.18 225.745464 
L 43.18 26.88 
" style="fill: none; stroke: #000000; stroke-width: 0.8; stroke-linejoin: miter; stroke-linecap: square"/>
   </g>
   <g id="patch_4">
    <path d="M 558.068349 225.745464 
L 558.068349 26.88 
" style="fill: none; stroke: #000000; stroke-width: 0.8; stroke-linejoin: miter; stroke-linecap: square"/>
   </g>
   <g id="patch_5">
    <path d="M 43.18 225.745464 
L 558.068349 225.745464 
" style="fill: none; stroke: #000000; stroke-width: 0.8; stroke-linejoin: miter; stroke-linecap: square"/>
   </g>
   <g id="patch_6">
    <path d="M 43.18 26.88 
L 558.068349 26.88 
" style="fill: none; stroke: #000000; stroke-width: 0.8; stroke-linejoin: miter; stroke-linecap: square"/>
   </g>
   <g id="text_15">
    <!-- Apple iPhone 15 Pro, 256GB -->
    <g transform="translate(216.386987 20.88) scale(0.12 -0.12)">
     <defs>
      <path id="DejaVuSans-41" d="M 2188 4044 
L 1331 1722 
L 3047 1722 
L 2188 4044 
z
M 1831 4666 
L 2547 4666 
L 4325 0 
L 3669 0 
L 3244 1197 
L 1141 1197 
L 716 0 
L 50 0 
L 1831 4666 
z
" transform="scale(0.015625)"/>
      <path id="DejaVuSans-70" d="M 1159 525 
L 1159 -1331 
L 581 -1331 
L 581 3500 
L 1159 3500 
L 1159 2969 
Q 1341 3281 1617 3432 
Q 1894 3584 2278 3584 
Q 2916 3584 3314 3078 
Q 3713 2572 3713 1747 
Q 3713 922 3314 415 
Q 2916 -91 2278 -91 
Q 1894 -91 1617 61 
Q 1341 213 1159 525 
z
M 3116 1747 
Q 3116 2381 2855 2742 
Q 2594 3103 2138 3103 
Q 1681 3103 1420 2742 
Q 1159 2381 1159 1747 
Q 1159 1113 1420 752 
Q 1681 391 2138 391 
Q 2594 391 2855 752 
Q 3116 1113 3116 1747 
z
" transform="scale(0.015625)"/>
      <path id="DejaVuSans-6c" d="M 603 4863 
L 1178 4863 
L 1178 0 
L 603 0 
L 603 4863 
z
" transform="scale(0.015625)"/>
      <path id="DejaVuSans-68" d="M 3513 2113 
L 3513 0 
L 2938 0 
L 2938 2094 
Q 2938 2591 2744 2837 
Q 2550 3084 2163 3084 
Q 1697 3084 1428 2787 
Q 1159 2491 1159 1978 
L 1159 0 
L 581 0 
L 581 4863 
L 1159 4863 
L 1159 2956 
Q 1366 3272 1645 3428 
Q 1925 3584 2291 3584 
Q 2894 3584 3203 3211 
Q 3513 2838 3513 2113 
z
" transform="scale(0.015625)"/>
      <path id="DejaVuSans-6f" d="M 1959 3097 
Q 1497 3097 1228 2736 
Q 959 2375 959 1747 
Q 959 1119 1226 758 
Q 1494 397 1959 397 
Q 2419 397 2687 759 
Q 2956 1122 2956 1747 
Q 2956 2369 2687 2733 
Q 2419 3097 1959 3097 
z
M 1959 3584 
Q 2709 3584 3137 3096 
Q 3566 2609 3566 1747 
Q 3566 888 3137 398 
Q 2709 -91 1959 -91 
Q 1206 -91 779 398 
Q 353 888 353 1747 
Q 353 2609 779 3096 
Q 1206 3584 1959 3584 
z
" transform="scale(0.015625)"/>
      <path id="DejaVuSans-6e" d="M 3513 2113 
L 3513 0 
L 2938 0 
L 2938 2094 
Q 2938 2591 2744 2837 
Q 2550 3084 2163 3084 
Q 1697 3084 1428 2787 
Q 1159 2491 1159 1978 
L 1159 0 
L 581 0 
L 581 3500 
L 1159 3500 
L 1159 2956 
Q 1366 3272 1645 3428 
Q 1925 3584 2291 3584 
Q 2894 3584 3203 3211 
Q 3513 2838 3513 2113 
z
" transform="scale(0.015625)"/>
      <path id="DejaVuSans-2c" d="M 750 794 
L 1409 794 
L 1409 256 
L 897 -744 
L 494 -744 
L 750 256 
L 750 794 
z
" transform="scale(0.015625)"/>
      <path id="DejaVuSans-36" d="M 2113 2584 
Q 1688 2584 1439 2293 
Q 1191 2003 1191 1497 
Q 1191 994 1439 701 
Q 1688 409 2113 409 
Q 2538 409 2786 701 
Q 3034 994 3034 1497 
Q 3034 2003 2786 2293 
Q 2538 2584 2113 2584 
z
M 3366 4563 
L 3366 3988 
Q 3128 4100 2886 4159 
Q 2644 4219 2406 4219 
Q 1781 4219 1451 3797 
Q 1122 3375 1075 2522 
Q 1259 2794 1537 2939 
Q 1816 3084 2150 3084 
Q 2853 3084 3261 2657 
Q 3669 2231 3669 1497 
Q 3669 778 3244 343 
Q 2819 -91 2113 -91 
Q 1303 -91 875 529 
Q 447 1150 447 2328 
Q 447 3434 972 4092 
Q 1497 4750 2381 4750 
Q 2619 4750 2861 4703 
Q 3103 4656 3366 4563 
z
" transform="scale(0.015625)"/>
      <path id="DejaVuSans-47" d="M 3809 666 
L 3809 1919 
L 2778 1919 
L 2778 2438 
L 4434 2438 
L 4434 434 
Q 4069 175 3628 42 
Q 3188 -91 2688 -91 
Q 1594 -91 976 548 
Q 359 1188 359 2328 
Q 359 3472 976 4111 
Q 1594 4750 2688 4750 
Q 3144 4750 3555 4637 
Q 3966 4525 4313 4306 
L 4313 3634 
Q 3963 3931 3569 4081 
Q 3175 4231 2741 4231 
Q 1884 4231 1454 3753 
Q 1025 3275 1025 2328 
Q 1025 1384 1454 906 
Q 1884 428 2741 428 
Q 3075 428 3337 486 
Q 3600 544 3809 666 
z
" transform="scale(0.015625)"/>
      <path id="DejaVuSans-42" d="M 1259 2228 
L 1259 519 
L 2272 519 
Q 2781 519 3026 730 
Q 3272 941 3272 1375 
Q 3272 1813 3026 2020 
Q 2781 2228 2272 2228 
L 1259 2228 
z
M 1259 4147 
L 1259 2741 
L 2194 2741 
Q 2656 2741 2882 2914 
Q 3109 3088 3109 3444 
Q 3109 3797 2882 3972 
Q 2656 4147 2194 4147 
L 1259 4147 
z
M 628 4666 
L 2241 4666 
Q 2963 4666 3353 4366 
Q 3744 4066 3744 3513 
Q 3744 3084 3544 2831 
Q 3344 2578 2956 2516 
Q 3422 2416 3680 2098 
Q 3938 1781 3938 1306 
Q 3938 681 3513 340 
Q 3088 0 2303 0 
L 628 0 
L 628 4666 
z
" transform="scale(0.015625)"/>
     </defs>
     <use xlink:href="#DejaVuSans-41"/>
     <use xlink:href="#DejaVuSans-70" x="68.408203"/>
     <use xlink:href="#DejaVuSans-70" x="131.884766"/>
     <use xlink:href="#DejaVuSans-6c" x="195.361328"/>
     <use xlink:href="#DejaVuSans-65" x="223.144531"/>
     <use xlink:href="#DejaVuSans-20" x="284.667969"/>
     <use xlink:href="#DejaVuSans-69" x="316.455078"/>
     <use xlink:href="#DejaVuSans-50" x="344.238281"/>
     <use xlink:href="#DejaVuSans-68" x="404.541016"/>
     <use xlink:href="#DejaVuSans-6f" x="467.919922"/>
     <use xlink:href="#DejaVuSans-6e" x="529.101562"/>
     <use xlink:href="#DejaVuSans-65" x="592.480469"/>
     <use xlink:href="#DejaVuSans-20" x="654.003906"/>
     <use xlink:href="#DejaVuSans-31" x="685.791016"/>
     <use xlink:href="#DejaVuSans-35" x="749.414062"/>
     <use xlink:href="#DejaVuSans-20" x="813.037109"/>
     <use xlink:href="#DejaVuSans-50" x="844.824219"/>
     <use xlink:href="#DejaVuSans-72" x="903.376953"/>
     <use xlink:href="#DejaVuSans-6f" x="942.240234"/>
     <use xlink:href="#DejaVuSans-2c" x="1003.421875"/>
     <use xlink:href="#DejaVuSans-20" x="1035.208984"/>
     <use xlink:href="#DejaVuSans-32" x="1066.996094"/>
     <use xlink:href="#DejaVuSans-35" x="1130.619141"/>
     <use xlink:href="#DejaVuSans-36" x="1194.242188"/>
     <use xlink:href="#DejaVuSans-47" x="1257.865234"/>
     <use xlink:href="#DejaVuSans-42" x="1335.355469"/>
    </g>
   </g>
   <g id="legend_1">
    <g id="patch_7">
     <path d="M 445.468349 108.270625 
L 551.068349 108.270625 
Q 553.068349 108.270625 553.068349 106.270625 
L 553.068349 33.88 
Q 553.068349 31.88 551.068349 31.88 
L 445.468349 31.88 
Q 443.468349 31.88 443.468349 33.88 
L 443.468349 106.270625 
Q 443.468349 108.270625 445.468349 108.270625 
z
" style="fill: #ffffff; opacity: 0.8; stroke: #cccccc; stroke-linejoin: miter"/>
    </g>
    <g id="text_16">
     <!-- source -->
     <g transform="translate(481.666786 43.478438) scale(0.1 -0.1)">
      <defs>
       <path id="DejaVuSans-73" d="M 2834 3397 
L 2834 2853 
Q 2591 2978 2328 3040 
Q 2066 3103 1784 3103 
Q 1356 3103 1142 2972 
Q 928 2841 928 2578 
Q 928 2378 1081 2264 
Q 1234 2150 1697 2047 
L 1894 2003 
Q 2506 1872 2764 1633 
Q 3022 1394 3022 966 
Q 3022 478 2636 193 
Q 2250 -91 1575 -91 
Q 1294 -91 989 -36 
Q 684 19 347 128 
L 347 722 
Q 666 556 975 473 
Q 1284 391 1588 391 
Q 1994 391 2212 530 
Q 2431 669 2431 922 
Q 2431 1156 2273 1281 
Q 2116 1406 1581 1522 
L 1381 1569 
Q 847 1681 609 1914 
Q 372 2147 372 2553 
Q 372 3047 722 3315 
Q 1072 3584 1716 3584 
Q 2034 3584 2315 3537 
Q 2597 3491 2834 3397 
z
" transform="scale(0.015625)"/>
       <path id="DejaVuSans-75" d="M 544 1381 
L 544 3500 
L 1119 3500 
L 1119 1403 
Q 1119 906 1312 657 
Q 1506 409 1894 409 
Q 2359 409 2629 706 
Q 2900 1003 2900 1516 
L 2900 3500 
L 3475 3500 
L 3475 0 
L 2900 0 
L 2900 538 
Q 2691 219 2414 64 
Q 2138 -91 1772 -91 
Q 1169 -91 856 284 
Q 544 659 544 1381 
z
M 1991 3584 
L 1991 3584 
z
" transform="scale(0.015625)"/>
      </defs>
      <use xlink:href="#DejaVuSans-73"/>
      <use xlink:href="#DejaVuSans-6f" x="52.099609"/>
      <use xlink:href="#DejaVuSans-75" x="113.28125"/>
      <use xlink:href="#DejaVuSans-72" x="176.660156"/>
      <use xlink:href="#DejaVuSans-63" x="215.523438"/>
      <use xlink:href="#DejaVuSans-65" x="270.503906"/>
     </g>
    </g>
    <g id="line2d_18">
     <path d="M 447.468349 54.656563 
L 457.468349 54.656563 
L 467.468349 54.656563 
" style="fill: none; stroke: #1f77b4; stroke-width: 1.5; stroke-linecap: square"/>
    </g>
    <g id="text_17">
     <!-- links.hr -->
     <g transform="translate(475.468349 58.156563) scale(0.1 -0.1)">
      <defs>
       <path id="DejaVuSans-6b" d="M 581 4863 
L 1159 4863 
L 1159 1991 
L 2875 3500 
L 3609 3500 
L 1753 1863 
L 3688 0 
L 2938 0 
L 1159 1709 
L 1159 0 
L 581 0 
L 581 4863 
z
" transform="scale(0.015625)"/>
       <path id="DejaVuSans-2e" d="M 684 794 
L 1344 794 
L 1344 0 
L 684 0 
L 684 794 
z
" transform="scale(0.015625)"/>
      </defs>
      <use xlink:href="#DejaVuSans-6c"/>
      <use xlink:href="#DejaVuSans-69" x="27.783203"/>
      <use xlink:href="#DejaVuSans-6e" x="55.566406"/>
      <use xlink:href="#DejaVuSans-6b" x="118.945312"/>
      <use xlink:href="#DejaVuSans-73" x="176.855469"/>
      <use xlink:href="#DejaVuSans-2e" x="228.955078"/>
      <use xlink:href="#DejaVuSans-68" x="260.742188"/>
      <use xlink:href="#DejaVuSans-72" x="324.121094"/>
     </g>
    </g>
    <g id="line2d_19">
     <path d="M 447.468349 69.334688 
L 457.468349 69.334688 
L 467.468349 69.334688 
" style="fill: none; stroke: #ff7f0e; stroke-width: 1.5; stroke-linecap: square"/>
    </g>
    <g id="text_18">
     <!-- mobileshop.eu -->
     <g transform="translate(475.468349 72.834688) scale(0.1 -0.1)">
      <defs>
       <path id="DejaVuSans-6d" d="M 3328 2828 
Q 3544 3216 3844 3400 
Q 4144 3584 4550 3584 
Q 5097 3584 5394 3201 
Q 5691 2819 5691 2113 
L 5691 0 
L 5113 0 
L 5113 2094 
Q 5113 2597 4934 2840 
Q 4756 3084 4391 3084 
Q 3944 3084 3684 2787 
Q 3425 2491 3425 1978 
L 3425 0 
L 2847 0 
L 2847 2094 
Q 2847 2600 2669 2842 
Q 2491 3084 2119 3084 
Q 1678 3084 1418 2786 
Q 1159 2488 1159 1978 
L 1159 0 
L 581 0 
L 581 3500 
L 1159 3500 
L 1159 2956 
Q 1356 3278 1631 3431 
Q 1906 3584 2284 3584 
Q 2666 3584 2933 3390 
Q 3200 3197 3328 2828 
z
" transform="scale(0.015625)"/>
       <path id="DejaVuSans-62" d="M 3116 1747 
Q 3116 2381 2855 2742 
Q 2594 3103 2138 3103 
Q 1681 3103 1420 2742 
Q 1159 2381 1159 1747 
Q 1159 1113 1420 752 
Q 1681 391 2138 391 
Q 2594 391 2855 752 
Q 3116 1113 3116 1747 
z
M 1159 2969 
Q 1341 3281 1617 3432 
Q 1894 3584 2278 3584 
Q 2916 3584 3314 3078 
Q 3713 2572 3713 1747 
Q 3713 922 3314 415 
Q 2916 -91 2278 -91 
Q 1894 -91 1617 61 
Q 1341 213 1159 525 
L 1159 0 
L 581 0 
L 581 4863 
L 1159 4863 
L 1159 2969 
z
" transform="scale(0.015625)"/>
      </defs>
      <use xlink:href="#DejaVuSans-6d"/>
      <use xlink:href="#DejaVuSans-6f" x="97.412109"/>
      <use xlink:href="#DejaVuSans-62" x="158.59375"/>
      <use xlink:href="#DejaVuSans-69" x="222.070312"/>
      <use xlink:href="#DejaVuSans-6c" x="249.853516"/>
      <use xlink:href="#DejaVuSans-65" x="277.636719"/>
      <use xlink:href="#DejaVuSans-73" x="339.160156"/>
      <use xlink:href="#DejaVuSans-68" x="391.259766"/>
      <use xlink:href="#DejaVuSans-6f" x="454.638672"/>
      <use xlink:href="#DejaVuSans-70" x="515.820312"/>
      <use xlink:href="#DejaVuSans-2e" x="579.296875"/>
      <use xlink:href="#DejaVuSans-65" x="611.083984"/>
      <use xlink:href="#DejaVuSans-75" x="672.607422"/>
     </g>
    </g>
    <g id="line2d_20">
     <path d="M 447.468349 84.012813 
L 457.468349 84.012813 
L 467.468349 84.012813 
" style="fill: none; stroke: #2ca02c; stroke-width: 1.5; stroke-linecap: square"/>
    </g>
    <g id="text_19">
     <!-- nabava.net -->
     <g transform="translate(475.468349 87.512813) scale(0.1 -0.1)">
      <defs>
       <path id="DejaVuSans-76" d="M 191 3500 
L 800 3500 
L 1894 563 
L 2988 3500 
L 3597 3500 
L 2284 0 
L 1503 0 
L 191 3500 
z
" transform="scale(0.015625)"/>
      </defs>
      <use xlink:href="#DejaVuSans-6e"/>
      <use xlink:href="#DejaVuSans-61" x="63.378906"/>
      <use xlink:href="#DejaVuSans-62" x="124.658203"/>
      <use xlink:href="#DejaVuSans-61" x="188.134766"/>
      <use xlink:href="#DejaVuSans-76" x="249.414062"/>
      <use xlink:href="#DejaVuSans-61" x="308.59375"/>
      <use xlink:href="#DejaVuSans-2e" x="369.873047"/>
      <use xlink:href="#DejaVuSans-6e" x="401.660156"/>
      <use xlink:href="#DejaVuSans-65" x="465.039062"/>
      <use xlink:href="#DejaVuSans-74" x="526.5625"/>
     </g>
    </g>
    <g id="line2d_21">
     <path d="M 447.468349 98.690938 
L 457.468349 98.690938 
L 467.468349 98.690938 
" style="fill: none; stroke: #d62728; stroke-width: 1.5; stroke-linecap: square"/>
    </g>
    <g id="text_20">
     <!-- unieuro.it -->
     <g transform="translate(475.468349 102.190938) scale(0.1 -0.1)">
      <use xlink:href="#DejaVuSans-75"/>
      <use xlink:href="#DejaVuSans-6e" x="63.378906"/>
      <use xlink:href="#DejaVuSans-69" x="126.757812"/>
      <use xlink:href="#DejaVuSans-65" x="154.541016"/>
      <use xlink:href="#DejaVuSans-75" x="216.064453"/>
      <use xlink:href="#DejaVuSans-72" x="279.443359"/>
      <use xlink:href="#DejaVuSans-6f" x="318.306641"/>
      <use xlink:href="#DejaVuSans-2e" x="377.738281"/>
      <use xlink:href="#DejaVuSans-69" x="409.525391"/>
      <use xlink:href="#DejaVuSans-74" x="437.308594"/>
     </g>
    </g>
   </g>
  </g>
  <g id="axes_2">
   <g id="patch_8">
    <path d="M 43.18 510.145464 
L 558.068349 510.145464 
L 558.068349 311.28 
L 43.18 311.28 
z
" style="fill: #ffffff"/>
   </g>
   <g id="matplotlib.axis_3">
    <g id="xtick_8">
     <g id="line2d_22">
      <g>
       <use xlink:href="#m6581147d16" x="81.3655" y="510.145464" style="stroke: #000000; stroke-width: 0.8"/>
      </g>
     </g>
     <g id="text_21">
      <!-- 2023-11-01 -->
      <g transform="translate(57.580383 552.783716) rotate(-30) scale(0.1 -0.1)">
       <use xlink:href="#DejaVuSans-32"/>
       <use xlink:href="#DejaVuSans-30" x="63.623047"/>
       <use xlink:href="#DejaVuSans-32" x="127.246094"/>
       <use xlink:href="#DejaVuSans-33" x="190.869141"/>
       <use xlink:href="#DejaVuSans-2d" x="254.492188"/>
       <use xlink:href="#DejaVuSans-31" x="290.576172"/>
       <use xlink:href="#DejaVuSans-31" x="354.199219"/>
       <use xlink:href="#DejaVuSans-2d" x="417.822266"/>
       <use xlink:href="#DejaVuSans-30" x="453.90625"/>
       <use xlink:href="#DejaVuSans-31" x="517.529297"/>
      </g>
     </g>
    </g>
    <g id="xtick_9">
     <g id="line2d_23">
      <g>
       <use xlink:href="#m6581147d16" x="150.345757" y="510.145464" style="stroke: #000000; stroke-width: 0.8"/>
      </g>
     </g>
     <g id="text_22">
      <!-- 2023-11-15 -->
      <g transform="translate(126.56064 552.783716) rotate(-30) scale(0.1 -0.1)">
       <use xlink:href="#DejaVuSans-32"/>
       <use xlink:href="#DejaVuSans-30" x="63.623047"/>
       <use xlink:href="#DejaVuSans-32" x="127.246094"/>
       <use xlink:href="#DejaVuSans-33" x="190.869141"/>
       <use xlink:href="#DejaVuSans-2d" x="254.492188"/>
       <use xlink:href="#DejaVuSans-31" x="290.576172"/>
       <use xlink:href="#DejaVuSans-31" x="354.199219"/>
       <use xlink:href="#DejaVuSans-2d" x="417.822266"/>
       <use xlink:href="#DejaVuSans-31" x="453.90625"/>
       <use xlink:href="#DejaVuSans-35" x="517.529297"/>
      </g>
     </g>
    </g>
    <g id="xtick_10">
     <g id="line2d_24">
      <g>
       <use xlink:href="#m6581147d16" x="229.180336" y="510.145464" style="stroke: #000000; stroke-width: 0.8"/>
      </g>
     </g>
     <g id="text_23">
      <!-- 2023-12-01 -->
      <g transform="translate(205.39522 552.783716) rotate(-30) scale(0.1 -0.1)">
       <use xlink:href="#DejaVuSans-32"/>
       <use xlink:href="#DejaVuSans-30" x="63.623047"/>
       <use xlink:href="#DejaVuSans-32" x="127.246094"/>
       <use xlink:href="#DejaVuSans-33" x="190.869141"/>
       <use xlink:href="#DejaVuSans-2d" x="254.492188"/>
       <use xlink:href="#DejaVuSans-31" x="290.576172"/>
       <use xlink:href="#DejaVuSans-32" x="354.199219"/>
       <use xlink:href="#DejaVuSans-2d" x="417.822266"/>
       <use xlink:href="#DejaVuSans-30" x="453.90625"/>
       <use xlink:href="#DejaVuSans-31" x="517.529297"/>
      </g>
     </g>
    </g>
    <g id="xtick_11">
     <g id="line2d_25">
      <g>
       <use xlink:href="#m6581147d16" x="298.160594" y="510.145464" style="stroke: #000000; stroke-width: 0.8"/>
      </g>
     </g>
     <g id="text_24">
      <!-- 2023-12-15 -->
      <g transform="translate(274.375477 552.783716) rotate(-30) scale(0.1 -0.1)">
       <use xlink:href="#DejaVuSans-32"/>
       <use xlink:href="#DejaVuSans-30" x="63.623047"/>
       <use xlink:href="#DejaVuSans-32" x="127.246094"/>
       <use xlink:href="#DejaVuSans-33" x="190.869141"/>
       <use xlink:href="#DejaVuSans-2d" x="254.492188"/>
       <use xlink:href="#DejaVuSans-31" x="290.576172"/>
       <use xlink:href="#DejaVuSans-32" x="354.199219"/>
       <use xlink:href="#DejaVuSans-2d" x="417.822266"/>
       <use xlink:href="#DejaVuSans-31" x="453.90625"/>
       <use xlink:href="#DejaVuSans-35" x="517.529297"/>
      </g>
     </g>
    </g>
    <g id="xtick_12">
     <g id="line2d_26">
      <g>
       <use xlink:href="#m6581147d16" x="381.922335" y="510.145464" style="stroke: #000000; stroke-width: 0.8"/>
      </g>
     </g>
     <g id="text_25">
      <!-- 2024-01-01 -->
      <g transform="translate(358.137218 552.783716) rotate(-30) scale(0.1 -0.1)">
       <use xlink:href="#DejaVuSans-32"/>
       <use xlink:href="#DejaVuSans-30" x="63.623047"/>
       <use xlink:href="#DejaVuSans-32" x="127.246094"/>
       <use xlink:href="#DejaVuSans-34" x="190.869141"/>
       <use xlink:href="#DejaVuSans-2d" x="254.492188"/>
       <use xlink:href="#DejaVuSans-30" x="290.576172"/>
       <use xlink:href="#DejaVuSans-31" x="354.199219"/>
       <use xlink:href="#DejaVuSans-2d" x="417.822266"/>
       <use xlink:href="#DejaVuSans-30" x="453.90625"/>
       <use xlink:href="#DejaVuSans-31" x="517.529297"/>
      </g>
     </g>
    </g>
    <g id="xtick_13">
     <g id="line2d_27">
      <g>
       <use xlink:href="#m6581147d16" x="450.902592" y="510.145464" style="stroke: #000000; stroke-width: 0.8"/>
      </g>
     </g>
     <g id="text_26">
      <!-- 2024-01-15 -->
      <g transform="translate(427.117476 552.783716) rotate(-30) scale(0.1 -0.1)">
       <use xlink:href="#DejaVuSans-32"/>
       <use xlink:href="#DejaVuSans-30" x="63.623047"/>
       <use xlink:href="#DejaVuSans-32" x="127.246094"/>
       <use xlink:href="#DejaVuSans-34" x="190.869141"/>
       <use xlink:href="#DejaVuSans-2d" x="254.492188"/>
       <use xlink:href="#DejaVuSans-30" x="290.576172"/>
       <use xlink:href="#DejaVuSans-31" x="354.199219"/>
       <use xlink:href="#DejaVuSans-2d" x="417.822266"/>
       <use xlink:href="#DejaVuSans-31" x="453.90625"/>
       <use xlink:href="#DejaVuSans-35" x="517.529297"/>
      </g>
     </g>
    </g>
    <g id="xtick_14">
     <g id="line2d_28">
      <g>
       <use xlink:href="#m6581147d16" x="534.664333" y="510.145464" style="stroke: #000000; stroke-width: 0.8"/>
      </g>
     </g>
     <g id="text_27">
      <!-- 2024-02-01 -->
      <g transform="translate(510.879216 552.783716) rotate(-30) scale(0.1 -0.1)">
       <use xlink:href="#DejaVuSans-32"/>
       <use xlink:href="#DejaVuSans-30" x="63.623047"/>
       <use xlink:href="#DejaVuSans-32" x="127.246094"/>
       <use xlink:href="#DejaVuSans-34" x="190.869141"/>
       <use xlink:href="#DejaVuSans-2d" x="254.492188"/>
       <use xlink:href="#DejaVuSans-30" x="290.576172"/>
       <use xlink:href="#DejaVuSans-32" x="354.199219"/>
       <use xlink:href="#DejaVuSans-2d" x="417.822266"/>
       <use xlink:href="#DejaVuSans-30" x="453.90625"/>
       <use xlink:href="#DejaVuSans-31" x="517.529297"/>
      </g>
     </g>
    </g>
    <g id="text_28">
     <!-- Price date -->
     <g transform="translate(275.562456 566.183216) scale(0.1 -0.1)">
      <use xlink:href="#DejaVuSans-50"/>
      <use xlink:href="#DejaVuSans-72" x="58.552734"/>
      <use xlink:href="#DejaVuSans-69" x="99.666016"/>
      <use xlink:href="#DejaVuSans-63" x="127.449219"/>
      <use xlink:href="#DejaVuSans-65" x="182.429688"/>
      <use xlink:href="#DejaVuSans-20" x="243.953125"/>
      <use xlink:href="#DejaVuSans-64" x="275.740234"/>
      <use xlink:href="#DejaVuSans-61" x="339.216797"/>
      <use xlink:href="#DejaVuSans-74" x="400.496094"/>
      <use xlink:href="#DejaVuSans-65" x="439.705078"/>
     </g>
    </g>
   </g>
   <g id="matplotlib.axis_4">
    <g id="ytick_7">
     <g id="line2d_29">
      <g>
       <use xlink:href="#m3f3dbcca4f" x="43.18" y="493.56901" style="stroke: #000000; stroke-width: 0.8"/>
      </g>
     </g>
     <g id="text_29">
      <!-- 420 -->
      <g transform="translate(17.0925 497.368229) scale(0.1 -0.1)">
       <use xlink:href="#DejaVuSans-34"/>
       <use xlink:href="#DejaVuSans-32" x="63.623047"/>
       <use xlink:href="#DejaVuSans-30" x="127.246094"/>
      </g>
     </g>
    </g>
    <g id="ytick_8">
     <g id="line2d_30">
      <g>
       <use xlink:href="#m3f3dbcca4f" x="43.18" y="458.915611" style="stroke: #000000; stroke-width: 0.8"/>
      </g>
     </g>
     <g id="text_30">
      <!-- 440 -->
      <g transform="translate(17.0925 462.714829) scale(0.1 -0.1)">
       <use xlink:href="#DejaVuSans-34"/>
       <use xlink:href="#DejaVuSans-34" x="63.623047"/>
       <use xlink:href="#DejaVuSans-30" x="127.246094"/>
      </g>
     </g>
    </g>
    <g id="ytick_9">
     <g id="line2d_31">
      <g>
       <use xlink:href="#m3f3dbcca4f" x="43.18" y="424.262211" style="stroke: #000000; stroke-width: 0.8"/>
      </g>
     </g>
     <g id="text_31">
      <!-- 460 -->
      <g transform="translate(17.0925 428.06143) scale(0.1 -0.1)">
       <use xlink:href="#DejaVuSans-34"/>
       <use xlink:href="#DejaVuSans-36" x="63.623047"/>
       <use xlink:href="#DejaVuSans-30" x="127.246094"/>
      </g>
     </g>
    </g>
    <g id="ytick_10">
     <g id="line2d_32">
      <g>
       <use xlink:href="#m3f3dbcca4f" x="43.18" y="389.608812" style="stroke: #000000; stroke-width: 0.8"/>
      </g>
     </g>
     <g id="text_32">
      <!-- 480 -->
      <g transform="translate(17.0925 393.40803) scale(0.1 -0.1)">
       <defs>
        <path id="DejaVuSans-38" d="M 2034 2216 
Q 1584 2216 1326 1975 
Q 1069 1734 1069 1313 
Q 1069 891 1326 650 
Q 1584 409 2034 409 
Q 2484 409 2743 651 
Q 3003 894 3003 1313 
Q 3003 1734 2745 1975 
Q 2488 2216 2034 2216 
z
M 1403 2484 
Q 997 2584 770 2862 
Q 544 3141 544 3541 
Q 544 4100 942 4425 
Q 1341 4750 2034 4750 
Q 2731 4750 3128 4425 
Q 3525 4100 3525 3541 
Q 3525 3141 3298 2862 
Q 3072 2584 2669 2484 
Q 3125 2378 3379 2068 
Q 3634 1759 3634 1313 
Q 3634 634 3220 271 
Q 2806 -91 2034 -91 
Q 1263 -91 848 271 
Q 434 634 434 1313 
Q 434 1759 690 2068 
Q 947 2378 1403 2484 
z
M 1172 3481 
Q 1172 3119 1398 2916 
Q 1625 2713 2034 2713 
Q 2441 2713 2670 2916 
Q 2900 3119 2900 3481 
Q 2900 3844 2670 4047 
Q 2441 4250 2034 4250 
Q 1625 4250 1398 4047 
Q 1172 3844 1172 3481 
z
" transform="scale(0.015625)"/>
       </defs>
       <use xlink:href="#DejaVuSans-34"/>
       <use xlink:href="#DejaVuSans-38" x="63.623047"/>
       <use xlink:href="#DejaVuSans-30" x="127.246094"/>
      </g>
     </g>
    </g>
    <g id="ytick_11">
     <g id="line2d_33">
      <g>
       <use xlink:href="#m3f3dbcca4f" x="43.18" y="354.955412" style="stroke: #000000; stroke-width: 0.8"/>
      </g>
     </g>
     <g id="text_33">
      <!-- 500 -->
      <g transform="translate(17.0925 358.754631) scale(0.1 -0.1)">
       <use xlink:href="#DejaVuSans-35"/>
       <use xlink:href="#DejaVuSans-30" x="63.623047"/>
       <use xlink:href="#DejaVuSans-30" x="127.246094"/>
      </g>
     </g>
    </g>
    <g id="ytick_12">
     <g id="line2d_34">
      <g>
       <use xlink:href="#m3f3dbcca4f" x="43.18" y="320.302013" style="stroke: #000000; stroke-width: 0.8"/>
      </g>
     </g>
     <g id="text_34">
      <!-- 520 -->
      <g transform="translate(17.0925 324.101231) scale(0.1 -0.1)">
       <use xlink:href="#DejaVuSans-35"/>
       <use xlink:href="#DejaVuSans-32" x="63.623047"/>
       <use xlink:href="#DejaVuSans-30" x="127.246094"/>
      </g>
     </g>
    </g>
   </g>
   <g id="line2d_35">
    <path d="M 66.584016 356.688082 
L 101.074144 356.688082 
L 106.001306 356.688082 
L 110.928467 356.688082 
L 115.855628 356.688082 
L 120.782789 356.688082 
L 125.709951 356.688082 
L 130.637112 356.688082 
L 135.564273 356.688082 
L 140.491434 356.688082 
L 145.418596 356.688082 
L 150.345757 356.688082 
L 155.272918 356.688082 
L 160.200079 356.688082 
L 165.12724 356.688082 
L 170.054402 356.688082 
L 174.981563 356.688082 
L 179.908724 356.688082 
L 184.835885 356.688082 
L 189.763047 356.688082 
L 194.690208 356.688082 
L 199.617369 356.688082 
L 204.54453 356.688082 
L 209.471692 356.688082 
L 214.398853 356.688082 
L 219.326014 356.688082 
L 224.253175 356.688082 
L 229.180336 356.688082 
L 234.107498 356.688082 
L 239.034659 356.688082 
L 243.96182 356.688082 
L 248.888981 356.688082 
L 253.816143 356.688082 
L 258.743304 356.688082 
L 263.670465 356.688082 
L 268.597626 391.341482 
L 273.524788 391.341482 
L 278.451949 391.341482 
L 283.37911 391.341482 
L 288.306271 391.341482 
L 293.233432 391.341482 
L 298.160594 391.341482 
L 303.087755 391.341482 
L 308.014916 391.341482 
L 312.942077 391.341482 
L 317.869239 391.341482 
L 322.7964 391.341482 
L 327.723561 391.341482 
L 332.650722 391.341482 
L 337.577884 391.341482 
L 342.505045 391.341482 
L 347.432206 391.341482 
L 352.359367 391.341482 
L 357.286528 391.341482 
L 362.21369 391.341482 
L 367.140851 391.341482 
L 372.068012 391.341482 
L 376.995173 391.341482 
L 381.922335 391.341482 
L 386.849496 391.341482 
L 391.776657 391.341482 
L 396.703818 391.341482 
L 401.63098 391.341482 
L 406.558141 391.341482 
L 411.485302 391.341482 
L 416.412463 391.341482 
L 421.339624 391.341482 
L 426.266786 391.341482 
L 431.193947 391.341482 
L 436.121108 391.341482 
L 441.048269 391.341482 
L 445.975431 391.341482 
L 450.902592 391.341482 
L 455.829753 391.341482 
L 460.756914 391.341482 
L 465.684076 391.341482 
L 470.611237 391.341482 
" clip-path="url(#pe3c62715b6)" style="fill: none; stroke: #1f77b4; stroke-width: 1.5; stroke-linecap: square"/>
   </g>
   <g id="line2d_36">
    <path d="M 101.074144 328.982689 
L 106.001306 328.982689 
L 110.928467 328.982689 
L 115.855628 328.982689 
L 120.782789 328.982689 
L 125.709951 328.982689 
L 130.637112 328.982689 
L 135.564273 328.982689 
L 140.491434 328.982689 
L 145.418596 328.982689 
L 150.345757 328.982689 
L 155.272918 328.982689 
L 160.200079 328.982689 
L 165.12724 328.982689 
L 170.054402 328.982689 
L 174.981563 328.982689 
L 179.908724 328.982689 
L 184.835885 328.982689 
L 189.763047 328.982689 
L 194.690208 328.982689 
L 199.617369 328.982689 
L 204.54453 328.982689 
L 209.471692 328.982689 
L 214.398853 328.982689 
L 219.326014 328.982689 
L 224.253175 328.982689 
L 229.180336 328.982689 
L 234.107498 328.982689 
L 239.034659 328.982689 
L 243.96182 328.982689 
L 248.888981 328.982689 
L 253.816143 328.982689 
L 258.743304 328.982689 
L 263.670465 328.982689 
L 268.597626 328.982689 
L 273.524788 328.982689 
L 278.451949 328.982689 
L 283.37911 328.982689 
L 288.306271 328.982689 
L 293.233432 328.982689 
L 298.160594 328.982689 
L 303.087755 328.982689 
L 308.014916 328.982689 
L 312.942077 328.982689 
L 317.869239 328.982689 
L 322.7964 328.982689 
L 327.723561 328.982689 
L 332.650722 328.982689 
L 337.577884 328.982689 
L 342.505045 328.982689 
L 347.432206 328.982689 
L 352.359367 328.982689 
L 357.286528 328.982689 
L 362.21369 328.982689 
L 367.140851 328.982689 
L 372.068012 328.982689 
L 376.995173 328.982689 
L 381.922335 328.982689 
M 391.776657 328.982689 
L 396.703818 328.982689 
L 401.63098 328.982689 
L 406.558141 328.982689 
L 411.485302 328.982689 
L 416.412463 320.319339 
L 421.339624 320.319339 
L 426.266786 320.319339 
L 431.193947 320.319339 
L 436.121108 320.319339 
L 441.048269 320.319339 
L 445.975431 320.319339 
L 450.902592 320.319339 
L 455.829753 320.319339 
L 460.756914 320.319339 
L 465.684076 320.319339 
L 470.611237 320.319339 
L 475.538398 320.319339 
L 480.465559 320.319339 
L 485.39272 320.319339 
L 490.319882 320.319339 
L 495.247043 320.319339 
L 505.101365 320.319339 
L 510.028527 320.319339 
L 514.955688 320.319339 
L 519.882849 320.319339 
L 524.81001 320.319339 
L 529.737172 320.319339 
L 534.664333 320.319339 
" clip-path="url(#pe3c62715b6)" style="fill: none; stroke: #ff7f0e; stroke-width: 1.5; stroke-linecap: square"/>
   </g>
   <g id="line2d_37">
    <path d="M 101.074144 356.688082 
L 106.001306 356.688082 
L 110.928467 356.688082 
L 115.855628 356.688082 
L 120.782789 356.688082 
L 125.709951 356.688082 
L 130.637112 356.688082 
L 135.564273 356.688082 
L 140.491434 356.688082 
L 145.418596 356.688082 
L 150.345757 356.688082 
L 155.272918 356.688082 
L 160.200079 356.688082 
L 165.12724 356.688082 
L 170.054402 356.688082 
L 174.981563 356.688082 
L 179.908724 356.688082 
L 184.835885 356.688082 
L 189.763047 356.688082 
L 194.690208 356.688082 
L 199.617369 356.688082 
L 204.54453 356.688082 
L 209.471692 356.688082 
L 214.398853 356.688082 
L 219.326014 356.688082 
L 224.253175 356.688082 
L 229.180336 356.688082 
L 234.107498 356.688082 
L 239.034659 356.688082 
L 243.96182 356.688082 
L 248.888981 356.688082 
L 253.816143 356.688082 
L 258.743304 356.688082 
L 263.670465 356.688082 
L 268.597626 356.688082 
L 273.524788 356.688082 
L 278.451949 356.688082 
L 283.37911 356.688082 
L 288.306271 356.688082 
L 293.233432 356.688082 
L 298.160594 356.688082 
L 303.087755 356.688082 
L 308.014916 356.688082 
L 312.942077 356.688082 
L 317.869239 356.688082 
L 322.7964 356.688082 
L 327.723561 356.688082 
L 332.650722 356.688082 
L 337.577884 356.688082 
L 342.505045 356.688082 
L 347.432206 356.688082 
L 352.359367 356.688082 
L 357.286528 356.688082 
L 362.21369 356.688082 
L 367.140851 356.688082 
L 372.068012 356.688082 
L 376.995173 356.688082 
L 381.922335 356.688082 
L 386.849496 356.688082 
L 391.776657 356.688082 
L 396.703818 356.688082 
L 401.63098 356.688082 
L 406.558141 356.688082 
L 411.485302 356.688082 
L 416.412463 356.688082 
L 421.339624 356.688082 
L 426.266786 356.688082 
L 431.193947 356.688082 
L 436.121108 356.688082 
L 441.048269 356.688082 
L 445.975431 356.688082 
L 450.902592 356.688082 
L 455.829753 356.688082 
L 460.756914 356.688082 
L 465.684076 356.688082 
L 470.611237 356.688082 
L 475.538398 356.688082 
L 480.465559 356.688082 
L 485.39272 356.688082 
L 490.319882 356.688082 
L 495.247043 356.688082 
L 505.101365 356.688082 
L 510.028527 356.688082 
L 514.955688 356.688082 
L 519.882849 356.688082 
L 524.81001 356.688082 
L 529.737172 356.688082 
L 534.664333 356.688082 
" clip-path="url(#pe3c62715b6)" style="fill: none; stroke: #2ca02c; stroke-width: 1.5; stroke-linecap: square"/>
   </g>
   <g id="line2d_38">
    <path d="M 66.584016 501.106125 
L 101.074144 408.668181 
L 106.001306 408.668181 
L 110.928467 408.668181 
L 115.855628 408.668181 
L 120.782789 408.668181 
L 125.709951 408.668181 
L 130.637112 415.598861 
L 135.564273 415.598861 
L 140.491434 415.598861 
L 145.418596 415.598861 
L 150.345757 415.598861 
L 155.272918 415.598861 
L 160.200079 415.598861 
L 165.12724 415.598861 
L 170.054402 415.598861 
L 174.981563 415.598861 
L 179.908724 415.598861 
L 184.835885 415.598861 
L 189.763047 415.598861 
L 194.690208 415.598861 
L 199.617369 415.598861 
L 204.54453 399.918198 
L 209.471692 399.918198 
L 214.398853 399.918198 
L 219.326014 356.688082 
L 224.253175 356.861349 
L 229.180336 356.861349 
L 234.107498 356.861349 
L 239.034659 356.861349 
L 243.96182 356.861349 
L 248.888981 363.618762 
L 253.816143 363.792029 
L 258.743304 391.341482 
L 263.670465 393.074152 
L 268.597626 408.668181 
L 273.524788 408.668181 
L 278.451949 408.668181 
L 283.37911 408.841448 
L 288.306271 408.668181 
L 293.233432 408.841448 
L 298.160594 416.239949 
L 303.087755 416.239949 
L 308.014916 416.239949 
L 312.942077 416.239949 
L 317.869239 416.239949 
L 322.7964 416.239949 
L 327.723561 425.994881 
L 332.650722 425.994881 
L 337.577884 425.994881 
L 342.505045 425.994881 
L 347.432206 425.994881 
L 352.359367 425.994881 
L 357.286528 425.994881 
L 362.21369 425.994881 
L 367.140851 425.994881 
L 372.068012 425.994881 
L 376.995173 425.994881 
L 381.922335 425.994881 
L 386.849496 425.994881 
L 391.776657 425.994881 
L 396.703818 425.994881 
L 401.63098 425.994881 
L 406.558141 425.994881 
L 411.485302 425.994881 
L 416.412463 425.994881 
L 421.339624 425.994881 
L 426.266786 425.994881 
L 431.193947 425.994881 
L 436.121108 425.994881 
L 441.048269 425.994881 
L 445.975431 425.994881 
L 450.902592 425.994881 
L 455.829753 425.994881 
L 460.756914 425.994881 
L 465.684076 425.994881 
L 470.611237 425.994881 
L 475.538398 425.994881 
L 480.465559 425.994881 
L 485.39272 425.994881 
L 490.319882 425.994881 
L 495.247043 425.994881 
L 505.101365 425.994881 
L 510.028527 425.994881 
L 514.955688 425.994881 
L 519.882849 425.994881 
L 524.81001 425.994881 
L 529.737172 425.994881 
L 534.664333 425.994881 
" clip-path="url(#pe3c62715b6)" style="fill: none; stroke: #d62728; stroke-width: 1.5; stroke-linecap: square"/>
   </g>
   <g id="patch_9">
    <path d="M 43.18 510.145464 
L 43.18 311.28 
" style="fill: none; stroke: #000000; stroke-width: 0.8; stroke-linejoin: miter; stroke-linecap: square"/>
   </g>
   <g id="patch_10">
    <path d="M 558.068349 510.145464 
L 558.068349 311.28 
" style="fill: none; stroke: #000000; stroke-width: 0.8; stroke-linejoin: miter; stroke-linecap: square"/>
   </g>
   <g id="patch_11">
    <path d="M 43.18 510.145464 
L 558.068349 510.145464 
" style="fill: none; stroke: #000000; stroke-width: 0.8; stroke-linejoin: miter; stroke-linecap: square"/>
   </g>
   <g id="patch_12">
    <path d="M 43.18 311.28 
L 558.068349 311.28 
" style="fill: none; stroke: #000000; stroke-width: 0.8; stroke-linejoin: miter; stroke-linecap: square"/>
   </g>
   <g id="text_35">
    <!-- Lenovo IdeaPad 3 -->
    <g transform="translate(247.585112 305.28) scale(0.12 -0.12)">
     <defs>
      <path id="DejaVuSans-4c" d="M 628 4666 
L 1259 4666 
L 1259 531 
L 3531 531 
L 3531 0 
L 628 0 
L 628 4666 
z
" transform="scale(0.015625)"/>
      <path id="DejaVuSans-49" d="M 628 4666 
L 1259 4666 
L 1259 0 
L 628 0 
L 628 4666 
z
" transform="scale(0.015625)"/>
     </defs>
     <use xlink:href="#DejaVuSans-4c"/>
     <use xlink:href="#DejaVuSans-65" x="53.962891"/>
     <use xlink:href="#DejaVuSans-6e" x="115.486328"/>
     <use xlink:href="#DejaVuSans-6f" x="178.865234"/>
     <use xlink:href="#DejaVuSans-76" x="240.046875"/>
     <use xlink:href="#DejaVuSans-6f" x="299.226562"/>
     <use xlink:href="#DejaVuSans-20" x="360.408203"/>
     <use xlink:href="#DejaVuSans-49" x="392.195312"/>
     <use xlink:href="#DejaVuSans-64" x="421.6875"/>
     <use xlink:href="#DejaVuSans-65" x="485.164062"/>
     <use xlink:href="#DejaVuSans-61" x="546.6875"/>
     <use xlink:href="#DejaVuSans-50" x="607.966797"/>
     <use xlink:href="#DejaVuSans-61" x="663.769531"/>
     <use xlink:href="#DejaVuSans-64" x="725.048828"/>
     <use xlink:href="#DejaVuSans-20" x="788.525391"/>
     <use xlink:href="#DejaVuSans-33" x="820.3125"/>
    </g>
   </g>
   <g id="legend_2">
    <g id="patch_13">
     <path d="M 416.985536 505.145464 
L 551.068349 505.145464 
Q 553.068349 505.145464 553.068349 503.145464 
L 553.068349 430.754839 
Q 553.068349 428.754839 551.068349 428.754839 
L 416.985536 428.754839 
Q 414.985536 428.754839 414.985536 430.754839 
L 414.985536 503.145464 
Q 414.985536 505.145464 416.985536 505.145464 
z
" style="fill: #ffffff; opacity: 0.8; stroke: #cccccc; stroke-linejoin: miter"/>
    </g>
    <g id="text_36">
     <!-- source -->
     <g transform="translate(467.42538 440.353276) scale(0.1 -0.1)">
      <use xlink:href="#DejaVuSans-73"/>
      <use xlink:href="#DejaVuSans-6f" x="52.099609"/>
      <use xlink:href="#DejaVuSans-75" x="113.28125"/>
      <use xlink:href="#DejaVuSans-72" x="176.660156"/>
      <use xlink:href="#DejaVuSans-63" x="215.523438"/>
      <use xlink:href="#DejaVuSans-65" x="270.503906"/>
     </g>
    </g>
    <g id="line2d_39">
     <path d="M 418.985536 451.531401 
L 428.985536 451.531401 
L 438.985536 451.531401 
" style="fill: none; stroke: #1f77b4; stroke-width: 1.5; stroke-linecap: square"/>
    </g>
    <g id="text_37">
     <!-- instar-informatika.hr -->
     <g transform="translate(446.985536 455.031401) scale(0.1 -0.1)">
      <defs>
       <path id="DejaVuSans-66" d="M 2375 4863 
L 2375 4384 
L 1825 4384 
Q 1516 4384 1395 4259 
Q 1275 4134 1275 3809 
L 1275 3500 
L 2222 3500 
L 2222 3053 
L 1275 3053 
L 1275 0 
L 697 0 
L 697 3053 
L 147 3053 
L 147 3500 
L 697 3500 
L 697 3744 
Q 697 4328 969 4595 
Q 1241 4863 1831 4863 
L 2375 4863 
z
" transform="scale(0.015625)"/>
      </defs>
      <use xlink:href="#DejaVuSans-69"/>
      <use xlink:href="#DejaVuSans-6e" x="27.783203"/>
      <use xlink:href="#DejaVuSans-73" x="91.162109"/>
      <use xlink:href="#DejaVuSans-74" x="143.261719"/>
      <use xlink:href="#DejaVuSans-61" x="182.470703"/>
      <use xlink:href="#DejaVuSans-72" x="243.75"/>
      <use xlink:href="#DejaVuSans-2d" x="278.488281"/>
      <use xlink:href="#DejaVuSans-69" x="314.572266"/>
      <use xlink:href="#DejaVuSans-6e" x="342.355469"/>
      <use xlink:href="#DejaVuSans-66" x="405.734375"/>
      <use xlink:href="#DejaVuSans-6f" x="440.939453"/>
      <use xlink:href="#DejaVuSans-72" x="502.121094"/>
      <use xlink:href="#DejaVuSans-6d" x="541.484375"/>
      <use xlink:href="#DejaVuSans-61" x="638.896484"/>
      <use xlink:href="#DejaVuSans-74" x="700.175781"/>
      <use xlink:href="#DejaVuSans-69" x="739.384766"/>
      <use xlink:href="#DejaVuSans-6b" x="767.167969"/>
      <use xlink:href="#DejaVuSans-61" x="823.328125"/>
      <use xlink:href="#DejaVuSans-2e" x="884.607422"/>
      <use xlink:href="#DejaVuSans-68" x="916.394531"/>
      <use xlink:href="#DejaVuSans-72" x="979.773438"/>
     </g>
    </g>
    <g id="line2d_40">
     <path d="M 418.985536 466.209526 
L 428.985536 466.209526 
L 438.985536 466.209526 
" style="fill: none; stroke: #ff7f0e; stroke-width: 1.5; stroke-linecap: square"/>
    </g>
    <g id="text_38">
     <!-- links.hr -->
     <g transform="translate(446.985536 469.709526) scale(0.1 -0.1)">
      <use xlink:href="#DejaVuSans-6c"/>
      <use xlink:href="#DejaVuSans-69" x="27.783203"/>
      <use xlink:href="#DejaVuSans-6e" x="55.566406"/>
      <use xlink:href="#DejaVuSans-6b" x="118.945312"/>
      <use xlink:href="#DejaVuSans-73" x="176.855469"/>
      <use xlink:href="#DejaVuSans-2e" x="228.955078"/>
      <use xlink:href="#DejaVuSans-68" x="260.742188"/>
      <use xlink:href="#DejaVuSans-72" x="324.121094"/>
     </g>
    </g>
    <g id="line2d_41">
     <path d="M 418.985536 480.887651 
L 428.985536 480.887651 
L 438.985536 480.887651 
" style="fill: none; stroke: #2ca02c; stroke-width: 1.5; stroke-linecap: square"/>
    </g>
    <g id="text_39">
     <!-- mikronis.hr -->
     <g transform="translate(446.985536 484.387651) scale(0.1 -0.1)">
      <use xlink:href="#DejaVuSans-6d"/>
      <use xlink:href="#DejaVuSans-69" x="97.412109"/>
      <use xlink:href="#DejaVuSans-6b" x="125.195312"/>
      <use xlink:href="#DejaVuSans-72" x="183.105469"/>
      <use xlink:href="#DejaVuSans-6f" x="221.96875"/>
      <use xlink:href="#DejaVuSans-6e" x="283.150391"/>
      <use xlink:href="#DejaVuSans-69" x="346.529297"/>
      <use xlink:href="#DejaVuSans-73" x="374.3125"/>
      <use xlink:href="#DejaVuSans-2e" x="426.412109"/>
      <use xlink:href="#DejaVuSans-68" x="458.199219"/>
      <use xlink:href="#DejaVuSans-72" x="521.578125"/>
     </g>
    </g>
    <g id="line2d_42">
     <path d="M 418.985536 495.565776 
L 428.985536 495.565776 
L 438.985536 495.565776 
" style="fill: none; stroke: #d62728; stroke-width: 1.5; stroke-linecap: square"/>
    </g>
    <g id="text_40">
     <!-- nabava.net -->
     <g transform="translate(446.985536 499.065776) scale(0.1 -0.1)">
      <use xlink:href="#DejaVuSans-6e"/>
      <use xlink:href="#DejaVuSans-61" x="63.378906"/>
      <use xlink:href="#DejaVuSans-62" x="124.658203"/>
      <use xlink:href="#DejaVuSans-61" x="188.134766"/>
      <use xlink:href="#DejaVuSans-76" x="249.414062"/>
      <use xlink:href="#DejaVuSans-61" x="308.59375"/>
      <use xlink:href="#DejaVuSans-2e" x="369.873047"/>
      <use xlink:href="#DejaVuSans-6e" x="401.660156"/>
      <use xlink:href="#DejaVuSans-65" x="465.039062"/>
      <use xlink:href="#DejaVuSans-74" x="526.5625"/>
     </g>
    </g>
   </g>
  </g>
  <g id="axes_3">
   <g id="patch_14">
    <path d="M 43.18 794.545464 
L 558.068349 794.545464 
L 558.068349 595.68 
L 43.18 595.68 
z
" style="fill: #ffffff"/>
   </g>
   <g id="matplotlib.axis_5">
    <g id="xtick_15">
     <g id="line2d_43">
      <g>
       <use xlink:href="#m6581147d16" x="45.307638" y="794.545464" style="stroke: #000000; stroke-width: 0.8"/>
      </g>
     </g>
     <g id="text_41">
      <!-- 2023-11-01 -->
      <g transform="translate(21.522522 837.183716) rotate(-30) scale(0.1 -0.1)">
       <use xlink:href="#DejaVuSans-32"/>
       <use xlink:href="#DejaVuSans-30" x="63.623047"/>
       <use xlink:href="#DejaVuSans-32" x="127.246094"/>
       <use xlink:href="#DejaVuSans-33" x="190.869141"/>
       <use xlink:href="#DejaVuSans-2d" x="254.492188"/>
       <use xlink:href="#DejaVuSans-31" x="290.576172"/>
       <use xlink:href="#DejaVuSans-31" x="354.199219"/>
       <use xlink:href="#DejaVuSans-2d" x="417.822266"/>
       <use xlink:href="#DejaVuSans-30" x="453.90625"/>
       <use xlink:href="#DejaVuSans-31" x="517.529297"/>
      </g>
     </g>
    </g>
    <g id="xtick_16">
     <g id="line2d_44">
      <g>
       <use xlink:href="#m6581147d16" x="119.774961" y="794.545464" style="stroke: #000000; stroke-width: 0.8"/>
      </g>
     </g>
     <g id="text_42">
      <!-- 2023-11-15 -->
      <g transform="translate(95.989845 837.183716) rotate(-30) scale(0.1 -0.1)">
       <use xlink:href="#DejaVuSans-32"/>
       <use xlink:href="#DejaVuSans-30" x="63.623047"/>
       <use xlink:href="#DejaVuSans-32" x="127.246094"/>
       <use xlink:href="#DejaVuSans-33" x="190.869141"/>
       <use xlink:href="#DejaVuSans-2d" x="254.492188"/>
       <use xlink:href="#DejaVuSans-31" x="290.576172"/>
       <use xlink:href="#DejaVuSans-31" x="354.199219"/>
       <use xlink:href="#DejaVuSans-2d" x="417.822266"/>
       <use xlink:href="#DejaVuSans-31" x="453.90625"/>
       <use xlink:href="#DejaVuSans-35" x="517.529297"/>
      </g>
     </g>
    </g>
    <g id="xtick_17">
     <g id="line2d_45">
      <g>
       <use xlink:href="#m6581147d16" x="204.880473" y="794.545464" style="stroke: #000000; stroke-width: 0.8"/>
      </g>
     </g>
     <g id="text_43">
      <!-- 2023-12-01 -->
      <g transform="translate(181.095357 837.183716) rotate(-30) scale(0.1 -0.1)">
       <use xlink:href="#DejaVuSans-32"/>
       <use xlink:href="#DejaVuSans-30" x="63.623047"/>
       <use xlink:href="#DejaVuSans-32" x="127.246094"/>
       <use xlink:href="#DejaVuSans-33" x="190.869141"/>
       <use xlink:href="#DejaVuSans-2d" x="254.492188"/>
       <use xlink:href="#DejaVuSans-31" x="290.576172"/>
       <use xlink:href="#DejaVuSans-32" x="354.199219"/>
       <use xlink:href="#DejaVuSans-2d" x="417.822266"/>
       <use xlink:href="#DejaVuSans-30" x="453.90625"/>
       <use xlink:href="#DejaVuSans-31" x="517.529297"/>
      </g>
     </g>
    </g>
    <g id="xtick_18">
     <g id="line2d_46">
      <g>
       <use xlink:href="#m6581147d16" x="279.347796" y="794.545464" style="stroke: #000000; stroke-width: 0.8"/>
      </g>
     </g>
     <g id="text_44">
      <!-- 2023-12-15 -->
      <g transform="translate(255.56268 837.183716) rotate(-30) scale(0.1 -0.1)">
       <use xlink:href="#DejaVuSans-32"/>
       <use xlink:href="#DejaVuSans-30" x="63.623047"/>
       <use xlink:href="#DejaVuSans-32" x="127.246094"/>
       <use xlink:href="#DejaVuSans-33" x="190.869141"/>
       <use xlink:href="#DejaVuSans-2d" x="254.492188"/>
       <use xlink:href="#DejaVuSans-31" x="290.576172"/>
       <use xlink:href="#DejaVuSans-32" x="354.199219"/>
       <use xlink:href="#DejaVuSans-2d" x="417.822266"/>
       <use xlink:href="#DejaVuSans-31" x="453.90625"/>
       <use xlink:href="#DejaVuSans-35" x="517.529297"/>
      </g>
     </g>
    </g>
    <g id="xtick_19">
     <g id="line2d_47">
      <g>
       <use xlink:href="#m6581147d16" x="369.772403" y="794.545464" style="stroke: #000000; stroke-width: 0.8"/>
      </g>
     </g>
     <g id="text_45">
      <!-- 2024-01-01 -->
      <g transform="translate(345.987287 837.183716) rotate(-30) scale(0.1 -0.1)">
       <use xlink:href="#DejaVuSans-32"/>
       <use xlink:href="#DejaVuSans-30" x="63.623047"/>
       <use xlink:href="#DejaVuSans-32" x="127.246094"/>
       <use xlink:href="#DejaVuSans-34" x="190.869141"/>
       <use xlink:href="#DejaVuSans-2d" x="254.492188"/>
       <use xlink:href="#DejaVuSans-30" x="290.576172"/>
       <use xlink:href="#DejaVuSans-31" x="354.199219"/>
       <use xlink:href="#DejaVuSans-2d" x="417.822266"/>
       <use xlink:href="#DejaVuSans-30" x="453.90625"/>
       <use xlink:href="#DejaVuSans-31" x="517.529297"/>
      </g>
     </g>
    </g>
    <g id="xtick_20">
     <g id="line2d_48">
      <g>
       <use xlink:href="#m6581147d16" x="444.239726" y="794.545464" style="stroke: #000000; stroke-width: 0.8"/>
      </g>
     </g>
     <g id="text_46">
      <!-- 2024-01-15 -->
      <g transform="translate(420.45461 837.183716) rotate(-30) scale(0.1 -0.1)">
       <use xlink:href="#DejaVuSans-32"/>
       <use xlink:href="#DejaVuSans-30" x="63.623047"/>
       <use xlink:href="#DejaVuSans-32" x="127.246094"/>
       <use xlink:href="#DejaVuSans-34" x="190.869141"/>
       <use xlink:href="#DejaVuSans-2d" x="254.492188"/>
       <use xlink:href="#DejaVuSans-30" x="290.576172"/>
       <use xlink:href="#DejaVuSans-31" x="354.199219"/>
       <use xlink:href="#DejaVuSans-2d" x="417.822266"/>
       <use xlink:href="#DejaVuSans-31" x="453.90625"/>
       <use xlink:href="#DejaVuSans-35" x="517.529297"/>
      </g>
     </g>
    </g>
    <g id="xtick_21">
     <g id="line2d_49">
      <g>
       <use xlink:href="#m6581147d16" x="534.664333" y="794.545464" style="stroke: #000000; stroke-width: 0.8"/>
      </g>
     </g>
     <g id="text_47">
      <!-- 2024-02-01 -->
      <g transform="translate(510.879216 837.183716) rotate(-30) scale(0.1 -0.1)">
       <use xlink:href="#DejaVuSans-32"/>
       <use xlink:href="#DejaVuSans-30" x="63.623047"/>
       <use xlink:href="#DejaVuSans-32" x="127.246094"/>
       <use xlink:href="#DejaVuSans-34" x="190.869141"/>
       <use xlink:href="#DejaVuSans-2d" x="254.492188"/>
       <use xlink:href="#DejaVuSans-30" x="290.576172"/>
       <use xlink:href="#DejaVuSans-32" x="354.199219"/>
       <use xlink:href="#DejaVuSans-2d" x="417.822266"/>
       <use xlink:href="#DejaVuSans-30" x="453.90625"/>
       <use xlink:href="#DejaVuSans-31" x="517.529297"/>
      </g>
     </g>
    </g>
    <g id="text_48">
     <!-- Price date -->
     <g transform="translate(275.562456 850.583216) scale(0.1 -0.1)">
      <use xlink:href="#DejaVuSans-50"/>
      <use xlink:href="#DejaVuSans-72" x="58.552734"/>
      <use xlink:href="#DejaVuSans-69" x="99.666016"/>
      <use xlink:href="#DejaVuSans-63" x="127.449219"/>
      <use xlink:href="#DejaVuSans-65" x="182.429688"/>
      <use xlink:href="#DejaVuSans-20" x="243.953125"/>
      <use xlink:href="#DejaVuSans-64" x="275.740234"/>
      <use xlink:href="#DejaVuSans-61" x="339.216797"/>
      <use xlink:href="#DejaVuSans-74" x="400.496094"/>
      <use xlink:href="#DejaVuSans-65" x="439.705078"/>
     </g>
    </g>
   </g>
   <g id="matplotlib.axis_6">
    <g id="ytick_13">
     <g id="line2d_50">
      <g>
       <use xlink:href="#m3f3dbcca4f" x="43.18" y="785.496777" style="stroke: #000000; stroke-width: 0.8"/>
      </g>
     </g>
     <g id="text_49">
      <!-- 550 -->
      <g transform="translate(17.0925 789.295996) scale(0.1 -0.1)">
       <use xlink:href="#DejaVuSans-35"/>
       <use xlink:href="#DejaVuSans-35" x="63.623047"/>
       <use xlink:href="#DejaVuSans-30" x="127.246094"/>
      </g>
     </g>
    </g>
    <g id="ytick_14">
     <g id="line2d_51">
      <g>
       <use xlink:href="#m3f3dbcca4f" x="43.18" y="762.127234" style="stroke: #000000; stroke-width: 0.8"/>
      </g>
     </g>
     <g id="text_50">
      <!-- 575 -->
      <g transform="translate(17.0925 765.926452) scale(0.1 -0.1)">
       <defs>
        <path id="DejaVuSans-37" d="M 525 4666 
L 3525 4666 
L 3525 4397 
L 1831 0 
L 1172 0 
L 2766 4134 
L 525 4134 
L 525 4666 
z
" transform="scale(0.015625)"/>
       </defs>
       <use xlink:href="#DejaVuSans-35"/>
       <use xlink:href="#DejaVuSans-37" x="63.623047"/>
       <use xlink:href="#DejaVuSans-35" x="127.246094"/>
      </g>
     </g>
    </g>
    <g id="ytick_15">
     <g id="line2d_52">
      <g>
       <use xlink:href="#m3f3dbcca4f" x="43.18" y="738.757691" style="stroke: #000000; stroke-width: 0.8"/>
      </g>
     </g>
     <g id="text_51">
      <!-- 600 -->
      <g transform="translate(17.0925 742.556909) scale(0.1 -0.1)">
       <use xlink:href="#DejaVuSans-36"/>
       <use xlink:href="#DejaVuSans-30" x="63.623047"/>
       <use xlink:href="#DejaVuSans-30" x="127.246094"/>
      </g>
     </g>
    </g>
    <g id="ytick_16">
     <g id="line2d_53">
      <g>
       <use xlink:href="#m3f3dbcca4f" x="43.18" y="715.388148" style="stroke: #000000; stroke-width: 0.8"/>
      </g>
     </g>
     <g id="text_52">
      <!-- 625 -->
      <g transform="translate(17.0925 719.187366) scale(0.1 -0.1)">
       <use xlink:href="#DejaVuSans-36"/>
       <use xlink:href="#DejaVuSans-32" x="63.623047"/>
       <use xlink:href="#DejaVuSans-35" x="127.246094"/>
      </g>
     </g>
    </g>
    <g id="ytick_17">
     <g id="line2d_54">
      <g>
       <use xlink:href="#m3f3dbcca4f" x="43.18" y="692.018604" style="stroke: #000000; stroke-width: 0.8"/>
      </g>
     </g>
     <g id="text_53">
      <!-- 650 -->
      <g transform="translate(17.0925 695.817823) scale(0.1 -0.1)">
       <use xlink:href="#DejaVuSans-36"/>
       <use xlink:href="#DejaVuSans-35" x="63.623047"/>
       <use xlink:href="#DejaVuSans-30" x="127.246094"/>
      </g>
     </g>
    </g>
    <g id="ytick_18">
     <g id="line2d_55">
      <g>
       <use xlink:href="#m3f3dbcca4f" x="43.18" y="668.649061" style="stroke: #000000; stroke-width: 0.8"/>
      </g>
     </g>
     <g id="text_54">
      <!-- 675 -->
      <g transform="translate(17.0925 672.44828) scale(0.1 -0.1)">
       <use xlink:href="#DejaVuSans-36"/>
       <use xlink:href="#DejaVuSans-37" x="63.623047"/>
       <use xlink:href="#DejaVuSans-35" x="127.246094"/>
      </g>
     </g>
    </g>
    <g id="ytick_19">
     <g id="line2d_56">
      <g>
       <use xlink:href="#m3f3dbcca4f" x="43.18" y="645.279518" style="stroke: #000000; stroke-width: 0.8"/>
      </g>
     </g>
     <g id="text_55">
      <!-- 700 -->
      <g transform="translate(17.0925 649.078737) scale(0.1 -0.1)">
       <use xlink:href="#DejaVuSans-37"/>
       <use xlink:href="#DejaVuSans-30" x="63.623047"/>
       <use xlink:href="#DejaVuSans-30" x="127.246094"/>
      </g>
     </g>
    </g>
    <g id="ytick_20">
     <g id="line2d_57">
      <g>
       <use xlink:href="#m3f3dbcca4f" x="43.18" y="621.909975" style="stroke: #000000; stroke-width: 0.8"/>
      </g>
     </g>
     <g id="text_56">
      <!-- 725 -->
      <g transform="translate(17.0925 625.709194) scale(0.1 -0.1)">
       <use xlink:href="#DejaVuSans-37"/>
       <use xlink:href="#DejaVuSans-32" x="63.623047"/>
       <use xlink:href="#DejaVuSans-35" x="127.246094"/>
      </g>
     </g>
    </g>
    <g id="ytick_21">
     <g id="line2d_58">
      <g>
       <use xlink:href="#m3f3dbcca4f" x="43.18" y="598.540432" style="stroke: #000000; stroke-width: 0.8"/>
      </g>
     </g>
     <g id="text_57">
      <!-- 750 -->
      <g transform="translate(17.0925 602.339651) scale(0.1 -0.1)">
       <use xlink:href="#DejaVuSans-37"/>
       <use xlink:href="#DejaVuSans-35" x="63.623047"/>
       <use xlink:href="#DejaVuSans-30" x="127.246094"/>
      </g>
     </g>
    </g>
   </g>
   <g id="line2d_59">
    <path d="M 66.584016 604.719339 
L 71.90311 604.719339 
L 77.222205 604.719339 
L 82.541299 604.719339 
L 87.860394 604.719339 
L 93.179488 604.719339 
L 98.498583 604.719339 
L 103.817677 604.719339 
L 109.136772 604.719339 
L 114.455866 604.719339 
L 119.774961 604.719339 
L 125.094055 604.719339 
L 130.41315 604.719339 
L 135.732244 604.719339 
L 141.051339 604.719339 
L 146.370434 604.719339 
L 151.689528 604.719339 
L 157.008623 604.719339 
L 162.327717 604.719339 
L 167.646812 604.719339 
L 172.965906 604.719339 
L 178.285001 604.719339 
L 183.604095 604.719339 
L 188.92319 604.719339 
L 194.242284 604.719339 
L 199.561379 604.719339 
L 204.880473 604.719339 
L 210.199568 604.719339 
L 215.518662 604.719339 
L 220.837757 604.719339 
L 226.156851 604.719339 
L 231.475946 604.719339 
L 236.79504 604.719339 
L 242.114135 604.719339 
L 247.433229 604.719339 
L 252.752324 604.719339 
L 258.071418 604.719339 
L 263.390513 604.719339 
L 268.709607 604.719339 
L 274.028702 604.719339 
L 279.347796 604.719339 
L 284.666891 604.719339 
L 289.985985 604.719339 
L 295.30508 604.719339 
L 300.624174 604.719339 
L 305.943269 604.719339 
L 311.262363 604.719339 
L 316.581458 604.719339 
L 321.900552 604.719339 
L 327.219647 604.719339 
L 332.538741 604.719339 
L 337.857836 604.719339 
L 343.17693 604.719339 
L 348.496025 604.719339 
L 353.815119 604.719339 
L 359.134214 604.719339 
L 364.453308 604.719339 
L 369.772403 604.719339 
L 375.091497 604.719339 
L 380.410592 604.719339 
L 385.729686 604.719339 
L 391.048781 604.719339 
L 396.367875 604.719339 
L 401.68697 604.719339 
L 407.006065 604.719339 
L 412.325159 604.719339 
L 417.644254 604.719339 
L 422.963348 604.719339 
L 428.282443 604.719339 
L 433.601537 604.719339 
L 438.920632 604.719339 
L 444.239726 604.719339 
L 449.558821 604.719339 
L 454.877915 604.719339 
L 460.19701 604.719339 
L 465.516104 604.719339 
L 470.835199 604.719339 
L 476.154293 604.719339 
L 481.473388 604.719339 
L 486.792482 604.719339 
L 492.111577 604.719339 
L 502.749766 604.719339 
L 508.06886 604.719339 
L 513.387955 604.719339 
L 518.707049 604.719339 
L 524.026144 604.719339 
L 529.345238 604.719339 
L 534.664333 604.719339 
" clip-path="url(#p0793484cf8)" style="fill: none; stroke: #1f77b4; stroke-width: 1.5; stroke-linecap: square"/>
   </g>
   <g id="line2d_60">
    <path d="M 66.584016 738.767038 
L 71.90311 738.767038 
L 77.222205 738.767038 
L 82.541299 738.767038 
L 87.860394 738.767038 
L 93.179488 738.767038 
L 98.498583 738.767038 
L 103.817677 738.767038 
L 109.136772 738.767038 
L 114.455866 738.767038 
L 119.774961 738.767038 
L 125.094055 738.767038 
L 130.41315 738.767038 
L 135.732244 738.767038 
L 141.051339 738.767038 
L 146.370434 738.767038 
L 151.689528 738.767038 
L 157.008623 785.506125 
L 162.327717 785.506125 
L 167.646812 785.506125 
M 188.92319 785.506125 
" clip-path="url(#p0793484cf8)" style="fill: none; stroke: #ff7f0e; stroke-width: 1.5; stroke-linecap: square"/>
   </g>
   <g id="line2d_61">
    <path d="M 66.584016 739.692472 
L 71.90311 739.692472 
L 77.222205 739.692472 
L 82.541299 739.692472 
L 87.860394 739.692472 
L 93.179488 739.692472 
L 98.498583 739.692472 
L 103.817677 739.692472 
L 109.136772 739.692472 
L 114.455866 739.692472 
L 119.774961 739.692472 
L 125.094055 739.692472 
L 130.41315 739.692472 
L 135.732244 739.692472 
L 141.051339 739.692472 
L 146.370434 739.692472 
L 151.689528 739.692472 
L 157.008623 739.692472 
L 162.327717 739.692472 
L 167.646812 739.692472 
L 172.965906 739.692472 
L 178.285001 739.692472 
L 183.604095 739.692472 
L 188.92319 739.692472 
L 194.242284 739.692472 
L 199.561379 739.692472 
L 204.880473 739.692472 
L 210.199568 739.692472 
L 215.518662 739.692472 
L 220.837757 739.692472 
L 226.156851 739.692472 
L 231.475946 739.692472 
L 236.79504 739.692472 
L 242.114135 739.692472 
L 247.433229 739.692472 
L 252.752324 739.692472 
L 258.071418 739.692472 
L 263.390513 739.692472 
L 268.709607 739.692472 
L 274.028702 739.692472 
L 279.347796 739.692472 
L 284.666891 739.692472 
L 289.985985 739.692472 
L 295.30508 739.692472 
L 300.624174 739.692472 
L 305.943269 739.692472 
L 311.262363 739.692472 
L 316.581458 739.692472 
L 321.900552 739.692472 
L 327.219647 739.692472 
L 332.538741 739.692472 
L 337.857836 739.692472 
L 343.17693 739.692472 
L 348.496025 739.692472 
L 353.815119 739.692472 
L 359.134214 739.692472 
L 364.453308 739.692472 
L 369.772403 739.692472 
L 375.091497 739.692472 
L 380.410592 739.692472 
L 385.729686 739.692472 
L 391.048781 739.692472 
L 396.367875 739.692472 
L 401.68697 739.692472 
L 407.006065 739.692472 
L 412.325159 739.692472 
L 417.644254 739.692472 
L 422.963348 739.692472 
L 428.282443 739.692472 
L 433.601537 739.692472 
L 438.920632 739.692472 
L 444.239726 739.692472 
L 449.558821 739.692472 
L 454.877915 739.692472 
L 460.19701 739.692472 
L 465.516104 739.692472 
L 470.835199 739.692472 
L 476.154293 739.692472 
L 481.473388 739.692472 
L 486.792482 739.692472 
L 492.111577 739.692472 
L 502.749766 739.692472 
L 508.06886 739.692472 
L 513.387955 739.692472 
L 518.707049 739.692472 
L 524.026144 739.692472 
L 529.345238 739.692472 
L 534.664333 739.692472 
" clip-path="url(#p0793484cf8)" style="fill: none; stroke: #2ca02c; stroke-width: 1.5; stroke-linecap: square"/>
   </g>
   <g id="line2d_62">
    <path d="M 66.584016 670.518625 
L 71.90311 670.518625 
L 77.222205 670.518625 
L 82.541299 670.518625 
L 87.860394 670.518625 
L 93.179488 670.518625 
L 98.498583 670.518625 
L 103.817677 670.518625 
L 109.136772 670.518625 
L 114.455866 670.518625 
L 119.774961 670.518625 
L 125.094055 670.518625 
L 130.41315 670.518625 
L 135.732244 670.518625 
L 141.051339 670.518625 
L 146.370434 670.518625 
L 151.689528 670.518625 
L 157.008623 670.518625 
L 162.327717 670.518625 
L 167.646812 670.518625 
L 172.965906 670.518625 
L 178.285001 670.518625 
L 183.604095 670.518625 
L 188.92319 670.518625 
L 194.242284 670.518625 
L 199.561379 670.518625 
L 204.880473 670.518625 
L 210.199568 670.518625 
L 215.518662 670.518625 
L 220.837757 670.518625 
L 226.156851 670.518625 
L 231.475946 670.518625 
L 236.79504 670.518625 
L 242.114135 670.518625 
L 247.433229 670.518625 
L 252.752324 670.518625 
L 258.071418 670.518625 
L 263.390513 670.518625 
L 268.709607 670.518625 
L 274.028702 670.518625 
L 279.347796 670.518625 
L 284.666891 670.518625 
L 289.985985 670.518625 
L 295.30508 670.518625 
L 300.624174 670.518625 
L 305.943269 670.518625 
L 311.262363 670.518625 
L 316.581458 670.518625 
L 321.900552 670.518625 
L 327.219647 670.518625 
L 332.538741 670.518625 
L 337.857836 670.518625 
L 343.17693 670.518625 
L 348.496025 670.518625 
L 353.815119 670.518625 
L 359.134214 670.518625 
L 364.453308 670.518625 
L 369.772403 670.518625 
L 375.091497 670.518625 
L 380.410592 670.518625 
L 385.729686 670.518625 
L 391.048781 670.518625 
L 396.367875 670.518625 
L 401.68697 670.518625 
L 407.006065 670.518625 
L 412.325159 670.518625 
L 417.644254 670.518625 
L 422.963348 670.518625 
L 428.282443 670.518625 
L 433.601537 670.518625 
L 438.920632 670.518625 
L 444.239726 670.518625 
L 449.558821 670.518625 
L 454.877915 670.518625 
L 460.19701 670.518625 
L 465.516104 670.518625 
L 470.835199 670.518625 
L 476.154293 670.518625 
L 481.473388 670.518625 
L 486.792482 670.518625 
L 492.111577 670.518625 
L 502.749766 670.518625 
L 508.06886 670.518625 
L 513.387955 670.518625 
L 518.707049 670.518625 
L 524.026144 670.518625 
L 529.345238 670.518625 
L 534.664333 670.518625 
" clip-path="url(#p0793484cf8)" style="fill: none; stroke: #d62728; stroke-width: 1.5; stroke-linecap: square"/>
   </g>
   <g id="patch_15">
    <path d="M 43.18 794.545464 
L 43.18 595.68 
" style="fill: none; stroke: #000000; stroke-width: 0.8; stroke-linejoin: miter; stroke-linecap: square"/>
   </g>
   <g id="patch_16">
    <path d="M 558.068349 794.545464 
L 558.068349 595.68 
" style="fill: none; stroke: #000000; stroke-width: 0.8; stroke-linejoin: miter; stroke-linecap: square"/>
   </g>
   <g id="patch_17">
    <path d="M 43.18 794.545464 
L 558.068349 794.545464 
" style="fill: none; stroke: #000000; stroke-width: 0.8; stroke-linejoin: miter; stroke-linecap: square"/>
   </g>
   <g id="patch_18">
    <path d="M 43.18 595.68 
L 558.068349 595.68 
" style="fill: none; stroke: #000000; stroke-width: 0.8; stroke-linejoin: miter; stroke-linecap: square"/>
   </g>
   <g id="text_58">
    <!-- HP 15-fd0007nm -->
    <g transform="translate(249.949487 589.68) scale(0.12 -0.12)">
     <defs>
      <path id="DejaVuSans-48" d="M 628 4666 
L 1259 4666 
L 1259 2753 
L 3553 2753 
L 3553 4666 
L 4184 4666 
L 4184 0 
L 3553 0 
L 3553 2222 
L 1259 2222 
L 1259 0 
L 628 0 
L 628 4666 
z
" transform="scale(0.015625)"/>
     </defs>
     <use xlink:href="#DejaVuSans-48"/>
     <use xlink:href="#DejaVuSans-50" x="75.195312"/>
     <use xlink:href="#DejaVuSans-20" x="135.498047"/>
     <use xlink:href="#DejaVuSans-31" x="167.285156"/>
     <use xlink:href="#DejaVuSans-35" x="230.908203"/>
     <use xlink:href="#DejaVuSans-2d" x="294.53125"/>
     <use xlink:href="#DejaVuSans-66" x="330.615234"/>
     <use xlink:href="#DejaVuSans-64" x="365.820312"/>
     <use xlink:href="#DejaVuSans-30" x="429.296875"/>
     <use xlink:href="#DejaVuSans-30" x="492.919922"/>
     <use xlink:href="#DejaVuSans-30" x="556.542969"/>
     <use xlink:href="#DejaVuSans-37" x="620.166016"/>
     <use xlink:href="#DejaVuSans-6e" x="683.789062"/>
     <use xlink:href="#DejaVuSans-6d" x="747.167969"/>
    </g>
   </g>
   <g id="legend_3">
    <g id="patch_19">
     <path d="M 416.985536 789.545464 
L 551.068349 789.545464 
Q 553.068349 789.545464 553.068349 787.545464 
L 553.068349 715.154839 
Q 553.068349 713.154839 551.068349 713.154839 
L 416.985536 713.154839 
Q 414.985536 713.154839 414.985536 715.154839 
L 414.985536 787.545464 
Q 414.985536 789.545464 416.985536 789.545464 
z
" style="fill: #ffffff; opacity: 0.8; stroke: #cccccc; stroke-linejoin: miter"/>
    </g>
    <g id="text_59">
     <!-- source -->
     <g transform="translate(467.42538 724.753276) scale(0.1 -0.1)">
      <use xlink:href="#DejaVuSans-73"/>
      <use xlink:href="#DejaVuSans-6f" x="52.099609"/>
      <use xlink:href="#DejaVuSans-75" x="113.28125"/>
      <use xlink:href="#DejaVuSans-72" x="176.660156"/>
      <use xlink:href="#DejaVuSans-63" x="215.523438"/>
      <use xlink:href="#DejaVuSans-65" x="270.503906"/>
     </g>
    </g>
    <g id="line2d_63">
     <path d="M 418.985536 735.931401 
L 428.985536 735.931401 
L 438.985536 735.931401 
" style="fill: none; stroke: #1f77b4; stroke-width: 1.5; stroke-linecap: square"/>
    </g>
    <g id="text_60">
     <!-- instar-informatika.hr -->
     <g transform="translate(446.985536 739.431401) scale(0.1 -0.1)">
      <use xlink:href="#DejaVuSans-69"/>
      <use xlink:href="#DejaVuSans-6e" x="27.783203"/>
      <use xlink:href="#DejaVuSans-73" x="91.162109"/>
      <use xlink:href="#DejaVuSans-74" x="143.261719"/>
      <use xlink:href="#DejaVuSans-61" x="182.470703"/>
      <use xlink:href="#DejaVuSans-72" x="243.75"/>
      <use xlink:href="#DejaVuSans-2d" x="278.488281"/>
      <use xlink:href="#DejaVuSans-69" x="314.572266"/>
      <use xlink:href="#DejaVuSans-6e" x="342.355469"/>
      <use xlink:href="#DejaVuSans-66" x="405.734375"/>
      <use xlink:href="#DejaVuSans-6f" x="440.939453"/>
      <use xlink:href="#DejaVuSans-72" x="502.121094"/>
      <use xlink:href="#DejaVuSans-6d" x="541.484375"/>
      <use xlink:href="#DejaVuSans-61" x="638.896484"/>
      <use xlink:href="#DejaVuSans-74" x="700.175781"/>
      <use xlink:href="#DejaVuSans-69" x="739.384766"/>
      <use xlink:href="#DejaVuSans-6b" x="767.167969"/>
      <use xlink:href="#DejaVuSans-61" x="823.328125"/>
      <use xlink:href="#DejaVuSans-2e" x="884.607422"/>
      <use xlink:href="#DejaVuSans-68" x="916.394531"/>
      <use xlink:href="#DejaVuSans-72" x="979.773438"/>
     </g>
    </g>
    <g id="line2d_64">
     <path d="M 418.985536 750.609526 
L 428.985536 750.609526 
L 438.985536 750.609526 
" style="fill: none; stroke: #ff7f0e; stroke-width: 1.5; stroke-linecap: square"/>
    </g>
    <g id="text_61">
     <!-- links.hr -->
     <g transform="translate(446.985536 754.109526) scale(0.1 -0.1)">
      <use xlink:href="#DejaVuSans-6c"/>
      <use xlink:href="#DejaVuSans-69" x="27.783203"/>
      <use xlink:href="#DejaVuSans-6e" x="55.566406"/>
      <use xlink:href="#DejaVuSans-6b" x="118.945312"/>
      <use xlink:href="#DejaVuSans-73" x="176.855469"/>
      <use xlink:href="#DejaVuSans-2e" x="228.955078"/>
      <use xlink:href="#DejaVuSans-68" x="260.742188"/>
      <use xlink:href="#DejaVuSans-72" x="324.121094"/>
     </g>
    </g>
    <g id="line2d_65">
     <path d="M 418.985536 765.287651 
L 428.985536 765.287651 
L 438.985536 765.287651 
" style="fill: none; stroke: #2ca02c; stroke-width: 1.5; stroke-linecap: square"/>
    </g>
    <g id="text_62">
     <!-- mikronis.hr -->
     <g transform="translate(446.985536 768.787651) scale(0.1 -0.1)">
      <use xlink:href="#DejaVuSans-6d"/>
      <use xlink:href="#DejaVuSans-69" x="97.412109"/>
      <use xlink:href="#DejaVuSans-6b" x="125.195312"/>
      <use xlink:href="#DejaVuSans-72" x="183.105469"/>
      <use xlink:href="#DejaVuSans-6f" x="221.96875"/>
      <use xlink:href="#DejaVuSans-6e" x="283.150391"/>
      <use xlink:href="#DejaVuSans-69" x="346.529297"/>
      <use xlink:href="#DejaVuSans-73" x="374.3125"/>
      <use xlink:href="#DejaVuSans-2e" x="426.412109"/>
      <use xlink:href="#DejaVuSans-68" x="458.199219"/>
      <use xlink:href="#DejaVuSans-72" x="521.578125"/>
     </g>
    </g>
    <g id="line2d_66">
     <path d="M 418.985536 779.965776 
L 428.985536 779.965776 
L 438.985536 779.965776 
" style="fill: none; stroke: #d62728; stroke-width: 1.5; stroke-linecap: square"/>
    </g>
    <g id="text_63">
     <!-- nabava.net -->
     <g transform="translate(446.985536 783.465776) scale(0.1 -0.1)">
      <use xlink:href="#DejaVuSans-6e"/>
      <use xlink:href="#DejaVuSans-61" x="63.378906"/>
      <use xlink:href="#DejaVuSans-62" x="124.658203"/>
      <use xlink:href="#DejaVuSans-61" x="188.134766"/>
      <use xlink:href="#DejaVuSans-76" x="249.414062"/>
      <use xlink:href="#DejaVuSans-61" x="308.59375"/>
      <use xlink:href="#DejaVuSans-2e" x="369.873047"/>
      <use xlink:href="#DejaVuSans-6e" x="401.660156"/>
      <use xlink:href="#DejaVuSans-65" x="465.039062"/>
      <use xlink:href="#DejaVuSans-74" x="526.5625"/>
     </g>
    </g>
   </g>
  </g>
 </g>
 <defs>
  <clipPath id="p13c50263e8">
   <rect x="43.18" y="26.88" width="514.888349" height="198.865464"/>
  </clipPath>
  <clipPath id="pe3c62715b6">
   <rect x="43.18" y="311.28" width="514.888349" height="198.865464"/>
  </clipPath>
  <clipPath id="p0793484cf8">
   <rect x="43.18" y="595.68" width="514.888349" height="198.865464"/>
  </clipPath>
 </defs>
</svg>
